<svg xmlns="http://www.w3.org/2000/svg" xmlns:xlink="http://www.w3.org/1999/xlink" viewBox="0 0 512 512">
  <defs>
    <filter id="glow" x="-40%" y="-40%" width="180%" height="180%">
      <feGaussianBlur stdDeviation="4" result="blur"/>
      <feMerge>
        <feMergeNode in="blur"/>
        <feMergeNode in="SourceGraphic"/>
      </feMerge>
    </filter>
    
    <g id="spike">
      <line x1="0" y1="0" x2="0" y2="-75" stroke="#44aaff" stroke-width="9" stroke-linecap="round"/>
      <ellipse cx="-23" cy="-75" rx="30" ry="20" transform="rotate(-25,-23,-75)" fill="#44aaff"/>
    </g>
  </defs>

  <!-- Background -->
  <rect width="512" height="512" rx="88" fill="#0d0d14"/>

  <!-- Virus body fill -->
  <path d="M384.00,256.00 L384.39,256.56 L384.78,257.12 L385.17,257.69 L385.55,258.26 L385.93,258.84 L386.30,259.41 L386.67,259.99 L387.04,260.58 L387.40,261.16 L387.76,261.75 L388.11,262.35 L388.45,262.94 L388.79,263.54 L389.13,264.14 L389.45,264.75 L389.77,265.35 L390.09,265.96 L390.39,266.58 L390.69,267.19 L390.98,267.81 L391.27,268.43 L391.54,269.05 L391.81,269.68 L392.07,270.30 L392.32,270.93 L392.56,271.56 L392.79,272.19 L393.01,272.82 L393.22,273.46 L393.42,274.09 L393.61,274.73 L393.79,275.37 L393.96,276.00 L394.12,276.64 L394.27,277.28 L394.41,277.92 L394.54,278.56 L394.65,279.20 L394.76,279.84 L394.85,280.48 L394.93,281.12 L395.00,281.76 L395.05,282.40 L395.10,283.04 L395.13,283.68 L395.15,284.31 L395.16,284.95 L395.16,285.58 L395.14,286.21 L395.11,286.84 L395.07,287.47 L395.02,288.09 L394.95,288.72 L394.87,289.34 L394.78,289.96 L394.67,290.57 L394.56,291.19 L394.43,291.80 L394.28,292.41 L394.13,293.01 L393.96,293.61 L393.78,294.21 L393.59,294.80 L393.38,295.39 L393.16,295.98 L392.93,296.56 L392.69,297.14 L392.44,297.71 L392.17,298.28 L391.89,298.85 L391.60,299.41 L391.30,299.96 L390.99,300.51 L390.67,301.06 L390.33,301.60 L389.98,302.13 L389.63,302.66 L389.26,303.19 L388.88,303.71 L388.49,304.22 L388.09,304.73 L387.68,305.23 L387.26,305.73 L386.83,306.22 L386.39,306.71 L385.94,307.18 L385.48,307.66 L385.02,308.13 L384.54,308.59 L384.06,309.04 L383.56,309.49 L383.06,309.94 L382.56,310.37 L382.04,310.80 L381.52,311.23 L380.99,311.65 L380.45,312.06 L379.91,312.47 L379.36,312.87 L378.80,313.26 L378.24,313.65 L377.68,314.04 L377.11,314.41 L376.53,314.79 L375.95,315.15 L375.36,315.51 L374.77,315.87 L374.18,316.22 L373.58,316.56 L372.98,316.90 L372.38,317.23 L371.77,317.56 L371.16,317.88 L370.55,318.20 L369.94,318.51 L369.32,318.82 L368.71,319.12 L368.09,319.42 L367.47,319.71 L366.85,320.00 L366.23,320.29 L365.61,320.57 L364.99,320.84 L364.37,321.12 L363.75,321.39 L363.14,321.65 L362.52,321.92 L361.91,322.18 L361.29,322.43 L360.68,322.69 L360.07,322.94 L359.46,323.19 L358.86,323.44 L358.25,323.68 L357.66,323.92 L357.06,324.17 L356.47,324.40 L355.88,324.64 L355.29,324.88 L354.71,325.12 L354.13,325.35 L353.56,325.59 L352.99,325.82 L352.42,326.05 L351.86,326.29 L351.31,326.52 L350.75,326.76 L350.21,326.99 L349.67,327.23 L349.13,327.46 L348.61,327.70 L348.08,327.94 L347.56,328.18 L347.05,328.43 L346.54,328.67 L346.04,328.92 L345.55,329.16 L345.06,329.42 L344.58,329.67 L344.10,329.93 L343.63,330.19 L343.17,330.45 L342.71,330.72 L342.26,330.99 L341.82,331.26 L341.38,331.54 L340.95,331.82 L340.52,332.10 L340.10,332.39 L339.69,332.69 L339.28,332.99 L338.88,333.29 L338.49,333.60 L338.10,333.91 L337.72,334.23 L337.34,334.55 L336.98,334.88 L336.61,335.22 L336.25,335.56 L335.90,335.90 L335.56,336.25 L335.22,336.61 L334.88,336.98 L334.55,337.34 L334.23,337.72 L333.91,338.10 L333.60,338.49 L333.29,338.88 L332.99,339.28 L332.69,339.69 L332.39,340.10 L332.10,340.52 L331.82,340.95 L331.54,341.38 L331.26,341.82 L330.99,342.26 L330.72,342.71 L330.45,343.17 L330.19,343.63 L329.93,344.10 L329.67,344.58 L329.42,345.06 L329.16,345.55 L328.92,346.04 L328.67,346.54 L328.43,347.05 L328.18,347.56 L327.94,348.08 L327.70,348.61 L327.46,349.13 L327.23,349.67 L326.99,350.21 L326.76,350.75 L326.52,351.31 L326.29,351.86 L326.05,352.42 L325.82,352.99 L325.59,353.56 L325.35,354.13 L325.12,354.71 L324.88,355.29 L324.64,355.88 L324.40,356.47 L324.17,357.06 L323.92,357.66 L323.68,358.25 L323.44,358.86 L323.19,359.46 L322.94,360.07 L322.69,360.68 L322.43,361.29 L322.18,361.91 L321.92,362.52 L321.65,363.14 L321.39,363.75 L321.12,364.37 L320.84,364.99 L320.57,365.61 L320.29,366.23 L320.00,366.85 L319.71,367.47 L319.42,368.09 L319.12,368.71 L318.82,369.32 L318.51,369.94 L318.20,370.55 L317.88,371.16 L317.56,371.77 L317.23,372.38 L316.90,372.98 L316.56,373.58 L316.22,374.18 L315.87,374.77 L315.51,375.36 L315.15,375.95 L314.79,376.53 L314.41,377.11 L314.04,377.68 L313.65,378.24 L313.26,378.80 L312.87,379.36 L312.47,379.91 L312.06,380.45 L311.65,380.99 L311.23,381.52 L310.80,382.04 L310.37,382.56 L309.94,383.06 L309.49,383.56 L309.04,384.06 L308.59,384.54 L308.13,385.02 L307.66,385.48 L307.18,385.94 L306.71,386.39 L306.22,386.83 L305.73,387.26 L305.23,387.68 L304.73,388.09 L304.22,388.49 L303.71,388.88 L303.19,389.26 L302.66,389.63 L302.13,389.98 L301.60,390.33 L301.06,390.67 L300.51,390.99 L299.96,391.30 L299.41,391.60 L298.85,391.89 L298.28,392.17 L297.71,392.44 L297.14,392.69 L296.56,392.93 L295.98,393.16 L295.39,393.38 L294.80,393.59 L294.21,393.78 L293.61,393.96 L293.01,394.13 L292.41,394.28 L291.80,394.43 L291.19,394.56 L290.57,394.67 L289.96,394.78 L289.34,394.87 L288.72,394.95 L288.09,395.02 L287.47,395.07 L286.84,395.11 L286.21,395.14 L285.58,395.16 L284.95,395.16 L284.31,395.15 L283.68,395.13 L283.04,395.10 L282.40,395.05 L281.76,395.00 L281.12,394.93 L280.48,394.85 L279.84,394.76 L279.20,394.65 L278.56,394.54 L277.92,394.41 L277.28,394.27 L276.64,394.12 L276.00,393.96 L275.37,393.79 L274.73,393.61 L274.09,393.42 L273.46,393.22 L272.82,393.01 L272.19,392.79 L271.56,392.56 L270.93,392.32 L270.30,392.07 L269.68,391.81 L269.05,391.54 L268.43,391.27 L267.81,390.98 L267.19,390.69 L266.58,390.39 L265.96,390.09 L265.35,389.77 L264.75,389.45 L264.14,389.13 L263.54,388.79 L262.94,388.45 L262.35,388.11 L261.75,387.76 L261.16,387.40 L260.58,387.04 L259.99,386.67 L259.41,386.30 L258.84,385.93 L258.26,385.55 L257.69,385.17 L257.12,384.78 L256.56,384.39 L256.00,384.00 L255.44,383.61 L254.89,383.21 L254.34,382.81 L253.79,382.41 L253.25,382.01 L252.71,381.61 L252.17,381.21 L251.64,380.81 L251.11,380.40 L250.59,380.00 L250.06,379.60 L249.54,379.20 L249.03,378.80 L248.51,378.40 L248.00,378.00 L247.50,377.60 L246.99,377.21 L246.49,376.82 L245.99,376.43 L245.50,376.04 L245.00,375.66 L244.51,375.28 L244.03,374.90 L243.54,374.53 L243.06,374.16 L242.58,373.80 L242.10,373.44 L241.62,373.08 L241.15,372.73 L240.68,372.39 L240.21,372.05 L239.74,371.72 L239.27,371.39 L238.80,371.06 L238.34,370.75 L237.87,370.44 L237.41,370.13 L236.95,369.84 L236.49,369.55 L236.03,369.26 L235.57,368.99 L235.11,368.72 L234.65,368.45 L234.19,368.20 L233.73,367.95 L233.27,367.71 L232.81,367.47 L232.35,367.25 L231.89,367.03 L231.43,366.82 L230.97,366.62 L230.51,366.42 L230.04,366.24 L229.58,366.06 L229.11,365.89 L228.64,365.72 L228.17,365.57 L227.70,365.42 L227.23,365.28 L226.75,365.15 L226.28,365.03 L225.80,364.91 L225.31,364.80 L224.83,364.70 L224.34,364.61 L223.85,364.52 L223.36,364.45 L222.87,364.38 L222.37,364.31 L221.87,364.26 L221.36,364.21 L220.85,364.17 L220.34,364.13 L219.83,364.11 L219.31,364.08 L218.79,364.07 L218.26,364.06 L217.73,364.06 L217.20,364.06 L216.66,364.07 L216.12,364.09 L215.58,364.11 L215.03,364.14 L214.48,364.17 L213.92,364.21 L213.36,364.25 L212.80,364.29 L212.23,364.34 L211.65,364.40 L211.08,364.46 L210.49,364.52 L209.91,364.59 L209.32,364.65 L208.72,364.73 L208.13,364.80 L207.52,364.88 L206.92,364.96 L206.31,365.04 L205.69,365.12 L205.07,365.21 L204.45,365.30 L203.83,365.38 L203.20,365.47 L202.56,365.56 L201.93,365.65 L201.29,365.74 L200.64,365.83 L199.99,365.92 L199.34,366.01 L198.69,366.09 L198.03,366.18 L197.37,366.26 L196.71,366.35 L196.04,366.43 L195.38,366.50 L194.70,366.58 L194.03,366.65 L193.36,366.72 L192.68,366.79 L192.00,366.85 L191.32,366.91 L190.64,366.96 L189.95,367.02 L189.27,367.06 L188.58,367.10 L187.89,367.14 L187.21,367.17 L186.52,367.19 L185.83,367.21 L185.14,367.23 L184.45,367.24 L183.76,367.24 L183.07,367.23 L182.39,367.22 L181.70,367.20 L181.01,367.17 L180.33,367.14 L179.64,367.10 L178.96,367.05 L178.28,367.00 L177.60,366.93 L176.93,366.86 L176.25,366.78 L175.58,366.69 L174.91,366.59 L174.25,366.48 L173.59,366.37 L172.93,366.24 L172.27,366.11 L171.62,365.96 L170.97,365.81 L170.33,365.65 L169.69,365.48 L169.06,365.30 L168.43,365.11 L167.81,364.91 L167.19,364.70 L166.58,364.48 L165.97,364.24 L165.37,364.00 L164.78,363.75 L164.19,363.49 L163.61,363.22 L163.03,362.94 L162.47,362.65 L161.91,362.35 L161.35,362.04 L160.81,361.72 L160.27,361.39 L159.74,361.05 L159.21,360.70 L158.70,360.34 L158.19,359.97 L157.69,359.59 L157.20,359.21 L156.72,358.81 L156.25,358.40 L155.78,357.98 L155.33,357.55 L154.88,357.12 L154.45,356.67 L154.02,356.22 L153.60,355.75 L153.19,355.28 L152.79,354.80 L152.41,354.31 L152.03,353.81 L151.66,353.30 L151.30,352.79 L150.95,352.26 L150.61,351.73 L150.28,351.19 L149.96,350.65 L149.65,350.09 L149.35,349.53 L149.06,348.97 L148.78,348.39 L148.51,347.81 L148.25,347.22 L148.00,346.63 L147.76,346.03 L147.52,345.42 L147.30,344.81 L147.09,344.19 L146.89,343.57 L146.70,342.94 L146.52,342.31 L146.35,341.67 L146.19,341.03 L146.04,340.38 L145.89,339.73 L145.76,339.07 L145.63,338.41 L145.52,337.75 L145.41,337.09 L145.31,336.42 L145.22,335.75 L145.14,335.07 L145.07,334.40 L145.00,333.72 L144.95,333.04 L144.90,332.36 L144.86,331.67 L144.83,330.99 L144.80,330.30 L144.78,329.61 L144.77,328.93 L144.76,328.24 L144.76,327.55 L144.77,326.86 L144.79,326.17 L144.81,325.48 L144.83,324.79 L144.86,324.11 L144.90,323.42 L144.94,322.73 L144.98,322.05 L145.04,321.36 L145.09,320.68 L145.15,320.00 L145.21,319.32 L145.28,318.64 L145.35,317.97 L145.42,317.30 L145.50,316.62 L145.57,315.96 L145.65,315.29 L145.74,314.63 L145.82,313.97 L145.91,313.31 L145.99,312.66 L146.08,312.01 L146.17,311.36 L146.26,310.71 L146.35,310.07 L146.44,309.44 L146.53,308.80 L146.62,308.17 L146.70,307.55 L146.79,306.93 L146.88,306.31 L146.96,305.69 L147.04,305.08 L147.12,304.48 L147.20,303.87 L147.27,303.28 L147.35,302.68 L147.41,302.09 L147.48,301.51 L147.54,300.92 L147.60,300.35 L147.66,299.77 L147.71,299.20 L147.75,298.64 L147.79,298.08 L147.83,297.52 L147.86,296.97 L147.89,296.42 L147.91,295.88 L147.93,295.34 L147.94,294.80 L147.94,294.27 L147.94,293.74 L147.93,293.21 L147.92,292.69 L147.89,292.17 L147.87,291.66 L147.83,291.15 L147.79,290.64 L147.74,290.13 L147.69,289.63 L147.62,289.13 L147.55,288.64 L147.48,288.15 L147.39,287.66 L147.30,287.17 L147.20,286.69 L147.09,286.20 L146.97,285.72 L146.85,285.25 L146.72,284.77 L146.58,284.30 L146.43,283.83 L146.28,283.36 L146.11,282.89 L145.94,282.42 L145.76,281.96 L145.58,281.49 L145.38,281.03 L145.18,280.57 L144.97,280.11 L144.75,279.65 L144.53,279.19 L144.29,278.73 L144.05,278.27 L143.80,277.81 L143.55,277.35 L143.28,276.89 L143.01,276.43 L142.74,275.97 L142.45,275.51 L142.16,275.05 L141.87,274.59 L141.56,274.13 L141.25,273.66 L140.94,273.20 L140.61,272.73 L140.28,272.26 L139.95,271.79 L139.61,271.32 L139.27,270.85 L138.92,270.38 L138.56,269.90 L138.20,269.42 L137.84,268.94 L137.47,268.46 L137.10,267.97 L136.72,267.49 L136.34,267.00 L135.96,266.50 L135.57,266.01 L135.18,265.51 L134.79,265.01 L134.40,264.50 L134.00,264.00 L133.60,263.49 L133.20,262.97 L132.80,262.46 L132.40,261.94 L132.00,261.41 L131.60,260.89 L131.19,260.36 L130.79,259.83 L130.39,259.29 L129.99,258.75 L129.59,258.21 L129.19,257.66 L128.79,257.11 L128.39,256.56 L128.00,256.00 L127.61,255.44 L127.22,254.88 L126.83,254.31 L126.45,253.74 L126.07,253.16 L125.70,252.59 L125.33,252.01 L124.96,251.42 L124.60,250.84 L124.24,250.25 L123.89,249.65 L123.55,249.06 L123.21,248.46 L122.87,247.86 L122.55,247.25 L122.23,246.65 L121.91,246.04 L121.61,245.42 L121.31,244.81 L121.02,244.19 L120.73,243.57 L120.46,242.95 L120.19,242.32 L119.93,241.70 L119.68,241.07 L119.44,240.44 L119.21,239.81 L118.99,239.18 L118.78,238.54 L118.58,237.91 L118.39,237.27 L118.21,236.63 L118.04,236.00 L117.88,235.36 L117.73,234.72 L117.59,234.08 L117.46,233.44 L117.35,232.80 L117.24,232.16 L117.15,231.52 L117.07,230.88 L117.00,230.24 L116.95,229.60 L116.90,228.96 L116.87,228.32 L116.85,227.69 L116.84,227.05 L116.84,226.42 L116.86,225.79 L116.89,225.16 L116.93,224.53 L116.98,223.91 L117.05,223.28 L117.13,222.66 L117.22,222.04 L117.33,221.43 L117.44,220.81 L117.57,220.20 L117.72,219.59 L117.87,218.99 L118.04,218.39 L118.22,217.79 L118.41,217.20 L118.62,216.61 L118.84,216.02 L119.07,215.44 L119.31,214.86 L119.56,214.29 L119.83,213.72 L120.11,213.15 L120.40,212.59 L120.70,212.04 L121.01,211.49 L121.33,210.94 L121.67,210.40 L122.02,209.87 L122.37,209.34 L122.74,208.81 L123.12,208.29 L123.51,207.78 L123.91,207.27 L124.32,206.77 L124.74,206.27 L125.17,205.78 L125.61,205.29 L126.06,204.82 L126.52,204.34 L126.98,203.87 L127.46,203.41 L127.94,202.96 L128.44,202.51 L128.94,202.06 L129.44,201.63 L129.96,201.20 L130.48,200.77 L131.01,200.35 L131.55,199.94 L132.09,199.53 L132.64,199.13 L133.20,198.74 L133.76,198.35 L134.32,197.96 L134.89,197.59 L135.47,197.21 L136.05,196.85 L136.64,196.49 L137.23,196.13 L137.82,195.78 L138.42,195.44 L139.02,195.10 L139.62,194.77 L140.23,194.44 L140.84,194.12 L141.45,193.80 L142.06,193.49 L142.68,193.18 L143.29,192.88 L143.91,192.58 L144.53,192.29 L145.15,192.00 L145.77,191.71 L146.39,191.43 L147.01,191.16 L147.63,190.88 L148.25,190.61 L148.86,190.35 L149.48,190.08 L150.09,189.82 L150.71,189.57 L151.32,189.31 L151.93,189.06 L152.54,188.81 L153.14,188.56 L153.75,188.32 L154.34,188.08 L154.94,187.83 L155.53,187.60 L156.12,187.36 L156.71,187.12 L157.29,186.88 L157.87,186.65 L158.44,186.41 L159.01,186.18 L159.58,185.95 L160.14,185.71 L160.69,185.48 L161.25,185.24 L161.79,185.01 L162.33,184.77 L162.87,184.54 L163.39,184.30 L163.92,184.06 L164.44,183.82 L164.95,183.57 L165.46,183.33 L165.96,183.08 L166.45,182.84 L166.94,182.58 L167.42,182.33 L167.90,182.07 L168.37,181.81 L168.83,181.55 L169.29,181.28 L169.74,181.01 L170.18,180.74 L170.62,180.46 L171.05,180.18 L171.48,179.90 L171.90,179.61 L172.31,179.31 L172.72,179.01 L173.12,178.71 L173.51,178.40 L173.90,178.09 L174.28,177.77 L174.66,177.45 L175.02,177.12 L175.39,176.78 L175.75,176.44 L176.10,176.10 L176.44,175.75 L176.78,175.39 L177.12,175.02 L177.45,174.66 L177.77,174.28 L178.09,173.90 L178.40,173.51 L178.71,173.12 L179.01,172.72 L179.31,172.31 L179.61,171.90 L179.90,171.48 L180.18,171.05 L180.46,170.62 L180.74,170.18 L181.01,169.74 L181.28,169.29 L181.55,168.83 L181.81,168.37 L182.07,167.90 L182.33,167.42 L182.58,166.94 L182.84,166.45 L183.08,165.96 L183.33,165.46 L183.57,164.95 L183.82,164.44 L184.06,163.92 L184.30,163.39 L184.54,162.87 L184.77,162.33 L185.01,161.79 L185.24,161.25 L185.48,160.69 L185.71,160.14 L185.95,159.58 L186.18,159.01 L186.41,158.44 L186.65,157.87 L186.88,157.29 L187.12,156.71 L187.36,156.12 L187.60,155.53 L187.83,154.94 L188.08,154.34 L188.32,153.75 L188.56,153.14 L188.81,152.54 L189.06,151.93 L189.31,151.32 L189.57,150.71 L189.82,150.09 L190.08,149.48 L190.35,148.86 L190.61,148.25 L190.88,147.63 L191.16,147.01 L191.43,146.39 L191.71,145.77 L192.00,145.15 L192.29,144.53 L192.58,143.91 L192.88,143.29 L193.18,142.68 L193.49,142.06 L193.80,141.45 L194.12,140.84 L194.44,140.23 L194.77,139.62 L195.10,139.02 L195.44,138.42 L195.78,137.82 L196.13,137.23 L196.49,136.64 L196.85,136.05 L197.21,135.47 L197.59,134.89 L197.96,134.32 L198.35,133.76 L198.74,133.20 L199.13,132.64 L199.53,132.09 L199.94,131.55 L200.35,131.01 L200.77,130.48 L201.20,129.96 L201.63,129.44 L202.06,128.94 L202.51,128.44 L202.96,127.94 L203.41,127.46 L203.87,126.98 L204.34,126.52 L204.82,126.06 L205.29,125.61 L205.78,125.17 L206.27,124.74 L206.77,124.32 L207.27,123.91 L207.78,123.51 L208.29,123.12 L208.81,122.74 L209.34,122.37 L209.87,122.02 L210.40,121.67 L210.94,121.33 L211.49,121.01 L212.04,120.70 L212.59,120.40 L213.15,120.11 L213.72,119.83 L214.29,119.56 L214.86,119.31 L215.44,119.07 L216.02,118.84 L216.61,118.62 L217.20,118.41 L217.79,118.22 L218.39,118.04 L218.99,117.87 L219.59,117.72 L220.20,117.57 L220.81,117.44 L221.43,117.33 L222.04,117.22 L222.66,117.13 L223.28,117.05 L223.91,116.98 L224.53,116.93 L225.16,116.89 L225.79,116.86 L226.42,116.84 L227.05,116.84 L227.69,116.85 L228.32,116.87 L228.96,116.90 L229.60,116.95 L230.24,117.00 L230.88,117.07 L231.52,117.15 L232.16,117.24 L232.80,117.35 L233.44,117.46 L234.08,117.59 L234.72,117.73 L235.36,117.88 L236.00,118.04 L236.63,118.21 L237.27,118.39 L237.91,118.58 L238.54,118.78 L239.18,118.99 L239.81,119.21 L240.44,119.44 L241.07,119.68 L241.70,119.93 L242.32,120.19 L242.95,120.46 L243.57,120.73 L244.19,121.02 L244.81,121.31 L245.42,121.61 L246.04,121.91 L246.65,122.23 L247.25,122.55 L247.86,122.87 L248.46,123.21 L249.06,123.55 L249.65,123.89 L250.25,124.24 L250.84,124.60 L251.42,124.96 L252.01,125.33 L252.59,125.70 L253.16,126.07 L253.74,126.45 L254.31,126.83 L254.88,127.22 L255.44,127.61 L256.00,128.00 L256.56,128.39 L257.11,128.79 L257.66,129.19 L258.21,129.59 L258.75,129.99 L259.29,130.39 L259.83,130.79 L260.36,131.19 L260.89,131.60 L261.41,132.00 L261.94,132.40 L262.46,132.80 L262.97,133.20 L263.49,133.60 L264.00,134.00 L264.50,134.40 L265.01,134.79 L265.51,135.18 L266.01,135.57 L266.50,135.96 L267.00,136.34 L267.49,136.72 L267.97,137.10 L268.46,137.47 L268.94,137.84 L269.42,138.20 L269.90,138.56 L270.38,138.92 L270.85,139.27 L271.32,139.61 L271.79,139.95 L272.26,140.28 L272.73,140.61 L273.20,140.94 L273.66,141.25 L274.13,141.56 L274.59,141.87 L275.05,142.16 L275.51,142.45 L275.97,142.74 L276.43,143.01 L276.89,143.28 L277.35,143.55 L277.81,143.80 L278.27,144.05 L278.73,144.29 L279.19,144.53 L279.65,144.75 L280.11,144.97 L280.57,145.18 L281.03,145.38 L281.49,145.58 L281.96,145.76 L282.42,145.94 L282.89,146.11 L283.36,146.28 L283.83,146.43 L284.30,146.58 L284.77,146.72 L285.25,146.85 L285.72,146.97 L286.20,147.09 L286.69,147.20 L287.17,147.30 L287.66,147.39 L288.15,147.48 L288.64,147.55 L289.13,147.62 L289.63,147.69 L290.13,147.74 L290.64,147.79 L291.15,147.83 L291.66,147.87 L292.17,147.89 L292.69,147.92 L293.21,147.93 L293.74,147.94 L294.27,147.94 L294.80,147.94 L295.34,147.93 L295.88,147.91 L296.42,147.89 L296.97,147.86 L297.52,147.83 L298.08,147.79 L298.64,147.75 L299.20,147.71 L299.77,147.66 L300.35,147.60 L300.92,147.54 L301.51,147.48 L302.09,147.41 L302.68,147.35 L303.28,147.27 L303.87,147.20 L304.48,147.12 L305.08,147.04 L305.69,146.96 L306.31,146.88 L306.93,146.79 L307.55,146.70 L308.17,146.62 L308.80,146.53 L309.44,146.44 L310.07,146.35 L310.71,146.26 L311.36,146.17 L312.01,146.08 L312.66,145.99 L313.31,145.91 L313.97,145.82 L314.63,145.74 L315.29,145.65 L315.96,145.57 L316.62,145.50 L317.30,145.42 L317.97,145.35 L318.64,145.28 L319.32,145.21 L320.00,145.15 L320.68,145.09 L321.36,145.04 L322.05,144.98 L322.73,144.94 L323.42,144.90 L324.11,144.86 L324.79,144.83 L325.48,144.81 L326.17,144.79 L326.86,144.77 L327.55,144.76 L328.24,144.76 L328.93,144.77 L329.61,144.78 L330.30,144.80 L330.99,144.83 L331.67,144.86 L332.36,144.90 L333.04,144.95 L333.72,145.00 L334.40,145.07 L335.07,145.14 L335.75,145.22 L336.42,145.31 L337.09,145.41 L337.75,145.52 L338.41,145.63 L339.07,145.76 L339.73,145.89 L340.38,146.04 L341.03,146.19 L341.67,146.35 L342.31,146.52 L342.94,146.70 L343.57,146.89 L344.19,147.09 L344.81,147.30 L345.42,147.52 L346.03,147.76 L346.63,148.00 L347.22,148.25 L347.81,148.51 L348.39,148.78 L348.97,149.06 L349.53,149.35 L350.09,149.65 L350.65,149.96 L351.19,150.28 L351.73,150.61 L352.26,150.95 L352.79,151.30 L353.30,151.66 L353.81,152.03 L354.31,152.41 L354.80,152.79 L355.28,153.19 L355.75,153.60 L356.22,154.02 L356.67,154.45 L357.12,154.88 L357.55,155.33 L357.98,155.78 L358.40,156.25 L358.81,156.72 L359.21,157.20 L359.59,157.69 L359.97,158.19 L360.34,158.70 L360.70,159.21 L361.05,159.74 L361.39,160.27 L361.72,160.81 L362.04,161.35 L362.35,161.91 L362.65,162.47 L362.94,163.03 L363.22,163.61 L363.49,164.19 L363.75,164.78 L364.00,165.37 L364.24,165.97 L364.48,166.58 L364.70,167.19 L364.91,167.81 L365.11,168.43 L365.30,169.06 L365.48,169.69 L365.65,170.33 L365.81,170.97 L365.96,171.62 L366.11,172.27 L366.24,172.93 L366.37,173.59 L366.48,174.25 L366.59,174.91 L366.69,175.58 L366.78,176.25 L366.86,176.93 L366.93,177.60 L367.00,178.28 L367.05,178.96 L367.10,179.64 L367.14,180.33 L367.17,181.01 L367.20,181.70 L367.22,182.39 L367.23,183.07 L367.24,183.76 L367.24,184.45 L367.23,185.14 L367.21,185.83 L367.19,186.52 L367.17,187.21 L367.14,187.89 L367.10,188.58 L367.06,189.27 L367.02,189.95 L366.96,190.64 L366.91,191.32 L366.85,192.00 L366.79,192.68 L366.72,193.36 L366.65,194.03 L366.58,194.70 L366.50,195.38 L366.43,196.04 L366.35,196.71 L366.26,197.37 L366.18,198.03 L366.09,198.69 L366.01,199.34 L365.92,199.99 L365.83,200.64 L365.74,201.29 L365.65,201.93 L365.56,202.56 L365.47,203.20 L365.38,203.83 L365.30,204.45 L365.21,205.07 L365.12,205.69 L365.04,206.31 L364.96,206.92 L364.88,207.52 L364.80,208.13 L364.73,208.72 L364.65,209.32 L364.59,209.91 L364.52,210.49 L364.46,211.08 L364.40,211.65 L364.34,212.23 L364.29,212.80 L364.25,213.36 L364.21,213.92 L364.17,214.48 L364.14,215.03 L364.11,215.58 L364.09,216.12 L364.07,216.66 L364.06,217.20 L364.06,217.73 L364.06,218.26 L364.07,218.79 L364.08,219.31 L364.11,219.83 L364.13,220.34 L364.17,220.85 L364.21,221.36 L364.26,221.87 L364.31,222.37 L364.38,222.87 L364.45,223.36 L364.52,223.85 L364.61,224.34 L364.70,224.83 L364.80,225.31 L364.91,225.80 L365.03,226.28 L365.15,226.75 L365.28,227.23 L365.42,227.70 L365.57,228.17 L365.72,228.64 L365.89,229.11 L366.06,229.58 L366.24,230.04 L366.42,230.51 L366.62,230.97 L366.82,231.43 L367.03,231.89 L367.25,232.35 L367.47,232.81 L367.71,233.27 L367.95,233.73 L368.20,234.19 L368.45,234.65 L368.72,235.11 L368.99,235.57 L369.26,236.03 L369.55,236.49 L369.84,236.95 L370.13,237.41 L370.44,237.87 L370.75,238.34 L371.06,238.80 L371.39,239.27 L371.72,239.74 L372.05,240.21 L372.39,240.68 L372.73,241.15 L373.08,241.62 L373.44,242.10 L373.80,242.58 L374.16,243.06 L374.53,243.54 L374.90,244.03 L375.28,244.51 L375.66,245.00 L376.04,245.50 L376.43,245.99 L376.82,246.49 L377.21,246.99 L377.60,247.50 L378.00,248.00 L378.40,248.51 L378.80,249.03 L379.20,249.54 L379.60,250.06 L380.00,250.59 L380.40,251.11 L380.81,251.64 L381.21,252.17 L381.61,252.71 L382.01,253.25 L382.41,253.79 L382.81,254.34 L383.21,254.89 L383.61,255.44 L384.00,256.00 Z" fill="#04111c" stroke="none"/>

  <!-- Circular stave — 5 neon-orange rings drawn after fill so inner rings
       show against the dark virus body; outer rings show on the background -->
  <circle cx="256" cy="256" r="60" fill="none" stroke="#ff7722" stroke-width="3.5" opacity="0.70"/>
  <circle cx="256" cy="256" r="108" fill="none" stroke="#ff7722" stroke-width="3.5" opacity="0.70"/>
  <circle cx="256" cy="256" r="156" fill="none" stroke="#ff7722" stroke-width="3.5" opacity="0.70"/>
  <circle cx="256" cy="256" r="204" fill="none" stroke="#ff7722" stroke-width="3.5" opacity="0.70"/>
  <circle cx="256" cy="256" r="252" fill="none" stroke="#ff7722" stroke-width="3.5" opacity="0.70"/>

  <!-- Downward-pointing white triangle; V-sides bolder than top edge -->
  <polygon points="212.0,211.0 300.0,211.0 256,346" fill="none" stroke="white" stroke-width="3" stroke-linejoin="round"/>
  <line x1="212.0" y1="211.0" x2="256" y2="346" stroke="white" stroke-width="18" stroke-linecap="round"/>
  <line x1="300.0" y1="211.0" x2="256" y2="346" stroke="white" stroke-width="18" stroke-linecap="round"/>

  <!-- 4 quaver spikes radiating toward the four corners -->
  <g filter="url(#glow)">
    <use xlink:href="#spike" href="#spike" transform="translate(346.5,165.5) rotate(45)"/>
    <use xlink:href="#spike" href="#spike" transform="translate(346.5,346.5) rotate(135)"/>
    <use xlink:href="#spike" href="#spike" transform="translate(165.5,346.5) rotate(225)"/>
    <use xlink:href="#spike" href="#spike" transform="translate(165.5,165.5) rotate(315)"/>
  </g>

  <!-- Oscillating boundary — bold cyan with glow -->
  <path d="M384.00,256.00 L384.39,256.56 L384.78,257.12 L385.17,257.69 L385.55,258.26 L385.93,258.84 L386.30,259.41 L386.67,259.99 L387.04,260.58 L387.40,261.16 L387.76,261.75 L388.11,262.35 L388.45,262.94 L388.79,263.54 L389.13,264.14 L389.45,264.75 L389.77,265.35 L390.09,265.96 L390.39,266.58 L390.69,267.19 L390.98,267.81 L391.27,268.43 L391.54,269.05 L391.81,269.68 L392.07,270.30 L392.32,270.93 L392.56,271.56 L392.79,272.19 L393.01,272.82 L393.22,273.46 L393.42,274.09 L393.61,274.73 L393.79,275.37 L393.96,276.00 L394.12,276.64 L394.27,277.28 L394.41,277.92 L394.54,278.56 L394.65,279.20 L394.76,279.84 L394.85,280.48 L394.93,281.12 L395.00,281.76 L395.05,282.40 L395.10,283.04 L395.13,283.68 L395.15,284.31 L395.16,284.95 L395.16,285.58 L395.14,286.21 L395.11,286.84 L395.07,287.47 L395.02,288.09 L394.95,288.72 L394.87,289.34 L394.78,289.96 L394.67,290.57 L394.56,291.19 L394.43,291.80 L394.28,292.41 L394.13,293.01 L393.96,293.61 L393.78,294.21 L393.59,294.80 L393.38,295.39 L393.16,295.98 L392.93,296.56 L392.69,297.14 L392.44,297.71 L392.17,298.28 L391.89,298.85 L391.60,299.41 L391.30,299.96 L390.99,300.51 L390.67,301.06 L390.33,301.60 L389.98,302.13 L389.63,302.66 L389.26,303.19 L388.88,303.71 L388.49,304.22 L388.09,304.73 L387.68,305.23 L387.26,305.73 L386.83,306.22 L386.39,306.71 L385.94,307.18 L385.48,307.66 L385.02,308.13 L384.54,308.59 L384.06,309.04 L383.56,309.49 L383.06,309.94 L382.56,310.37 L382.04,310.80 L381.52,311.23 L380.99,311.65 L380.45,312.06 L379.91,312.47 L379.36,312.87 L378.80,313.26 L378.24,313.65 L377.68,314.04 L377.11,314.41 L376.53,314.79 L375.95,315.15 L375.36,315.51 L374.77,315.87 L374.18,316.22 L373.58,316.56 L372.98,316.90 L372.38,317.23 L371.77,317.56 L371.16,317.88 L370.55,318.20 L369.94,318.51 L369.32,318.82 L368.71,319.12 L368.09,319.42 L367.47,319.71 L366.85,320.00 L366.23,320.29 L365.61,320.57 L364.99,320.84 L364.37,321.12 L363.75,321.39 L363.14,321.65 L362.52,321.92 L361.91,322.18 L361.29,322.43 L360.68,322.69 L360.07,322.94 L359.46,323.19 L358.86,323.44 L358.25,323.68 L357.66,323.92 L357.06,324.17 L356.47,324.40 L355.88,324.64 L355.29,324.88 L354.71,325.12 L354.13,325.35 L353.56,325.59 L352.99,325.82 L352.42,326.05 L351.86,326.29 L351.31,326.52 L350.75,326.76 L350.21,326.99 L349.67,327.23 L349.13,327.46 L348.61,327.70 L348.08,327.94 L347.56,328.18 L347.05,328.43 L346.54,328.67 L346.04,328.92 L345.55,329.16 L345.06,329.42 L344.58,329.67 L344.10,329.93 L343.63,330.19 L343.17,330.45 L342.71,330.72 L342.26,330.99 L341.82,331.26 L341.38,331.54 L340.95,331.82 L340.52,332.10 L340.10,332.39 L339.69,332.69 L339.28,332.99 L338.88,333.29 L338.49,333.60 L338.10,333.91 L337.72,334.23 L337.34,334.55 L336.98,334.88 L336.61,335.22 L336.25,335.56 L335.90,335.90 L335.56,336.25 L335.22,336.61 L334.88,336.98 L334.55,337.34 L334.23,337.72 L333.91,338.10 L333.60,338.49 L333.29,338.88 L332.99,339.28 L332.69,339.69 L332.39,340.10 L332.10,340.52 L331.82,340.95 L331.54,341.38 L331.26,341.82 L330.99,342.26 L330.72,342.71 L330.45,343.17 L330.19,343.63 L329.93,344.10 L329.67,344.58 L329.42,345.06 L329.16,345.55 L328.92,346.04 L328.67,346.54 L328.43,347.05 L328.18,347.56 L327.94,348.08 L327.70,348.61 L327.46,349.13 L327.23,349.67 L326.99,350.21 L326.76,350.75 L326.52,351.31 L326.29,351.86 L326.05,352.42 L325.82,352.99 L325.59,353.56 L325.35,354.13 L325.12,354.71 L324.88,355.29 L324.64,355.88 L324.40,356.47 L324.17,357.06 L323.92,357.66 L323.68,358.25 L323.44,358.86 L323.19,359.46 L322.94,360.07 L322.69,360.68 L322.43,361.29 L322.18,361.91 L321.92,362.52 L321.65,363.14 L321.39,363.75 L321.12,364.37 L320.84,364.99 L320.57,365.61 L320.29,366.23 L320.00,366.85 L319.71,367.47 L319.42,368.09 L319.12,368.71 L318.82,369.32 L318.51,369.94 L318.20,370.55 L317.88,371.16 L317.56,371.77 L317.23,372.38 L316.90,372.98 L316.56,373.58 L316.22,374.18 L315.87,374.77 L315.51,375.36 L315.15,375.95 L314.79,376.53 L314.41,377.11 L314.04,377.68 L313.65,378.24 L313.26,378.80 L312.87,379.36 L312.47,379.91 L312.06,380.45 L311.65,380.99 L311.23,381.52 L310.80,382.04 L310.37,382.56 L309.94,383.06 L309.49,383.56 L309.04,384.06 L308.59,384.54 L308.13,385.02 L307.66,385.48 L307.18,385.94 L306.71,386.39 L306.22,386.83 L305.73,387.26 L305.23,387.68 L304.73,388.09 L304.22,388.49 L303.71,388.88 L303.19,389.26 L302.66,389.63 L302.13,389.98 L301.60,390.33 L301.06,390.67 L300.51,390.99 L299.96,391.30 L299.41,391.60 L298.85,391.89 L298.28,392.17 L297.71,392.44 L297.14,392.69 L296.56,392.93 L295.98,393.16 L295.39,393.38 L294.80,393.59 L294.21,393.78 L293.61,393.96 L293.01,394.13 L292.41,394.28 L291.80,394.43 L291.19,394.56 L290.57,394.67 L289.96,394.78 L289.34,394.87 L288.72,394.95 L288.09,395.02 L287.47,395.07 L286.84,395.11 L286.21,395.14 L285.58,395.16 L284.95,395.16 L284.31,395.15 L283.68,395.13 L283.04,395.10 L282.40,395.05 L281.76,395.00 L281.12,394.93 L280.48,394.85 L279.84,394.76 L279.20,394.65 L278.56,394.54 L277.92,394.41 L277.28,394.27 L276.64,394.12 L276.00,393.96 L275.37,393.79 L274.73,393.61 L274.09,393.42 L273.46,393.22 L272.82,393.01 L272.19,392.79 L271.56,392.56 L270.93,392.32 L270.30,392.07 L269.68,391.81 L269.05,391.54 L268.43,391.27 L267.81,390.98 L267.19,390.69 L266.58,390.39 L265.96,390.09 L265.35,389.77 L264.75,389.45 L264.14,389.13 L263.54,388.79 L262.94,388.45 L262.35,388.11 L261.75,387.76 L261.16,387.40 L260.58,387.04 L259.99,386.67 L259.41,386.30 L258.84,385.93 L258.26,385.55 L257.69,385.17 L257.12,384.78 L256.56,384.39 L256.00,384.00 L255.44,383.61 L254.89,383.21 L254.34,382.81 L253.79,382.41 L253.25,382.01 L252.71,381.61 L252.17,381.21 L251.64,380.81 L251.11,380.40 L250.59,380.00 L250.06,379.60 L249.54,379.20 L249.03,378.80 L248.51,378.40 L248.00,378.00 L247.50,377.60 L246.99,377.21 L246.49,376.82 L245.99,376.43 L245.50,376.04 L245.00,375.66 L244.51,375.28 L244.03,374.90 L243.54,374.53 L243.06,374.16 L242.58,373.80 L242.10,373.44 L241.62,373.08 L241.15,372.73 L240.68,372.39 L240.21,372.05 L239.74,371.72 L239.27,371.39 L238.80,371.06 L238.34,370.75 L237.87,370.44 L237.41,370.13 L236.95,369.84 L236.49,369.55 L236.03,369.26 L235.57,368.99 L235.11,368.72 L234.65,368.45 L234.19,368.20 L233.73,367.95 L233.27,367.71 L232.81,367.47 L232.35,367.25 L231.89,367.03 L231.43,366.82 L230.97,366.62 L230.51,366.42 L230.04,366.24 L229.58,366.06 L229.11,365.89 L228.64,365.72 L228.17,365.57 L227.70,365.42 L227.23,365.28 L226.75,365.15 L226.28,365.03 L225.80,364.91 L225.31,364.80 L224.83,364.70 L224.34,364.61 L223.85,364.52 L223.36,364.45 L222.87,364.38 L222.37,364.31 L221.87,364.26 L221.36,364.21 L220.85,364.17 L220.34,364.13 L219.83,364.11 L219.31,364.08 L218.79,364.07 L218.26,364.06 L217.73,364.06 L217.20,364.06 L216.66,364.07 L216.12,364.09 L215.58,364.11 L215.03,364.14 L214.48,364.17 L213.92,364.21 L213.36,364.25 L212.80,364.29 L212.23,364.34 L211.65,364.40 L211.08,364.46 L210.49,364.52 L209.91,364.59 L209.32,364.65 L208.72,364.73 L208.13,364.80 L207.52,364.88 L206.92,364.96 L206.31,365.04 L205.69,365.12 L205.07,365.21 L204.45,365.30 L203.83,365.38 L203.20,365.47 L202.56,365.56 L201.93,365.65 L201.29,365.74 L200.64,365.83 L199.99,365.92 L199.34,366.01 L198.69,366.09 L198.03,366.18 L197.37,366.26 L196.71,366.35 L196.04,366.43 L195.38,366.50 L194.70,366.58 L194.03,366.65 L193.36,366.72 L192.68,366.79 L192.00,366.85 L191.32,366.91 L190.64,366.96 L189.95,367.02 L189.27,367.06 L188.58,367.10 L187.89,367.14 L187.21,367.17 L186.52,367.19 L185.83,367.21 L185.14,367.23 L184.45,367.24 L183.76,367.24 L183.07,367.23 L182.39,367.22 L181.70,367.20 L181.01,367.17 L180.33,367.14 L179.64,367.10 L178.96,367.05 L178.28,367.00 L177.60,366.93 L176.93,366.86 L176.25,366.78 L175.58,366.69 L174.91,366.59 L174.25,366.48 L173.59,366.37 L172.93,366.24 L172.27,366.11 L171.62,365.96 L170.97,365.81 L170.33,365.65 L169.69,365.48 L169.06,365.30 L168.43,365.11 L167.81,364.91 L167.19,364.70 L166.58,364.48 L165.97,364.24 L165.37,364.00 L164.78,363.75 L164.19,363.49 L163.61,363.22 L163.03,362.94 L162.47,362.65 L161.91,362.35 L161.35,362.04 L160.81,361.72 L160.27,361.39 L159.74,361.05 L159.21,360.70 L158.70,360.34 L158.19,359.97 L157.69,359.59 L157.20,359.21 L156.72,358.81 L156.25,358.40 L155.78,357.98 L155.33,357.55 L154.88,357.12 L154.45,356.67 L154.02,356.22 L153.60,355.75 L153.19,355.28 L152.79,354.80 L152.41,354.31 L152.03,353.81 L151.66,353.30 L151.30,352.79 L150.95,352.26 L150.61,351.73 L150.28,351.19 L149.96,350.65 L149.65,350.09 L149.35,349.53 L149.06,348.97 L148.78,348.39 L148.51,347.81 L148.25,347.22 L148.00,346.63 L147.76,346.03 L147.52,345.42 L147.30,344.81 L147.09,344.19 L146.89,343.57 L146.70,342.94 L146.52,342.31 L146.35,341.67 L146.19,341.03 L146.04,340.38 L145.89,339.73 L145.76,339.07 L145.63,338.41 L145.52,337.75 L145.41,337.09 L145.31,336.42 L145.22,335.75 L145.14,335.07 L145.07,334.40 L145.00,333.72 L144.95,333.04 L144.90,332.36 L144.86,331.67 L144.83,330.99 L144.80,330.30 L144.78,329.61 L144.77,328.93 L144.76,328.24 L144.76,327.55 L144.77,326.86 L144.79,326.17 L144.81,325.48 L144.83,324.79 L144.86,324.11 L144.90,323.42 L144.94,322.73 L144.98,322.05 L145.04,321.36 L145.09,320.68 L145.15,320.00 L145.21,319.32 L145.28,318.64 L145.35,317.97 L145.42,317.30 L145.50,316.62 L145.57,315.96 L145.65,315.29 L145.74,314.63 L145.82,313.97 L145.91,313.31 L145.99,312.66 L146.08,312.01 L146.17,311.36 L146.26,310.71 L146.35,310.07 L146.44,309.44 L146.53,308.80 L146.62,308.17 L146.70,307.55 L146.79,306.93 L146.88,306.31 L146.96,305.69 L147.04,305.08 L147.12,304.48 L147.20,303.87 L147.27,303.28 L147.35,302.68 L147.41,302.09 L147.48,301.51 L147.54,300.92 L147.60,300.35 L147.66,299.77 L147.71,299.20 L147.75,298.64 L147.79,298.08 L147.83,297.52 L147.86,296.97 L147.89,296.42 L147.91,295.88 L147.93,295.34 L147.94,294.80 L147.94,294.27 L147.94,293.74 L147.93,293.21 L147.92,292.69 L147.89,292.17 L147.87,291.66 L147.83,291.15 L147.79,290.64 L147.74,290.13 L147.69,289.63 L147.62,289.13 L147.55,288.64 L147.48,288.15 L147.39,287.66 L147.30,287.17 L147.20,286.69 L147.09,286.20 L146.97,285.72 L146.85,285.25 L146.72,284.77 L146.58,284.30 L146.43,283.83 L146.28,283.36 L146.11,282.89 L145.94,282.42 L145.76,281.96 L145.58,281.49 L145.38,281.03 L145.18,280.57 L144.97,280.11 L144.75,279.65 L144.53,279.19 L144.29,278.73 L144.05,278.27 L143.80,277.81 L143.55,277.35 L143.28,276.89 L143.01,276.43 L142.74,275.97 L142.45,275.51 L142.16,275.05 L141.87,274.59 L141.56,274.13 L141.25,273.66 L140.94,273.20 L140.61,272.73 L140.28,272.26 L139.95,271.79 L139.61,271.32 L139.27,270.85 L138.92,270.38 L138.56,269.90 L138.20,269.42 L137.84,268.94 L137.47,268.46 L137.10,267.97 L136.72,267.49 L136.34,267.00 L135.96,266.50 L135.57,266.01 L135.18,265.51 L134.79,265.01 L134.40,264.50 L134.00,264.00 L133.60,263.49 L133.20,262.97 L132.80,262.46 L132.40,261.94 L132.00,261.41 L131.60,260.89 L131.19,260.36 L130.79,259.83 L130.39,259.29 L129.99,258.75 L129.59,258.21 L129.19,257.66 L128.79,257.11 L128.39,256.56 L128.00,256.00 L127.61,255.44 L127.22,254.88 L126.83,254.31 L126.45,253.74 L126.07,253.16 L125.70,252.59 L125.33,252.01 L124.96,251.42 L124.60,250.84 L124.24,250.25 L123.89,249.65 L123.55,249.06 L123.21,248.46 L122.87,247.86 L122.55,247.25 L122.23,246.65 L121.91,246.04 L121.61,245.42 L121.31,244.81 L121.02,244.19 L120.73,243.57 L120.46,242.95 L120.19,242.32 L119.93,241.70 L119.68,241.07 L119.44,240.44 L119.21,239.81 L118.99,239.18 L118.78,238.54 L118.58,237.91 L118.39,237.27 L118.21,236.63 L118.04,236.00 L117.88,235.36 L117.73,234.72 L117.59,234.08 L117.46,233.44 L117.35,232.80 L117.24,232.16 L117.15,231.52 L117.07,230.88 L117.00,230.24 L116.95,229.60 L116.90,228.96 L116.87,228.32 L116.85,227.69 L116.84,227.05 L116.84,226.42 L116.86,225.79 L116.89,225.16 L116.93,224.53 L116.98,223.91 L117.05,223.28 L117.13,222.66 L117.22,222.04 L117.33,221.43 L117.44,220.81 L117.57,220.20 L117.72,219.59 L117.87,218.99 L118.04,218.39 L118.22,217.79 L118.41,217.20 L118.62,216.61 L118.84,216.02 L119.07,215.44 L119.31,214.86 L119.56,214.29 L119.83,213.72 L120.11,213.15 L120.40,212.59 L120.70,212.04 L121.01,211.49 L121.33,210.94 L121.67,210.40 L122.02,209.87 L122.37,209.34 L122.74,208.81 L123.12,208.29 L123.51,207.78 L123.91,207.27 L124.32,206.77 L124.74,206.27 L125.17,205.78 L125.61,205.29 L126.06,204.82 L126.52,204.34 L126.98,203.87 L127.46,203.41 L127.94,202.96 L128.44,202.51 L128.94,202.06 L129.44,201.63 L129.96,201.20 L130.48,200.77 L131.01,200.35 L131.55,199.94 L132.09,199.53 L132.64,199.13 L133.20,198.74 L133.76,198.35 L134.32,197.96 L134.89,197.59 L135.47,197.21 L136.05,196.85 L136.64,196.49 L137.23,196.13 L137.82,195.78 L138.42,195.44 L139.02,195.10 L139.62,194.77 L140.23,194.44 L140.84,194.12 L141.45,193.80 L142.06,193.49 L142.68,193.18 L143.29,192.88 L143.91,192.58 L144.53,192.29 L145.15,192.00 L145.77,191.71 L146.39,191.43 L147.01,191.16 L147.63,190.88 L148.25,190.61 L148.86,190.35 L149.48,190.08 L150.09,189.82 L150.71,189.57 L151.32,189.31 L151.93,189.06 L152.54,188.81 L153.14,188.56 L153.75,188.32 L154.34,188.08 L154.94,187.83 L155.53,187.60 L156.12,187.36 L156.71,187.12 L157.29,186.88 L157.87,186.65 L158.44,186.41 L159.01,186.18 L159.58,185.95 L160.14,185.71 L160.69,185.48 L161.25,185.24 L161.79,185.01 L162.33,184.77 L162.87,184.54 L163.39,184.30 L163.92,184.06 L164.44,183.82 L164.95,183.57 L165.46,183.33 L165.96,183.08 L166.45,182.84 L166.94,182.58 L167.42,182.33 L167.90,182.07 L168.37,181.81 L168.83,181.55 L169.29,181.28 L169.74,181.01 L170.18,180.74 L170.62,180.46 L171.05,180.18 L171.48,179.90 L171.90,179.61 L172.31,179.31 L172.72,179.01 L173.12,178.71 L173.51,178.40 L173.90,178.09 L174.28,177.77 L174.66,177.45 L175.02,177.12 L175.39,176.78 L175.75,176.44 L176.10,176.10 L176.44,175.75 L176.78,175.39 L177.12,175.02 L177.45,174.66 L177.77,174.28 L178.09,173.90 L178.40,173.51 L178.71,173.12 L179.01,172.72 L179.31,172.31 L179.61,171.90 L179.90,171.48 L180.18,171.05 L180.46,170.62 L180.74,170.18 L181.01,169.74 L181.28,169.29 L181.55,168.83 L181.81,168.37 L182.07,167.90 L182.33,167.42 L182.58,166.94 L182.84,166.45 L183.08,165.96 L183.33,165.46 L183.57,164.95 L183.82,164.44 L184.06,163.92 L184.30,163.39 L184.54,162.87 L184.77,162.33 L185.01,161.79 L185.24,161.25 L185.48,160.69 L185.71,160.14 L185.95,159.58 L186.18,159.01 L186.41,158.44 L186.65,157.87 L186.88,157.29 L187.12,156.71 L187.36,156.12 L187.60,155.53 L187.83,154.94 L188.08,154.34 L188.32,153.75 L188.56,153.14 L188.81,152.54 L189.06,151.93 L189.31,151.32 L189.57,150.71 L189.82,150.09 L190.08,149.48 L190.35,148.86 L190.61,148.25 L190.88,147.63 L191.16,147.01 L191.43,146.39 L191.71,145.77 L192.00,145.15 L192.29,144.53 L192.58,143.91 L192.88,143.29 L193.18,142.68 L193.49,142.06 L193.80,141.45 L194.12,140.84 L194.44,140.23 L194.77,139.62 L195.10,139.02 L195.44,138.42 L195.78,137.82 L196.13,137.23 L196.49,136.64 L196.85,136.05 L197.21,135.47 L197.59,134.89 L197.96,134.32 L198.35,133.76 L198.74,133.20 L199.13,132.64 L199.53,132.09 L199.94,131.55 L200.35,131.01 L200.77,130.48 L201.20,129.96 L201.63,129.44 L202.06,128.94 L202.51,128.44 L202.96,127.94 L203.41,127.46 L203.87,126.98 L204.34,126.52 L204.82,126.06 L205.29,125.61 L205.78,125.17 L206.27,124.74 L206.77,124.32 L207.27,123.91 L207.78,123.51 L208.29,123.12 L208.81,122.74 L209.34,122.37 L209.87,122.02 L210.40,121.67 L210.94,121.33 L211.49,121.01 L212.04,120.70 L212.59,120.40 L213.15,120.11 L213.72,119.83 L214.29,119.56 L214.86,119.31 L215.44,119.07 L216.02,118.84 L216.61,118.62 L217.20,118.41 L217.79,118.22 L218.39,118.04 L218.99,117.87 L219.59,117.72 L220.20,117.57 L220.81,117.44 L221.43,117.33 L222.04,117.22 L222.66,117.13 L223.28,117.05 L223.91,116.98 L224.53,116.93 L225.16,116.89 L225.79,116.86 L226.42,116.84 L227.05,116.84 L227.69,116.85 L228.32,116.87 L228.96,116.90 L229.60,116.95 L230.24,117.00 L230.88,117.07 L231.52,117.15 L232.16,117.24 L232.80,117.35 L233.44,117.46 L234.08,117.59 L234.72,117.73 L235.36,117.88 L236.00,118.04 L236.63,118.21 L237.27,118.39 L237.91,118.58 L238.54,118.78 L239.18,118.99 L239.81,119.21 L240.44,119.44 L241.07,119.68 L241.70,119.93 L242.32,120.19 L242.95,120.46 L243.57,120.73 L244.19,121.02 L244.81,121.31 L245.42,121.61 L246.04,121.91 L246.65,122.23 L247.25,122.55 L247.86,122.87 L248.46,123.21 L249.06,123.55 L249.65,123.89 L250.25,124.24 L250.84,124.60 L251.42,124.96 L252.01,125.33 L252.59,125.70 L253.16,126.07 L253.74,126.45 L254.31,126.83 L254.88,127.22 L255.44,127.61 L256.00,128.00 L256.56,128.39 L257.11,128.79 L257.66,129.19 L258.21,129.59 L258.75,129.99 L259.29,130.39 L259.83,130.79 L260.36,131.19 L260.89,131.60 L261.41,132.00 L261.94,132.40 L262.46,132.80 L262.97,133.20 L263.49,133.60 L264.00,134.00 L264.50,134.40 L265.01,134.79 L265.51,135.18 L266.01,135.57 L266.50,135.96 L267.00,136.34 L267.49,136.72 L267.97,137.10 L268.46,137.47 L268.94,137.84 L269.42,138.20 L269.90,138.56 L270.38,138.92 L270.85,139.27 L271.32,139.61 L271.79,139.95 L272.26,140.28 L272.73,140.61 L273.20,140.94 L273.66,141.25 L274.13,141.56 L274.59,141.87 L275.05,142.16 L275.51,142.45 L275.97,142.74 L276.43,143.01 L276.89,143.28 L277.35,143.55 L277.81,143.80 L278.27,144.05 L278.73,144.29 L279.19,144.53 L279.65,144.75 L280.11,144.97 L280.57,145.18 L281.03,145.38 L281.49,145.58 L281.96,145.76 L282.42,145.94 L282.89,146.11 L283.36,146.28 L283.83,146.43 L284.30,146.58 L284.77,146.72 L285.25,146.85 L285.72,146.97 L286.20,147.09 L286.69,147.20 L287.17,147.30 L287.66,147.39 L288.15,147.48 L288.64,147.55 L289.13,147.62 L289.63,147.69 L290.13,147.74 L290.64,147.79 L291.15,147.83 L291.66,147.87 L292.17,147.89 L292.69,147.92 L293.21,147.93 L293.74,147.94 L294.27,147.94 L294.80,147.94 L295.34,147.93 L295.88,147.91 L296.42,147.89 L296.97,147.86 L297.52,147.83 L298.08,147.79 L298.64,147.75 L299.20,147.71 L299.77,147.66 L300.35,147.60 L300.92,147.54 L301.51,147.48 L302.09,147.41 L302.68,147.35 L303.28,147.27 L303.87,147.20 L304.48,147.12 L305.08,147.04 L305.69,146.96 L306.31,146.88 L306.93,146.79 L307.55,146.70 L308.17,146.62 L308.80,146.53 L309.44,146.44 L310.07,146.35 L310.71,146.26 L311.36,146.17 L312.01,146.08 L312.66,145.99 L313.31,145.91 L313.97,145.82 L314.63,145.74 L315.29,145.65 L315.96,145.57 L316.62,145.50 L317.30,145.42 L317.97,145.35 L318.64,145.28 L319.32,145.21 L320.00,145.15 L320.68,145.09 L321.36,145.04 L322.05,144.98 L322.73,144.94 L323.42,144.90 L324.11,144.86 L324.79,144.83 L325.48,144.81 L326.17,144.79 L326.86,144.77 L327.55,144.76 L328.24,144.76 L328.93,144.77 L329.61,144.78 L330.30,144.80 L330.99,144.83 L331.67,144.86 L332.36,144.90 L333.04,144.95 L333.72,145.00 L334.40,145.07 L335.07,145.14 L335.75,145.22 L336.42,145.31 L337.09,145.41 L337.75,145.52 L338.41,145.63 L339.07,145.76 L339.73,145.89 L340.38,146.04 L341.03,146.19 L341.67,146.35 L342.31,146.52 L342.94,146.70 L343.57,146.89 L344.19,147.09 L344.81,147.30 L345.42,147.52 L346.03,147.76 L346.63,148.00 L347.22,148.25 L347.81,148.51 L348.39,148.78 L348.97,149.06 L349.53,149.35 L350.09,149.65 L350.65,149.96 L351.19,150.28 L351.73,150.61 L352.26,150.95 L352.79,151.30 L353.30,151.66 L353.81,152.03 L354.31,152.41 L354.80,152.79 L355.28,153.19 L355.75,153.60 L356.22,154.02 L356.67,154.45 L357.12,154.88 L357.55,155.33 L357.98,155.78 L358.40,156.25 L358.81,156.72 L359.21,157.20 L359.59,157.69 L359.97,158.19 L360.34,158.70 L360.70,159.21 L361.05,159.74 L361.39,160.27 L361.72,160.81 L362.04,161.35 L362.35,161.91 L362.65,162.47 L362.94,163.03 L363.22,163.61 L363.49,164.19 L363.75,164.78 L364.00,165.37 L364.24,165.97 L364.48,166.58 L364.70,167.19 L364.91,167.81 L365.11,168.43 L365.30,169.06 L365.48,169.69 L365.65,170.33 L365.81,170.97 L365.96,171.62 L366.11,172.27 L366.24,172.93 L366.37,173.59 L366.48,174.25 L366.59,174.91 L366.69,175.58 L366.78,176.25 L366.86,176.93 L366.93,177.60 L367.00,178.28 L367.05,178.96 L367.10,179.64 L367.14,180.33 L367.17,181.01 L367.20,181.70 L367.22,182.39 L367.23,183.07 L367.24,183.76 L367.24,184.45 L367.23,185.14 L367.21,185.83 L367.19,186.52 L367.17,187.21 L367.14,187.89 L367.10,188.58 L367.06,189.27 L367.02,189.95 L366.96,190.64 L366.91,191.32 L366.85,192.00 L366.79,192.68 L366.72,193.36 L366.65,194.03 L366.58,194.70 L366.50,195.38 L366.43,196.04 L366.35,196.71 L366.26,197.37 L366.18,198.03 L366.09,198.69 L366.01,199.34 L365.92,199.99 L365.83,200.64 L365.74,201.29 L365.65,201.93 L365.56,202.56 L365.47,203.20 L365.38,203.83 L365.30,204.45 L365.21,205.07 L365.12,205.69 L365.04,206.31 L364.96,206.92 L364.88,207.52 L364.80,208.13 L364.73,208.72 L364.65,209.32 L364.59,209.91 L364.52,210.49 L364.46,211.08 L364.40,211.65 L364.34,212.23 L364.29,212.80 L364.25,213.36 L364.21,213.92 L364.17,214.48 L364.14,215.03 L364.11,215.58 L364.09,216.12 L364.07,216.66 L364.06,217.20 L364.06,217.73 L364.06,218.26 L364.07,218.79 L364.08,219.31 L364.11,219.83 L364.13,220.34 L364.17,220.85 L364.21,221.36 L364.26,221.87 L364.31,222.37 L364.38,222.87 L364.45,223.36 L364.52,223.85 L364.61,224.34 L364.70,224.83 L364.80,225.31 L364.91,225.80 L365.03,226.28 L365.15,226.75 L365.28,227.23 L365.42,227.70 L365.57,228.17 L365.72,228.64 L365.89,229.11 L366.06,229.58 L366.24,230.04 L366.42,230.51 L366.62,230.97 L366.82,231.43 L367.03,231.89 L367.25,232.35 L367.47,232.81 L367.71,233.27 L367.95,233.73 L368.20,234.19 L368.45,234.65 L368.72,235.11 L368.99,235.57 L369.26,236.03 L369.55,236.49 L369.84,236.95 L370.13,237.41 L370.44,237.87 L370.75,238.34 L371.06,238.80 L371.39,239.27 L371.72,239.74 L372.05,240.21 L372.39,240.68 L372.73,241.15 L373.08,241.62 L373.44,242.10 L373.80,242.58 L374.16,243.06 L374.53,243.54 L374.90,244.03 L375.28,244.51 L375.66,245.00 L376.04,245.50 L376.43,245.99 L376.82,246.49 L377.21,246.99 L377.60,247.50 L378.00,248.00 L378.40,248.51 L378.80,249.03 L379.20,249.54 L379.60,250.06 L380.00,250.59 L380.40,251.11 L380.81,251.64 L381.21,252.17 L381.61,252.71 L382.01,253.25 L382.41,253.79 L382.81,254.34 L383.21,254.89 L383.61,255.44 L384.00,256.00 Z" fill="none" stroke="#44aaff" stroke-width="10" filter="url(#glow)"/>

  <!-- Doubled inner arcs (semiquaver sections) -->
  <path d="M360.17,257.36 L360.55,257.82 L360.93,258.29 L361.31,258.76 L361.68,259.23 L362.05,259.70 L362.42,260.18 L362.78,260.66 L363.14,261.15 L363.49,261.63 L363.83,262.12 L364.17,262.62 L364.51,263.11 L364.84,263.61 L365.16,264.11 L365.47,264.62 L365.78,265.12 L366.08,265.63 L366.37,266.14 L366.66,266.66 L366.94,267.17 L367.20,267.69 L367.46,268.21 L367.72,268.73 L367.96,269.25 L368.19,269.78 L368.42,270.30 L368.63,270.83 L368.84,271.36 L369.04,271.89 L369.22,272.42 L369.40,272.95 L369.56,273.48 L369.72,274.01 L369.86,274.54 L369.99,275.08 L370.12,275.61 L370.23,276.14 L370.33,276.67 L370.42,277.21 L370.49,277.74 L370.56,278.27 L370.61,278.80 L370.65,279.33 L370.69,279.85 L370.70,280.38 L370.71,280.91 L370.70,281.43 L370.69,281.95 L370.66,282.47 L370.61,282.99 L370.56,283.50 L370.49,284.02 L370.42,284.53 L370.32,285.03 L370.22,285.54 L370.11,286.04 L369.98,286.54 L369.84,287.04 L369.69,287.53 L369.53,288.02 L369.35,288.50 L369.16,288.98 L368.96,289.46 L368.75,289.93 L368.53,290.40 L368.30,290.87 L368.05,291.33 L367.79,291.79 L367.53,292.24 L367.25,292.68 L366.96,293.13 L366.66,293.56 L366.35,293.99 L366.02,294.42 L365.69,294.84 L365.35,295.26 L365.00,295.67 L364.63,296.08 L364.26,296.48 L363.88,296.87 L363.49,297.26 L363.09,297.64 L362.68,298.02 L362.26,298.39 L361.84,298.76 L361.40,299.12 L360.96,299.48 L360.51,299.82 L360.05,300.17 L359.59,300.50 L359.11,300.84 L358.64,301.16 L358.15,301.48 L357.66,301.79 L357.16,302.10 L356.66,302.40 L356.15,302.70 L355.63,302.99 L355.11,303.27 L354.59,303.55 L354.06,303.83 L353.53,304.09 L352.99,304.36 L352.45,304.61 L351.90,304.87 L351.36,305.11 L350.81,305.35 L350.25,305.59 L349.70,305.82 L349.14,306.05 L348.58,306.27 L348.02,306.48 L347.46,306.70 L346.89,306.90 M306.90,346.89 L306.70,347.46 L306.48,348.02 L306.27,348.58 L306.05,349.14 L305.82,349.70 L305.59,350.25 L305.35,350.81 L305.11,351.36 L304.87,351.90 L304.61,352.45 L304.36,352.99 L304.09,353.53 L303.83,354.06 L303.55,354.59 L303.27,355.11 L302.99,355.63 L302.70,356.15 L302.40,356.66 L302.10,357.16 L301.79,357.66 L301.48,358.15 L301.16,358.64 L300.84,359.11 L300.50,359.59 L300.17,360.05 L299.82,360.51 L299.48,360.96 L299.12,361.40 L298.76,361.84 L298.39,362.26 L298.02,362.68 L297.64,363.09 L297.26,363.49 L296.87,363.88 L296.48,364.26 L296.08,364.63 L295.67,365.00 L295.26,365.35 L294.84,365.69 L294.42,366.02 L293.99,366.35 L293.56,366.66 L293.13,366.96 L292.68,367.25 L292.24,367.53 L291.79,367.79 L291.33,368.05 L290.87,368.30 L290.40,368.53 L289.93,368.75 L289.46,368.96 L288.98,369.16 L288.50,369.35 L288.02,369.53 L287.53,369.69 L287.04,369.84 L286.54,369.98 L286.04,370.11 L285.54,370.22 L285.03,370.32 L284.53,370.42 L284.02,370.49 L283.50,370.56 L282.99,370.61 L282.47,370.66 L281.95,370.69 L281.43,370.70 L280.91,370.71 L280.38,370.70 L279.85,370.69 L279.33,370.65 L278.80,370.61 L278.27,370.56 L277.74,370.49 L277.21,370.42 L276.67,370.33 L276.14,370.23 L275.61,370.12 L275.08,369.99 L274.54,369.86 L274.01,369.72 L273.48,369.56 L272.95,369.40 L272.42,369.22 L271.89,369.04 L271.36,368.84 L270.83,368.63 L270.30,368.42 L269.78,368.19 L269.25,367.96 L268.73,367.72 L268.21,367.46 L267.69,367.20 L267.17,366.94 L266.66,366.66 L266.14,366.37 L265.63,366.08 L265.12,365.78 L264.62,365.47 L264.11,365.16 L263.61,364.84 L263.11,364.51 L262.62,364.17 L262.12,363.83 L261.63,363.49 L261.15,363.14 L260.66,362.78 L260.18,362.42 L259.70,362.05 L259.23,361.68 L258.76,361.31 L258.29,360.93 L257.82,360.55 L257.36,360.17 M202.74,345.53 L202.14,345.63 L201.55,345.73 L200.96,345.82 L200.36,345.91 L199.77,345.99 L199.17,346.07 L198.57,346.14 L197.97,346.21 L197.38,346.27 L196.78,346.32 L196.18,346.37 L195.59,346.41 L194.99,346.45 L194.40,346.48 L193.80,346.50 L193.21,346.51 L192.62,346.52 L192.03,346.51 L191.44,346.50 L190.86,346.49 L190.28,346.46 L189.70,346.43 L189.12,346.39 L188.54,346.33 L187.97,346.28 L187.40,346.21 L186.84,346.13 L186.28,346.04 L185.72,345.95 L185.17,345.85 L184.62,345.73 L184.08,345.61 L183.54,345.48 L183.01,345.34 L182.48,345.18 L181.96,345.02 L181.44,344.85 L180.93,344.67 L180.43,344.48 L179.93,344.29 L179.44,344.08 L178.95,343.86 L178.47,343.63 L178.00,343.39 L177.53,343.15 L177.08,342.89 L176.63,342.62 L176.18,342.35 L175.75,342.06 L175.32,341.76 L174.90,341.46 L174.49,341.15 L174.09,340.82 L173.69,340.49 L173.31,340.15 L172.93,339.80 L172.56,339.44 L172.20,339.07 L171.85,338.69 L171.51,338.31 L171.18,337.91 L170.85,337.51 L170.54,337.10 L170.24,336.68 L169.94,336.25 L169.65,335.82 L169.38,335.37 L169.11,334.92 L168.85,334.47 L168.61,334.00 L168.37,333.53 L168.14,333.05 L167.92,332.56 L167.71,332.07 L167.52,331.57 L167.33,331.07 L167.15,330.56 L166.98,330.04 L166.82,329.52 L166.66,328.99 L166.52,328.46 L166.39,327.92 L166.27,327.38 L166.15,326.83 L166.05,326.28 L165.96,325.72 L165.87,325.16 L165.79,324.60 L165.72,324.03 L165.67,323.46 L165.61,322.88 L165.57,322.30 L165.54,321.72 L165.51,321.14 L165.50,320.56 L165.49,319.97 L165.48,319.38 L165.49,318.79 L165.50,318.20 L165.52,317.60 L165.55,317.01 L165.59,316.41 L165.63,315.82 L165.68,315.22 L165.73,314.62 L165.79,314.03 L165.86,313.43 L165.93,312.83 L166.01,312.23 L166.09,311.64 L166.18,311.04 L166.27,310.45 L166.37,309.86 L166.47,309.26 M151.83,254.64 L151.45,254.18 L151.07,253.71 L150.69,253.24 L150.32,252.77 L149.95,252.30 L149.58,251.82 L149.22,251.34 L148.86,250.85 L148.51,250.37 L148.17,249.88 L147.83,249.38 L147.49,248.89 L147.16,248.39 L146.84,247.89 L146.53,247.38 L146.22,246.88 L145.92,246.37 L145.63,245.86 L145.34,245.34 L145.06,244.83 L144.80,244.31 L144.54,243.79 L144.28,243.27 L144.04,242.75 L143.81,242.22 L143.58,241.70 L143.37,241.17 L143.16,240.64 L142.96,240.11 L142.78,239.58 L142.60,239.05 L142.44,238.52 L142.28,237.99 L142.14,237.46 L142.01,236.92 L141.88,236.39 L141.77,235.86 L141.67,235.33 L141.58,234.79 L141.51,234.26 L141.44,233.73 L141.39,233.20 L141.35,232.67 L141.31,232.15 L141.30,231.62 L141.29,231.09 L141.30,230.57 L141.31,230.05 L141.34,229.53 L141.39,229.01 L141.44,228.50 L141.51,227.98 L141.58,227.47 L141.68,226.97 L141.78,226.46 L141.89,225.96 L142.02,225.46 L142.16,224.96 L142.31,224.47 L142.47,223.98 L142.65,223.50 L142.84,223.02 L143.04,222.54 L143.25,222.07 L143.47,221.60 L143.70,221.13 L143.95,220.67 L144.21,220.21 L144.47,219.76 L144.75,219.32 L145.04,218.87 L145.34,218.44 L145.65,218.01 L145.98,217.58 L146.31,217.16 L146.65,216.74 L147.00,216.33 L147.37,215.92 L147.74,215.52 L148.12,215.13 L148.51,214.74 L148.91,214.36 L149.32,213.98 L149.74,213.61 L150.16,213.24 L150.60,212.88 L151.04,212.52 L151.49,212.18 L151.95,211.83 L152.41,211.50 L152.89,211.16 L153.36,210.84 L153.85,210.52 L154.34,210.21 L154.84,209.90 L155.34,209.60 L155.85,209.30 L156.37,209.01 L156.89,208.73 L157.41,208.45 L157.94,208.17 L158.47,207.91 L159.01,207.64 L159.55,207.39 L160.10,207.13 L160.64,206.89 L161.19,206.65 L161.75,206.41 L162.30,206.18 L162.86,205.95 L163.42,205.73 L163.98,205.52 L164.54,205.30 L165.11,205.10 M205.10,165.11 L205.30,164.54 L205.52,163.98 L205.73,163.42 L205.95,162.86 L206.18,162.30 L206.41,161.75 L206.65,161.19 L206.89,160.64 L207.13,160.10 L207.39,159.55 L207.64,159.01 L207.91,158.47 L208.17,157.94 L208.45,157.41 L208.73,156.89 L209.01,156.37 L209.30,155.85 L209.60,155.34 L209.90,154.84 L210.21,154.34 L210.52,153.85 L210.84,153.36 L211.16,152.89 L211.50,152.41 L211.83,151.95 L212.18,151.49 L212.52,151.04 L212.88,150.60 L213.24,150.16 L213.61,149.74 L213.98,149.32 L214.36,148.91 L214.74,148.51 L215.13,148.12 L215.52,147.74 L215.92,147.37 L216.33,147.00 L216.74,146.65 L217.16,146.31 L217.58,145.98 L218.01,145.65 L218.44,145.34 L218.87,145.04 L219.32,144.75 L219.76,144.47 L220.21,144.21 L220.67,143.95 L221.13,143.70 L221.60,143.47 L222.07,143.25 L222.54,143.04 L223.02,142.84 L223.50,142.65 L223.98,142.47 L224.47,142.31 L224.96,142.16 L225.46,142.02 L225.96,141.89 L226.46,141.78 L226.97,141.68 L227.47,141.58 L227.98,141.51 L228.50,141.44 L229.01,141.39 L229.53,141.34 L230.05,141.31 L230.57,141.30 L231.09,141.29 L231.62,141.30 L232.15,141.31 L232.67,141.35 L233.20,141.39 L233.73,141.44 L234.26,141.51 L234.79,141.58 L235.33,141.67 L235.86,141.77 L236.39,141.88 L236.92,142.01 L237.46,142.14 L237.99,142.28 L238.52,142.44 L239.05,142.60 L239.58,142.78 L240.11,142.96 L240.64,143.16 L241.17,143.37 L241.70,143.58 L242.22,143.81 L242.75,144.04 L243.27,144.28 L243.79,144.54 L244.31,144.80 L244.83,145.06 L245.34,145.34 L245.86,145.63 L246.37,145.92 L246.88,146.22 L247.38,146.53 L247.89,146.84 L248.39,147.16 L248.89,147.49 L249.38,147.83 L249.88,148.17 L250.37,148.51 L250.85,148.86 L251.34,149.22 L251.82,149.58 L252.30,149.95 L252.77,150.32 L253.24,150.69 L253.71,151.07 L254.18,151.45 L254.64,151.83 M309.26,166.47 L309.86,166.37 L310.45,166.27 L311.04,166.18 L311.64,166.09 L312.23,166.01 L312.83,165.93 L313.43,165.86 L314.03,165.79 L314.62,165.73 L315.22,165.68 L315.82,165.63 L316.41,165.59 L317.01,165.55 L317.60,165.52 L318.20,165.50 L318.79,165.49 L319.38,165.48 L319.97,165.49 L320.56,165.50 L321.14,165.51 L321.72,165.54 L322.30,165.57 L322.88,165.61 L323.46,165.67 L324.03,165.72 L324.60,165.79 L325.16,165.87 L325.72,165.96 L326.28,166.05 L326.83,166.15 L327.38,166.27 L327.92,166.39 L328.46,166.52 L328.99,166.66 L329.52,166.82 L330.04,166.98 L330.56,167.15 L331.07,167.33 L331.57,167.52 L332.07,167.71 L332.56,167.92 L333.05,168.14 L333.53,168.37 L334.00,168.61 L334.47,168.85 L334.92,169.11 L335.37,169.38 L335.82,169.65 L336.25,169.94 L336.68,170.24 L337.10,170.54 L337.51,170.85 L337.91,171.18 L338.31,171.51 L338.69,171.85 L339.07,172.20 L339.44,172.56 L339.80,172.93 L340.15,173.31 L340.49,173.69 L340.82,174.09 L341.15,174.49 L341.46,174.90 L341.76,175.32 L342.06,175.75 L342.35,176.18 L342.62,176.63 L342.89,177.08 L343.15,177.53 L343.39,178.00 L343.63,178.47 L343.86,178.95 L344.08,179.44 L344.29,179.93 L344.48,180.43 L344.67,180.93 L344.85,181.44 L345.02,181.96 L345.18,182.48 L345.34,183.01 L345.48,183.54 L345.61,184.08 L345.73,184.62 L345.85,185.17 L345.95,185.72 L346.04,186.28 L346.13,186.84 L346.21,187.40 L346.28,187.97 L346.33,188.54 L346.39,189.12 L346.43,189.70 L346.46,190.28 L346.49,190.86 L346.50,191.44 L346.51,192.03 L346.52,192.62 L346.51,193.21 L346.50,193.80 L346.48,194.40 L346.45,194.99 L346.41,195.59 L346.37,196.18 L346.32,196.78 L346.27,197.38 L346.21,197.97 L346.14,198.57 L346.07,199.17 L345.99,199.77 L345.91,200.36 L345.82,200.96 L345.73,201.55 L345.63,202.14 L345.53,202.74" fill="none" stroke="#44aaff" stroke-width="7" opacity="0.90"/>
</svg>