<svg xmlns="http://www.w3.org/2000/svg" xmlns:xlink="http://www.w3.org/1999/xlink" viewBox="0 0 512 512">
  <defs>
    <filter id="glow" x="-40%" y="-40%" width="180%" height="180%">
      <feGaussianBlur stdDeviation="4" result="blur"/>
      <feMerge>
        <feMergeNode in="blur"/>
        <feMergeNode in="SourceGraphic"/>
      </feMerge>
    </filter>
    
    <g id="spike">
      <line x1="0" y1="0" x2="0" y2="-50" stroke="#44aaff" stroke-width="6" stroke-linecap="round"/>
      <ellipse cx="-15" cy="-50" rx="20" ry="13" transform="rotate(-25,-15,-50)" fill="#44aaff"/>
    </g>
  </defs>

  <!-- Background -->
  <rect width="512" height="512" rx="88" fill="#0d0d14"/>

  <!-- Circular stave — 5 neon-orange rings; middle ring at note-head radius -->
  <circle cx="256" cy="256" r="108" fill="none" stroke="#ff7722" stroke-width="2.5" opacity="0.70"/>
  <circle cx="256" cy="256" r="118" fill="none" stroke="#ff7722" stroke-width="2.5" opacity="0.70"/>
  <circle cx="256" cy="256" r="136" fill="none" stroke="#ff7722" stroke-width="2.5" opacity="0.70"/>
  <circle cx="256" cy="256" r="154" fill="none" stroke="#ff7722" stroke-width="2.5" opacity="0.70"/>
  <circle cx="256" cy="256" r="164" fill="none" stroke="#ff7722" stroke-width="2.5" opacity="0.70"/>

  <!-- Virus body fill -->
  <path d="M341.00,256.00 L341.17,256.37 L341.35,256.74 L341.52,257.12 L341.68,257.50 L341.85,257.87 L342.02,258.25 L342.18,258.63 L342.34,259.02 L342.50,259.40 L342.65,259.78 L342.81,260.17 L342.96,260.56 L343.11,260.95 L343.26,261.34 L343.40,261.73 L343.54,262.12 L343.68,262.52 L343.82,262.91 L343.95,263.31 L344.08,263.71 L344.21,264.11 L344.34,264.51 L344.46,264.91 L344.58,265.31 L344.70,265.71 L344.81,266.12 L344.92,266.52 L345.03,266.93 L345.13,267.34 L345.23,267.75 L345.33,268.16 L345.42,268.57 L345.51,268.98 L345.60,269.39 L345.68,269.80 L345.76,270.22 L345.83,270.63 L345.91,271.05 L345.97,271.46 L346.04,271.88 L346.10,272.29 L346.16,272.71 L346.21,273.13 L346.26,273.54 L346.30,273.96 L346.34,274.38 L346.38,274.80 L346.41,275.22 L346.44,275.64 L346.46,276.06 L346.48,276.47 L346.50,276.89 L346.51,277.31 L346.52,277.73 L346.52,278.15 L346.52,278.57 L346.51,278.99 L346.50,279.41 L346.49,279.82 L346.47,280.24 L346.45,280.66 L346.42,281.07 L346.38,281.49 L346.35,281.91 L346.31,282.32 L346.26,282.74 L346.21,283.15 L346.15,283.56 L346.09,283.97 L346.03,284.39 L345.96,284.80 L345.88,285.21 L345.81,285.61 L345.72,286.02 L345.64,286.43 L345.54,286.83 L345.45,287.24 L345.34,287.64 L345.24,288.04 L345.13,288.44 L345.01,288.84 L344.89,289.24 L344.77,289.63 L344.64,290.03 L344.51,290.42 L344.37,290.81 L344.22,291.20 L344.08,291.59 L343.92,291.97 L343.77,292.35 L343.61,292.74 L343.44,293.12 L343.27,293.50 L343.10,293.87 L342.92,294.25 L342.74,294.62 L342.55,294.99 L342.36,295.36 L342.16,295.72 L341.96,296.08 L341.76,296.45 L341.55,296.80 L341.34,297.16 L341.12,297.52 L340.90,297.87 L340.67,298.22 L340.44,298.56 L340.21,298.91 L339.97,299.25 L339.73,299.59 L339.49,299.92 L339.24,300.26 L338.98,300.59 L338.73,300.92 L338.47,301.24 L338.20,301.57 L337.94,301.89 L337.67,302.20 L337.39,302.52 L337.11,302.83 L336.83,303.14 L336.55,303.44 L336.26,303.75 L335.97,304.05 L335.67,304.35 L335.37,304.64 L335.07,304.93 L334.77,305.22 L334.46,305.50 L334.15,305.79 L333.84,306.07 L333.52,306.34 L333.20,306.61 L332.88,306.88 L332.55,307.15 L332.23,307.42 L331.90,307.68 L331.57,307.93 L331.23,308.19 L330.89,308.44 L330.55,308.69 L330.21,308.93 L329.87,309.18 L329.52,309.42 L329.17,309.65 L328.82,309.89 L328.47,310.12 L328.12,310.34 L327.76,310.57 L327.40,310.79 L327.04,311.01 L326.68,311.22 L326.32,311.43 L325.95,311.64 L325.59,311.85 L325.22,312.05 L324.85,312.25 L324.48,312.45 L324.11,312.64 L323.73,312.84 L323.36,313.02 L322.98,313.21 L322.61,313.39 L322.23,313.57 L321.85,313.75 L321.47,313.93 L321.09,314.10 L320.71,314.27 L320.33,314.43 L319.95,314.60 L319.57,314.76 L319.18,314.92 L318.80,315.08 L318.42,315.23 L318.03,315.38 L317.65,315.53 L317.26,315.68 L316.88,315.82 L316.49,315.96 L316.10,316.10 L315.72,316.24 L315.33,316.38 L314.95,316.51 L314.56,316.64 L314.18,316.77 L313.79,316.90 L313.41,317.02 L313.02,317.15 L312.64,317.27 L312.25,317.39 L311.87,317.51 L311.48,317.62 L311.10,317.74 L310.72,317.85 L310.34,317.96 L309.96,318.07 L309.58,318.18 L309.20,318.28 L308.82,318.39 L308.44,318.49 L308.06,318.60 L307.68,318.70 L307.31,318.80 L306.93,318.90 L306.56,318.99 L306.18,319.09 L305.81,319.19 L305.44,319.28 L305.07,319.38 L304.70,319.47 L304.33,319.56 L303.97,319.65 L303.60,319.74 L303.23,319.83 L302.87,319.92 L302.51,320.01 L302.15,320.10 L301.78,320.19 L301.43,320.28 L301.07,320.36 L300.71,320.45 L300.35,320.54 L300.00,320.62 L299.65,320.71 L299.29,320.80 L298.94,320.88 L298.59,320.97 L298.25,321.05 L297.90,321.14 L297.55,321.23 L297.21,321.31 L296.87,321.40 L296.53,321.49 L296.19,321.58 L295.85,321.66 L295.51,321.75 L295.17,321.84 L294.84,321.93 L294.50,322.02 L294.17,322.11 L293.84,322.20 L293.51,322.30 L293.18,322.39 L292.85,322.48 L292.52,322.58 L292.20,322.67 L291.88,322.77 L291.55,322.86 L291.23,322.96 L290.91,323.06 L290.59,323.16 L290.27,323.26 L289.95,323.36 L289.64,323.47 L289.32,323.57 L289.01,323.68 L288.69,323.78 L288.38,323.89 L288.07,324.00 L287.76,324.11 L287.45,324.22 L287.14,324.34 L286.83,324.45 L286.53,324.57 L286.22,324.68 L285.92,324.80 L285.61,324.92 L285.31,325.04 L285.00,325.17 L284.70,325.29 L284.40,325.42 L284.10,325.54 L283.80,325.67 L283.50,325.80 L283.20,325.94 L282.90,326.07 L282.60,326.20 L282.30,326.34 L282.00,326.48 L281.70,326.62 L281.41,326.76 L281.11,326.90 L280.81,327.05 L280.51,327.19 L280.22,327.34 L279.92,327.49 L279.62,327.64 L279.33,327.79 L279.03,327.95 L278.73,328.10 L278.44,328.26 L278.14,328.42 L277.84,328.58 L277.55,328.74 L277.25,328.90 L276.95,329.07 L276.65,329.23 L276.36,329.40 L276.06,329.57 L275.76,329.74 L275.46,329.91 L275.16,330.08 L274.86,330.26 L274.56,330.43 L274.26,330.61 L273.95,330.78 L273.65,330.96 L273.35,331.14 L273.04,331.32 L272.74,331.51 L272.43,331.69 L272.13,331.87 L271.82,332.06 L271.51,332.24 L271.20,332.43 L270.89,332.62 L270.58,332.81 L270.27,333.00 L269.96,333.19 L269.64,333.38 L269.33,333.57 L269.01,333.76 L268.70,333.95 L268.38,334.15 L268.06,334.34 L267.74,334.54 L267.42,334.73 L267.09,334.93 L266.77,335.12 L266.44,335.32 L266.12,335.51 L265.79,335.71 L265.46,335.90 L265.13,336.10 L264.79,336.29 L264.46,336.49 L264.12,336.68 L263.79,336.88 L263.45,337.07 L263.11,337.27 L262.77,337.46 L262.43,337.66 L262.08,337.85 L261.74,338.04 L261.39,338.24 L261.04,338.43 L260.69,338.62 L260.34,338.81 L259.99,339.00 L259.63,339.18 L259.28,339.37 L258.92,339.56 L258.56,339.74 L258.20,339.93 L257.84,340.11 L257.47,340.29 L257.11,340.47 L256.74,340.65 L256.37,340.82 L256.00,341.00 L255.63,341.17 L255.26,341.35 L254.88,341.52 L254.50,341.68 L254.13,341.85 L253.75,342.02 L253.37,342.18 L252.98,342.34 L252.60,342.50 L252.22,342.65 L251.83,342.81 L251.44,342.96 L251.05,343.11 L250.66,343.26 L250.27,343.40 L249.88,343.54 L249.48,343.68 L249.09,343.82 L248.69,343.95 L248.29,344.08 L247.89,344.21 L247.49,344.34 L247.09,344.46 L246.69,344.58 L246.29,344.70 L245.88,344.81 L245.48,344.92 L245.07,345.03 L244.66,345.13 L244.25,345.23 L243.84,345.33 L243.43,345.42 L243.02,345.51 L242.61,345.60 L242.20,345.68 L241.78,345.76 L241.37,345.83 L240.95,345.91 L240.54,345.97 L240.12,346.04 L239.71,346.10 L239.29,346.16 L238.87,346.21 L238.46,346.26 L238.04,346.30 L237.62,346.34 L237.20,346.38 L236.78,346.41 L236.36,346.44 L235.94,346.46 L235.53,346.48 L235.11,346.50 L234.69,346.51 L234.27,346.52 L233.85,346.52 L233.43,346.52 L233.01,346.51 L232.59,346.50 L232.18,346.49 L231.76,346.47 L231.34,346.45 L230.93,346.42 L230.51,346.38 L230.09,346.35 L229.68,346.31 L229.26,346.26 L228.85,346.21 L228.44,346.15 L228.03,346.09 L227.61,346.03 L227.20,345.96 L226.79,345.88 L226.39,345.81 L225.98,345.72 L225.57,345.64 L225.17,345.54 L224.76,345.45 L224.36,345.34 L223.96,345.24 L223.56,345.13 L223.16,345.01 L222.76,344.89 L222.37,344.77 L221.97,344.64 L221.58,344.51 L221.19,344.37 L220.80,344.22 L220.41,344.08 L220.03,343.92 L219.65,343.77 L219.26,343.61 L218.88,343.44 L218.50,343.27 L218.13,343.10 L217.75,342.92 L217.38,342.74 L217.01,342.55 L216.64,342.36 L216.28,342.16 L215.92,341.96 L215.55,341.76 L215.20,341.55 L214.84,341.34 L214.48,341.12 L214.13,340.90 L213.78,340.67 L213.44,340.44 L213.09,340.21 L212.75,339.97 L212.41,339.73 L212.08,339.49 L211.74,339.24 L211.41,338.98 L211.08,338.73 L210.76,338.47 L210.43,338.20 L210.11,337.94 L209.80,337.67 L209.48,337.39 L209.17,337.11 L208.86,336.83 L208.56,336.55 L208.25,336.26 L207.95,335.97 L207.65,335.67 L207.36,335.37 L207.07,335.07 L206.78,334.77 L206.50,334.46 L206.21,334.15 L205.93,333.84 L205.66,333.52 L205.39,333.20 L205.12,332.88 L204.85,332.55 L204.58,332.23 L204.32,331.90 L204.07,331.57 L203.81,331.23 L203.56,330.89 L203.31,330.55 L203.07,330.21 L202.82,329.87 L202.58,329.52 L202.35,329.17 L202.11,328.82 L201.88,328.47 L201.66,328.12 L201.43,327.76 L201.21,327.40 L200.99,327.04 L200.78,326.68 L200.57,326.32 L200.36,325.95 L200.15,325.59 L199.95,325.22 L199.75,324.85 L199.55,324.48 L199.36,324.11 L199.16,323.73 L198.98,323.36 L198.79,322.98 L198.61,322.61 L198.43,322.23 L198.25,321.85 L198.07,321.47 L197.90,321.09 L197.73,320.71 L197.57,320.33 L197.40,319.95 L197.24,319.57 L197.08,319.18 L196.92,318.80 L196.77,318.42 L196.62,318.03 L196.47,317.65 L196.32,317.26 L196.18,316.88 L196.04,316.49 L195.90,316.10 L195.76,315.72 L195.62,315.33 L195.49,314.95 L195.36,314.56 L195.23,314.18 L195.10,313.79 L194.98,313.41 L194.85,313.02 L194.73,312.64 L194.61,312.25 L194.49,311.87 L194.38,311.48 L194.26,311.10 L194.15,310.72 L194.04,310.34 L193.93,309.96 L193.82,309.58 L193.72,309.20 L193.61,308.82 L193.51,308.44 L193.40,308.06 L193.30,307.68 L193.20,307.31 L193.10,306.93 L193.01,306.56 L192.91,306.18 L192.81,305.81 L192.72,305.44 L192.62,305.07 L192.53,304.70 L192.44,304.33 L192.35,303.97 L192.26,303.60 L192.17,303.23 L192.08,302.87 L191.99,302.51 L191.90,302.15 L191.81,301.78 L191.72,301.43 L191.64,301.07 L191.55,300.71 L191.46,300.35 L191.38,300.00 L191.29,299.65 L191.20,299.29 L191.12,298.94 L191.03,298.59 L190.95,298.25 L190.86,297.90 L190.77,297.55 L190.69,297.21 L190.60,296.87 L190.51,296.53 L190.42,296.19 L190.34,295.85 L190.25,295.51 L190.16,295.17 L190.07,294.84 L189.98,294.50 L189.89,294.17 L189.80,293.84 L189.70,293.51 L189.61,293.18 L189.52,292.85 L189.42,292.52 L189.33,292.20 L189.23,291.88 L189.14,291.55 L189.04,291.23 L188.94,290.91 L188.84,290.59 L188.74,290.27 L188.64,289.95 L188.53,289.64 L188.43,289.32 L188.32,289.01 L188.22,288.69 L188.11,288.38 L188.00,288.07 L187.89,287.76 L187.78,287.45 L187.66,287.14 L187.55,286.83 L187.43,286.53 L187.32,286.22 L187.20,285.92 L187.08,285.61 L186.96,285.31 L186.83,285.00 L186.71,284.70 L186.58,284.40 L186.46,284.10 L186.33,283.80 L186.20,283.50 L186.06,283.20 L185.93,282.90 L185.80,282.60 L185.66,282.30 L185.52,282.00 L185.38,281.70 L185.24,281.41 L185.10,281.11 L184.95,280.81 L184.81,280.51 L184.66,280.22 L184.51,279.92 L184.36,279.62 L184.21,279.33 L184.05,279.03 L183.90,278.73 L183.74,278.44 L183.58,278.14 L183.42,277.84 L183.26,277.55 L183.10,277.25 L182.93,276.95 L182.77,276.65 L182.60,276.36 L182.43,276.06 L182.26,275.76 L182.09,275.46 L181.92,275.16 L181.74,274.86 L181.57,274.56 L181.39,274.26 L181.22,273.95 L181.04,273.65 L180.86,273.35 L180.68,273.04 L180.49,272.74 L180.31,272.43 L180.13,272.13 L179.94,271.82 L179.76,271.51 L179.57,271.20 L179.38,270.89 L179.19,270.58 L179.00,270.27 L178.81,269.96 L178.62,269.64 L178.43,269.33 L178.24,269.01 L178.05,268.70 L177.85,268.38 L177.66,268.06 L177.46,267.74 L177.27,267.42 L177.07,267.09 L176.88,266.77 L176.68,266.44 L176.49,266.12 L176.29,265.79 L176.10,265.46 L175.90,265.13 L175.71,264.79 L175.51,264.46 L175.32,264.12 L175.12,263.79 L174.93,263.45 L174.73,263.11 L174.54,262.77 L174.34,262.43 L174.15,262.08 L173.96,261.74 L173.76,261.39 L173.57,261.04 L173.38,260.69 L173.19,260.34 L173.00,259.99 L172.82,259.63 L172.63,259.28 L172.44,258.92 L172.26,258.56 L172.07,258.20 L171.89,257.84 L171.71,257.47 L171.53,257.11 L171.35,256.74 L171.18,256.37 L171.00,256.00 L170.83,255.63 L170.65,255.26 L170.48,254.88 L170.32,254.50 L170.15,254.13 L169.98,253.75 L169.82,253.37 L169.66,252.98 L169.50,252.60 L169.35,252.22 L169.19,251.83 L169.04,251.44 L168.89,251.05 L168.74,250.66 L168.60,250.27 L168.46,249.88 L168.32,249.48 L168.18,249.09 L168.05,248.69 L167.92,248.29 L167.79,247.89 L167.66,247.49 L167.54,247.09 L167.42,246.69 L167.30,246.29 L167.19,245.88 L167.08,245.48 L166.97,245.07 L166.87,244.66 L166.77,244.25 L166.67,243.84 L166.58,243.43 L166.49,243.02 L166.40,242.61 L166.32,242.20 L166.24,241.78 L166.17,241.37 L166.09,240.95 L166.03,240.54 L165.96,240.12 L165.90,239.71 L165.84,239.29 L165.79,238.87 L165.74,238.46 L165.70,238.04 L165.66,237.62 L165.62,237.20 L165.59,236.78 L165.56,236.36 L165.54,235.94 L165.52,235.53 L165.50,235.11 L165.49,234.69 L165.48,234.27 L165.48,233.85 L165.48,233.43 L165.49,233.01 L165.50,232.59 L165.51,232.18 L165.53,231.76 L165.55,231.34 L165.58,230.93 L165.62,230.51 L165.65,230.09 L165.69,229.68 L165.74,229.26 L165.79,228.85 L165.85,228.44 L165.91,228.03 L165.97,227.61 L166.04,227.20 L166.12,226.79 L166.19,226.39 L166.28,225.98 L166.36,225.57 L166.46,225.17 L166.55,224.76 L166.66,224.36 L166.76,223.96 L166.87,223.56 L166.99,223.16 L167.11,222.76 L167.23,222.37 L167.36,221.97 L167.49,221.58 L167.63,221.19 L167.78,220.80 L167.92,220.41 L168.08,220.03 L168.23,219.65 L168.39,219.26 L168.56,218.88 L168.73,218.50 L168.90,218.13 L169.08,217.75 L169.26,217.38 L169.45,217.01 L169.64,216.64 L169.84,216.28 L170.04,215.92 L170.24,215.55 L170.45,215.20 L170.66,214.84 L170.88,214.48 L171.10,214.13 L171.33,213.78 L171.56,213.44 L171.79,213.09 L172.03,212.75 L172.27,212.41 L172.51,212.08 L172.76,211.74 L173.02,211.41 L173.27,211.08 L173.53,210.76 L173.80,210.43 L174.06,210.11 L174.33,209.80 L174.61,209.48 L174.89,209.17 L175.17,208.86 L175.45,208.56 L175.74,208.25 L176.03,207.95 L176.33,207.65 L176.63,207.36 L176.93,207.07 L177.23,206.78 L177.54,206.50 L177.85,206.21 L178.16,205.93 L178.48,205.66 L178.80,205.39 L179.12,205.12 L179.45,204.85 L179.77,204.58 L180.10,204.32 L180.43,204.07 L180.77,203.81 L181.11,203.56 L181.45,203.31 L181.79,203.07 L182.13,202.82 L182.48,202.58 L182.83,202.35 L183.18,202.11 L183.53,201.88 L183.88,201.66 L184.24,201.43 L184.60,201.21 L184.96,200.99 L185.32,200.78 L185.68,200.57 L186.05,200.36 L186.41,200.15 L186.78,199.95 L187.15,199.75 L187.52,199.55 L187.89,199.36 L188.27,199.16 L188.64,198.98 L189.02,198.79 L189.39,198.61 L189.77,198.43 L190.15,198.25 L190.53,198.07 L190.91,197.90 L191.29,197.73 L191.67,197.57 L192.05,197.40 L192.43,197.24 L192.82,197.08 L193.20,196.92 L193.58,196.77 L193.97,196.62 L194.35,196.47 L194.74,196.32 L195.12,196.18 L195.51,196.04 L195.90,195.90 L196.28,195.76 L196.67,195.62 L197.05,195.49 L197.44,195.36 L197.82,195.23 L198.21,195.10 L198.59,194.98 L198.98,194.85 L199.36,194.73 L199.75,194.61 L200.13,194.49 L200.52,194.38 L200.90,194.26 L201.28,194.15 L201.66,194.04 L202.04,193.93 L202.42,193.82 L202.80,193.72 L203.18,193.61 L203.56,193.51 L203.94,193.40 L204.32,193.30 L204.69,193.20 L205.07,193.10 L205.44,193.01 L205.82,192.91 L206.19,192.81 L206.56,192.72 L206.93,192.62 L207.30,192.53 L207.67,192.44 L208.03,192.35 L208.40,192.26 L208.77,192.17 L209.13,192.08 L209.49,191.99 L209.85,191.90 L210.22,191.81 L210.57,191.72 L210.93,191.64 L211.29,191.55 L211.65,191.46 L212.00,191.38 L212.35,191.29 L212.71,191.20 L213.06,191.12 L213.41,191.03 L213.75,190.95 L214.10,190.86 L214.45,190.77 L214.79,190.69 L215.13,190.60 L215.47,190.51 L215.81,190.42 L216.15,190.34 L216.49,190.25 L216.83,190.16 L217.16,190.07 L217.50,189.98 L217.83,189.89 L218.16,189.80 L218.49,189.70 L218.82,189.61 L219.15,189.52 L219.48,189.42 L219.80,189.33 L220.12,189.23 L220.45,189.14 L220.77,189.04 L221.09,188.94 L221.41,188.84 L221.73,188.74 L222.05,188.64 L222.36,188.53 L222.68,188.43 L222.99,188.32 L223.31,188.22 L223.62,188.11 L223.93,188.00 L224.24,187.89 L224.55,187.78 L224.86,187.66 L225.17,187.55 L225.47,187.43 L225.78,187.32 L226.08,187.20 L226.39,187.08 L226.69,186.96 L227.00,186.83 L227.30,186.71 L227.60,186.58 L227.90,186.46 L228.20,186.33 L228.50,186.20 L228.80,186.06 L229.10,185.93 L229.40,185.80 L229.70,185.66 L230.00,185.52 L230.30,185.38 L230.59,185.24 L230.89,185.10 L231.19,184.95 L231.49,184.81 L231.78,184.66 L232.08,184.51 L232.38,184.36 L232.67,184.21 L232.97,184.05 L233.27,183.90 L233.56,183.74 L233.86,183.58 L234.16,183.42 L234.45,183.26 L234.75,183.10 L235.05,182.93 L235.35,182.77 L235.64,182.60 L235.94,182.43 L236.24,182.26 L236.54,182.09 L236.84,181.92 L237.14,181.74 L237.44,181.57 L237.74,181.39 L238.05,181.22 L238.35,181.04 L238.65,180.86 L238.96,180.68 L239.26,180.49 L239.57,180.31 L239.87,180.13 L240.18,179.94 L240.49,179.76 L240.80,179.57 L241.11,179.38 L241.42,179.19 L241.73,179.00 L242.04,178.81 L242.36,178.62 L242.67,178.43 L242.99,178.24 L243.30,178.05 L243.62,177.85 L243.94,177.66 L244.26,177.46 L244.58,177.27 L244.91,177.07 L245.23,176.88 L245.56,176.68 L245.88,176.49 L246.21,176.29 L246.54,176.10 L246.87,175.90 L247.21,175.71 L247.54,175.51 L247.88,175.32 L248.21,175.12 L248.55,174.93 L248.89,174.73 L249.23,174.54 L249.57,174.34 L249.92,174.15 L250.26,173.96 L250.61,173.76 L250.96,173.57 L251.31,173.38 L251.66,173.19 L252.01,173.00 L252.37,172.82 L252.72,172.63 L253.08,172.44 L253.44,172.26 L253.80,172.07 L254.16,171.89 L254.53,171.71 L254.89,171.53 L255.26,171.35 L255.63,171.18 L256.00,171.00 L256.37,170.83 L256.74,170.65 L257.12,170.48 L257.50,170.32 L257.87,170.15 L258.25,169.98 L258.63,169.82 L259.02,169.66 L259.40,169.50 L259.78,169.35 L260.17,169.19 L260.56,169.04 L260.95,168.89 L261.34,168.74 L261.73,168.60 L262.12,168.46 L262.52,168.32 L262.91,168.18 L263.31,168.05 L263.71,167.92 L264.11,167.79 L264.51,167.66 L264.91,167.54 L265.31,167.42 L265.71,167.30 L266.12,167.19 L266.52,167.08 L266.93,166.97 L267.34,166.87 L267.75,166.77 L268.16,166.67 L268.57,166.58 L268.98,166.49 L269.39,166.40 L269.80,166.32 L270.22,166.24 L270.63,166.17 L271.05,166.09 L271.46,166.03 L271.88,165.96 L272.29,165.90 L272.71,165.84 L273.13,165.79 L273.54,165.74 L273.96,165.70 L274.38,165.66 L274.80,165.62 L275.22,165.59 L275.64,165.56 L276.06,165.54 L276.47,165.52 L276.89,165.50 L277.31,165.49 L277.73,165.48 L278.15,165.48 L278.57,165.48 L278.99,165.49 L279.41,165.50 L279.82,165.51 L280.24,165.53 L280.66,165.55 L281.07,165.58 L281.49,165.62 L281.91,165.65 L282.32,165.69 L282.74,165.74 L283.15,165.79 L283.56,165.85 L283.97,165.91 L284.39,165.97 L284.80,166.04 L285.21,166.12 L285.61,166.19 L286.02,166.28 L286.43,166.36 L286.83,166.46 L287.24,166.55 L287.64,166.66 L288.04,166.76 L288.44,166.87 L288.84,166.99 L289.24,167.11 L289.63,167.23 L290.03,167.36 L290.42,167.49 L290.81,167.63 L291.20,167.78 L291.59,167.92 L291.97,168.08 L292.35,168.23 L292.74,168.39 L293.12,168.56 L293.50,168.73 L293.87,168.90 L294.25,169.08 L294.62,169.26 L294.99,169.45 L295.36,169.64 L295.72,169.84 L296.08,170.04 L296.45,170.24 L296.80,170.45 L297.16,170.66 L297.52,170.88 L297.87,171.10 L298.22,171.33 L298.56,171.56 L298.91,171.79 L299.25,172.03 L299.59,172.27 L299.92,172.51 L300.26,172.76 L300.59,173.02 L300.92,173.27 L301.24,173.53 L301.57,173.80 L301.89,174.06 L302.20,174.33 L302.52,174.61 L302.83,174.89 L303.14,175.17 L303.44,175.45 L303.75,175.74 L304.05,176.03 L304.35,176.33 L304.64,176.63 L304.93,176.93 L305.22,177.23 L305.50,177.54 L305.79,177.85 L306.07,178.16 L306.34,178.48 L306.61,178.80 L306.88,179.12 L307.15,179.45 L307.42,179.77 L307.68,180.10 L307.93,180.43 L308.19,180.77 L308.44,181.11 L308.69,181.45 L308.93,181.79 L309.18,182.13 L309.42,182.48 L309.65,182.83 L309.89,183.18 L310.12,183.53 L310.34,183.88 L310.57,184.24 L310.79,184.60 L311.01,184.96 L311.22,185.32 L311.43,185.68 L311.64,186.05 L311.85,186.41 L312.05,186.78 L312.25,187.15 L312.45,187.52 L312.64,187.89 L312.84,188.27 L313.02,188.64 L313.21,189.02 L313.39,189.39 L313.57,189.77 L313.75,190.15 L313.93,190.53 L314.10,190.91 L314.27,191.29 L314.43,191.67 L314.60,192.05 L314.76,192.43 L314.92,192.82 L315.08,193.20 L315.23,193.58 L315.38,193.97 L315.53,194.35 L315.68,194.74 L315.82,195.12 L315.96,195.51 L316.10,195.90 L316.24,196.28 L316.38,196.67 L316.51,197.05 L316.64,197.44 L316.77,197.82 L316.90,198.21 L317.02,198.59 L317.15,198.98 L317.27,199.36 L317.39,199.75 L317.51,200.13 L317.62,200.52 L317.74,200.90 L317.85,201.28 L317.96,201.66 L318.07,202.04 L318.18,202.42 L318.28,202.80 L318.39,203.18 L318.49,203.56 L318.60,203.94 L318.70,204.32 L318.80,204.69 L318.90,205.07 L318.99,205.44 L319.09,205.82 L319.19,206.19 L319.28,206.56 L319.38,206.93 L319.47,207.30 L319.56,207.67 L319.65,208.03 L319.74,208.40 L319.83,208.77 L319.92,209.13 L320.01,209.49 L320.10,209.85 L320.19,210.22 L320.28,210.57 L320.36,210.93 L320.45,211.29 L320.54,211.65 L320.62,212.00 L320.71,212.35 L320.80,212.71 L320.88,213.06 L320.97,213.41 L321.05,213.75 L321.14,214.10 L321.23,214.45 L321.31,214.79 L321.40,215.13 L321.49,215.47 L321.58,215.81 L321.66,216.15 L321.75,216.49 L321.84,216.83 L321.93,217.16 L322.02,217.50 L322.11,217.83 L322.20,218.16 L322.30,218.49 L322.39,218.82 L322.48,219.15 L322.58,219.48 L322.67,219.80 L322.77,220.12 L322.86,220.45 L322.96,220.77 L323.06,221.09 L323.16,221.41 L323.26,221.73 L323.36,222.05 L323.47,222.36 L323.57,222.68 L323.68,222.99 L323.78,223.31 L323.89,223.62 L324.00,223.93 L324.11,224.24 L324.22,224.55 L324.34,224.86 L324.45,225.17 L324.57,225.47 L324.68,225.78 L324.80,226.08 L324.92,226.39 L325.04,226.69 L325.17,227.00 L325.29,227.30 L325.42,227.60 L325.54,227.90 L325.67,228.20 L325.80,228.50 L325.94,228.80 L326.07,229.10 L326.20,229.40 L326.34,229.70 L326.48,230.00 L326.62,230.30 L326.76,230.59 L326.90,230.89 L327.05,231.19 L327.19,231.49 L327.34,231.78 L327.49,232.08 L327.64,232.38 L327.79,232.67 L327.95,232.97 L328.10,233.27 L328.26,233.56 L328.42,233.86 L328.58,234.16 L328.74,234.45 L328.90,234.75 L329.07,235.05 L329.23,235.35 L329.40,235.64 L329.57,235.94 L329.74,236.24 L329.91,236.54 L330.08,236.84 L330.26,237.14 L330.43,237.44 L330.61,237.74 L330.78,238.05 L330.96,238.35 L331.14,238.65 L331.32,238.96 L331.51,239.26 L331.69,239.57 L331.87,239.87 L332.06,240.18 L332.24,240.49 L332.43,240.80 L332.62,241.11 L332.81,241.42 L333.00,241.73 L333.19,242.04 L333.38,242.36 L333.57,242.67 L333.76,242.99 L333.95,243.30 L334.15,243.62 L334.34,243.94 L334.54,244.26 L334.73,244.58 L334.93,244.91 L335.12,245.23 L335.32,245.56 L335.51,245.88 L335.71,246.21 L335.90,246.54 L336.10,246.87 L336.29,247.21 L336.49,247.54 L336.68,247.88 L336.88,248.21 L337.07,248.55 L337.27,248.89 L337.46,249.23 L337.66,249.57 L337.85,249.92 L338.04,250.26 L338.24,250.61 L338.43,250.96 L338.62,251.31 L338.81,251.66 L339.00,252.01 L339.18,252.37 L339.37,252.72 L339.56,253.08 L339.74,253.44 L339.93,253.80 L340.11,254.16 L340.29,254.53 L340.47,254.89 L340.65,255.26 L340.82,255.63 L341.00,256.00 Z" fill="#04111c" stroke="none"/>

  <!-- 4 quaver spikes radiating toward the four corners -->
  <g filter="url(#glow)">
    <use xlink:href="#spike" href="#spike" transform="translate(316.1,195.9) rotate(45)"/>
    <use xlink:href="#spike" href="#spike" transform="translate(316.1,316.1) rotate(135)"/>
    <use xlink:href="#spike" href="#spike" transform="translate(195.9,316.1) rotate(225)"/>
    <use xlink:href="#spike" href="#spike" transform="translate(195.9,195.9) rotate(315)"/>
  </g>

  <!-- Oscillating boundary — bold cyan with glow -->
  <path d="M341.00,256.00 L341.17,256.37 L341.35,256.74 L341.52,257.12 L341.68,257.50 L341.85,257.87 L342.02,258.25 L342.18,258.63 L342.34,259.02 L342.50,259.40 L342.65,259.78 L342.81,260.17 L342.96,260.56 L343.11,260.95 L343.26,261.34 L343.40,261.73 L343.54,262.12 L343.68,262.52 L343.82,262.91 L343.95,263.31 L344.08,263.71 L344.21,264.11 L344.34,264.51 L344.46,264.91 L344.58,265.31 L344.70,265.71 L344.81,266.12 L344.92,266.52 L345.03,266.93 L345.13,267.34 L345.23,267.75 L345.33,268.16 L345.42,268.57 L345.51,268.98 L345.60,269.39 L345.68,269.80 L345.76,270.22 L345.83,270.63 L345.91,271.05 L345.97,271.46 L346.04,271.88 L346.10,272.29 L346.16,272.71 L346.21,273.13 L346.26,273.54 L346.30,273.96 L346.34,274.38 L346.38,274.80 L346.41,275.22 L346.44,275.64 L346.46,276.06 L346.48,276.47 L346.50,276.89 L346.51,277.31 L346.52,277.73 L346.52,278.15 L346.52,278.57 L346.51,278.99 L346.50,279.41 L346.49,279.82 L346.47,280.24 L346.45,280.66 L346.42,281.07 L346.38,281.49 L346.35,281.91 L346.31,282.32 L346.26,282.74 L346.21,283.15 L346.15,283.56 L346.09,283.97 L346.03,284.39 L345.96,284.80 L345.88,285.21 L345.81,285.61 L345.72,286.02 L345.64,286.43 L345.54,286.83 L345.45,287.24 L345.34,287.64 L345.24,288.04 L345.13,288.44 L345.01,288.84 L344.89,289.24 L344.77,289.63 L344.64,290.03 L344.51,290.42 L344.37,290.81 L344.22,291.20 L344.08,291.59 L343.92,291.97 L343.77,292.35 L343.61,292.74 L343.44,293.12 L343.27,293.50 L343.10,293.87 L342.92,294.25 L342.74,294.62 L342.55,294.99 L342.36,295.36 L342.16,295.72 L341.96,296.08 L341.76,296.45 L341.55,296.80 L341.34,297.16 L341.12,297.52 L340.90,297.87 L340.67,298.22 L340.44,298.56 L340.21,298.91 L339.97,299.25 L339.73,299.59 L339.49,299.92 L339.24,300.26 L338.98,300.59 L338.73,300.92 L338.47,301.24 L338.20,301.57 L337.94,301.89 L337.67,302.20 L337.39,302.52 L337.11,302.83 L336.83,303.14 L336.55,303.44 L336.26,303.75 L335.97,304.05 L335.67,304.35 L335.37,304.64 L335.07,304.93 L334.77,305.22 L334.46,305.50 L334.15,305.79 L333.84,306.07 L333.52,306.34 L333.20,306.61 L332.88,306.88 L332.55,307.15 L332.23,307.42 L331.90,307.68 L331.57,307.93 L331.23,308.19 L330.89,308.44 L330.55,308.69 L330.21,308.93 L329.87,309.18 L329.52,309.42 L329.17,309.65 L328.82,309.89 L328.47,310.12 L328.12,310.34 L327.76,310.57 L327.40,310.79 L327.04,311.01 L326.68,311.22 L326.32,311.43 L325.95,311.64 L325.59,311.85 L325.22,312.05 L324.85,312.25 L324.48,312.45 L324.11,312.64 L323.73,312.84 L323.36,313.02 L322.98,313.21 L322.61,313.39 L322.23,313.57 L321.85,313.75 L321.47,313.93 L321.09,314.10 L320.71,314.27 L320.33,314.43 L319.95,314.60 L319.57,314.76 L319.18,314.92 L318.80,315.08 L318.42,315.23 L318.03,315.38 L317.65,315.53 L317.26,315.68 L316.88,315.82 L316.49,315.96 L316.10,316.10 L315.72,316.24 L315.33,316.38 L314.95,316.51 L314.56,316.64 L314.18,316.77 L313.79,316.90 L313.41,317.02 L313.02,317.15 L312.64,317.27 L312.25,317.39 L311.87,317.51 L311.48,317.62 L311.10,317.74 L310.72,317.85 L310.34,317.96 L309.96,318.07 L309.58,318.18 L309.20,318.28 L308.82,318.39 L308.44,318.49 L308.06,318.60 L307.68,318.70 L307.31,318.80 L306.93,318.90 L306.56,318.99 L306.18,319.09 L305.81,319.19 L305.44,319.28 L305.07,319.38 L304.70,319.47 L304.33,319.56 L303.97,319.65 L303.60,319.74 L303.23,319.83 L302.87,319.92 L302.51,320.01 L302.15,320.10 L301.78,320.19 L301.43,320.28 L301.07,320.36 L300.71,320.45 L300.35,320.54 L300.00,320.62 L299.65,320.71 L299.29,320.80 L298.94,320.88 L298.59,320.97 L298.25,321.05 L297.90,321.14 L297.55,321.23 L297.21,321.31 L296.87,321.40 L296.53,321.49 L296.19,321.58 L295.85,321.66 L295.51,321.75 L295.17,321.84 L294.84,321.93 L294.50,322.02 L294.17,322.11 L293.84,322.20 L293.51,322.30 L293.18,322.39 L292.85,322.48 L292.52,322.58 L292.20,322.67 L291.88,322.77 L291.55,322.86 L291.23,322.96 L290.91,323.06 L290.59,323.16 L290.27,323.26 L289.95,323.36 L289.64,323.47 L289.32,323.57 L289.01,323.68 L288.69,323.78 L288.38,323.89 L288.07,324.00 L287.76,324.11 L287.45,324.22 L287.14,324.34 L286.83,324.45 L286.53,324.57 L286.22,324.68 L285.92,324.80 L285.61,324.92 L285.31,325.04 L285.00,325.17 L284.70,325.29 L284.40,325.42 L284.10,325.54 L283.80,325.67 L283.50,325.80 L283.20,325.94 L282.90,326.07 L282.60,326.20 L282.30,326.34 L282.00,326.48 L281.70,326.62 L281.41,326.76 L281.11,326.90 L280.81,327.05 L280.51,327.19 L280.22,327.34 L279.92,327.49 L279.62,327.64 L279.33,327.79 L279.03,327.95 L278.73,328.10 L278.44,328.26 L278.14,328.42 L277.84,328.58 L277.55,328.74 L277.25,328.90 L276.95,329.07 L276.65,329.23 L276.36,329.40 L276.06,329.57 L275.76,329.74 L275.46,329.91 L275.16,330.08 L274.86,330.26 L274.56,330.43 L274.26,330.61 L273.95,330.78 L273.65,330.96 L273.35,331.14 L273.04,331.32 L272.74,331.51 L272.43,331.69 L272.13,331.87 L271.82,332.06 L271.51,332.24 L271.20,332.43 L270.89,332.62 L270.58,332.81 L270.27,333.00 L269.96,333.19 L269.64,333.38 L269.33,333.57 L269.01,333.76 L268.70,333.95 L268.38,334.15 L268.06,334.34 L267.74,334.54 L267.42,334.73 L267.09,334.93 L266.77,335.12 L266.44,335.32 L266.12,335.51 L265.79,335.71 L265.46,335.90 L265.13,336.10 L264.79,336.29 L264.46,336.49 L264.12,336.68 L263.79,336.88 L263.45,337.07 L263.11,337.27 L262.77,337.46 L262.43,337.66 L262.08,337.85 L261.74,338.04 L261.39,338.24 L261.04,338.43 L260.69,338.62 L260.34,338.81 L259.99,339.00 L259.63,339.18 L259.28,339.37 L258.92,339.56 L258.56,339.74 L258.20,339.93 L257.84,340.11 L257.47,340.29 L257.11,340.47 L256.74,340.65 L256.37,340.82 L256.00,341.00 L255.63,341.17 L255.26,341.35 L254.88,341.52 L254.50,341.68 L254.13,341.85 L253.75,342.02 L253.37,342.18 L252.98,342.34 L252.60,342.50 L252.22,342.65 L251.83,342.81 L251.44,342.96 L251.05,343.11 L250.66,343.26 L250.27,343.40 L249.88,343.54 L249.48,343.68 L249.09,343.82 L248.69,343.95 L248.29,344.08 L247.89,344.21 L247.49,344.34 L247.09,344.46 L246.69,344.58 L246.29,344.70 L245.88,344.81 L245.48,344.92 L245.07,345.03 L244.66,345.13 L244.25,345.23 L243.84,345.33 L243.43,345.42 L243.02,345.51 L242.61,345.60 L242.20,345.68 L241.78,345.76 L241.37,345.83 L240.95,345.91 L240.54,345.97 L240.12,346.04 L239.71,346.10 L239.29,346.16 L238.87,346.21 L238.46,346.26 L238.04,346.30 L237.62,346.34 L237.20,346.38 L236.78,346.41 L236.36,346.44 L235.94,346.46 L235.53,346.48 L235.11,346.50 L234.69,346.51 L234.27,346.52 L233.85,346.52 L233.43,346.52 L233.01,346.51 L232.59,346.50 L232.18,346.49 L231.76,346.47 L231.34,346.45 L230.93,346.42 L230.51,346.38 L230.09,346.35 L229.68,346.31 L229.26,346.26 L228.85,346.21 L228.44,346.15 L228.03,346.09 L227.61,346.03 L227.20,345.96 L226.79,345.88 L226.39,345.81 L225.98,345.72 L225.57,345.64 L225.17,345.54 L224.76,345.45 L224.36,345.34 L223.96,345.24 L223.56,345.13 L223.16,345.01 L222.76,344.89 L222.37,344.77 L221.97,344.64 L221.58,344.51 L221.19,344.37 L220.80,344.22 L220.41,344.08 L220.03,343.92 L219.65,343.77 L219.26,343.61 L218.88,343.44 L218.50,343.27 L218.13,343.10 L217.75,342.92 L217.38,342.74 L217.01,342.55 L216.64,342.36 L216.28,342.16 L215.92,341.96 L215.55,341.76 L215.20,341.55 L214.84,341.34 L214.48,341.12 L214.13,340.90 L213.78,340.67 L213.44,340.44 L213.09,340.21 L212.75,339.97 L212.41,339.73 L212.08,339.49 L211.74,339.24 L211.41,338.98 L211.08,338.73 L210.76,338.47 L210.43,338.20 L210.11,337.94 L209.80,337.67 L209.48,337.39 L209.17,337.11 L208.86,336.83 L208.56,336.55 L208.25,336.26 L207.95,335.97 L207.65,335.67 L207.36,335.37 L207.07,335.07 L206.78,334.77 L206.50,334.46 L206.21,334.15 L205.93,333.84 L205.66,333.52 L205.39,333.20 L205.12,332.88 L204.85,332.55 L204.58,332.23 L204.32,331.90 L204.07,331.57 L203.81,331.23 L203.56,330.89 L203.31,330.55 L203.07,330.21 L202.82,329.87 L202.58,329.52 L202.35,329.17 L202.11,328.82 L201.88,328.47 L201.66,328.12 L201.43,327.76 L201.21,327.40 L200.99,327.04 L200.78,326.68 L200.57,326.32 L200.36,325.95 L200.15,325.59 L199.95,325.22 L199.75,324.85 L199.55,324.48 L199.36,324.11 L199.16,323.73 L198.98,323.36 L198.79,322.98 L198.61,322.61 L198.43,322.23 L198.25,321.85 L198.07,321.47 L197.90,321.09 L197.73,320.71 L197.57,320.33 L197.40,319.95 L197.24,319.57 L197.08,319.18 L196.92,318.80 L196.77,318.42 L196.62,318.03 L196.47,317.65 L196.32,317.26 L196.18,316.88 L196.04,316.49 L195.90,316.10 L195.76,315.72 L195.62,315.33 L195.49,314.95 L195.36,314.56 L195.23,314.18 L195.10,313.79 L194.98,313.41 L194.85,313.02 L194.73,312.64 L194.61,312.25 L194.49,311.87 L194.38,311.48 L194.26,311.10 L194.15,310.72 L194.04,310.34 L193.93,309.96 L193.82,309.58 L193.72,309.20 L193.61,308.82 L193.51,308.44 L193.40,308.06 L193.30,307.68 L193.20,307.31 L193.10,306.93 L193.01,306.56 L192.91,306.18 L192.81,305.81 L192.72,305.44 L192.62,305.07 L192.53,304.70 L192.44,304.33 L192.35,303.97 L192.26,303.60 L192.17,303.23 L192.08,302.87 L191.99,302.51 L191.90,302.15 L191.81,301.78 L191.72,301.43 L191.64,301.07 L191.55,300.71 L191.46,300.35 L191.38,300.00 L191.29,299.65 L191.20,299.29 L191.12,298.94 L191.03,298.59 L190.95,298.25 L190.86,297.90 L190.77,297.55 L190.69,297.21 L190.60,296.87 L190.51,296.53 L190.42,296.19 L190.34,295.85 L190.25,295.51 L190.16,295.17 L190.07,294.84 L189.98,294.50 L189.89,294.17 L189.80,293.84 L189.70,293.51 L189.61,293.18 L189.52,292.85 L189.42,292.52 L189.33,292.20 L189.23,291.88 L189.14,291.55 L189.04,291.23 L188.94,290.91 L188.84,290.59 L188.74,290.27 L188.64,289.95 L188.53,289.64 L188.43,289.32 L188.32,289.01 L188.22,288.69 L188.11,288.38 L188.00,288.07 L187.89,287.76 L187.78,287.45 L187.66,287.14 L187.55,286.83 L187.43,286.53 L187.32,286.22 L187.20,285.92 L187.08,285.61 L186.96,285.31 L186.83,285.00 L186.71,284.70 L186.58,284.40 L186.46,284.10 L186.33,283.80 L186.20,283.50 L186.06,283.20 L185.93,282.90 L185.80,282.60 L185.66,282.30 L185.52,282.00 L185.38,281.70 L185.24,281.41 L185.10,281.11 L184.95,280.81 L184.81,280.51 L184.66,280.22 L184.51,279.92 L184.36,279.62 L184.21,279.33 L184.05,279.03 L183.90,278.73 L183.74,278.44 L183.58,278.14 L183.42,277.84 L183.26,277.55 L183.10,277.25 L182.93,276.95 L182.77,276.65 L182.60,276.36 L182.43,276.06 L182.26,275.76 L182.09,275.46 L181.92,275.16 L181.74,274.86 L181.57,274.56 L181.39,274.26 L181.22,273.95 L181.04,273.65 L180.86,273.35 L180.68,273.04 L180.49,272.74 L180.31,272.43 L180.13,272.13 L179.94,271.82 L179.76,271.51 L179.57,271.20 L179.38,270.89 L179.19,270.58 L179.00,270.27 L178.81,269.96 L178.62,269.64 L178.43,269.33 L178.24,269.01 L178.05,268.70 L177.85,268.38 L177.66,268.06 L177.46,267.74 L177.27,267.42 L177.07,267.09 L176.88,266.77 L176.68,266.44 L176.49,266.12 L176.29,265.79 L176.10,265.46 L175.90,265.13 L175.71,264.79 L175.51,264.46 L175.32,264.12 L175.12,263.79 L174.93,263.45 L174.73,263.11 L174.54,262.77 L174.34,262.43 L174.15,262.08 L173.96,261.74 L173.76,261.39 L173.57,261.04 L173.38,260.69 L173.19,260.34 L173.00,259.99 L172.82,259.63 L172.63,259.28 L172.44,258.92 L172.26,258.56 L172.07,258.20 L171.89,257.84 L171.71,257.47 L171.53,257.11 L171.35,256.74 L171.18,256.37 L171.00,256.00 L170.83,255.63 L170.65,255.26 L170.48,254.88 L170.32,254.50 L170.15,254.13 L169.98,253.75 L169.82,253.37 L169.66,252.98 L169.50,252.60 L169.35,252.22 L169.19,251.83 L169.04,251.44 L168.89,251.05 L168.74,250.66 L168.60,250.27 L168.46,249.88 L168.32,249.48 L168.18,249.09 L168.05,248.69 L167.92,248.29 L167.79,247.89 L167.66,247.49 L167.54,247.09 L167.42,246.69 L167.30,246.29 L167.19,245.88 L167.08,245.48 L166.97,245.07 L166.87,244.66 L166.77,244.25 L166.67,243.84 L166.58,243.43 L166.49,243.02 L166.40,242.61 L166.32,242.20 L166.24,241.78 L166.17,241.37 L166.09,240.95 L166.03,240.54 L165.96,240.12 L165.90,239.71 L165.84,239.29 L165.79,238.87 L165.74,238.46 L165.70,238.04 L165.66,237.62 L165.62,237.20 L165.59,236.78 L165.56,236.36 L165.54,235.94 L165.52,235.53 L165.50,235.11 L165.49,234.69 L165.48,234.27 L165.48,233.85 L165.48,233.43 L165.49,233.01 L165.50,232.59 L165.51,232.18 L165.53,231.76 L165.55,231.34 L165.58,230.93 L165.62,230.51 L165.65,230.09 L165.69,229.68 L165.74,229.26 L165.79,228.85 L165.85,228.44 L165.91,228.03 L165.97,227.61 L166.04,227.20 L166.12,226.79 L166.19,226.39 L166.28,225.98 L166.36,225.57 L166.46,225.17 L166.55,224.76 L166.66,224.36 L166.76,223.96 L166.87,223.56 L166.99,223.16 L167.11,222.76 L167.23,222.37 L167.36,221.97 L167.49,221.58 L167.63,221.19 L167.78,220.80 L167.92,220.41 L168.08,220.03 L168.23,219.65 L168.39,219.26 L168.56,218.88 L168.73,218.50 L168.90,218.13 L169.08,217.75 L169.26,217.38 L169.45,217.01 L169.64,216.64 L169.84,216.28 L170.04,215.92 L170.24,215.55 L170.45,215.20 L170.66,214.84 L170.88,214.48 L171.10,214.13 L171.33,213.78 L171.56,213.44 L171.79,213.09 L172.03,212.75 L172.27,212.41 L172.51,212.08 L172.76,211.74 L173.02,211.41 L173.27,211.08 L173.53,210.76 L173.80,210.43 L174.06,210.11 L174.33,209.80 L174.61,209.48 L174.89,209.17 L175.17,208.86 L175.45,208.56 L175.74,208.25 L176.03,207.95 L176.33,207.65 L176.63,207.36 L176.93,207.07 L177.23,206.78 L177.54,206.50 L177.85,206.21 L178.16,205.93 L178.48,205.66 L178.80,205.39 L179.12,205.12 L179.45,204.85 L179.77,204.58 L180.10,204.32 L180.43,204.07 L180.77,203.81 L181.11,203.56 L181.45,203.31 L181.79,203.07 L182.13,202.82 L182.48,202.58 L182.83,202.35 L183.18,202.11 L183.53,201.88 L183.88,201.66 L184.24,201.43 L184.60,201.21 L184.96,200.99 L185.32,200.78 L185.68,200.57 L186.05,200.36 L186.41,200.15 L186.78,199.95 L187.15,199.75 L187.52,199.55 L187.89,199.36 L188.27,199.16 L188.64,198.98 L189.02,198.79 L189.39,198.61 L189.77,198.43 L190.15,198.25 L190.53,198.07 L190.91,197.90 L191.29,197.73 L191.67,197.57 L192.05,197.40 L192.43,197.24 L192.82,197.08 L193.20,196.92 L193.58,196.77 L193.97,196.62 L194.35,196.47 L194.74,196.32 L195.12,196.18 L195.51,196.04 L195.90,195.90 L196.28,195.76 L196.67,195.62 L197.05,195.49 L197.44,195.36 L197.82,195.23 L198.21,195.10 L198.59,194.98 L198.98,194.85 L199.36,194.73 L199.75,194.61 L200.13,194.49 L200.52,194.38 L200.90,194.26 L201.28,194.15 L201.66,194.04 L202.04,193.93 L202.42,193.82 L202.80,193.72 L203.18,193.61 L203.56,193.51 L203.94,193.40 L204.32,193.30 L204.69,193.20 L205.07,193.10 L205.44,193.01 L205.82,192.91 L206.19,192.81 L206.56,192.72 L206.93,192.62 L207.30,192.53 L207.67,192.44 L208.03,192.35 L208.40,192.26 L208.77,192.17 L209.13,192.08 L209.49,191.99 L209.85,191.90 L210.22,191.81 L210.57,191.72 L210.93,191.64 L211.29,191.55 L211.65,191.46 L212.00,191.38 L212.35,191.29 L212.71,191.20 L213.06,191.12 L213.41,191.03 L213.75,190.95 L214.10,190.86 L214.45,190.77 L214.79,190.69 L215.13,190.60 L215.47,190.51 L215.81,190.42 L216.15,190.34 L216.49,190.25 L216.83,190.16 L217.16,190.07 L217.50,189.98 L217.83,189.89 L218.16,189.80 L218.49,189.70 L218.82,189.61 L219.15,189.52 L219.48,189.42 L219.80,189.33 L220.12,189.23 L220.45,189.14 L220.77,189.04 L221.09,188.94 L221.41,188.84 L221.73,188.74 L222.05,188.64 L222.36,188.53 L222.68,188.43 L222.99,188.32 L223.31,188.22 L223.62,188.11 L223.93,188.00 L224.24,187.89 L224.55,187.78 L224.86,187.66 L225.17,187.55 L225.47,187.43 L225.78,187.32 L226.08,187.20 L226.39,187.08 L226.69,186.96 L227.00,186.83 L227.30,186.71 L227.60,186.58 L227.90,186.46 L228.20,186.33 L228.50,186.20 L228.80,186.06 L229.10,185.93 L229.40,185.80 L229.70,185.66 L230.00,185.52 L230.30,185.38 L230.59,185.24 L230.89,185.10 L231.19,184.95 L231.49,184.81 L231.78,184.66 L232.08,184.51 L232.38,184.36 L232.67,184.21 L232.97,184.05 L233.27,183.90 L233.56,183.74 L233.86,183.58 L234.16,183.42 L234.45,183.26 L234.75,183.10 L235.05,182.93 L235.35,182.77 L235.64,182.60 L235.94,182.43 L236.24,182.26 L236.54,182.09 L236.84,181.92 L237.14,181.74 L237.44,181.57 L237.74,181.39 L238.05,181.22 L238.35,181.04 L238.65,180.86 L238.96,180.68 L239.26,180.49 L239.57,180.31 L239.87,180.13 L240.18,179.94 L240.49,179.76 L240.80,179.57 L241.11,179.38 L241.42,179.19 L241.73,179.00 L242.04,178.81 L242.36,178.62 L242.67,178.43 L242.99,178.24 L243.30,178.05 L243.62,177.85 L243.94,177.66 L244.26,177.46 L244.58,177.27 L244.91,177.07 L245.23,176.88 L245.56,176.68 L245.88,176.49 L246.21,176.29 L246.54,176.10 L246.87,175.90 L247.21,175.71 L247.54,175.51 L247.88,175.32 L248.21,175.12 L248.55,174.93 L248.89,174.73 L249.23,174.54 L249.57,174.34 L249.92,174.15 L250.26,173.96 L250.61,173.76 L250.96,173.57 L251.31,173.38 L251.66,173.19 L252.01,173.00 L252.37,172.82 L252.72,172.63 L253.08,172.44 L253.44,172.26 L253.80,172.07 L254.16,171.89 L254.53,171.71 L254.89,171.53 L255.26,171.35 L255.63,171.18 L256.00,171.00 L256.37,170.83 L256.74,170.65 L257.12,170.48 L257.50,170.32 L257.87,170.15 L258.25,169.98 L258.63,169.82 L259.02,169.66 L259.40,169.50 L259.78,169.35 L260.17,169.19 L260.56,169.04 L260.95,168.89 L261.34,168.74 L261.73,168.60 L262.12,168.46 L262.52,168.32 L262.91,168.18 L263.31,168.05 L263.71,167.92 L264.11,167.79 L264.51,167.66 L264.91,167.54 L265.31,167.42 L265.71,167.30 L266.12,167.19 L266.52,167.08 L266.93,166.97 L267.34,166.87 L267.75,166.77 L268.16,166.67 L268.57,166.58 L268.98,166.49 L269.39,166.40 L269.80,166.32 L270.22,166.24 L270.63,166.17 L271.05,166.09 L271.46,166.03 L271.88,165.96 L272.29,165.90 L272.71,165.84 L273.13,165.79 L273.54,165.74 L273.96,165.70 L274.38,165.66 L274.80,165.62 L275.22,165.59 L275.64,165.56 L276.06,165.54 L276.47,165.52 L276.89,165.50 L277.31,165.49 L277.73,165.48 L278.15,165.48 L278.57,165.48 L278.99,165.49 L279.41,165.50 L279.82,165.51 L280.24,165.53 L280.66,165.55 L281.07,165.58 L281.49,165.62 L281.91,165.65 L282.32,165.69 L282.74,165.74 L283.15,165.79 L283.56,165.85 L283.97,165.91 L284.39,165.97 L284.80,166.04 L285.21,166.12 L285.61,166.19 L286.02,166.28 L286.43,166.36 L286.83,166.46 L287.24,166.55 L287.64,166.66 L288.04,166.76 L288.44,166.87 L288.84,166.99 L289.24,167.11 L289.63,167.23 L290.03,167.36 L290.42,167.49 L290.81,167.63 L291.20,167.78 L291.59,167.92 L291.97,168.08 L292.35,168.23 L292.74,168.39 L293.12,168.56 L293.50,168.73 L293.87,168.90 L294.25,169.08 L294.62,169.26 L294.99,169.45 L295.36,169.64 L295.72,169.84 L296.08,170.04 L296.45,170.24 L296.80,170.45 L297.16,170.66 L297.52,170.88 L297.87,171.10 L298.22,171.33 L298.56,171.56 L298.91,171.79 L299.25,172.03 L299.59,172.27 L299.92,172.51 L300.26,172.76 L300.59,173.02 L300.92,173.27 L301.24,173.53 L301.57,173.80 L301.89,174.06 L302.20,174.33 L302.52,174.61 L302.83,174.89 L303.14,175.17 L303.44,175.45 L303.75,175.74 L304.05,176.03 L304.35,176.33 L304.64,176.63 L304.93,176.93 L305.22,177.23 L305.50,177.54 L305.79,177.85 L306.07,178.16 L306.34,178.48 L306.61,178.80 L306.88,179.12 L307.15,179.45 L307.42,179.77 L307.68,180.10 L307.93,180.43 L308.19,180.77 L308.44,181.11 L308.69,181.45 L308.93,181.79 L309.18,182.13 L309.42,182.48 L309.65,182.83 L309.89,183.18 L310.12,183.53 L310.34,183.88 L310.57,184.24 L310.79,184.60 L311.01,184.96 L311.22,185.32 L311.43,185.68 L311.64,186.05 L311.85,186.41 L312.05,186.78 L312.25,187.15 L312.45,187.52 L312.64,187.89 L312.84,188.27 L313.02,188.64 L313.21,189.02 L313.39,189.39 L313.57,189.77 L313.75,190.15 L313.93,190.53 L314.10,190.91 L314.27,191.29 L314.43,191.67 L314.60,192.05 L314.76,192.43 L314.92,192.82 L315.08,193.20 L315.23,193.58 L315.38,193.97 L315.53,194.35 L315.68,194.74 L315.82,195.12 L315.96,195.51 L316.10,195.90 L316.24,196.28 L316.38,196.67 L316.51,197.05 L316.64,197.44 L316.77,197.82 L316.90,198.21 L317.02,198.59 L317.15,198.98 L317.27,199.36 L317.39,199.75 L317.51,200.13 L317.62,200.52 L317.74,200.90 L317.85,201.28 L317.96,201.66 L318.07,202.04 L318.18,202.42 L318.28,202.80 L318.39,203.18 L318.49,203.56 L318.60,203.94 L318.70,204.32 L318.80,204.69 L318.90,205.07 L318.99,205.44 L319.09,205.82 L319.19,206.19 L319.28,206.56 L319.38,206.93 L319.47,207.30 L319.56,207.67 L319.65,208.03 L319.74,208.40 L319.83,208.77 L319.92,209.13 L320.01,209.49 L320.10,209.85 L320.19,210.22 L320.28,210.57 L320.36,210.93 L320.45,211.29 L320.54,211.65 L320.62,212.00 L320.71,212.35 L320.80,212.71 L320.88,213.06 L320.97,213.41 L321.05,213.75 L321.14,214.10 L321.23,214.45 L321.31,214.79 L321.40,215.13 L321.49,215.47 L321.58,215.81 L321.66,216.15 L321.75,216.49 L321.84,216.83 L321.93,217.16 L322.02,217.50 L322.11,217.83 L322.20,218.16 L322.30,218.49 L322.39,218.82 L322.48,219.15 L322.58,219.48 L322.67,219.80 L322.77,220.12 L322.86,220.45 L322.96,220.77 L323.06,221.09 L323.16,221.41 L323.26,221.73 L323.36,222.05 L323.47,222.36 L323.57,222.68 L323.68,222.99 L323.78,223.31 L323.89,223.62 L324.00,223.93 L324.11,224.24 L324.22,224.55 L324.34,224.86 L324.45,225.17 L324.57,225.47 L324.68,225.78 L324.80,226.08 L324.92,226.39 L325.04,226.69 L325.17,227.00 L325.29,227.30 L325.42,227.60 L325.54,227.90 L325.67,228.20 L325.80,228.50 L325.94,228.80 L326.07,229.10 L326.20,229.40 L326.34,229.70 L326.48,230.00 L326.62,230.30 L326.76,230.59 L326.90,230.89 L327.05,231.19 L327.19,231.49 L327.34,231.78 L327.49,232.08 L327.64,232.38 L327.79,232.67 L327.95,232.97 L328.10,233.27 L328.26,233.56 L328.42,233.86 L328.58,234.16 L328.74,234.45 L328.90,234.75 L329.07,235.05 L329.23,235.35 L329.40,235.64 L329.57,235.94 L329.74,236.24 L329.91,236.54 L330.08,236.84 L330.26,237.14 L330.43,237.44 L330.61,237.74 L330.78,238.05 L330.96,238.35 L331.14,238.65 L331.32,238.96 L331.51,239.26 L331.69,239.57 L331.87,239.87 L332.06,240.18 L332.24,240.49 L332.43,240.80 L332.62,241.11 L332.81,241.42 L333.00,241.73 L333.19,242.04 L333.38,242.36 L333.57,242.67 L333.76,242.99 L333.95,243.30 L334.15,243.62 L334.34,243.94 L334.54,244.26 L334.73,244.58 L334.93,244.91 L335.12,245.23 L335.32,245.56 L335.51,245.88 L335.71,246.21 L335.90,246.54 L336.10,246.87 L336.29,247.21 L336.49,247.54 L336.68,247.88 L336.88,248.21 L337.07,248.55 L337.27,248.89 L337.46,249.23 L337.66,249.57 L337.85,249.92 L338.04,250.26 L338.24,250.61 L338.43,250.96 L338.62,251.31 L338.81,251.66 L339.00,252.01 L339.18,252.37 L339.37,252.72 L339.56,253.08 L339.74,253.44 L339.93,253.80 L340.11,254.16 L340.29,254.53 L340.47,254.89 L340.65,255.26 L340.82,255.63 L341.00,256.00 Z" fill="none" stroke="#44aaff" stroke-width="7" filter="url(#glow)"/>

  <!-- Doubled inner arcs (semiquaver sections) -->
  <path d="M327.85,257.57 L328.02,257.89 L328.19,258.21 L328.35,258.53 L328.51,258.85 L328.67,259.17 L328.82,259.50 L328.98,259.82 L329.13,260.15 L329.28,260.48 L329.43,260.81 L329.58,261.14 L329.72,261.48 L329.86,261.81 L330.00,262.15 L330.14,262.49 L330.27,262.82 L330.40,263.16 L330.53,263.50 L330.66,263.85 L330.78,264.19 L330.90,264.53 L331.02,264.88 L331.13,265.22 L331.24,265.57 L331.35,265.92 L331.45,266.27 L331.56,266.62 L331.66,266.97 L331.75,267.32 L331.84,267.67 L331.93,268.03 L332.02,268.38 L332.10,268.73 L332.18,269.09 L332.25,269.45 L332.32,269.80 L332.39,270.16 L332.45,270.52 L332.51,270.87 L332.57,271.23 L332.62,271.59 L332.67,271.95 L332.72,272.31 L332.76,272.67 L332.80,273.03 L332.83,273.38 L332.86,273.74 L332.88,274.10 L332.90,274.46 L332.92,274.82 L332.94,275.18 L332.94,275.54 L332.95,275.90 L332.95,276.26 L332.95,276.62 L332.94,276.98 L332.93,277.33 L332.91,277.69 L332.89,278.05 L332.86,278.40 L332.84,278.76 L332.80,279.11 L332.76,279.47 L332.72,279.82 L332.68,280.18 L332.63,280.53 L332.57,280.88 L332.51,281.23 L332.45,281.58 L332.38,281.93 L332.31,282.27 L332.23,282.62 L332.15,282.97 L332.06,283.31 L331.97,283.65 L331.88,283.99 L331.78,284.33 L331.68,284.67 L331.57,285.01 L331.46,285.34 L331.34,285.68 L331.22,286.01 L331.10,286.34 L330.97,286.67 L330.83,287.00 L330.70,287.32 L330.56,287.65 L330.41,287.97 L330.26,288.29 L330.11,288.61 L329.95,288.92 L329.78,289.24 L329.62,289.55 L329.45,289.86 L329.27,290.17 L329.09,290.47 L328.91,290.78 L328.73,291.08 L328.54,291.38 L328.34,291.67 L328.14,291.97 L327.94,292.26 L327.74,292.55 L327.53,292.84 L327.31,293.12 L327.10,293.41 L326.88,293.69 L326.65,293.96 L326.42,294.24 L326.19,294.51 L325.96,294.78 L325.72,295.05 L325.48,295.31 L325.24,295.57 L324.99,295.83 L324.74,296.09 L324.48,296.34 L324.23,296.59 L323.97,296.84 L323.70,297.08 L323.44,297.32 L323.17,297.56 L322.89,297.80 L322.62,298.03 L322.34,298.26 L322.06,298.49 L321.78,298.72 L321.49,298.94 L321.20,299.16 L320.91,299.37 L320.62,299.59 L320.33,299.80 L320.03,300.00 L319.73,300.21 L319.43,300.41 L319.12,300.61 L318.81,300.81 L318.51,301.00 L318.20,301.19 L317.88,301.37 L317.57,301.56 L317.25,301.74 L316.94,301.92 L316.62,302.09 L316.29,302.27 L315.97,302.44 L315.65,302.60 L315.32,302.77 L315.00,302.93 L314.67,303.09 L314.34,303.24 L314.01,303.39 L313.68,303.54 L313.34,303.69 L313.01,303.84 L312.67,303.98 L312.34,304.12 L312.00,304.25 L311.66,304.39 L311.33,304.52 L310.99,304.65 L310.65,304.78 L310.31,304.90 L309.97,305.02 L309.63,305.14 L309.29,305.26 L308.94,305.37 L308.60,305.48 L308.26,305.59 L307.92,305.70 M254.43,327.85 L254.11,328.02 L253.79,328.19 L253.47,328.35 L253.15,328.51 L252.83,328.67 L252.50,328.82 L252.18,328.98 L251.85,329.13 L251.52,329.28 L251.19,329.43 L250.86,329.58 L250.52,329.72 L250.19,329.86 L249.85,330.00 L249.51,330.14 L249.18,330.27 L248.84,330.40 L248.50,330.53 L248.15,330.66 L247.81,330.78 L247.47,330.90 L247.12,331.02 L246.78,331.13 L246.43,331.24 L246.08,331.35 L245.73,331.45 L245.38,331.56 L245.03,331.66 L244.68,331.75 L244.33,331.84 L243.97,331.93 L243.62,332.02 L243.27,332.10 L242.91,332.18 L242.55,332.25 L242.20,332.32 L241.84,332.39 L241.48,332.45 L241.13,332.51 L240.77,332.57 L240.41,332.62 L240.05,332.67 L239.69,332.72 L239.33,332.76 L238.97,332.80 L238.62,332.83 L238.26,332.86 L237.90,332.88 L237.54,332.90 L237.18,332.92 L236.82,332.94 L236.46,332.94 L236.10,332.95 L235.74,332.95 L235.38,332.95 L235.02,332.94 L234.67,332.93 L234.31,332.91 L233.95,332.89 L233.60,332.86 L233.24,332.84 L232.89,332.80 L232.53,332.76 L232.18,332.72 L231.82,332.68 L231.47,332.63 L231.12,332.57 L230.77,332.51 L230.42,332.45 L230.07,332.38 L229.73,332.31 L229.38,332.23 L229.03,332.15 L228.69,332.06 L228.35,331.97 L228.01,331.88 L227.67,331.78 L227.33,331.68 L226.99,331.57 L226.66,331.46 L226.32,331.34 L225.99,331.22 L225.66,331.10 L225.33,330.97 L225.00,330.83 L224.68,330.70 L224.35,330.56 L224.03,330.41 L223.71,330.26 L223.39,330.11 L223.08,329.95 L222.76,329.78 L222.45,329.62 L222.14,329.45 L221.83,329.27 L221.53,329.09 L221.22,328.91 L220.92,328.73 L220.62,328.54 L220.33,328.34 L220.03,328.14 L219.74,327.94 L219.45,327.74 L219.16,327.53 L218.88,327.31 L218.59,327.10 L218.31,326.88 L218.04,326.65 L217.76,326.42 L217.49,326.19 L217.22,325.96 L216.95,325.72 L216.69,325.48 L216.43,325.24 L216.17,324.99 L215.91,324.74 L215.66,324.48 L215.41,324.23 L215.16,323.97 L214.92,323.70 L214.68,323.44 L214.44,323.17 L214.20,322.89 L213.97,322.62 L213.74,322.34 L213.51,322.06 L213.28,321.78 L213.06,321.49 L212.84,321.20 L212.63,320.91 L212.41,320.62 L212.20,320.33 L212.00,320.03 L211.79,319.73 L211.59,319.43 L211.39,319.12 L211.19,318.81 L211.00,318.51 L210.81,318.20 L210.63,317.88 L210.44,317.57 L210.26,317.25 L210.08,316.94 L209.91,316.62 L209.73,316.29 L209.56,315.97 L209.40,315.65 L209.23,315.32 L209.07,315.00 L208.91,314.67 L208.76,314.34 L208.61,314.01 L208.46,313.68 L208.31,313.34 L208.16,313.01 L208.02,312.67 L207.88,312.34 L207.75,312.00 L207.61,311.66 L207.48,311.33 L207.35,310.99 L207.22,310.65 L207.10,310.31 L206.98,309.97 L206.86,309.63 L206.74,309.29 L206.63,308.94 L206.52,308.60 L206.41,308.26 L206.30,307.92 M184.15,254.43 L183.98,254.11 L183.81,253.79 L183.65,253.47 L183.49,253.15 L183.33,252.83 L183.18,252.50 L183.02,252.18 L182.87,251.85 L182.72,251.52 L182.57,251.19 L182.42,250.86 L182.28,250.52 L182.14,250.19 L182.00,249.85 L181.86,249.51 L181.73,249.18 L181.60,248.84 L181.47,248.50 L181.34,248.15 L181.22,247.81 L181.10,247.47 L180.98,247.12 L180.87,246.78 L180.76,246.43 L180.65,246.08 L180.55,245.73 L180.44,245.38 L180.34,245.03 L180.25,244.68 L180.16,244.33 L180.07,243.97 L179.98,243.62 L179.90,243.27 L179.82,242.91 L179.75,242.55 L179.68,242.20 L179.61,241.84 L179.55,241.48 L179.49,241.13 L179.43,240.77 L179.38,240.41 L179.33,240.05 L179.28,239.69 L179.24,239.33 L179.20,238.97 L179.17,238.62 L179.14,238.26 L179.12,237.90 L179.10,237.54 L179.08,237.18 L179.06,236.82 L179.06,236.46 L179.05,236.10 L179.05,235.74 L179.05,235.38 L179.06,235.02 L179.07,234.67 L179.09,234.31 L179.11,233.95 L179.14,233.60 L179.16,233.24 L179.20,232.89 L179.24,232.53 L179.28,232.18 L179.32,231.82 L179.37,231.47 L179.43,231.12 L179.49,230.77 L179.55,230.42 L179.62,230.07 L179.69,229.73 L179.77,229.38 L179.85,229.03 L179.94,228.69 L180.03,228.35 L180.12,228.01 L180.22,227.67 L180.32,227.33 L180.43,226.99 L180.54,226.66 L180.66,226.32 L180.78,225.99 L180.90,225.66 L181.03,225.33 L181.17,225.00 L181.30,224.68 L181.44,224.35 L181.59,224.03 L181.74,223.71 L181.89,223.39 L182.05,223.08 L182.22,222.76 L182.38,222.45 L182.55,222.14 L182.73,221.83 L182.91,221.53 L183.09,221.22 L183.27,220.92 L183.46,220.62 L183.66,220.33 L183.86,220.03 L184.06,219.74 L184.26,219.45 L184.47,219.16 L184.69,218.88 L184.90,218.59 L185.12,218.31 L185.35,218.04 L185.58,217.76 L185.81,217.49 L186.04,217.22 L186.28,216.95 L186.52,216.69 L186.76,216.43 L187.01,216.17 L187.26,215.91 L187.52,215.66 L187.77,215.41 L188.03,215.16 L188.30,214.92 L188.56,214.68 L188.83,214.44 L189.11,214.20 L189.38,213.97 L189.66,213.74 L189.94,213.51 L190.22,213.28 L190.51,213.06 L190.80,212.84 L191.09,212.63 L191.38,212.41 L191.67,212.20 L191.97,212.00 L192.27,211.79 L192.57,211.59 L192.88,211.39 L193.19,211.19 L193.49,211.00 L193.80,210.81 L194.12,210.63 L194.43,210.44 L194.75,210.26 L195.06,210.08 L195.38,209.91 L195.71,209.73 L196.03,209.56 L196.35,209.40 L196.68,209.23 L197.00,209.07 L197.33,208.91 L197.66,208.76 L197.99,208.61 L198.32,208.46 L198.66,208.31 L198.99,208.16 L199.33,208.02 L199.66,207.88 L200.00,207.75 L200.34,207.61 L200.67,207.48 L201.01,207.35 L201.35,207.22 L201.69,207.10 L202.03,206.98 L202.37,206.86 L202.71,206.74 L203.06,206.63 L203.40,206.52 L203.74,206.41 L204.08,206.30 M257.57,184.15 L257.89,183.98 L258.21,183.81 L258.53,183.65 L258.85,183.49 L259.17,183.33 L259.50,183.18 L259.82,183.02 L260.15,182.87 L260.48,182.72 L260.81,182.57 L261.14,182.42 L261.48,182.28 L261.81,182.14 L262.15,182.00 L262.49,181.86 L262.82,181.73 L263.16,181.60 L263.50,181.47 L263.85,181.34 L264.19,181.22 L264.53,181.10 L264.88,180.98 L265.22,180.87 L265.57,180.76 L265.92,180.65 L266.27,180.55 L266.62,180.44 L266.97,180.34 L267.32,180.25 L267.67,180.16 L268.03,180.07 L268.38,179.98 L268.73,179.90 L269.09,179.82 L269.45,179.75 L269.80,179.68 L270.16,179.61 L270.52,179.55 L270.87,179.49 L271.23,179.43 L271.59,179.38 L271.95,179.33 L272.31,179.28 L272.67,179.24 L273.03,179.20 L273.38,179.17 L273.74,179.14 L274.10,179.12 L274.46,179.10 L274.82,179.08 L275.18,179.06 L275.54,179.06 L275.90,179.05 L276.26,179.05 L276.62,179.05 L276.98,179.06 L277.33,179.07 L277.69,179.09 L278.05,179.11 L278.40,179.14 L278.76,179.16 L279.11,179.20 L279.47,179.24 L279.82,179.28 L280.18,179.32 L280.53,179.37 L280.88,179.43 L281.23,179.49 L281.58,179.55 L281.93,179.62 L282.27,179.69 L282.62,179.77 L282.97,179.85 L283.31,179.94 L283.65,180.03 L283.99,180.12 L284.33,180.22 L284.67,180.32 L285.01,180.43 L285.34,180.54 L285.68,180.66 L286.01,180.78 L286.34,180.90 L286.67,181.03 L287.00,181.17 L287.32,181.30 L287.65,181.44 L287.97,181.59 L288.29,181.74 L288.61,181.89 L288.92,182.05 L289.24,182.22 L289.55,182.38 L289.86,182.55 L290.17,182.73 L290.47,182.91 L290.78,183.09 L291.08,183.27 L291.38,183.46 L291.67,183.66 L291.97,183.86 L292.26,184.06 L292.55,184.26 L292.84,184.47 L293.12,184.69 L293.41,184.90 L293.69,185.12 L293.96,185.35 L294.24,185.58 L294.51,185.81 L294.78,186.04 L295.05,186.28 L295.31,186.52 L295.57,186.76 L295.83,187.01 L296.09,187.26 L296.34,187.52 L296.59,187.77 L296.84,188.03 L297.08,188.30 L297.32,188.56 L297.56,188.83 L297.80,189.11 L298.03,189.38 L298.26,189.66 L298.49,189.94 L298.72,190.22 L298.94,190.51 L299.16,190.80 L299.37,191.09 L299.59,191.38 L299.80,191.67 L300.00,191.97 L300.21,192.27 L300.41,192.57 L300.61,192.88 L300.81,193.19 L301.00,193.49 L301.19,193.80 L301.37,194.12 L301.56,194.43 L301.74,194.75 L301.92,195.06 L302.09,195.38 L302.27,195.71 L302.44,196.03 L302.60,196.35 L302.77,196.68 L302.93,197.00 L303.09,197.33 L303.24,197.66 L303.39,197.99 L303.54,198.32 L303.69,198.66 L303.84,198.99 L303.98,199.33 L304.12,199.66 L304.25,200.00 L304.39,200.34 L304.52,200.67 L304.65,201.01 L304.78,201.35 L304.90,201.69 L305.02,202.03 L305.14,202.37 L305.26,202.71 L305.37,203.06 L305.48,203.40 L305.59,203.74 L305.70,204.08" fill="none" stroke="#44aaff" stroke-width="5" opacity="0.90"/>
</svg>