<svg xmlns="http://www.w3.org/2000/svg" xmlns:xlink="http://www.w3.org/1999/xlink" viewBox="0 0 512 512">
  <defs>
    <filter id="glow" x="-40%" y="-40%" width="180%" height="180%">
      <feGaussianBlur stdDeviation="4" result="blur"/>
      <feMerge>
        <feMergeNode in="blur"/>
        <feMergeNode in="SourceGraphic"/>
      </feMerge>
    </filter>
    
    <g id="spike">
      <line x1="0" y1="0" x2="0" y2="-75" stroke="#44aaff" stroke-width="9" stroke-linecap="round"/>
      <ellipse cx="-23" cy="-75" rx="30" ry="20" transform="rotate(-25,-23,-75)" fill="#44aaff"/>
    </g>
  </defs>

  <!-- Background -->
  <rect width="512" height="512" rx="88" fill="#0d0d14"/>

  <!-- Virus body fill -->
  <path d="M411.00,256.00 L411.47,256.68 L411.94,257.36 L412.40,258.05 L412.86,258.74 L413.31,259.43 L413.76,260.13 L414.21,260.83 L414.65,261.54 L415.08,262.25 L415.51,262.96 L415.93,263.68 L416.34,264.40 L416.75,265.13 L417.15,265.86 L417.54,266.59 L417.93,267.32 L418.30,268.06 L418.67,268.80 L419.03,269.55 L419.38,270.29 L419.72,271.04 L420.04,271.80 L420.36,272.55 L420.67,273.31 L420.97,274.07 L421.26,274.83 L421.53,275.59 L421.80,276.36 L422.05,277.12 L422.29,277.89 L422.52,278.66 L422.74,279.43 L422.94,280.21 L423.13,280.98 L423.31,281.75 L423.47,282.53 L423.63,283.30 L423.76,284.07 L423.89,284.85 L424.00,285.62 L424.09,286.40 L424.17,287.17 L424.24,287.94 L424.29,288.71 L424.33,289.48 L424.36,290.25 L424.36,291.02 L424.36,291.79 L424.34,292.55 L424.30,293.31 L424.25,294.07 L424.18,294.83 L424.10,295.58 L424.00,296.33 L423.89,297.08 L423.77,297.83 L423.62,298.57 L423.47,299.31 L423.29,300.04 L423.11,300.78 L422.90,301.50 L422.68,302.23 L422.45,302.94 L422.20,303.66 L421.94,304.37 L421.66,305.07 L421.37,305.77 L421.06,306.47 L420.74,307.15 L420.41,307.84 L420.06,308.52 L419.69,309.19 L419.32,309.85 L418.93,310.51 L418.52,311.17 L418.10,311.82 L417.67,312.46 L417.23,313.09 L416.77,313.72 L416.30,314.34 L415.82,314.96 L415.32,315.57 L414.82,316.17 L414.30,316.77 L413.77,317.35 L413.23,317.93 L412.68,318.51 L412.12,319.07 L411.54,319.63 L410.96,320.19 L410.37,320.73 L409.77,321.27 L409.15,321.80 L408.53,322.32 L407.90,322.84 L407.26,323.35 L406.62,323.85 L405.96,324.34 L405.30,324.83 L404.63,325.31 L403.96,325.78 L403.28,326.25 L402.59,326.71 L401.89,327.16 L401.19,327.60 L400.49,328.04 L399.78,328.47 L399.06,328.89 L398.34,329.31 L397.62,329.72 L396.89,330.13 L396.16,330.53 L395.43,330.92 L394.69,331.30 L393.95,331.68 L393.21,332.06 L392.47,332.43 L391.73,332.79 L390.98,333.15 L390.23,333.50 L389.49,333.85 L388.74,334.19 L387.99,334.53 L387.25,334.86 L386.50,335.19 L385.76,335.52 L385.02,335.84 L384.27,336.15 L383.53,336.47 L382.80,336.78 L382.06,337.09 L381.33,337.39 L380.60,337.69 L379.87,337.99 L379.15,338.29 L378.43,338.58 L377.72,338.87 L377.00,339.16 L376.30,339.45 L375.60,339.74 L374.90,340.03 L374.21,340.32 L373.52,340.60 L372.84,340.89 L372.16,341.17 L371.49,341.46 L370.83,341.75 L370.17,342.03 L369.52,342.32 L368.87,342.61 L368.23,342.90 L367.60,343.19 L366.98,343.49 L366.36,343.78 L365.75,344.08 L365.14,344.38 L364.54,344.68 L363.95,344.99 L363.37,345.30 L362.80,345.61 L362.23,345.93 L361.67,346.25 L361.11,346.57 L360.57,346.90 L360.03,347.23 L359.50,347.57 L358.98,347.91 L358.47,348.26 L357.96,348.61 L357.46,348.97 L356.97,349.33 L356.48,349.70 L356.01,350.08 L355.54,350.46 L355.08,350.84 L354.62,351.24 L354.17,351.64 L353.73,352.04 L353.30,352.45 L352.87,352.87 L352.45,353.30 L352.04,353.73 L351.64,354.17 L351.24,354.62 L350.84,355.08 L350.46,355.54 L350.08,356.01 L349.70,356.48 L349.33,356.97 L348.97,357.46 L348.61,357.96 L348.26,358.47 L347.91,358.98 L347.57,359.50 L347.23,360.03 L346.90,360.57 L346.57,361.11 L346.25,361.67 L345.93,362.23 L345.61,362.80 L345.30,363.37 L344.99,363.95 L344.68,364.54 L344.38,365.14 L344.08,365.75 L343.78,366.36 L343.49,366.98 L343.19,367.60 L342.90,368.23 L342.61,368.87 L342.32,369.52 L342.03,370.17 L341.75,370.83 L341.46,371.49 L341.17,372.16 L340.89,372.84 L340.60,373.52 L340.32,374.21 L340.03,374.90 L339.74,375.60 L339.45,376.30 L339.16,377.00 L338.87,377.72 L338.58,378.43 L338.29,379.15 L337.99,379.87 L337.69,380.60 L337.39,381.33 L337.09,382.06 L336.78,382.80 L336.47,383.53 L336.15,384.27 L335.84,385.02 L335.52,385.76 L335.19,386.50 L334.86,387.25 L334.53,387.99 L334.19,388.74 L333.85,389.49 L333.50,390.23 L333.15,390.98 L332.79,391.73 L332.43,392.47 L332.06,393.21 L331.68,393.95 L331.30,394.69 L330.92,395.43 L330.53,396.16 L330.13,396.89 L329.72,397.62 L329.31,398.34 L328.89,399.06 L328.47,399.78 L328.04,400.49 L327.60,401.19 L327.16,401.89 L326.71,402.59 L326.25,403.28 L325.78,403.96 L325.31,404.63 L324.83,405.30 L324.34,405.96 L323.85,406.62 L323.35,407.26 L322.84,407.90 L322.32,408.53 L321.80,409.15 L321.27,409.77 L320.73,410.37 L320.19,410.96 L319.63,411.54 L319.07,412.12 L318.51,412.68 L317.93,413.23 L317.35,413.77 L316.77,414.30 L316.17,414.82 L315.57,415.32 L314.96,415.82 L314.34,416.30 L313.72,416.77 L313.09,417.23 L312.46,417.67 L311.82,418.10 L311.17,418.52 L310.51,418.93 L309.85,419.32 L309.19,419.69 L308.52,420.06 L307.84,420.41 L307.15,420.74 L306.47,421.06 L305.77,421.37 L305.07,421.66 L304.37,421.94 L303.66,422.20 L302.94,422.45 L302.23,422.68 L301.50,422.90 L300.78,423.11 L300.04,423.29 L299.31,423.47 L298.57,423.62 L297.83,423.77 L297.08,423.89 L296.33,424.00 L295.58,424.10 L294.83,424.18 L294.07,424.25 L293.31,424.30 L292.55,424.34 L291.79,424.36 L291.02,424.36 L290.25,424.36 L289.48,424.33 L288.71,424.29 L287.94,424.24 L287.17,424.17 L286.40,424.09 L285.62,424.00 L284.85,423.89 L284.07,423.76 L283.30,423.63 L282.53,423.47 L281.75,423.31 L280.98,423.13 L280.21,422.94 L279.43,422.74 L278.66,422.52 L277.89,422.29 L277.12,422.05 L276.36,421.80 L275.59,421.53 L274.83,421.26 L274.07,420.97 L273.31,420.67 L272.55,420.36 L271.80,420.04 L271.04,419.72 L270.29,419.38 L269.55,419.03 L268.80,418.67 L268.06,418.30 L267.32,417.93 L266.59,417.54 L265.86,417.15 L265.13,416.75 L264.40,416.34 L263.68,415.93 L262.96,415.51 L262.25,415.08 L261.54,414.65 L260.83,414.21 L260.13,413.76 L259.43,413.31 L258.74,412.86 L258.05,412.40 L257.36,411.94 L256.68,411.47 L256.00,411.00 L255.33,410.53 L254.66,410.05 L253.99,409.57 L253.33,409.10 L252.67,408.61 L252.02,408.13 L251.37,407.65 L250.72,407.17 L250.08,406.68 L249.44,406.20 L248.81,405.72 L248.18,405.23 L247.55,404.75 L246.93,404.27 L246.31,403.79 L245.70,403.32 L245.09,402.85 L244.48,402.38 L243.88,401.91 L243.28,401.44 L242.68,400.98 L242.08,400.53 L241.49,400.08 L240.90,399.63 L240.32,399.19 L239.74,398.75 L239.16,398.32 L238.58,397.89 L238.00,397.47 L237.43,397.05 L236.86,396.65 L236.29,396.25 L235.72,395.85 L235.16,395.46 L234.59,395.08 L234.03,394.71 L233.47,394.34 L232.91,393.99 L232.35,393.64 L231.79,393.29 L231.23,392.96 L230.68,392.63 L230.12,392.32 L229.56,392.01 L229.01,391.71 L228.45,391.42 L227.89,391.14 L227.33,390.87 L226.77,390.61 L226.22,390.35 L225.65,390.11 L225.09,389.87 L224.53,389.65 L223.97,389.43 L223.40,389.22 L222.83,389.03 L222.26,388.84 L221.69,388.66 L221.12,388.49 L220.54,388.33 L219.96,388.18 L219.38,388.04 L218.80,387.91 L218.21,387.79 L217.62,387.67 L217.03,387.57 L216.43,387.48 L215.83,387.39 L215.23,387.31 L214.62,387.24 L214.01,387.18 L213.39,387.13 L212.77,387.09 L212.15,387.05 L211.52,387.03 L210.89,387.01 L210.25,387.00 L209.61,386.99 L208.97,386.99 L208.32,387.00 L207.66,387.02 L207.00,387.04 L206.34,387.07 L205.67,387.11 L205.00,387.15 L204.32,387.20 L203.64,387.25 L202.95,387.31 L202.25,387.37 L201.55,387.44 L200.85,387.51 L200.14,387.59 L199.43,387.67 L198.71,387.76 L197.99,387.84 L197.26,387.93 L196.53,388.03 L195.79,388.12 L195.05,388.22 L194.30,388.32 L193.55,388.42 L192.79,388.52 L192.03,388.63 L191.26,388.73 L190.49,388.84 L189.72,388.94 L188.94,389.05 L188.16,389.15 L187.37,389.25 L186.58,389.35 L185.79,389.45 L184.99,389.55 L184.19,389.65 L183.38,389.74 L182.58,389.83 L181.77,389.92 L180.95,390.00 L180.14,390.09 L179.32,390.16 L178.50,390.23 L177.68,390.30 L176.85,390.36 L176.03,390.42 L175.20,390.47 L174.37,390.52 L173.54,390.56 L172.71,390.59 L171.88,390.62 L171.05,390.64 L170.22,390.65 L169.38,390.66 L168.55,390.66 L167.72,390.65 L166.89,390.63 L166.06,390.61 L165.23,390.57 L164.40,390.53 L163.58,390.47 L162.75,390.41 L161.93,390.34 L161.11,390.26 L160.30,390.17 L159.48,390.07 L158.67,389.96 L157.87,389.84 L157.06,389.70 L156.27,389.56 L155.47,389.41 L154.68,389.24 L153.89,389.07 L153.11,388.88 L152.34,388.68 L151.57,388.47 L150.80,388.25 L150.04,388.02 L149.29,387.77 L148.54,387.52 L147.81,387.25 L147.07,386.97 L146.35,386.68 L145.63,386.37 L144.92,386.06 L144.22,385.73 L143.52,385.39 L142.84,385.04 L142.16,384.67 L141.49,384.30 L140.83,383.91 L140.18,383.51 L139.54,383.10 L138.91,382.67 L138.28,382.24 L137.67,381.79 L137.07,381.33 L136.47,380.86 L135.89,380.37 L135.32,379.88 L134.76,379.37 L134.21,378.86 L133.67,378.33 L133.14,377.79 L132.63,377.24 L132.12,376.68 L131.63,376.11 L131.14,375.53 L130.67,374.93 L130.21,374.33 L129.76,373.72 L129.33,373.09 L128.90,372.46 L128.49,371.82 L128.09,371.17 L127.70,370.51 L127.33,369.84 L126.96,369.16 L126.61,368.48 L126.27,367.78 L125.94,367.08 L125.63,366.37 L125.32,365.65 L125.03,364.93 L124.75,364.19 L124.48,363.46 L124.23,362.71 L123.98,361.96 L123.75,361.20 L123.53,360.43 L123.32,359.66 L123.12,358.89 L122.93,358.11 L122.76,357.32 L122.59,356.53 L122.44,355.73 L122.30,354.94 L122.16,354.13 L122.04,353.33 L121.93,352.52 L121.83,351.70 L121.74,350.89 L121.66,350.07 L121.59,349.25 L121.53,348.42 L121.47,347.60 L121.43,346.77 L121.39,345.94 L121.37,345.11 L121.35,344.28 L121.34,343.45 L121.34,342.62 L121.35,341.78 L121.36,340.95 L121.38,340.12 L121.41,339.29 L121.44,338.46 L121.48,337.63 L121.53,336.80 L121.58,335.97 L121.64,335.15 L121.70,334.32 L121.77,333.50 L121.84,332.68 L121.91,331.86 L122.00,331.05 L122.08,330.23 L122.17,329.42 L122.26,328.62 L122.35,327.81 L122.45,327.01 L122.55,326.21 L122.65,325.42 L122.75,324.63 L122.85,323.84 L122.95,323.06 L123.06,322.28 L123.16,321.51 L123.27,320.74 L123.37,319.97 L123.48,319.21 L123.58,318.45 L123.68,317.70 L123.78,316.95 L123.88,316.21 L123.97,315.47 L124.07,314.74 L124.16,314.01 L124.24,313.29 L124.33,312.57 L124.41,311.86 L124.49,311.15 L124.56,310.45 L124.63,309.75 L124.69,309.05 L124.75,308.36 L124.80,307.68 L124.85,307.00 L124.89,306.33 L124.93,305.66 L124.96,305.00 L124.98,304.34 L125.00,303.68 L125.01,303.03 L125.01,302.39 L125.00,301.75 L124.99,301.11 L124.97,300.48 L124.95,299.85 L124.91,299.23 L124.87,298.61 L124.82,297.99 L124.76,297.38 L124.69,296.77 L124.61,296.17 L124.52,295.57 L124.43,294.97 L124.33,294.38 L124.21,293.79 L124.09,293.20 L123.96,292.62 L123.82,292.04 L123.67,291.46 L123.51,290.88 L123.34,290.31 L123.16,289.74 L122.97,289.17 L122.78,288.60 L122.57,288.03 L122.35,287.47 L122.13,286.91 L121.89,286.35 L121.65,285.78 L121.39,285.23 L121.13,284.67 L120.86,284.11 L120.58,283.55 L120.29,282.99 L119.99,282.44 L119.68,281.88 L119.37,281.32 L119.04,280.77 L118.71,280.21 L118.36,279.65 L118.01,279.09 L117.66,278.53 L117.29,277.97 L116.92,277.41 L116.54,276.84 L116.15,276.28 L115.75,275.71 L115.35,275.14 L114.95,274.57 L114.53,274.00 L114.11,273.42 L113.68,272.84 L113.25,272.26 L112.81,271.68 L112.37,271.10 L111.92,270.51 L111.47,269.92 L111.02,269.32 L110.56,268.72 L110.09,268.12 L109.62,267.52 L109.15,266.91 L108.68,266.30 L108.21,265.69 L107.73,265.07 L107.25,264.45 L106.77,263.82 L106.28,263.19 L105.80,262.56 L105.32,261.92 L104.83,261.28 L104.35,260.63 L103.87,259.98 L103.39,259.33 L102.90,258.67 L102.43,258.01 L101.95,257.34 L101.47,256.67 L101.00,256.00 L100.53,255.32 L100.06,254.64 L99.60,253.95 L99.14,253.26 L98.69,252.57 L98.24,251.87 L97.79,251.17 L97.35,250.46 L96.92,249.75 L96.49,249.04 L96.07,248.32 L95.66,247.60 L95.25,246.87 L94.85,246.14 L94.46,245.41 L94.07,244.68 L93.70,243.94 L93.33,243.20 L92.97,242.45 L92.62,241.71 L92.28,240.96 L91.96,240.20 L91.64,239.45 L91.33,238.69 L91.03,237.93 L90.74,237.17 L90.47,236.41 L90.20,235.64 L89.95,234.88 L89.71,234.11 L89.48,233.34 L89.26,232.57 L89.06,231.79 L88.87,231.02 L88.69,230.25 L88.53,229.47 L88.37,228.70 L88.24,227.93 L88.11,227.15 L88.00,226.38 L87.91,225.60 L87.83,224.83 L87.76,224.06 L87.71,223.29 L87.67,222.52 L87.64,221.75 L87.64,220.98 L87.64,220.21 L87.66,219.45 L87.70,218.69 L87.75,217.93 L87.82,217.17 L87.90,216.42 L88.00,215.67 L88.11,214.92 L88.23,214.17 L88.38,213.43 L88.53,212.69 L88.71,211.96 L88.89,211.22 L89.10,210.50 L89.32,209.77 L89.55,209.06 L89.80,208.34 L90.06,207.63 L90.34,206.93 L90.63,206.23 L90.94,205.53 L91.26,204.85 L91.59,204.16 L91.94,203.48 L92.31,202.81 L92.68,202.15 L93.07,201.49 L93.48,200.83 L93.90,200.18 L94.33,199.54 L94.77,198.91 L95.23,198.28 L95.70,197.66 L96.18,197.04 L96.68,196.43 L97.18,195.83 L97.70,195.23 L98.23,194.65 L98.77,194.07 L99.32,193.49 L99.88,192.93 L100.46,192.37 L101.04,191.81 L101.63,191.27 L102.23,190.73 L102.85,190.20 L103.47,189.68 L104.10,189.16 L104.74,188.65 L105.38,188.15 L106.04,187.66 L106.70,187.17 L107.37,186.69 L108.04,186.22 L108.72,185.75 L109.41,185.29 L110.11,184.84 L110.81,184.40 L111.51,183.96 L112.22,183.53 L112.94,183.11 L113.66,182.69 L114.38,182.28 L115.11,181.87 L115.84,181.47 L116.57,181.08 L117.31,180.70 L118.05,180.32 L118.79,179.94 L119.53,179.57 L120.27,179.21 L121.02,178.85 L121.77,178.50 L122.51,178.15 L123.26,177.81 L124.01,177.47 L124.75,177.14 L125.50,176.81 L126.24,176.48 L126.98,176.16 L127.73,175.85 L128.47,175.53 L129.20,175.22 L129.94,174.91 L130.67,174.61 L131.40,174.31 L132.13,174.01 L132.85,173.71 L133.57,173.42 L134.28,173.13 L135.00,172.84 L135.70,172.55 L136.40,172.26 L137.10,171.97 L137.79,171.68 L138.48,171.40 L139.16,171.11 L139.84,170.83 L140.51,170.54 L141.17,170.25 L141.83,169.97 L142.48,169.68 L143.13,169.39 L143.77,169.10 L144.40,168.81 L145.02,168.51 L145.64,168.22 L146.25,167.92 L146.86,167.62 L147.46,167.32 L148.05,167.01 L148.63,166.70 L149.20,166.39 L149.77,166.07 L150.33,165.75 L150.89,165.43 L151.43,165.10 L151.97,164.77 L152.50,164.43 L153.02,164.09 L153.53,163.74 L154.04,163.39 L154.54,163.03 L155.03,162.67 L155.52,162.30 L155.99,161.92 L156.46,161.54 L156.92,161.16 L157.38,160.76 L157.83,160.36 L158.27,159.96 L158.70,159.55 L159.13,159.13 L159.55,158.70 L159.96,158.27 L160.36,157.83 L160.76,157.38 L161.16,156.92 L161.54,156.46 L161.92,155.99 L162.30,155.52 L162.67,155.03 L163.03,154.54 L163.39,154.04 L163.74,153.53 L164.09,153.02 L164.43,152.50 L164.77,151.97 L165.10,151.43 L165.43,150.89 L165.75,150.33 L166.07,149.77 L166.39,149.20 L166.70,148.63 L167.01,148.05 L167.32,147.46 L167.62,146.86 L167.92,146.25 L168.22,145.64 L168.51,145.02 L168.81,144.40 L169.10,143.77 L169.39,143.13 L169.68,142.48 L169.97,141.83 L170.25,141.17 L170.54,140.51 L170.83,139.84 L171.11,139.16 L171.40,138.48 L171.68,137.79 L171.97,137.10 L172.26,136.40 L172.55,135.70 L172.84,135.00 L173.13,134.28 L173.42,133.57 L173.71,132.85 L174.01,132.13 L174.31,131.40 L174.61,130.67 L174.91,129.94 L175.22,129.20 L175.53,128.47 L175.85,127.73 L176.16,126.98 L176.48,126.24 L176.81,125.50 L177.14,124.75 L177.47,124.01 L177.81,123.26 L178.15,122.51 L178.50,121.77 L178.85,121.02 L179.21,120.27 L179.57,119.53 L179.94,118.79 L180.32,118.05 L180.70,117.31 L181.08,116.57 L181.47,115.84 L181.87,115.11 L182.28,114.38 L182.69,113.66 L183.11,112.94 L183.53,112.22 L183.96,111.51 L184.40,110.81 L184.84,110.11 L185.29,109.41 L185.75,108.72 L186.22,108.04 L186.69,107.37 L187.17,106.70 L187.66,106.04 L188.15,105.38 L188.65,104.74 L189.16,104.10 L189.68,103.47 L190.20,102.85 L190.73,102.23 L191.27,101.63 L191.81,101.04 L192.37,100.46 L192.93,99.88 L193.49,99.32 L194.07,98.77 L194.65,98.23 L195.23,97.70 L195.83,97.18 L196.43,96.68 L197.04,96.18 L197.66,95.70 L198.28,95.23 L198.91,94.77 L199.54,94.33 L200.18,93.90 L200.83,93.48 L201.49,93.07 L202.15,92.68 L202.81,92.31 L203.48,91.94 L204.16,91.59 L204.85,91.26 L205.53,90.94 L206.23,90.63 L206.93,90.34 L207.63,90.06 L208.34,89.80 L209.06,89.55 L209.77,89.32 L210.50,89.10 L211.22,88.89 L211.96,88.71 L212.69,88.53 L213.43,88.38 L214.17,88.23 L214.92,88.11 L215.67,88.00 L216.42,87.90 L217.17,87.82 L217.93,87.75 L218.69,87.70 L219.45,87.66 L220.21,87.64 L220.98,87.64 L221.75,87.64 L222.52,87.67 L223.29,87.71 L224.06,87.76 L224.83,87.83 L225.60,87.91 L226.38,88.00 L227.15,88.11 L227.93,88.24 L228.70,88.37 L229.47,88.53 L230.25,88.69 L231.02,88.87 L231.79,89.06 L232.57,89.26 L233.34,89.48 L234.11,89.71 L234.88,89.95 L235.64,90.20 L236.41,90.47 L237.17,90.74 L237.93,91.03 L238.69,91.33 L239.45,91.64 L240.20,91.96 L240.96,92.28 L241.71,92.62 L242.45,92.97 L243.20,93.33 L243.94,93.70 L244.68,94.07 L245.41,94.46 L246.14,94.85 L246.87,95.25 L247.60,95.66 L248.32,96.07 L249.04,96.49 L249.75,96.92 L250.46,97.35 L251.17,97.79 L251.87,98.24 L252.57,98.69 L253.26,99.14 L253.95,99.60 L254.64,100.06 L255.32,100.53 L256.00,101.00 L256.67,101.47 L257.34,101.95 L258.01,102.43 L258.67,102.90 L259.33,103.39 L259.98,103.87 L260.63,104.35 L261.28,104.83 L261.92,105.32 L262.56,105.80 L263.19,106.28 L263.82,106.77 L264.45,107.25 L265.07,107.73 L265.69,108.21 L266.30,108.68 L266.91,109.15 L267.52,109.62 L268.12,110.09 L268.72,110.56 L269.32,111.02 L269.92,111.47 L270.51,111.92 L271.10,112.37 L271.68,112.81 L272.26,113.25 L272.84,113.68 L273.42,114.11 L274.00,114.53 L274.57,114.95 L275.14,115.35 L275.71,115.75 L276.28,116.15 L276.84,116.54 L277.41,116.92 L277.97,117.29 L278.53,117.66 L279.09,118.01 L279.65,118.36 L280.21,118.71 L280.77,119.04 L281.32,119.37 L281.88,119.68 L282.44,119.99 L282.99,120.29 L283.55,120.58 L284.11,120.86 L284.67,121.13 L285.23,121.39 L285.78,121.65 L286.35,121.89 L286.91,122.13 L287.47,122.35 L288.03,122.57 L288.60,122.78 L289.17,122.97 L289.74,123.16 L290.31,123.34 L290.88,123.51 L291.46,123.67 L292.04,123.82 L292.62,123.96 L293.20,124.09 L293.79,124.21 L294.38,124.33 L294.97,124.43 L295.57,124.52 L296.17,124.61 L296.77,124.69 L297.38,124.76 L297.99,124.82 L298.61,124.87 L299.23,124.91 L299.85,124.95 L300.48,124.97 L301.11,124.99 L301.75,125.00 L302.39,125.01 L303.03,125.01 L303.68,125.00 L304.34,124.98 L305.00,124.96 L305.66,124.93 L306.33,124.89 L307.00,124.85 L307.68,124.80 L308.36,124.75 L309.05,124.69 L309.75,124.63 L310.45,124.56 L311.15,124.49 L311.86,124.41 L312.57,124.33 L313.29,124.24 L314.01,124.16 L314.74,124.07 L315.47,123.97 L316.21,123.88 L316.95,123.78 L317.70,123.68 L318.45,123.58 L319.21,123.48 L319.97,123.37 L320.74,123.27 L321.51,123.16 L322.28,123.06 L323.06,122.95 L323.84,122.85 L324.63,122.75 L325.42,122.65 L326.21,122.55 L327.01,122.45 L327.81,122.35 L328.62,122.26 L329.42,122.17 L330.23,122.08 L331.05,122.00 L331.86,121.91 L332.68,121.84 L333.50,121.77 L334.32,121.70 L335.15,121.64 L335.97,121.58 L336.80,121.53 L337.63,121.48 L338.46,121.44 L339.29,121.41 L340.12,121.38 L340.95,121.36 L341.78,121.35 L342.62,121.34 L343.45,121.34 L344.28,121.35 L345.11,121.37 L345.94,121.39 L346.77,121.43 L347.60,121.47 L348.42,121.53 L349.25,121.59 L350.07,121.66 L350.89,121.74 L351.70,121.83 L352.52,121.93 L353.33,122.04 L354.13,122.16 L354.94,122.30 L355.73,122.44 L356.53,122.59 L357.32,122.76 L358.11,122.93 L358.89,123.12 L359.66,123.32 L360.43,123.53 L361.20,123.75 L361.96,123.98 L362.71,124.23 L363.46,124.48 L364.19,124.75 L364.93,125.03 L365.65,125.32 L366.37,125.63 L367.08,125.94 L367.78,126.27 L368.48,126.61 L369.16,126.96 L369.84,127.33 L370.51,127.70 L371.17,128.09 L371.82,128.49 L372.46,128.90 L373.09,129.33 L373.72,129.76 L374.33,130.21 L374.93,130.67 L375.53,131.14 L376.11,131.63 L376.68,132.12 L377.24,132.63 L377.79,133.14 L378.33,133.67 L378.86,134.21 L379.37,134.76 L379.88,135.32 L380.37,135.89 L380.86,136.47 L381.33,137.07 L381.79,137.67 L382.24,138.28 L382.67,138.91 L383.10,139.54 L383.51,140.18 L383.91,140.83 L384.30,141.49 L384.67,142.16 L385.04,142.84 L385.39,143.52 L385.73,144.22 L386.06,144.92 L386.37,145.63 L386.68,146.35 L386.97,147.07 L387.25,147.81 L387.52,148.54 L387.77,149.29 L388.02,150.04 L388.25,150.80 L388.47,151.57 L388.68,152.34 L388.88,153.11 L389.07,153.89 L389.24,154.68 L389.41,155.47 L389.56,156.27 L389.70,157.06 L389.84,157.87 L389.96,158.67 L390.07,159.48 L390.17,160.30 L390.26,161.11 L390.34,161.93 L390.41,162.75 L390.47,163.58 L390.53,164.40 L390.57,165.23 L390.61,166.06 L390.63,166.89 L390.65,167.72 L390.66,168.55 L390.66,169.38 L390.65,170.22 L390.64,171.05 L390.62,171.88 L390.59,172.71 L390.56,173.54 L390.52,174.37 L390.47,175.20 L390.42,176.03 L390.36,176.85 L390.30,177.68 L390.23,178.50 L390.16,179.32 L390.09,180.14 L390.00,180.95 L389.92,181.77 L389.83,182.58 L389.74,183.38 L389.65,184.19 L389.55,184.99 L389.45,185.79 L389.35,186.58 L389.25,187.37 L389.15,188.16 L389.05,188.94 L388.94,189.72 L388.84,190.49 L388.73,191.26 L388.63,192.03 L388.52,192.79 L388.42,193.55 L388.32,194.30 L388.22,195.05 L388.12,195.79 L388.03,196.53 L387.93,197.26 L387.84,197.99 L387.76,198.71 L387.67,199.43 L387.59,200.14 L387.51,200.85 L387.44,201.55 L387.37,202.25 L387.31,202.95 L387.25,203.64 L387.20,204.32 L387.15,205.00 L387.11,205.67 L387.07,206.34 L387.04,207.00 L387.02,207.66 L387.00,208.32 L386.99,208.97 L386.99,209.61 L387.00,210.25 L387.01,210.89 L387.03,211.52 L387.05,212.15 L387.09,212.77 L387.13,213.39 L387.18,214.01 L387.24,214.62 L387.31,215.23 L387.39,215.83 L387.48,216.43 L387.57,217.03 L387.67,217.62 L387.79,218.21 L387.91,218.80 L388.04,219.38 L388.18,219.96 L388.33,220.54 L388.49,221.12 L388.66,221.69 L388.84,222.26 L389.03,222.83 L389.22,223.40 L389.43,223.97 L389.65,224.53 L389.87,225.09 L390.11,225.65 L390.35,226.22 L390.61,226.77 L390.87,227.33 L391.14,227.89 L391.42,228.45 L391.71,229.01 L392.01,229.56 L392.32,230.12 L392.63,230.68 L392.96,231.23 L393.29,231.79 L393.64,232.35 L393.99,232.91 L394.34,233.47 L394.71,234.03 L395.08,234.59 L395.46,235.16 L395.85,235.72 L396.25,236.29 L396.65,236.86 L397.05,237.43 L397.47,238.00 L397.89,238.58 L398.32,239.16 L398.75,239.74 L399.19,240.32 L399.63,240.90 L400.08,241.49 L400.53,242.08 L400.98,242.68 L401.44,243.28 L401.91,243.88 L402.38,244.48 L402.85,245.09 L403.32,245.70 L403.79,246.31 L404.27,246.93 L404.75,247.55 L405.23,248.18 L405.72,248.81 L406.20,249.44 L406.68,250.08 L407.17,250.72 L407.65,251.37 L408.13,252.02 L408.61,252.67 L409.10,253.33 L409.57,253.99 L410.05,254.66 L410.53,255.33 L411.00,256.00 Z" fill="#04111c" stroke="none"/>

  <!-- Circular stave — 5 neon-orange rings drawn after fill so inner rings
       show against the dark virus body; outer rings show on the background -->
  <circle cx="256" cy="256" r="60" fill="none" stroke="#ff7722" stroke-width="6" opacity="0.70"/>
  <circle cx="256" cy="256" r="108" fill="none" stroke="#ff7722" stroke-width="6" opacity="0.70"/>
  <circle cx="256" cy="256" r="156" fill="none" stroke="#ff7722" stroke-width="6" opacity="0.70"/>
  <circle cx="256" cy="256" r="204" fill="none" stroke="#ff7722" stroke-width="6" opacity="0.70"/>
  <circle cx="256" cy="256" r="252" fill="none" stroke="#ff7722" stroke-width="6" opacity="0.70"/>

  <!-- Downward-pointing white triangle; V-sides bolder than top edge -->
  <polygon points="212.0,211.0 300.0,211.0 256,346" fill="none" stroke="white" stroke-width="3" stroke-linejoin="round"/>
  <line x1="212.0" y1="211.0" x2="256" y2="346" stroke="white" stroke-width="18" stroke-linecap="round"/>
  <line x1="300.0" y1="211.0" x2="256" y2="346" stroke="white" stroke-width="18" stroke-linecap="round"/>

  <!-- 4 quaver spikes radiating toward the four corners -->
  <g filter="url(#glow)">
    <use xlink:href="#spike" href="#spike" transform="translate(365.6,146.4) rotate(45)"/>
    <use xlink:href="#spike" href="#spike" transform="translate(365.6,365.6) rotate(135)"/>
    <use xlink:href="#spike" href="#spike" transform="translate(146.4,365.6) rotate(225)"/>
    <use xlink:href="#spike" href="#spike" transform="translate(146.4,146.4) rotate(315)"/>
  </g>

  <!-- Oscillating boundary — bold cyan with glow -->
  <path d="M411.00,256.00 L411.47,256.68 L411.94,257.36 L412.40,258.05 L412.86,258.74 L413.31,259.43 L413.76,260.13 L414.21,260.83 L414.65,261.54 L415.08,262.25 L415.51,262.96 L415.93,263.68 L416.34,264.40 L416.75,265.13 L417.15,265.86 L417.54,266.59 L417.93,267.32 L418.30,268.06 L418.67,268.80 L419.03,269.55 L419.38,270.29 L419.72,271.04 L420.04,271.80 L420.36,272.55 L420.67,273.31 L420.97,274.07 L421.26,274.83 L421.53,275.59 L421.80,276.36 L422.05,277.12 L422.29,277.89 L422.52,278.66 L422.74,279.43 L422.94,280.21 L423.13,280.98 L423.31,281.75 L423.47,282.53 L423.63,283.30 L423.76,284.07 L423.89,284.85 L424.00,285.62 L424.09,286.40 L424.17,287.17 L424.24,287.94 L424.29,288.71 L424.33,289.48 L424.36,290.25 L424.36,291.02 L424.36,291.79 L424.34,292.55 L424.30,293.31 L424.25,294.07 L424.18,294.83 L424.10,295.58 L424.00,296.33 L423.89,297.08 L423.77,297.83 L423.62,298.57 L423.47,299.31 L423.29,300.04 L423.11,300.78 L422.90,301.50 L422.68,302.23 L422.45,302.94 L422.20,303.66 L421.94,304.37 L421.66,305.07 L421.37,305.77 L421.06,306.47 L420.74,307.15 L420.41,307.84 L420.06,308.52 L419.69,309.19 L419.32,309.85 L418.93,310.51 L418.52,311.17 L418.10,311.82 L417.67,312.46 L417.23,313.09 L416.77,313.72 L416.30,314.34 L415.82,314.96 L415.32,315.57 L414.82,316.17 L414.30,316.77 L413.77,317.35 L413.23,317.93 L412.68,318.51 L412.12,319.07 L411.54,319.63 L410.96,320.19 L410.37,320.73 L409.77,321.27 L409.15,321.80 L408.53,322.32 L407.90,322.84 L407.26,323.35 L406.62,323.85 L405.96,324.34 L405.30,324.83 L404.63,325.31 L403.96,325.78 L403.28,326.25 L402.59,326.71 L401.89,327.16 L401.19,327.60 L400.49,328.04 L399.78,328.47 L399.06,328.89 L398.34,329.31 L397.62,329.72 L396.89,330.13 L396.16,330.53 L395.43,330.92 L394.69,331.30 L393.95,331.68 L393.21,332.06 L392.47,332.43 L391.73,332.79 L390.98,333.15 L390.23,333.50 L389.49,333.85 L388.74,334.19 L387.99,334.53 L387.25,334.86 L386.50,335.19 L385.76,335.52 L385.02,335.84 L384.27,336.15 L383.53,336.47 L382.80,336.78 L382.06,337.09 L381.33,337.39 L380.60,337.69 L379.87,337.99 L379.15,338.29 L378.43,338.58 L377.72,338.87 L377.00,339.16 L376.30,339.45 L375.60,339.74 L374.90,340.03 L374.21,340.32 L373.52,340.60 L372.84,340.89 L372.16,341.17 L371.49,341.46 L370.83,341.75 L370.17,342.03 L369.52,342.32 L368.87,342.61 L368.23,342.90 L367.60,343.19 L366.98,343.49 L366.36,343.78 L365.75,344.08 L365.14,344.38 L364.54,344.68 L363.95,344.99 L363.37,345.30 L362.80,345.61 L362.23,345.93 L361.67,346.25 L361.11,346.57 L360.57,346.90 L360.03,347.23 L359.50,347.57 L358.98,347.91 L358.47,348.26 L357.96,348.61 L357.46,348.97 L356.97,349.33 L356.48,349.70 L356.01,350.08 L355.54,350.46 L355.08,350.84 L354.62,351.24 L354.17,351.64 L353.73,352.04 L353.30,352.45 L352.87,352.87 L352.45,353.30 L352.04,353.73 L351.64,354.17 L351.24,354.62 L350.84,355.08 L350.46,355.54 L350.08,356.01 L349.70,356.48 L349.33,356.97 L348.97,357.46 L348.61,357.96 L348.26,358.47 L347.91,358.98 L347.57,359.50 L347.23,360.03 L346.90,360.57 L346.57,361.11 L346.25,361.67 L345.93,362.23 L345.61,362.80 L345.30,363.37 L344.99,363.95 L344.68,364.54 L344.38,365.14 L344.08,365.75 L343.78,366.36 L343.49,366.98 L343.19,367.60 L342.90,368.23 L342.61,368.87 L342.32,369.52 L342.03,370.17 L341.75,370.83 L341.46,371.49 L341.17,372.16 L340.89,372.84 L340.60,373.52 L340.32,374.21 L340.03,374.90 L339.74,375.60 L339.45,376.30 L339.16,377.00 L338.87,377.72 L338.58,378.43 L338.29,379.15 L337.99,379.87 L337.69,380.60 L337.39,381.33 L337.09,382.06 L336.78,382.80 L336.47,383.53 L336.15,384.27 L335.84,385.02 L335.52,385.76 L335.19,386.50 L334.86,387.25 L334.53,387.99 L334.19,388.74 L333.85,389.49 L333.50,390.23 L333.15,390.98 L332.79,391.73 L332.43,392.47 L332.06,393.21 L331.68,393.95 L331.30,394.69 L330.92,395.43 L330.53,396.16 L330.13,396.89 L329.72,397.62 L329.31,398.34 L328.89,399.06 L328.47,399.78 L328.04,400.49 L327.60,401.19 L327.16,401.89 L326.71,402.59 L326.25,403.28 L325.78,403.96 L325.31,404.63 L324.83,405.30 L324.34,405.96 L323.85,406.62 L323.35,407.26 L322.84,407.90 L322.32,408.53 L321.80,409.15 L321.27,409.77 L320.73,410.37 L320.19,410.96 L319.63,411.54 L319.07,412.12 L318.51,412.68 L317.93,413.23 L317.35,413.77 L316.77,414.30 L316.17,414.82 L315.57,415.32 L314.96,415.82 L314.34,416.30 L313.72,416.77 L313.09,417.23 L312.46,417.67 L311.82,418.10 L311.17,418.52 L310.51,418.93 L309.85,419.32 L309.19,419.69 L308.52,420.06 L307.84,420.41 L307.15,420.74 L306.47,421.06 L305.77,421.37 L305.07,421.66 L304.37,421.94 L303.66,422.20 L302.94,422.45 L302.23,422.68 L301.50,422.90 L300.78,423.11 L300.04,423.29 L299.31,423.47 L298.57,423.62 L297.83,423.77 L297.08,423.89 L296.33,424.00 L295.58,424.10 L294.83,424.18 L294.07,424.25 L293.31,424.30 L292.55,424.34 L291.79,424.36 L291.02,424.36 L290.25,424.36 L289.48,424.33 L288.71,424.29 L287.94,424.24 L287.17,424.17 L286.40,424.09 L285.62,424.00 L284.85,423.89 L284.07,423.76 L283.30,423.63 L282.53,423.47 L281.75,423.31 L280.98,423.13 L280.21,422.94 L279.43,422.74 L278.66,422.52 L277.89,422.29 L277.12,422.05 L276.36,421.80 L275.59,421.53 L274.83,421.26 L274.07,420.97 L273.31,420.67 L272.55,420.36 L271.80,420.04 L271.04,419.72 L270.29,419.38 L269.55,419.03 L268.80,418.67 L268.06,418.30 L267.32,417.93 L266.59,417.54 L265.86,417.15 L265.13,416.75 L264.40,416.34 L263.68,415.93 L262.96,415.51 L262.25,415.08 L261.54,414.65 L260.83,414.21 L260.13,413.76 L259.43,413.31 L258.74,412.86 L258.05,412.40 L257.36,411.94 L256.68,411.47 L256.00,411.00 L255.33,410.53 L254.66,410.05 L253.99,409.57 L253.33,409.10 L252.67,408.61 L252.02,408.13 L251.37,407.65 L250.72,407.17 L250.08,406.68 L249.44,406.20 L248.81,405.72 L248.18,405.23 L247.55,404.75 L246.93,404.27 L246.31,403.79 L245.70,403.32 L245.09,402.85 L244.48,402.38 L243.88,401.91 L243.28,401.44 L242.68,400.98 L242.08,400.53 L241.49,400.08 L240.90,399.63 L240.32,399.19 L239.74,398.75 L239.16,398.32 L238.58,397.89 L238.00,397.47 L237.43,397.05 L236.86,396.65 L236.29,396.25 L235.72,395.85 L235.16,395.46 L234.59,395.08 L234.03,394.71 L233.47,394.34 L232.91,393.99 L232.35,393.64 L231.79,393.29 L231.23,392.96 L230.68,392.63 L230.12,392.32 L229.56,392.01 L229.01,391.71 L228.45,391.42 L227.89,391.14 L227.33,390.87 L226.77,390.61 L226.22,390.35 L225.65,390.11 L225.09,389.87 L224.53,389.65 L223.97,389.43 L223.40,389.22 L222.83,389.03 L222.26,388.84 L221.69,388.66 L221.12,388.49 L220.54,388.33 L219.96,388.18 L219.38,388.04 L218.80,387.91 L218.21,387.79 L217.62,387.67 L217.03,387.57 L216.43,387.48 L215.83,387.39 L215.23,387.31 L214.62,387.24 L214.01,387.18 L213.39,387.13 L212.77,387.09 L212.15,387.05 L211.52,387.03 L210.89,387.01 L210.25,387.00 L209.61,386.99 L208.97,386.99 L208.32,387.00 L207.66,387.02 L207.00,387.04 L206.34,387.07 L205.67,387.11 L205.00,387.15 L204.32,387.20 L203.64,387.25 L202.95,387.31 L202.25,387.37 L201.55,387.44 L200.85,387.51 L200.14,387.59 L199.43,387.67 L198.71,387.76 L197.99,387.84 L197.26,387.93 L196.53,388.03 L195.79,388.12 L195.05,388.22 L194.30,388.32 L193.55,388.42 L192.79,388.52 L192.03,388.63 L191.26,388.73 L190.49,388.84 L189.72,388.94 L188.94,389.05 L188.16,389.15 L187.37,389.25 L186.58,389.35 L185.79,389.45 L184.99,389.55 L184.19,389.65 L183.38,389.74 L182.58,389.83 L181.77,389.92 L180.95,390.00 L180.14,390.09 L179.32,390.16 L178.50,390.23 L177.68,390.30 L176.85,390.36 L176.03,390.42 L175.20,390.47 L174.37,390.52 L173.54,390.56 L172.71,390.59 L171.88,390.62 L171.05,390.64 L170.22,390.65 L169.38,390.66 L168.55,390.66 L167.72,390.65 L166.89,390.63 L166.06,390.61 L165.23,390.57 L164.40,390.53 L163.58,390.47 L162.75,390.41 L161.93,390.34 L161.11,390.26 L160.30,390.17 L159.48,390.07 L158.67,389.96 L157.87,389.84 L157.06,389.70 L156.27,389.56 L155.47,389.41 L154.68,389.24 L153.89,389.07 L153.11,388.88 L152.34,388.68 L151.57,388.47 L150.80,388.25 L150.04,388.02 L149.29,387.77 L148.54,387.52 L147.81,387.25 L147.07,386.97 L146.35,386.68 L145.63,386.37 L144.92,386.06 L144.22,385.73 L143.52,385.39 L142.84,385.04 L142.16,384.67 L141.49,384.30 L140.83,383.91 L140.18,383.51 L139.54,383.10 L138.91,382.67 L138.28,382.24 L137.67,381.79 L137.07,381.33 L136.47,380.86 L135.89,380.37 L135.32,379.88 L134.76,379.37 L134.21,378.86 L133.67,378.33 L133.14,377.79 L132.63,377.24 L132.12,376.68 L131.63,376.11 L131.14,375.53 L130.67,374.93 L130.21,374.33 L129.76,373.72 L129.33,373.09 L128.90,372.46 L128.49,371.82 L128.09,371.17 L127.70,370.51 L127.33,369.84 L126.96,369.16 L126.61,368.48 L126.27,367.78 L125.94,367.08 L125.63,366.37 L125.32,365.65 L125.03,364.93 L124.75,364.19 L124.48,363.46 L124.23,362.71 L123.98,361.96 L123.75,361.20 L123.53,360.43 L123.32,359.66 L123.12,358.89 L122.93,358.11 L122.76,357.32 L122.59,356.53 L122.44,355.73 L122.30,354.94 L122.16,354.13 L122.04,353.33 L121.93,352.52 L121.83,351.70 L121.74,350.89 L121.66,350.07 L121.59,349.25 L121.53,348.42 L121.47,347.60 L121.43,346.77 L121.39,345.94 L121.37,345.11 L121.35,344.28 L121.34,343.45 L121.34,342.62 L121.35,341.78 L121.36,340.95 L121.38,340.12 L121.41,339.29 L121.44,338.46 L121.48,337.63 L121.53,336.80 L121.58,335.97 L121.64,335.15 L121.70,334.32 L121.77,333.50 L121.84,332.68 L121.91,331.86 L122.00,331.05 L122.08,330.23 L122.17,329.42 L122.26,328.62 L122.35,327.81 L122.45,327.01 L122.55,326.21 L122.65,325.42 L122.75,324.63 L122.85,323.84 L122.95,323.06 L123.06,322.28 L123.16,321.51 L123.27,320.74 L123.37,319.97 L123.48,319.21 L123.58,318.45 L123.68,317.70 L123.78,316.95 L123.88,316.21 L123.97,315.47 L124.07,314.74 L124.16,314.01 L124.24,313.29 L124.33,312.57 L124.41,311.86 L124.49,311.15 L124.56,310.45 L124.63,309.75 L124.69,309.05 L124.75,308.36 L124.80,307.68 L124.85,307.00 L124.89,306.33 L124.93,305.66 L124.96,305.00 L124.98,304.34 L125.00,303.68 L125.01,303.03 L125.01,302.39 L125.00,301.75 L124.99,301.11 L124.97,300.48 L124.95,299.85 L124.91,299.23 L124.87,298.61 L124.82,297.99 L124.76,297.38 L124.69,296.77 L124.61,296.17 L124.52,295.57 L124.43,294.97 L124.33,294.38 L124.21,293.79 L124.09,293.20 L123.96,292.62 L123.82,292.04 L123.67,291.46 L123.51,290.88 L123.34,290.31 L123.16,289.74 L122.97,289.17 L122.78,288.60 L122.57,288.03 L122.35,287.47 L122.13,286.91 L121.89,286.35 L121.65,285.78 L121.39,285.23 L121.13,284.67 L120.86,284.11 L120.58,283.55 L120.29,282.99 L119.99,282.44 L119.68,281.88 L119.37,281.32 L119.04,280.77 L118.71,280.21 L118.36,279.65 L118.01,279.09 L117.66,278.53 L117.29,277.97 L116.92,277.41 L116.54,276.84 L116.15,276.28 L115.75,275.71 L115.35,275.14 L114.95,274.57 L114.53,274.00 L114.11,273.42 L113.68,272.84 L113.25,272.26 L112.81,271.68 L112.37,271.10 L111.92,270.51 L111.47,269.92 L111.02,269.32 L110.56,268.72 L110.09,268.12 L109.62,267.52 L109.15,266.91 L108.68,266.30 L108.21,265.69 L107.73,265.07 L107.25,264.45 L106.77,263.82 L106.28,263.19 L105.80,262.56 L105.32,261.92 L104.83,261.28 L104.35,260.63 L103.87,259.98 L103.39,259.33 L102.90,258.67 L102.43,258.01 L101.95,257.34 L101.47,256.67 L101.00,256.00 L100.53,255.32 L100.06,254.64 L99.60,253.95 L99.14,253.26 L98.69,252.57 L98.24,251.87 L97.79,251.17 L97.35,250.46 L96.92,249.75 L96.49,249.04 L96.07,248.32 L95.66,247.60 L95.25,246.87 L94.85,246.14 L94.46,245.41 L94.07,244.68 L93.70,243.94 L93.33,243.20 L92.97,242.45 L92.62,241.71 L92.28,240.96 L91.96,240.20 L91.64,239.45 L91.33,238.69 L91.03,237.93 L90.74,237.17 L90.47,236.41 L90.20,235.64 L89.95,234.88 L89.71,234.11 L89.48,233.34 L89.26,232.57 L89.06,231.79 L88.87,231.02 L88.69,230.25 L88.53,229.47 L88.37,228.70 L88.24,227.93 L88.11,227.15 L88.00,226.38 L87.91,225.60 L87.83,224.83 L87.76,224.06 L87.71,223.29 L87.67,222.52 L87.64,221.75 L87.64,220.98 L87.64,220.21 L87.66,219.45 L87.70,218.69 L87.75,217.93 L87.82,217.17 L87.90,216.42 L88.00,215.67 L88.11,214.92 L88.23,214.17 L88.38,213.43 L88.53,212.69 L88.71,211.96 L88.89,211.22 L89.10,210.50 L89.32,209.77 L89.55,209.06 L89.80,208.34 L90.06,207.63 L90.34,206.93 L90.63,206.23 L90.94,205.53 L91.26,204.85 L91.59,204.16 L91.94,203.48 L92.31,202.81 L92.68,202.15 L93.07,201.49 L93.48,200.83 L93.90,200.18 L94.33,199.54 L94.77,198.91 L95.23,198.28 L95.70,197.66 L96.18,197.04 L96.68,196.43 L97.18,195.83 L97.70,195.23 L98.23,194.65 L98.77,194.07 L99.32,193.49 L99.88,192.93 L100.46,192.37 L101.04,191.81 L101.63,191.27 L102.23,190.73 L102.85,190.20 L103.47,189.68 L104.10,189.16 L104.74,188.65 L105.38,188.15 L106.04,187.66 L106.70,187.17 L107.37,186.69 L108.04,186.22 L108.72,185.75 L109.41,185.29 L110.11,184.84 L110.81,184.40 L111.51,183.96 L112.22,183.53 L112.94,183.11 L113.66,182.69 L114.38,182.28 L115.11,181.87 L115.84,181.47 L116.57,181.08 L117.31,180.70 L118.05,180.32 L118.79,179.94 L119.53,179.57 L120.27,179.21 L121.02,178.85 L121.77,178.50 L122.51,178.15 L123.26,177.81 L124.01,177.47 L124.75,177.14 L125.50,176.81 L126.24,176.48 L126.98,176.16 L127.73,175.85 L128.47,175.53 L129.20,175.22 L129.94,174.91 L130.67,174.61 L131.40,174.31 L132.13,174.01 L132.85,173.71 L133.57,173.42 L134.28,173.13 L135.00,172.84 L135.70,172.55 L136.40,172.26 L137.10,171.97 L137.79,171.68 L138.48,171.40 L139.16,171.11 L139.84,170.83 L140.51,170.54 L141.17,170.25 L141.83,169.97 L142.48,169.68 L143.13,169.39 L143.77,169.10 L144.40,168.81 L145.02,168.51 L145.64,168.22 L146.25,167.92 L146.86,167.62 L147.46,167.32 L148.05,167.01 L148.63,166.70 L149.20,166.39 L149.77,166.07 L150.33,165.75 L150.89,165.43 L151.43,165.10 L151.97,164.77 L152.50,164.43 L153.02,164.09 L153.53,163.74 L154.04,163.39 L154.54,163.03 L155.03,162.67 L155.52,162.30 L155.99,161.92 L156.46,161.54 L156.92,161.16 L157.38,160.76 L157.83,160.36 L158.27,159.96 L158.70,159.55 L159.13,159.13 L159.55,158.70 L159.96,158.27 L160.36,157.83 L160.76,157.38 L161.16,156.92 L161.54,156.46 L161.92,155.99 L162.30,155.52 L162.67,155.03 L163.03,154.54 L163.39,154.04 L163.74,153.53 L164.09,153.02 L164.43,152.50 L164.77,151.97 L165.10,151.43 L165.43,150.89 L165.75,150.33 L166.07,149.77 L166.39,149.20 L166.70,148.63 L167.01,148.05 L167.32,147.46 L167.62,146.86 L167.92,146.25 L168.22,145.64 L168.51,145.02 L168.81,144.40 L169.10,143.77 L169.39,143.13 L169.68,142.48 L169.97,141.83 L170.25,141.17 L170.54,140.51 L170.83,139.84 L171.11,139.16 L171.40,138.48 L171.68,137.79 L171.97,137.10 L172.26,136.40 L172.55,135.70 L172.84,135.00 L173.13,134.28 L173.42,133.57 L173.71,132.85 L174.01,132.13 L174.31,131.40 L174.61,130.67 L174.91,129.94 L175.22,129.20 L175.53,128.47 L175.85,127.73 L176.16,126.98 L176.48,126.24 L176.81,125.50 L177.14,124.75 L177.47,124.01 L177.81,123.26 L178.15,122.51 L178.50,121.77 L178.85,121.02 L179.21,120.27 L179.57,119.53 L179.94,118.79 L180.32,118.05 L180.70,117.31 L181.08,116.57 L181.47,115.84 L181.87,115.11 L182.28,114.38 L182.69,113.66 L183.11,112.94 L183.53,112.22 L183.96,111.51 L184.40,110.81 L184.84,110.11 L185.29,109.41 L185.75,108.72 L186.22,108.04 L186.69,107.37 L187.17,106.70 L187.66,106.04 L188.15,105.38 L188.65,104.74 L189.16,104.10 L189.68,103.47 L190.20,102.85 L190.73,102.23 L191.27,101.63 L191.81,101.04 L192.37,100.46 L192.93,99.88 L193.49,99.32 L194.07,98.77 L194.65,98.23 L195.23,97.70 L195.83,97.18 L196.43,96.68 L197.04,96.18 L197.66,95.70 L198.28,95.23 L198.91,94.77 L199.54,94.33 L200.18,93.90 L200.83,93.48 L201.49,93.07 L202.15,92.68 L202.81,92.31 L203.48,91.94 L204.16,91.59 L204.85,91.26 L205.53,90.94 L206.23,90.63 L206.93,90.34 L207.63,90.06 L208.34,89.80 L209.06,89.55 L209.77,89.32 L210.50,89.10 L211.22,88.89 L211.96,88.71 L212.69,88.53 L213.43,88.38 L214.17,88.23 L214.92,88.11 L215.67,88.00 L216.42,87.90 L217.17,87.82 L217.93,87.75 L218.69,87.70 L219.45,87.66 L220.21,87.64 L220.98,87.64 L221.75,87.64 L222.52,87.67 L223.29,87.71 L224.06,87.76 L224.83,87.83 L225.60,87.91 L226.38,88.00 L227.15,88.11 L227.93,88.24 L228.70,88.37 L229.47,88.53 L230.25,88.69 L231.02,88.87 L231.79,89.06 L232.57,89.26 L233.34,89.48 L234.11,89.71 L234.88,89.95 L235.64,90.20 L236.41,90.47 L237.17,90.74 L237.93,91.03 L238.69,91.33 L239.45,91.64 L240.20,91.96 L240.96,92.28 L241.71,92.62 L242.45,92.97 L243.20,93.33 L243.94,93.70 L244.68,94.07 L245.41,94.46 L246.14,94.85 L246.87,95.25 L247.60,95.66 L248.32,96.07 L249.04,96.49 L249.75,96.92 L250.46,97.35 L251.17,97.79 L251.87,98.24 L252.57,98.69 L253.26,99.14 L253.95,99.60 L254.64,100.06 L255.32,100.53 L256.00,101.00 L256.67,101.47 L257.34,101.95 L258.01,102.43 L258.67,102.90 L259.33,103.39 L259.98,103.87 L260.63,104.35 L261.28,104.83 L261.92,105.32 L262.56,105.80 L263.19,106.28 L263.82,106.77 L264.45,107.25 L265.07,107.73 L265.69,108.21 L266.30,108.68 L266.91,109.15 L267.52,109.62 L268.12,110.09 L268.72,110.56 L269.32,111.02 L269.92,111.47 L270.51,111.92 L271.10,112.37 L271.68,112.81 L272.26,113.25 L272.84,113.68 L273.42,114.11 L274.00,114.53 L274.57,114.95 L275.14,115.35 L275.71,115.75 L276.28,116.15 L276.84,116.54 L277.41,116.92 L277.97,117.29 L278.53,117.66 L279.09,118.01 L279.65,118.36 L280.21,118.71 L280.77,119.04 L281.32,119.37 L281.88,119.68 L282.44,119.99 L282.99,120.29 L283.55,120.58 L284.11,120.86 L284.67,121.13 L285.23,121.39 L285.78,121.65 L286.35,121.89 L286.91,122.13 L287.47,122.35 L288.03,122.57 L288.60,122.78 L289.17,122.97 L289.74,123.16 L290.31,123.34 L290.88,123.51 L291.46,123.67 L292.04,123.82 L292.62,123.96 L293.20,124.09 L293.79,124.21 L294.38,124.33 L294.97,124.43 L295.57,124.52 L296.17,124.61 L296.77,124.69 L297.38,124.76 L297.99,124.82 L298.61,124.87 L299.23,124.91 L299.85,124.95 L300.48,124.97 L301.11,124.99 L301.75,125.00 L302.39,125.01 L303.03,125.01 L303.68,125.00 L304.34,124.98 L305.00,124.96 L305.66,124.93 L306.33,124.89 L307.00,124.85 L307.68,124.80 L308.36,124.75 L309.05,124.69 L309.75,124.63 L310.45,124.56 L311.15,124.49 L311.86,124.41 L312.57,124.33 L313.29,124.24 L314.01,124.16 L314.74,124.07 L315.47,123.97 L316.21,123.88 L316.95,123.78 L317.70,123.68 L318.45,123.58 L319.21,123.48 L319.97,123.37 L320.74,123.27 L321.51,123.16 L322.28,123.06 L323.06,122.95 L323.84,122.85 L324.63,122.75 L325.42,122.65 L326.21,122.55 L327.01,122.45 L327.81,122.35 L328.62,122.26 L329.42,122.17 L330.23,122.08 L331.05,122.00 L331.86,121.91 L332.68,121.84 L333.50,121.77 L334.32,121.70 L335.15,121.64 L335.97,121.58 L336.80,121.53 L337.63,121.48 L338.46,121.44 L339.29,121.41 L340.12,121.38 L340.95,121.36 L341.78,121.35 L342.62,121.34 L343.45,121.34 L344.28,121.35 L345.11,121.37 L345.94,121.39 L346.77,121.43 L347.60,121.47 L348.42,121.53 L349.25,121.59 L350.07,121.66 L350.89,121.74 L351.70,121.83 L352.52,121.93 L353.33,122.04 L354.13,122.16 L354.94,122.30 L355.73,122.44 L356.53,122.59 L357.32,122.76 L358.11,122.93 L358.89,123.12 L359.66,123.32 L360.43,123.53 L361.20,123.75 L361.96,123.98 L362.71,124.23 L363.46,124.48 L364.19,124.75 L364.93,125.03 L365.65,125.32 L366.37,125.63 L367.08,125.94 L367.78,126.27 L368.48,126.61 L369.16,126.96 L369.84,127.33 L370.51,127.70 L371.17,128.09 L371.82,128.49 L372.46,128.90 L373.09,129.33 L373.72,129.76 L374.33,130.21 L374.93,130.67 L375.53,131.14 L376.11,131.63 L376.68,132.12 L377.24,132.63 L377.79,133.14 L378.33,133.67 L378.86,134.21 L379.37,134.76 L379.88,135.32 L380.37,135.89 L380.86,136.47 L381.33,137.07 L381.79,137.67 L382.24,138.28 L382.67,138.91 L383.10,139.54 L383.51,140.18 L383.91,140.83 L384.30,141.49 L384.67,142.16 L385.04,142.84 L385.39,143.52 L385.73,144.22 L386.06,144.92 L386.37,145.63 L386.68,146.35 L386.97,147.07 L387.25,147.81 L387.52,148.54 L387.77,149.29 L388.02,150.04 L388.25,150.80 L388.47,151.57 L388.68,152.34 L388.88,153.11 L389.07,153.89 L389.24,154.68 L389.41,155.47 L389.56,156.27 L389.70,157.06 L389.84,157.87 L389.96,158.67 L390.07,159.48 L390.17,160.30 L390.26,161.11 L390.34,161.93 L390.41,162.75 L390.47,163.58 L390.53,164.40 L390.57,165.23 L390.61,166.06 L390.63,166.89 L390.65,167.72 L390.66,168.55 L390.66,169.38 L390.65,170.22 L390.64,171.05 L390.62,171.88 L390.59,172.71 L390.56,173.54 L390.52,174.37 L390.47,175.20 L390.42,176.03 L390.36,176.85 L390.30,177.68 L390.23,178.50 L390.16,179.32 L390.09,180.14 L390.00,180.95 L389.92,181.77 L389.83,182.58 L389.74,183.38 L389.65,184.19 L389.55,184.99 L389.45,185.79 L389.35,186.58 L389.25,187.37 L389.15,188.16 L389.05,188.94 L388.94,189.72 L388.84,190.49 L388.73,191.26 L388.63,192.03 L388.52,192.79 L388.42,193.55 L388.32,194.30 L388.22,195.05 L388.12,195.79 L388.03,196.53 L387.93,197.26 L387.84,197.99 L387.76,198.71 L387.67,199.43 L387.59,200.14 L387.51,200.85 L387.44,201.55 L387.37,202.25 L387.31,202.95 L387.25,203.64 L387.20,204.32 L387.15,205.00 L387.11,205.67 L387.07,206.34 L387.04,207.00 L387.02,207.66 L387.00,208.32 L386.99,208.97 L386.99,209.61 L387.00,210.25 L387.01,210.89 L387.03,211.52 L387.05,212.15 L387.09,212.77 L387.13,213.39 L387.18,214.01 L387.24,214.62 L387.31,215.23 L387.39,215.83 L387.48,216.43 L387.57,217.03 L387.67,217.62 L387.79,218.21 L387.91,218.80 L388.04,219.38 L388.18,219.96 L388.33,220.54 L388.49,221.12 L388.66,221.69 L388.84,222.26 L389.03,222.83 L389.22,223.40 L389.43,223.97 L389.65,224.53 L389.87,225.09 L390.11,225.65 L390.35,226.22 L390.61,226.77 L390.87,227.33 L391.14,227.89 L391.42,228.45 L391.71,229.01 L392.01,229.56 L392.32,230.12 L392.63,230.68 L392.96,231.23 L393.29,231.79 L393.64,232.35 L393.99,232.91 L394.34,233.47 L394.71,234.03 L395.08,234.59 L395.46,235.16 L395.85,235.72 L396.25,236.29 L396.65,236.86 L397.05,237.43 L397.47,238.00 L397.89,238.58 L398.32,239.16 L398.75,239.74 L399.19,240.32 L399.63,240.90 L400.08,241.49 L400.53,242.08 L400.98,242.68 L401.44,243.28 L401.91,243.88 L402.38,244.48 L402.85,245.09 L403.32,245.70 L403.79,246.31 L404.27,246.93 L404.75,247.55 L405.23,248.18 L405.72,248.81 L406.20,249.44 L406.68,250.08 L407.17,250.72 L407.65,251.37 L408.13,252.02 L408.61,252.67 L409.10,253.33 L409.57,253.99 L410.05,254.66 L410.53,255.33 L411.00,256.00 Z" fill="none" stroke="#44aaff" stroke-width="10" filter="url(#glow)"/>

  <!-- Doubled inner arcs (semiquaver sections) -->
  <path d="M382.40,257.65 L382.86,258.21 L383.32,258.78 L383.77,259.35 L384.22,259.92 L384.66,260.49 L385.10,261.07 L385.54,261.66 L385.96,262.24 L386.38,262.83 L386.80,263.43 L387.21,264.02 L387.61,264.63 L388.00,265.23 L388.38,265.84 L388.76,266.45 L389.13,267.06 L389.49,267.68 L389.84,268.30 L390.18,268.92 L390.52,269.54 L390.84,270.17 L391.15,270.80 L391.45,271.43 L391.74,272.07 L392.02,272.70 L392.29,273.34 L392.55,273.98 L392.80,274.62 L393.03,275.26 L393.25,275.90 L393.46,276.54 L393.66,277.19 L393.84,277.83 L394.02,278.48 L394.17,279.12 L394.32,279.77 L394.45,280.41 L394.57,281.06 L394.68,281.70 L394.77,282.35 L394.85,282.99 L394.91,283.63 L394.96,284.27 L394.99,284.91 L395.01,285.55 L395.02,286.18 L395.01,286.82 L394.99,287.45 L394.95,288.08 L394.90,288.71 L394.83,289.33 L394.75,289.95 L394.66,290.57 L394.55,291.19 L394.42,291.80 L394.28,292.41 L394.13,293.01 L393.96,293.61 L393.78,294.21 L393.58,294.80 L393.37,295.39 L393.14,295.97 L392.90,296.55 L392.64,297.13 L392.38,297.69 L392.09,298.26 L391.80,298.82 L391.49,299.37 L391.16,299.92 L390.83,300.46 L390.48,301.00 L390.11,301.53 L389.74,302.05 L389.35,302.57 L388.95,303.08 L388.54,303.58 L388.11,304.08 L387.67,304.58 L387.22,305.06 L386.76,305.54 L386.29,306.01 L385.81,306.48 L385.32,306.94 L384.81,307.39 L384.30,307.84 L383.78,308.27 L383.24,308.71 L382.70,309.13 L382.15,309.55 L381.59,309.96 L381.02,310.36 L380.44,310.76 L379.86,311.15 L379.27,311.53 L378.67,311.90 L378.06,312.27 L377.45,312.63 L376.83,312.98 L376.20,313.33 L375.57,313.67 L374.93,314.01 L374.29,314.33 L373.64,314.65 L372.99,314.97 L372.33,315.27 L371.67,315.58 L371.01,315.87 L370.34,316.16 L369.67,316.44 L369.00,316.72 L368.33,316.99 L367.65,317.25 L366.97,317.51 L366.29,317.77 M317.77,366.29 L317.51,366.97 L317.25,367.65 L316.99,368.33 L316.72,369.00 L316.44,369.67 L316.16,370.34 L315.87,371.01 L315.58,371.67 L315.27,372.33 L314.97,372.99 L314.65,373.64 L314.33,374.29 L314.01,374.93 L313.67,375.57 L313.33,376.20 L312.98,376.83 L312.63,377.45 L312.27,378.06 L311.90,378.67 L311.53,379.27 L311.15,379.86 L310.76,380.44 L310.36,381.02 L309.96,381.59 L309.55,382.15 L309.13,382.70 L308.71,383.24 L308.27,383.78 L307.84,384.30 L307.39,384.81 L306.94,385.32 L306.48,385.81 L306.01,386.29 L305.54,386.76 L305.06,387.22 L304.58,387.67 L304.08,388.11 L303.58,388.54 L303.08,388.95 L302.57,389.35 L302.05,389.74 L301.53,390.11 L301.00,390.48 L300.46,390.83 L299.92,391.16 L299.37,391.49 L298.82,391.80 L298.26,392.09 L297.69,392.38 L297.13,392.64 L296.55,392.90 L295.97,393.14 L295.39,393.37 L294.80,393.58 L294.21,393.78 L293.61,393.96 L293.01,394.13 L292.41,394.28 L291.80,394.42 L291.19,394.55 L290.57,394.66 L289.95,394.75 L289.33,394.83 L288.71,394.90 L288.08,394.95 L287.45,394.99 L286.82,395.01 L286.18,395.02 L285.55,395.01 L284.91,394.99 L284.27,394.96 L283.63,394.91 L282.99,394.85 L282.35,394.77 L281.70,394.68 L281.06,394.57 L280.41,394.45 L279.77,394.32 L279.12,394.17 L278.48,394.02 L277.83,393.84 L277.19,393.66 L276.54,393.46 L275.90,393.25 L275.26,393.03 L274.62,392.80 L273.98,392.55 L273.34,392.29 L272.70,392.02 L272.07,391.74 L271.43,391.45 L270.80,391.15 L270.17,390.84 L269.54,390.52 L268.92,390.18 L268.30,389.84 L267.68,389.49 L267.06,389.13 L266.45,388.76 L265.84,388.38 L265.23,388.00 L264.63,387.61 L264.02,387.21 L263.43,386.80 L262.83,386.38 L262.24,385.96 L261.66,385.54 L261.07,385.10 L260.49,384.66 L259.92,384.22 L259.35,383.77 L258.78,383.32 L258.21,382.86 L257.65,382.40 M191.37,364.64 L190.65,364.76 L189.93,364.87 L189.22,364.98 L188.50,365.08 L187.78,365.18 L187.06,365.27 L186.33,365.35 L185.61,365.43 L184.89,365.50 L184.17,365.56 L183.45,365.61 L182.73,365.66 L182.01,365.70 L181.29,365.73 L180.57,365.75 L179.85,365.76 L179.14,365.77 L178.43,365.76 L177.72,365.75 L177.01,365.72 L176.31,365.69 L175.61,365.64 L174.91,365.59 L174.21,365.52 L173.52,365.45 L172.84,365.36 L172.16,365.27 L171.48,365.16 L170.81,365.04 L170.14,364.91 L169.48,364.77 L168.82,364.62 L168.17,364.46 L167.53,364.29 L166.89,364.10 L166.26,363.91 L165.63,363.70 L165.01,363.48 L164.40,363.25 L163.80,363.00 L163.20,362.75 L162.62,362.48 L162.04,362.21 L161.47,361.92 L160.90,361.62 L160.35,361.30 L159.80,360.98 L159.27,360.64 L158.74,360.30 L158.23,359.94 L157.72,359.57 L157.22,359.19 L156.73,358.79 L156.25,358.39 L155.79,357.98 L155.33,357.55 L154.88,357.12 L154.45,356.67 L154.02,356.21 L153.61,355.75 L153.21,355.27 L152.81,354.78 L152.43,354.28 L152.06,353.77 L151.70,353.26 L151.36,352.73 L151.02,352.20 L150.70,351.65 L150.38,351.10 L150.08,350.53 L149.79,349.96 L149.52,349.38 L149.25,348.80 L149.00,348.20 L148.75,347.60 L148.52,346.99 L148.30,346.37 L148.09,345.74 L147.90,345.11 L147.71,344.47 L147.54,343.83 L147.38,343.18 L147.23,342.52 L147.09,341.86 L146.96,341.19 L146.84,340.52 L146.73,339.84 L146.64,339.16 L146.55,338.48 L146.48,337.79 L146.41,337.09 L146.36,336.39 L146.31,335.69 L146.28,334.99 L146.25,334.28 L146.24,333.57 L146.23,332.86 L146.24,332.15 L146.25,331.43 L146.27,330.71 L146.30,329.99 L146.34,329.27 L146.39,328.55 L146.44,327.83 L146.50,327.11 L146.57,326.39 L146.65,325.67 L146.73,324.94 L146.82,324.22 L146.92,323.50 L147.02,322.78 L147.13,322.07 L147.24,321.35 L147.36,320.63 M129.60,254.35 L129.14,253.79 L128.68,253.22 L128.23,252.65 L127.78,252.08 L127.34,251.51 L126.90,250.93 L126.46,250.34 L126.04,249.76 L125.62,249.17 L125.20,248.57 L124.79,247.98 L124.39,247.37 L124.00,246.77 L123.62,246.16 L123.24,245.55 L122.87,244.94 L122.51,244.32 L122.16,243.70 L121.82,243.08 L121.48,242.46 L121.16,241.83 L120.85,241.20 L120.55,240.57 L120.26,239.93 L119.98,239.30 L119.71,238.66 L119.45,238.02 L119.20,237.38 L118.97,236.74 L118.75,236.10 L118.54,235.46 L118.34,234.81 L118.16,234.17 L117.98,233.52 L117.83,232.88 L117.68,232.23 L117.55,231.59 L117.43,230.94 L117.32,230.30 L117.23,229.65 L117.15,229.01 L117.09,228.37 L117.04,227.73 L117.01,227.09 L116.99,226.45 L116.98,225.82 L116.99,225.18 L117.01,224.55 L117.05,223.92 L117.10,223.29 L117.17,222.67 L117.25,222.05 L117.34,221.43 L117.45,220.81 L117.58,220.20 L117.72,219.59 L117.87,218.99 L118.04,218.39 L118.22,217.79 L118.42,217.20 L118.63,216.61 L118.86,216.03 L119.10,215.45 L119.36,214.87 L119.62,214.31 L119.91,213.74 L120.20,213.18 L120.51,212.63 L120.84,212.08 L121.17,211.54 L121.52,211.00 L121.89,210.47 L122.26,209.95 L122.65,209.43 L123.05,208.92 L123.46,208.42 L123.89,207.92 L124.33,207.42 L124.78,206.94 L125.24,206.46 L125.71,205.99 L126.19,205.52 L126.68,205.06 L127.19,204.61 L127.70,204.16 L128.22,203.73 L128.76,203.29 L129.30,202.87 L129.85,202.45 L130.41,202.04 L130.98,201.64 L131.56,201.24 L132.14,200.85 L132.73,200.47 L133.33,200.10 L133.94,199.73 L134.55,199.37 L135.17,199.02 L135.80,198.67 L136.43,198.33 L137.07,197.99 L137.71,197.67 L138.36,197.35 L139.01,197.03 L139.67,196.73 L140.33,196.42 L140.99,196.13 L141.66,195.84 L142.33,195.56 L143.00,195.28 L143.67,195.01 L144.35,194.75 L145.03,194.49 L145.71,194.23 M194.23,145.71 L194.49,145.03 L194.75,144.35 L195.01,143.67 L195.28,143.00 L195.56,142.33 L195.84,141.66 L196.13,140.99 L196.42,140.33 L196.73,139.67 L197.03,139.01 L197.35,138.36 L197.67,137.71 L197.99,137.07 L198.33,136.43 L198.67,135.80 L199.02,135.17 L199.37,134.55 L199.73,133.94 L200.10,133.33 L200.47,132.73 L200.85,132.14 L201.24,131.56 L201.64,130.98 L202.04,130.41 L202.45,129.85 L202.87,129.30 L203.29,128.76 L203.73,128.22 L204.16,127.70 L204.61,127.19 L205.06,126.68 L205.52,126.19 L205.99,125.71 L206.46,125.24 L206.94,124.78 L207.42,124.33 L207.92,123.89 L208.42,123.46 L208.92,123.05 L209.43,122.65 L209.95,122.26 L210.47,121.89 L211.00,121.52 L211.54,121.17 L212.08,120.84 L212.63,120.51 L213.18,120.20 L213.74,119.91 L214.31,119.62 L214.87,119.36 L215.45,119.10 L216.03,118.86 L216.61,118.63 L217.20,118.42 L217.79,118.22 L218.39,118.04 L218.99,117.87 L219.59,117.72 L220.20,117.58 L220.81,117.45 L221.43,117.34 L222.05,117.25 L222.67,117.17 L223.29,117.10 L223.92,117.05 L224.55,117.01 L225.18,116.99 L225.82,116.98 L226.45,116.99 L227.09,117.01 L227.73,117.04 L228.37,117.09 L229.01,117.15 L229.65,117.23 L230.30,117.32 L230.94,117.43 L231.59,117.55 L232.23,117.68 L232.88,117.83 L233.52,117.98 L234.17,118.16 L234.81,118.34 L235.46,118.54 L236.10,118.75 L236.74,118.97 L237.38,119.20 L238.02,119.45 L238.66,119.71 L239.30,119.98 L239.93,120.26 L240.57,120.55 L241.20,120.85 L241.83,121.16 L242.46,121.48 L243.08,121.82 L243.70,122.16 L244.32,122.51 L244.94,122.87 L245.55,123.24 L246.16,123.62 L246.77,124.00 L247.37,124.39 L247.98,124.79 L248.57,125.20 L249.17,125.62 L249.76,126.04 L250.34,126.46 L250.93,126.90 L251.51,127.34 L252.08,127.78 L252.65,128.23 L253.22,128.68 L253.79,129.14 L254.35,129.60 M320.63,147.36 L321.35,147.24 L322.07,147.13 L322.78,147.02 L323.50,146.92 L324.22,146.82 L324.94,146.73 L325.67,146.65 L326.39,146.57 L327.11,146.50 L327.83,146.44 L328.55,146.39 L329.27,146.34 L329.99,146.30 L330.71,146.27 L331.43,146.25 L332.15,146.24 L332.86,146.23 L333.57,146.24 L334.28,146.25 L334.99,146.28 L335.69,146.31 L336.39,146.36 L337.09,146.41 L337.79,146.48 L338.48,146.55 L339.16,146.64 L339.84,146.73 L340.52,146.84 L341.19,146.96 L341.86,147.09 L342.52,147.23 L343.18,147.38 L343.83,147.54 L344.47,147.71 L345.11,147.90 L345.74,148.09 L346.37,148.30 L346.99,148.52 L347.60,148.75 L348.20,149.00 L348.80,149.25 L349.38,149.52 L349.96,149.79 L350.53,150.08 L351.10,150.38 L351.65,150.70 L352.20,151.02 L352.73,151.36 L353.26,151.70 L353.77,152.06 L354.28,152.43 L354.78,152.81 L355.27,153.21 L355.75,153.61 L356.21,154.02 L356.67,154.45 L357.12,154.88 L357.55,155.33 L357.98,155.79 L358.39,156.25 L358.79,156.73 L359.19,157.22 L359.57,157.72 L359.94,158.23 L360.30,158.74 L360.64,159.27 L360.98,159.80 L361.30,160.35 L361.62,160.90 L361.92,161.47 L362.21,162.04 L362.48,162.62 L362.75,163.20 L363.00,163.80 L363.25,164.40 L363.48,165.01 L363.70,165.63 L363.91,166.26 L364.10,166.89 L364.29,167.53 L364.46,168.17 L364.62,168.82 L364.77,169.48 L364.91,170.14 L365.04,170.81 L365.16,171.48 L365.27,172.16 L365.36,172.84 L365.45,173.52 L365.52,174.21 L365.59,174.91 L365.64,175.61 L365.69,176.31 L365.72,177.01 L365.75,177.72 L365.76,178.43 L365.77,179.14 L365.76,179.85 L365.75,180.57 L365.73,181.29 L365.70,182.01 L365.66,182.73 L365.61,183.45 L365.56,184.17 L365.50,184.89 L365.43,185.61 L365.35,186.33 L365.27,187.06 L365.18,187.78 L365.08,188.50 L364.98,189.22 L364.87,189.93 L364.76,190.65 L364.64,191.37" fill="none" stroke="#44aaff" stroke-width="7" opacity="0.90"/>
</svg>