<svg xmlns="http://www.w3.org/2000/svg" xmlns:xlink="http://www.w3.org/1999/xlink" viewBox="0 0 512 512">
  <defs>
    <filter id="glow" x="-40%" y="-40%" width="180%" height="180%">
      <feGaussianBlur stdDeviation="4" result="blur"/>
      <feMerge>
        <feMergeNode in="blur"/>
        <feMergeNode in="SourceGraphic"/>
      </feMerge>
    </filter>
    
    <g id="spike">
      <line x1="0" y1="0" x2="0" y2="-75" stroke="#44aaff" stroke-width="9" stroke-linecap="round"/>
      <ellipse cx="-23" cy="-75" rx="30" ry="20" transform="rotate(-25,-23,-75)" fill="#44aaff"/>
    </g>
  </defs>

  <!-- Background -->
  <rect width="512" height="512" rx="88" fill="#0d0d14"/>

  <!-- Virus body fill -->
  <path d="M384.00,256.00 L384.26,256.56 L384.52,257.12 L384.77,257.69 L385.03,258.25 L385.28,258.82 L385.52,259.39 L385.77,259.96 L386.01,260.54 L386.25,261.12 L386.48,261.70 L386.71,262.28 L386.94,262.86 L387.16,263.45 L387.38,264.04 L387.60,264.63 L387.81,265.22 L388.02,265.81 L388.23,266.41 L388.43,267.00 L388.62,267.60 L388.82,268.20 L389.00,268.81 L389.19,269.41 L389.37,270.02 L389.54,270.63 L389.71,271.23 L389.88,271.85 L390.04,272.46 L390.19,273.07 L390.34,273.69 L390.49,274.30 L390.63,274.92 L390.76,275.54 L390.89,276.16 L391.01,276.78 L391.13,277.40 L391.25,278.03 L391.35,278.65 L391.45,279.28 L391.55,279.90 L391.64,280.53 L391.73,281.16 L391.80,281.78 L391.88,282.41 L391.94,283.04 L392.00,283.67 L392.06,284.30 L392.11,284.93 L392.15,285.56 L392.18,286.19 L392.21,286.82 L392.24,287.45 L392.25,288.08 L392.26,288.71 L392.27,289.34 L392.26,289.97 L392.25,290.60 L392.24,291.23 L392.22,291.86 L392.19,292.49 L392.15,293.12 L392.11,293.75 L392.06,294.37 L392.00,295.00 L391.94,295.62 L391.87,296.25 L391.79,296.87 L391.71,297.49 L391.62,298.11 L391.52,298.73 L391.41,299.35 L391.30,299.96 L391.18,300.58 L391.06,301.19 L390.93,301.80 L390.79,302.41 L390.64,303.02 L390.49,303.62 L390.33,304.23 L390.16,304.83 L389.99,305.43 L389.81,306.03 L389.62,306.62 L389.43,307.22 L389.22,307.81 L389.02,308.40 L388.80,308.98 L388.58,309.57 L388.35,310.15 L388.11,310.72 L387.87,311.30 L387.62,311.87 L387.37,312.44 L387.11,313.01 L386.84,313.57 L386.56,314.13 L386.28,314.69 L385.99,315.24 L385.70,315.79 L385.40,316.34 L385.09,316.88 L384.77,317.42 L384.45,317.96 L384.13,318.49 L383.79,319.02 L383.46,319.55 L383.11,320.07 L382.76,320.59 L382.40,321.10 L382.04,321.61 L381.67,322.12 L381.30,322.62 L380.92,323.12 L380.53,323.61 L380.14,324.11 L379.74,324.59 L379.34,325.07 L378.93,325.55 L378.52,326.03 L378.10,326.50 L377.68,326.96 L377.25,327.42 L376.82,327.88 L376.38,328.33 L375.93,328.78 L375.48,329.22 L375.03,329.66 L374.57,330.09 L374.11,330.52 L373.65,330.95 L373.17,331.37 L372.70,331.78 L372.22,332.20 L371.74,332.60 L371.25,333.01 L370.76,333.40 L370.26,333.80 L369.76,334.18 L369.26,334.57 L368.75,334.95 L368.24,335.32 L367.73,335.69 L367.21,336.06 L366.69,336.42 L366.16,336.78 L365.64,337.13 L365.11,337.47 L364.57,337.82 L364.04,338.15 L363.50,338.49 L362.96,338.82 L362.41,339.14 L361.87,339.46 L361.32,339.78 L360.77,340.09 L360.22,340.39 L359.66,340.69 L359.10,340.99 L358.54,341.29 L357.98,341.57 L357.42,341.86 L356.86,342.14 L356.29,342.42 L355.72,342.69 L355.15,342.96 L354.58,343.22 L354.01,343.48 L353.44,343.74 L352.87,343.99 L352.29,344.24 L351.72,344.48 L351.14,344.72 L350.56,344.96 L349.99,345.19 L349.41,345.42 L348.83,345.64 L348.25,345.86 L347.67,346.08 L347.09,346.30 L346.51,346.51 L345.93,346.72 L345.35,346.92 L344.77,347.12 L344.19,347.32 L343.61,347.52 L343.03,347.71 L342.45,347.90 L341.87,348.09 L341.29,348.27 L340.72,348.45 L340.14,348.63 L339.56,348.80 L338.99,348.98 L338.41,349.15 L337.84,349.32 L337.26,349.48 L336.69,349.65 L336.12,349.81 L335.55,349.97 L334.98,350.12 L334.41,350.28 L333.84,350.43 L333.28,350.58 L332.71,350.73 L332.15,350.88 L331.59,351.03 L331.03,351.17 L330.47,351.32 L329.91,351.46 L329.36,351.60 L328.80,351.74 L328.25,351.88 L327.70,352.01 L327.15,352.15 L326.60,352.29 L326.05,352.42 L325.51,352.56 L324.97,352.69 L324.43,352.82 L323.89,352.95 L323.35,353.09 L322.82,353.22 L322.28,353.35 L321.75,353.48 L321.22,353.61 L320.69,353.74 L320.17,353.87 L319.64,354.00 L319.12,354.13 L318.60,354.26 L318.08,354.39 L317.57,354.53 L317.05,354.66 L316.54,354.79 L316.03,354.92 L315.52,355.06 L315.01,355.19 L314.51,355.33 L314.01,355.46 L313.50,355.60 L313.01,355.74 L312.51,355.88 L312.01,356.02 L311.52,356.16 L311.03,356.30 L310.54,356.45 L310.05,356.59 L309.56,356.74 L309.08,356.89 L308.60,357.03 L308.11,357.19 L307.63,357.34 L307.16,357.49 L306.68,357.65 L306.20,357.81 L305.73,357.96 L305.26,358.13 L304.79,358.29 L304.32,358.45 L303.85,358.62 L303.39,358.79 L302.92,358.96 L302.46,359.13 L301.99,359.31 L301.53,359.48 L301.07,359.66 L300.61,359.84 L300.16,360.03 L299.70,360.21 L299.24,360.40 L298.79,360.59 L298.33,360.78 L297.88,360.97 L297.43,361.17 L296.98,361.37 L296.53,361.57 L296.07,361.77 L295.62,361.98 L295.18,362.19 L294.73,362.40 L294.28,362.61 L293.83,362.83 L293.38,363.05 L292.93,363.26 L292.49,363.49 L292.04,363.71 L291.59,363.94 L291.15,364.17 L290.70,364.40 L290.25,364.63 L289.80,364.87 L289.36,365.11 L288.91,365.35 L288.46,365.59 L288.01,365.83 L287.57,366.08 L287.12,366.33 L286.67,366.58 L286.22,366.84 L285.77,367.09 L285.32,367.35 L284.86,367.61 L284.41,367.87 L283.96,368.13 L283.50,368.40 L283.05,368.66 L282.59,368.93 L282.13,369.20 L281.68,369.47 L281.22,369.75 L280.76,370.02 L280.30,370.30 L279.83,370.58 L279.37,370.86 L278.90,371.14 L278.44,371.42 L277.97,371.70 L277.50,371.99 L277.03,372.27 L276.55,372.56 L276.08,372.85 L275.60,373.14 L275.12,373.43 L274.64,373.72 L274.16,374.01 L273.68,374.30 L273.19,374.59 L272.71,374.88 L272.22,375.18 L271.73,375.47 L271.24,375.76 L270.74,376.06 L270.24,376.35 L269.75,376.64 L269.24,376.94 L268.74,377.23 L268.24,377.52 L267.73,377.82 L267.22,378.11 L266.71,378.40 L266.20,378.69 L265.68,378.98 L265.16,379.27 L264.64,379.56 L264.12,379.85 L263.59,380.14 L263.07,380.43 L262.54,380.71 L262.00,380.99 L261.47,381.28 L260.93,381.56 L260.39,381.84 L259.85,382.11 L259.31,382.39 L258.76,382.66 L258.22,382.93 L257.67,383.20 L257.11,383.47 L256.56,383.74 L256.00,384.00 L255.44,384.26 L254.88,384.52 L254.31,384.77 L253.75,385.03 L253.18,385.28 L252.61,385.52 L252.04,385.77 L251.46,386.01 L250.88,386.25 L250.30,386.48 L249.72,386.71 L249.14,386.94 L248.55,387.16 L247.96,387.38 L247.37,387.60 L246.78,387.81 L246.19,388.02 L245.59,388.23 L245.00,388.43 L244.40,388.62 L243.80,388.82 L243.19,389.00 L242.59,389.19 L241.98,389.37 L241.37,389.54 L240.77,389.71 L240.15,389.88 L239.54,390.04 L238.93,390.19 L238.31,390.34 L237.70,390.49 L237.08,390.63 L236.46,390.76 L235.84,390.89 L235.22,391.01 L234.60,391.13 L233.97,391.25 L233.35,391.35 L232.72,391.45 L232.10,391.55 L231.47,391.64 L230.84,391.73 L230.22,391.80 L229.59,391.88 L228.96,391.94 L228.33,392.00 L227.70,392.06 L227.07,392.11 L226.44,392.15 L225.81,392.18 L225.18,392.21 L224.55,392.24 L223.92,392.25 L223.29,392.26 L222.66,392.27 L222.03,392.26 L221.40,392.25 L220.77,392.24 L220.14,392.22 L219.51,392.19 L218.88,392.15 L218.25,392.11 L217.63,392.06 L217.00,392.00 L216.38,391.94 L215.75,391.87 L215.13,391.79 L214.51,391.71 L213.89,391.62 L213.27,391.52 L212.65,391.41 L212.04,391.30 L211.42,391.18 L210.81,391.06 L210.20,390.93 L209.59,390.79 L208.98,390.64 L208.38,390.49 L207.77,390.33 L207.17,390.16 L206.57,389.99 L205.97,389.81 L205.38,389.62 L204.78,389.43 L204.19,389.22 L203.60,389.02 L203.02,388.80 L202.43,388.58 L201.85,388.35 L201.28,388.11 L200.70,387.87 L200.13,387.62 L199.56,387.37 L198.99,387.11 L198.43,386.84 L197.87,386.56 L197.31,386.28 L196.76,385.99 L196.21,385.70 L195.66,385.40 L195.12,385.09 L194.58,384.77 L194.04,384.45 L193.51,384.13 L192.98,383.79 L192.45,383.46 L191.93,383.11 L191.41,382.76 L190.90,382.40 L190.39,382.04 L189.88,381.67 L189.38,381.30 L188.88,380.92 L188.39,380.53 L187.89,380.14 L187.41,379.74 L186.93,379.34 L186.45,378.93 L185.97,378.52 L185.50,378.10 L185.04,377.68 L184.58,377.25 L184.12,376.82 L183.67,376.38 L183.22,375.93 L182.78,375.48 L182.34,375.03 L181.91,374.57 L181.48,374.11 L181.05,373.65 L180.63,373.17 L180.22,372.70 L179.80,372.22 L179.40,371.74 L178.99,371.25 L178.60,370.76 L178.20,370.26 L177.82,369.76 L177.43,369.26 L177.05,368.75 L176.68,368.24 L176.31,367.73 L175.94,367.21 L175.58,366.69 L175.22,366.16 L174.87,365.64 L174.53,365.11 L174.18,364.57 L173.85,364.04 L173.51,363.50 L173.18,362.96 L172.86,362.41 L172.54,361.87 L172.22,361.32 L171.91,360.77 L171.61,360.22 L171.31,359.66 L171.01,359.10 L170.71,358.54 L170.43,357.98 L170.14,357.42 L169.86,356.86 L169.58,356.29 L169.31,355.72 L169.04,355.15 L168.78,354.58 L168.52,354.01 L168.26,353.44 L168.01,352.87 L167.76,352.29 L167.52,351.72 L167.28,351.14 L167.04,350.56 L166.81,349.99 L166.58,349.41 L166.36,348.83 L166.14,348.25 L165.92,347.67 L165.70,347.09 L165.49,346.51 L165.28,345.93 L165.08,345.35 L164.88,344.77 L164.68,344.19 L164.48,343.61 L164.29,343.03 L164.10,342.45 L163.91,341.87 L163.73,341.29 L163.55,340.72 L163.37,340.14 L163.20,339.56 L163.02,338.99 L162.85,338.41 L162.68,337.84 L162.52,337.26 L162.35,336.69 L162.19,336.12 L162.03,335.55 L161.88,334.98 L161.72,334.41 L161.57,333.84 L161.42,333.28 L161.27,332.71 L161.12,332.15 L160.97,331.59 L160.83,331.03 L160.68,330.47 L160.54,329.91 L160.40,329.36 L160.26,328.80 L160.12,328.25 L159.99,327.70 L159.85,327.15 L159.71,326.60 L159.58,326.05 L159.44,325.51 L159.31,324.97 L159.18,324.43 L159.05,323.89 L158.91,323.35 L158.78,322.82 L158.65,322.28 L158.52,321.75 L158.39,321.22 L158.26,320.69 L158.13,320.17 L158.00,319.64 L157.87,319.12 L157.74,318.60 L157.61,318.08 L157.47,317.57 L157.34,317.05 L157.21,316.54 L157.08,316.03 L156.94,315.52 L156.81,315.01 L156.67,314.51 L156.54,314.01 L156.40,313.50 L156.26,313.01 L156.12,312.51 L155.98,312.01 L155.84,311.52 L155.70,311.03 L155.55,310.54 L155.41,310.05 L155.26,309.56 L155.11,309.08 L154.97,308.60 L154.81,308.11 L154.66,307.63 L154.51,307.16 L154.35,306.68 L154.19,306.20 L154.04,305.73 L153.87,305.26 L153.71,304.79 L153.55,304.32 L153.38,303.85 L153.21,303.39 L153.04,302.92 L152.87,302.46 L152.69,301.99 L152.52,301.53 L152.34,301.07 L152.16,300.61 L151.97,300.16 L151.79,299.70 L151.60,299.24 L151.41,298.79 L151.22,298.33 L151.03,297.88 L150.83,297.43 L150.63,296.98 L150.43,296.53 L150.23,296.07 L150.02,295.62 L149.81,295.18 L149.60,294.73 L149.39,294.28 L149.17,293.83 L148.95,293.38 L148.74,292.93 L148.51,292.49 L148.29,292.04 L148.06,291.59 L147.83,291.15 L147.60,290.70 L147.37,290.25 L147.13,289.80 L146.89,289.36 L146.65,288.91 L146.41,288.46 L146.17,288.01 L145.92,287.57 L145.67,287.12 L145.42,286.67 L145.16,286.22 L144.91,285.77 L144.65,285.32 L144.39,284.86 L144.13,284.41 L143.87,283.96 L143.60,283.50 L143.34,283.05 L143.07,282.59 L142.80,282.13 L142.53,281.68 L142.25,281.22 L141.98,280.76 L141.70,280.30 L141.42,279.83 L141.14,279.37 L140.86,278.90 L140.58,278.44 L140.30,277.97 L140.01,277.50 L139.73,277.03 L139.44,276.55 L139.15,276.08 L138.86,275.60 L138.57,275.12 L138.28,274.64 L137.99,274.16 L137.70,273.68 L137.41,273.19 L137.12,272.71 L136.82,272.22 L136.53,271.73 L136.24,271.24 L135.94,270.74 L135.65,270.24 L135.36,269.75 L135.06,269.24 L134.77,268.74 L134.48,268.24 L134.18,267.73 L133.89,267.22 L133.60,266.71 L133.31,266.20 L133.02,265.68 L132.73,265.16 L132.44,264.64 L132.15,264.12 L131.86,263.59 L131.57,263.07 L131.29,262.54 L131.01,262.00 L130.72,261.47 L130.44,260.93 L130.16,260.39 L129.89,259.85 L129.61,259.31 L129.34,258.76 L129.07,258.22 L128.80,257.67 L128.53,257.11 L128.26,256.56 L128.00,256.00 L127.74,255.44 L127.48,254.88 L127.23,254.31 L126.97,253.75 L126.72,253.18 L126.48,252.61 L126.23,252.04 L125.99,251.46 L125.75,250.88 L125.52,250.30 L125.29,249.72 L125.06,249.14 L124.84,248.55 L124.62,247.96 L124.40,247.37 L124.19,246.78 L123.98,246.19 L123.77,245.59 L123.57,245.00 L123.38,244.40 L123.18,243.80 L123.00,243.19 L122.81,242.59 L122.63,241.98 L122.46,241.37 L122.29,240.77 L122.12,240.15 L121.96,239.54 L121.81,238.93 L121.66,238.31 L121.51,237.70 L121.37,237.08 L121.24,236.46 L121.11,235.84 L120.99,235.22 L120.87,234.60 L120.75,233.97 L120.65,233.35 L120.55,232.72 L120.45,232.10 L120.36,231.47 L120.27,230.84 L120.20,230.22 L120.12,229.59 L120.06,228.96 L120.00,228.33 L119.94,227.70 L119.89,227.07 L119.85,226.44 L119.82,225.81 L119.79,225.18 L119.76,224.55 L119.75,223.92 L119.74,223.29 L119.73,222.66 L119.74,222.03 L119.75,221.40 L119.76,220.77 L119.78,220.14 L119.81,219.51 L119.85,218.88 L119.89,218.25 L119.94,217.63 L120.00,217.00 L120.06,216.38 L120.13,215.75 L120.21,215.13 L120.29,214.51 L120.38,213.89 L120.48,213.27 L120.59,212.65 L120.70,212.04 L120.82,211.42 L120.94,210.81 L121.07,210.20 L121.21,209.59 L121.36,208.98 L121.51,208.38 L121.67,207.77 L121.84,207.17 L122.01,206.57 L122.19,205.97 L122.38,205.38 L122.57,204.78 L122.78,204.19 L122.98,203.60 L123.20,203.02 L123.42,202.43 L123.65,201.85 L123.89,201.28 L124.13,200.70 L124.38,200.13 L124.63,199.56 L124.89,198.99 L125.16,198.43 L125.44,197.87 L125.72,197.31 L126.01,196.76 L126.30,196.21 L126.60,195.66 L126.91,195.12 L127.23,194.58 L127.55,194.04 L127.87,193.51 L128.21,192.98 L128.54,192.45 L128.89,191.93 L129.24,191.41 L129.60,190.90 L129.96,190.39 L130.33,189.88 L130.70,189.38 L131.08,188.88 L131.47,188.39 L131.86,187.89 L132.26,187.41 L132.66,186.93 L133.07,186.45 L133.48,185.97 L133.90,185.50 L134.32,185.04 L134.75,184.58 L135.18,184.12 L135.62,183.67 L136.07,183.22 L136.52,182.78 L136.97,182.34 L137.43,181.91 L137.89,181.48 L138.35,181.05 L138.83,180.63 L139.30,180.22 L139.78,179.80 L140.26,179.40 L140.75,178.99 L141.24,178.60 L141.74,178.20 L142.24,177.82 L142.74,177.43 L143.25,177.05 L143.76,176.68 L144.27,176.31 L144.79,175.94 L145.31,175.58 L145.84,175.22 L146.36,174.87 L146.89,174.53 L147.43,174.18 L147.96,173.85 L148.50,173.51 L149.04,173.18 L149.59,172.86 L150.13,172.54 L150.68,172.22 L151.23,171.91 L151.78,171.61 L152.34,171.31 L152.90,171.01 L153.46,170.71 L154.02,170.43 L154.58,170.14 L155.14,169.86 L155.71,169.58 L156.28,169.31 L156.85,169.04 L157.42,168.78 L157.99,168.52 L158.56,168.26 L159.13,168.01 L159.71,167.76 L160.28,167.52 L160.86,167.28 L161.44,167.04 L162.01,166.81 L162.59,166.58 L163.17,166.36 L163.75,166.14 L164.33,165.92 L164.91,165.70 L165.49,165.49 L166.07,165.28 L166.65,165.08 L167.23,164.88 L167.81,164.68 L168.39,164.48 L168.97,164.29 L169.55,164.10 L170.13,163.91 L170.71,163.73 L171.28,163.55 L171.86,163.37 L172.44,163.20 L173.01,163.02 L173.59,162.85 L174.16,162.68 L174.74,162.52 L175.31,162.35 L175.88,162.19 L176.45,162.03 L177.02,161.88 L177.59,161.72 L178.16,161.57 L178.72,161.42 L179.29,161.27 L179.85,161.12 L180.41,160.97 L180.97,160.83 L181.53,160.68 L182.09,160.54 L182.64,160.40 L183.20,160.26 L183.75,160.12 L184.30,159.99 L184.85,159.85 L185.40,159.71 L185.95,159.58 L186.49,159.44 L187.03,159.31 L187.57,159.18 L188.11,159.05 L188.65,158.91 L189.18,158.78 L189.72,158.65 L190.25,158.52 L190.78,158.39 L191.31,158.26 L191.83,158.13 L192.36,158.00 L192.88,157.87 L193.40,157.74 L193.92,157.61 L194.43,157.47 L194.95,157.34 L195.46,157.21 L195.97,157.08 L196.48,156.94 L196.99,156.81 L197.49,156.67 L197.99,156.54 L198.50,156.40 L198.99,156.26 L199.49,156.12 L199.99,155.98 L200.48,155.84 L200.97,155.70 L201.46,155.55 L201.95,155.41 L202.44,155.26 L202.92,155.11 L203.40,154.97 L203.89,154.81 L204.37,154.66 L204.84,154.51 L205.32,154.35 L205.80,154.19 L206.27,154.04 L206.74,153.87 L207.21,153.71 L207.68,153.55 L208.15,153.38 L208.61,153.21 L209.08,153.04 L209.54,152.87 L210.01,152.69 L210.47,152.52 L210.93,152.34 L211.39,152.16 L211.84,151.97 L212.30,151.79 L212.76,151.60 L213.21,151.41 L213.67,151.22 L214.12,151.03 L214.57,150.83 L215.02,150.63 L215.47,150.43 L215.93,150.23 L216.38,150.02 L216.82,149.81 L217.27,149.60 L217.72,149.39 L218.17,149.17 L218.62,148.95 L219.07,148.74 L219.51,148.51 L219.96,148.29 L220.41,148.06 L220.85,147.83 L221.30,147.60 L221.75,147.37 L222.20,147.13 L222.64,146.89 L223.09,146.65 L223.54,146.41 L223.99,146.17 L224.43,145.92 L224.88,145.67 L225.33,145.42 L225.78,145.16 L226.23,144.91 L226.68,144.65 L227.14,144.39 L227.59,144.13 L228.04,143.87 L228.50,143.60 L228.95,143.34 L229.41,143.07 L229.87,142.80 L230.32,142.53 L230.78,142.25 L231.24,141.98 L231.70,141.70 L232.17,141.42 L232.63,141.14 L233.10,140.86 L233.56,140.58 L234.03,140.30 L234.50,140.01 L234.97,139.73 L235.45,139.44 L235.92,139.15 L236.40,138.86 L236.88,138.57 L237.36,138.28 L237.84,137.99 L238.32,137.70 L238.81,137.41 L239.29,137.12 L239.78,136.82 L240.27,136.53 L240.76,136.24 L241.26,135.94 L241.76,135.65 L242.25,135.36 L242.76,135.06 L243.26,134.77 L243.76,134.48 L244.27,134.18 L244.78,133.89 L245.29,133.60 L245.80,133.31 L246.32,133.02 L246.84,132.73 L247.36,132.44 L247.88,132.15 L248.41,131.86 L248.93,131.57 L249.46,131.29 L250.00,131.01 L250.53,130.72 L251.07,130.44 L251.61,130.16 L252.15,129.89 L252.69,129.61 L253.24,129.34 L253.78,129.07 L254.33,128.80 L254.89,128.53 L255.44,128.26 L256.00,128.00 L256.56,127.74 L257.12,127.48 L257.69,127.23 L258.25,126.97 L258.82,126.72 L259.39,126.48 L259.96,126.23 L260.54,125.99 L261.12,125.75 L261.70,125.52 L262.28,125.29 L262.86,125.06 L263.45,124.84 L264.04,124.62 L264.63,124.40 L265.22,124.19 L265.81,123.98 L266.41,123.77 L267.00,123.57 L267.60,123.38 L268.20,123.18 L268.81,123.00 L269.41,122.81 L270.02,122.63 L270.63,122.46 L271.23,122.29 L271.85,122.12 L272.46,121.96 L273.07,121.81 L273.69,121.66 L274.30,121.51 L274.92,121.37 L275.54,121.24 L276.16,121.11 L276.78,120.99 L277.40,120.87 L278.03,120.75 L278.65,120.65 L279.28,120.55 L279.90,120.45 L280.53,120.36 L281.16,120.27 L281.78,120.20 L282.41,120.12 L283.04,120.06 L283.67,120.00 L284.30,119.94 L284.93,119.89 L285.56,119.85 L286.19,119.82 L286.82,119.79 L287.45,119.76 L288.08,119.75 L288.71,119.74 L289.34,119.73 L289.97,119.74 L290.60,119.75 L291.23,119.76 L291.86,119.78 L292.49,119.81 L293.12,119.85 L293.75,119.89 L294.37,119.94 L295.00,120.00 L295.62,120.06 L296.25,120.13 L296.87,120.21 L297.49,120.29 L298.11,120.38 L298.73,120.48 L299.35,120.59 L299.96,120.70 L300.58,120.82 L301.19,120.94 L301.80,121.07 L302.41,121.21 L303.02,121.36 L303.62,121.51 L304.23,121.67 L304.83,121.84 L305.43,122.01 L306.03,122.19 L306.62,122.38 L307.22,122.57 L307.81,122.78 L308.40,122.98 L308.98,123.20 L309.57,123.42 L310.15,123.65 L310.72,123.89 L311.30,124.13 L311.87,124.38 L312.44,124.63 L313.01,124.89 L313.57,125.16 L314.13,125.44 L314.69,125.72 L315.24,126.01 L315.79,126.30 L316.34,126.60 L316.88,126.91 L317.42,127.23 L317.96,127.55 L318.49,127.87 L319.02,128.21 L319.55,128.54 L320.07,128.89 L320.59,129.24 L321.10,129.60 L321.61,129.96 L322.12,130.33 L322.62,130.70 L323.12,131.08 L323.61,131.47 L324.11,131.86 L324.59,132.26 L325.07,132.66 L325.55,133.07 L326.03,133.48 L326.50,133.90 L326.96,134.32 L327.42,134.75 L327.88,135.18 L328.33,135.62 L328.78,136.07 L329.22,136.52 L329.66,136.97 L330.09,137.43 L330.52,137.89 L330.95,138.35 L331.37,138.83 L331.78,139.30 L332.20,139.78 L332.60,140.26 L333.01,140.75 L333.40,141.24 L333.80,141.74 L334.18,142.24 L334.57,142.74 L334.95,143.25 L335.32,143.76 L335.69,144.27 L336.06,144.79 L336.42,145.31 L336.78,145.84 L337.13,146.36 L337.47,146.89 L337.82,147.43 L338.15,147.96 L338.49,148.50 L338.82,149.04 L339.14,149.59 L339.46,150.13 L339.78,150.68 L340.09,151.23 L340.39,151.78 L340.69,152.34 L340.99,152.90 L341.29,153.46 L341.57,154.02 L341.86,154.58 L342.14,155.14 L342.42,155.71 L342.69,156.28 L342.96,156.85 L343.22,157.42 L343.48,157.99 L343.74,158.56 L343.99,159.13 L344.24,159.71 L344.48,160.28 L344.72,160.86 L344.96,161.44 L345.19,162.01 L345.42,162.59 L345.64,163.17 L345.86,163.75 L346.08,164.33 L346.30,164.91 L346.51,165.49 L346.72,166.07 L346.92,166.65 L347.12,167.23 L347.32,167.81 L347.52,168.39 L347.71,168.97 L347.90,169.55 L348.09,170.13 L348.27,170.71 L348.45,171.28 L348.63,171.86 L348.80,172.44 L348.98,173.01 L349.15,173.59 L349.32,174.16 L349.48,174.74 L349.65,175.31 L349.81,175.88 L349.97,176.45 L350.12,177.02 L350.28,177.59 L350.43,178.16 L350.58,178.72 L350.73,179.29 L350.88,179.85 L351.03,180.41 L351.17,180.97 L351.32,181.53 L351.46,182.09 L351.60,182.64 L351.74,183.20 L351.88,183.75 L352.01,184.30 L352.15,184.85 L352.29,185.40 L352.42,185.95 L352.56,186.49 L352.69,187.03 L352.82,187.57 L352.95,188.11 L353.09,188.65 L353.22,189.18 L353.35,189.72 L353.48,190.25 L353.61,190.78 L353.74,191.31 L353.87,191.83 L354.00,192.36 L354.13,192.88 L354.26,193.40 L354.39,193.92 L354.53,194.43 L354.66,194.95 L354.79,195.46 L354.92,195.97 L355.06,196.48 L355.19,196.99 L355.33,197.49 L355.46,197.99 L355.60,198.50 L355.74,198.99 L355.88,199.49 L356.02,199.99 L356.16,200.48 L356.30,200.97 L356.45,201.46 L356.59,201.95 L356.74,202.44 L356.89,202.92 L357.03,203.40 L357.19,203.89 L357.34,204.37 L357.49,204.84 L357.65,205.32 L357.81,205.80 L357.96,206.27 L358.13,206.74 L358.29,207.21 L358.45,207.68 L358.62,208.15 L358.79,208.61 L358.96,209.08 L359.13,209.54 L359.31,210.01 L359.48,210.47 L359.66,210.93 L359.84,211.39 L360.03,211.84 L360.21,212.30 L360.40,212.76 L360.59,213.21 L360.78,213.67 L360.97,214.12 L361.17,214.57 L361.37,215.02 L361.57,215.47 L361.77,215.93 L361.98,216.38 L362.19,216.82 L362.40,217.27 L362.61,217.72 L362.83,218.17 L363.05,218.62 L363.26,219.07 L363.49,219.51 L363.71,219.96 L363.94,220.41 L364.17,220.85 L364.40,221.30 L364.63,221.75 L364.87,222.20 L365.11,222.64 L365.35,223.09 L365.59,223.54 L365.83,223.99 L366.08,224.43 L366.33,224.88 L366.58,225.33 L366.84,225.78 L367.09,226.23 L367.35,226.68 L367.61,227.14 L367.87,227.59 L368.13,228.04 L368.40,228.50 L368.66,228.95 L368.93,229.41 L369.20,229.87 L369.47,230.32 L369.75,230.78 L370.02,231.24 L370.30,231.70 L370.58,232.17 L370.86,232.63 L371.14,233.10 L371.42,233.56 L371.70,234.03 L371.99,234.50 L372.27,234.97 L372.56,235.45 L372.85,235.92 L373.14,236.40 L373.43,236.88 L373.72,237.36 L374.01,237.84 L374.30,238.32 L374.59,238.81 L374.88,239.29 L375.18,239.78 L375.47,240.27 L375.76,240.76 L376.06,241.26 L376.35,241.76 L376.64,242.25 L376.94,242.76 L377.23,243.26 L377.52,243.76 L377.82,244.27 L378.11,244.78 L378.40,245.29 L378.69,245.80 L378.98,246.32 L379.27,246.84 L379.56,247.36 L379.85,247.88 L380.14,248.41 L380.43,248.93 L380.71,249.46 L380.99,250.00 L381.28,250.53 L381.56,251.07 L381.84,251.61 L382.11,252.15 L382.39,252.69 L382.66,253.24 L382.93,253.78 L383.20,254.33 L383.47,254.89 L383.74,255.44 L384.00,256.00 Z" fill="#04111c" stroke="none"/>

  <!-- Circular stave — 5 neon-orange rings drawn after fill so inner rings
       show against the dark virus body; outer rings show on the background -->
  <circle cx="256" cy="256" r="60" fill="none" stroke="#ff7722" stroke-width="3.5" opacity="0.70"/>
  <circle cx="256" cy="256" r="108" fill="none" stroke="#ff7722" stroke-width="3.5" opacity="0.70"/>
  <circle cx="256" cy="256" r="156" fill="none" stroke="#ff7722" stroke-width="3.5" opacity="0.70"/>
  <circle cx="256" cy="256" r="204" fill="none" stroke="#ff7722" stroke-width="3.5" opacity="0.70"/>
  <circle cx="256" cy="256" r="252" fill="none" stroke="#ff7722" stroke-width="3.5" opacity="0.70"/>

  <!-- Downward-pointing white triangle; V-sides bolder than top edge -->
  <polygon points="212.0,211.0 300.0,211.0 256,346" fill="none" stroke="white" stroke-width="6" stroke-linejoin="round"/>
  <line x1="212.0" y1="211.0" x2="256" y2="346" stroke="white" stroke-width="13" stroke-linecap="round"/>
  <line x1="300.0" y1="211.0" x2="256" y2="346" stroke="white" stroke-width="13" stroke-linecap="round"/>

  <!-- 4 quaver spikes radiating toward the four corners -->
  <g filter="url(#glow)">
    <use xlink:href="#spike" href="#spike" transform="translate(346.5,165.5) rotate(45)"/>
    <use xlink:href="#spike" href="#spike" transform="translate(346.5,346.5) rotate(135)"/>
    <use xlink:href="#spike" href="#spike" transform="translate(165.5,346.5) rotate(225)"/>
    <use xlink:href="#spike" href="#spike" transform="translate(165.5,165.5) rotate(315)"/>
  </g>

  <!-- Oscillating boundary — bold cyan with glow -->
  <path d="M384.00,256.00 L384.26,256.56 L384.52,257.12 L384.77,257.69 L385.03,258.25 L385.28,258.82 L385.52,259.39 L385.77,259.96 L386.01,260.54 L386.25,261.12 L386.48,261.70 L386.71,262.28 L386.94,262.86 L387.16,263.45 L387.38,264.04 L387.60,264.63 L387.81,265.22 L388.02,265.81 L388.23,266.41 L388.43,267.00 L388.62,267.60 L388.82,268.20 L389.00,268.81 L389.19,269.41 L389.37,270.02 L389.54,270.63 L389.71,271.23 L389.88,271.85 L390.04,272.46 L390.19,273.07 L390.34,273.69 L390.49,274.30 L390.63,274.92 L390.76,275.54 L390.89,276.16 L391.01,276.78 L391.13,277.40 L391.25,278.03 L391.35,278.65 L391.45,279.28 L391.55,279.90 L391.64,280.53 L391.73,281.16 L391.80,281.78 L391.88,282.41 L391.94,283.04 L392.00,283.67 L392.06,284.30 L392.11,284.93 L392.15,285.56 L392.18,286.19 L392.21,286.82 L392.24,287.45 L392.25,288.08 L392.26,288.71 L392.27,289.34 L392.26,289.97 L392.25,290.60 L392.24,291.23 L392.22,291.86 L392.19,292.49 L392.15,293.12 L392.11,293.75 L392.06,294.37 L392.00,295.00 L391.94,295.62 L391.87,296.25 L391.79,296.87 L391.71,297.49 L391.62,298.11 L391.52,298.73 L391.41,299.35 L391.30,299.96 L391.18,300.58 L391.06,301.19 L390.93,301.80 L390.79,302.41 L390.64,303.02 L390.49,303.62 L390.33,304.23 L390.16,304.83 L389.99,305.43 L389.81,306.03 L389.62,306.62 L389.43,307.22 L389.22,307.81 L389.02,308.40 L388.80,308.98 L388.58,309.57 L388.35,310.15 L388.11,310.72 L387.87,311.30 L387.62,311.87 L387.37,312.44 L387.11,313.01 L386.84,313.57 L386.56,314.13 L386.28,314.69 L385.99,315.24 L385.70,315.79 L385.40,316.34 L385.09,316.88 L384.77,317.42 L384.45,317.96 L384.13,318.49 L383.79,319.02 L383.46,319.55 L383.11,320.07 L382.76,320.59 L382.40,321.10 L382.04,321.61 L381.67,322.12 L381.30,322.62 L380.92,323.12 L380.53,323.61 L380.14,324.11 L379.74,324.59 L379.34,325.07 L378.93,325.55 L378.52,326.03 L378.10,326.50 L377.68,326.96 L377.25,327.42 L376.82,327.88 L376.38,328.33 L375.93,328.78 L375.48,329.22 L375.03,329.66 L374.57,330.09 L374.11,330.52 L373.65,330.95 L373.17,331.37 L372.70,331.78 L372.22,332.20 L371.74,332.60 L371.25,333.01 L370.76,333.40 L370.26,333.80 L369.76,334.18 L369.26,334.57 L368.75,334.95 L368.24,335.32 L367.73,335.69 L367.21,336.06 L366.69,336.42 L366.16,336.78 L365.64,337.13 L365.11,337.47 L364.57,337.82 L364.04,338.15 L363.50,338.49 L362.96,338.82 L362.41,339.14 L361.87,339.46 L361.32,339.78 L360.77,340.09 L360.22,340.39 L359.66,340.69 L359.10,340.99 L358.54,341.29 L357.98,341.57 L357.42,341.86 L356.86,342.14 L356.29,342.42 L355.72,342.69 L355.15,342.96 L354.58,343.22 L354.01,343.48 L353.44,343.74 L352.87,343.99 L352.29,344.24 L351.72,344.48 L351.14,344.72 L350.56,344.96 L349.99,345.19 L349.41,345.42 L348.83,345.64 L348.25,345.86 L347.67,346.08 L347.09,346.30 L346.51,346.51 L345.93,346.72 L345.35,346.92 L344.77,347.12 L344.19,347.32 L343.61,347.52 L343.03,347.71 L342.45,347.90 L341.87,348.09 L341.29,348.27 L340.72,348.45 L340.14,348.63 L339.56,348.80 L338.99,348.98 L338.41,349.15 L337.84,349.32 L337.26,349.48 L336.69,349.65 L336.12,349.81 L335.55,349.97 L334.98,350.12 L334.41,350.28 L333.84,350.43 L333.28,350.58 L332.71,350.73 L332.15,350.88 L331.59,351.03 L331.03,351.17 L330.47,351.32 L329.91,351.46 L329.36,351.60 L328.80,351.74 L328.25,351.88 L327.70,352.01 L327.15,352.15 L326.60,352.29 L326.05,352.42 L325.51,352.56 L324.97,352.69 L324.43,352.82 L323.89,352.95 L323.35,353.09 L322.82,353.22 L322.28,353.35 L321.75,353.48 L321.22,353.61 L320.69,353.74 L320.17,353.87 L319.64,354.00 L319.12,354.13 L318.60,354.26 L318.08,354.39 L317.57,354.53 L317.05,354.66 L316.54,354.79 L316.03,354.92 L315.52,355.06 L315.01,355.19 L314.51,355.33 L314.01,355.46 L313.50,355.60 L313.01,355.74 L312.51,355.88 L312.01,356.02 L311.52,356.16 L311.03,356.30 L310.54,356.45 L310.05,356.59 L309.56,356.74 L309.08,356.89 L308.60,357.03 L308.11,357.19 L307.63,357.34 L307.16,357.49 L306.68,357.65 L306.20,357.81 L305.73,357.96 L305.26,358.13 L304.79,358.29 L304.32,358.45 L303.85,358.62 L303.39,358.79 L302.92,358.96 L302.46,359.13 L301.99,359.31 L301.53,359.48 L301.07,359.66 L300.61,359.84 L300.16,360.03 L299.70,360.21 L299.24,360.40 L298.79,360.59 L298.33,360.78 L297.88,360.97 L297.43,361.17 L296.98,361.37 L296.53,361.57 L296.07,361.77 L295.62,361.98 L295.18,362.19 L294.73,362.40 L294.28,362.61 L293.83,362.83 L293.38,363.05 L292.93,363.26 L292.49,363.49 L292.04,363.71 L291.59,363.94 L291.15,364.17 L290.70,364.40 L290.25,364.63 L289.80,364.87 L289.36,365.11 L288.91,365.35 L288.46,365.59 L288.01,365.83 L287.57,366.08 L287.12,366.33 L286.67,366.58 L286.22,366.84 L285.77,367.09 L285.32,367.35 L284.86,367.61 L284.41,367.87 L283.96,368.13 L283.50,368.40 L283.05,368.66 L282.59,368.93 L282.13,369.20 L281.68,369.47 L281.22,369.75 L280.76,370.02 L280.30,370.30 L279.83,370.58 L279.37,370.86 L278.90,371.14 L278.44,371.42 L277.97,371.70 L277.50,371.99 L277.03,372.27 L276.55,372.56 L276.08,372.85 L275.60,373.14 L275.12,373.43 L274.64,373.72 L274.16,374.01 L273.68,374.30 L273.19,374.59 L272.71,374.88 L272.22,375.18 L271.73,375.47 L271.24,375.76 L270.74,376.06 L270.24,376.35 L269.75,376.64 L269.24,376.94 L268.74,377.23 L268.24,377.52 L267.73,377.82 L267.22,378.11 L266.71,378.40 L266.20,378.69 L265.68,378.98 L265.16,379.27 L264.64,379.56 L264.12,379.85 L263.59,380.14 L263.07,380.43 L262.54,380.71 L262.00,380.99 L261.47,381.28 L260.93,381.56 L260.39,381.84 L259.85,382.11 L259.31,382.39 L258.76,382.66 L258.22,382.93 L257.67,383.20 L257.11,383.47 L256.56,383.74 L256.00,384.00 L255.44,384.26 L254.88,384.52 L254.31,384.77 L253.75,385.03 L253.18,385.28 L252.61,385.52 L252.04,385.77 L251.46,386.01 L250.88,386.25 L250.30,386.48 L249.72,386.71 L249.14,386.94 L248.55,387.16 L247.96,387.38 L247.37,387.60 L246.78,387.81 L246.19,388.02 L245.59,388.23 L245.00,388.43 L244.40,388.62 L243.80,388.82 L243.19,389.00 L242.59,389.19 L241.98,389.37 L241.37,389.54 L240.77,389.71 L240.15,389.88 L239.54,390.04 L238.93,390.19 L238.31,390.34 L237.70,390.49 L237.08,390.63 L236.46,390.76 L235.84,390.89 L235.22,391.01 L234.60,391.13 L233.97,391.25 L233.35,391.35 L232.72,391.45 L232.10,391.55 L231.47,391.64 L230.84,391.73 L230.22,391.80 L229.59,391.88 L228.96,391.94 L228.33,392.00 L227.70,392.06 L227.07,392.11 L226.44,392.15 L225.81,392.18 L225.18,392.21 L224.55,392.24 L223.92,392.25 L223.29,392.26 L222.66,392.27 L222.03,392.26 L221.40,392.25 L220.77,392.24 L220.14,392.22 L219.51,392.19 L218.88,392.15 L218.25,392.11 L217.63,392.06 L217.00,392.00 L216.38,391.94 L215.75,391.87 L215.13,391.79 L214.51,391.71 L213.89,391.62 L213.27,391.52 L212.65,391.41 L212.04,391.30 L211.42,391.18 L210.81,391.06 L210.20,390.93 L209.59,390.79 L208.98,390.64 L208.38,390.49 L207.77,390.33 L207.17,390.16 L206.57,389.99 L205.97,389.81 L205.38,389.62 L204.78,389.43 L204.19,389.22 L203.60,389.02 L203.02,388.80 L202.43,388.58 L201.85,388.35 L201.28,388.11 L200.70,387.87 L200.13,387.62 L199.56,387.37 L198.99,387.11 L198.43,386.84 L197.87,386.56 L197.31,386.28 L196.76,385.99 L196.21,385.70 L195.66,385.40 L195.12,385.09 L194.58,384.77 L194.04,384.45 L193.51,384.13 L192.98,383.79 L192.45,383.46 L191.93,383.11 L191.41,382.76 L190.90,382.40 L190.39,382.04 L189.88,381.67 L189.38,381.30 L188.88,380.92 L188.39,380.53 L187.89,380.14 L187.41,379.74 L186.93,379.34 L186.45,378.93 L185.97,378.52 L185.50,378.10 L185.04,377.68 L184.58,377.25 L184.12,376.82 L183.67,376.38 L183.22,375.93 L182.78,375.48 L182.34,375.03 L181.91,374.57 L181.48,374.11 L181.05,373.65 L180.63,373.17 L180.22,372.70 L179.80,372.22 L179.40,371.74 L178.99,371.25 L178.60,370.76 L178.20,370.26 L177.82,369.76 L177.43,369.26 L177.05,368.75 L176.68,368.24 L176.31,367.73 L175.94,367.21 L175.58,366.69 L175.22,366.16 L174.87,365.64 L174.53,365.11 L174.18,364.57 L173.85,364.04 L173.51,363.50 L173.18,362.96 L172.86,362.41 L172.54,361.87 L172.22,361.32 L171.91,360.77 L171.61,360.22 L171.31,359.66 L171.01,359.10 L170.71,358.54 L170.43,357.98 L170.14,357.42 L169.86,356.86 L169.58,356.29 L169.31,355.72 L169.04,355.15 L168.78,354.58 L168.52,354.01 L168.26,353.44 L168.01,352.87 L167.76,352.29 L167.52,351.72 L167.28,351.14 L167.04,350.56 L166.81,349.99 L166.58,349.41 L166.36,348.83 L166.14,348.25 L165.92,347.67 L165.70,347.09 L165.49,346.51 L165.28,345.93 L165.08,345.35 L164.88,344.77 L164.68,344.19 L164.48,343.61 L164.29,343.03 L164.10,342.45 L163.91,341.87 L163.73,341.29 L163.55,340.72 L163.37,340.14 L163.20,339.56 L163.02,338.99 L162.85,338.41 L162.68,337.84 L162.52,337.26 L162.35,336.69 L162.19,336.12 L162.03,335.55 L161.88,334.98 L161.72,334.41 L161.57,333.84 L161.42,333.28 L161.27,332.71 L161.12,332.15 L160.97,331.59 L160.83,331.03 L160.68,330.47 L160.54,329.91 L160.40,329.36 L160.26,328.80 L160.12,328.25 L159.99,327.70 L159.85,327.15 L159.71,326.60 L159.58,326.05 L159.44,325.51 L159.31,324.97 L159.18,324.43 L159.05,323.89 L158.91,323.35 L158.78,322.82 L158.65,322.28 L158.52,321.75 L158.39,321.22 L158.26,320.69 L158.13,320.17 L158.00,319.64 L157.87,319.12 L157.74,318.60 L157.61,318.08 L157.47,317.57 L157.34,317.05 L157.21,316.54 L157.08,316.03 L156.94,315.52 L156.81,315.01 L156.67,314.51 L156.54,314.01 L156.40,313.50 L156.26,313.01 L156.12,312.51 L155.98,312.01 L155.84,311.52 L155.70,311.03 L155.55,310.54 L155.41,310.05 L155.26,309.56 L155.11,309.08 L154.97,308.60 L154.81,308.11 L154.66,307.63 L154.51,307.16 L154.35,306.68 L154.19,306.20 L154.04,305.73 L153.87,305.26 L153.71,304.79 L153.55,304.32 L153.38,303.85 L153.21,303.39 L153.04,302.92 L152.87,302.46 L152.69,301.99 L152.52,301.53 L152.34,301.07 L152.16,300.61 L151.97,300.16 L151.79,299.70 L151.60,299.24 L151.41,298.79 L151.22,298.33 L151.03,297.88 L150.83,297.43 L150.63,296.98 L150.43,296.53 L150.23,296.07 L150.02,295.62 L149.81,295.18 L149.60,294.73 L149.39,294.28 L149.17,293.83 L148.95,293.38 L148.74,292.93 L148.51,292.49 L148.29,292.04 L148.06,291.59 L147.83,291.15 L147.60,290.70 L147.37,290.25 L147.13,289.80 L146.89,289.36 L146.65,288.91 L146.41,288.46 L146.17,288.01 L145.92,287.57 L145.67,287.12 L145.42,286.67 L145.16,286.22 L144.91,285.77 L144.65,285.32 L144.39,284.86 L144.13,284.41 L143.87,283.96 L143.60,283.50 L143.34,283.05 L143.07,282.59 L142.80,282.13 L142.53,281.68 L142.25,281.22 L141.98,280.76 L141.70,280.30 L141.42,279.83 L141.14,279.37 L140.86,278.90 L140.58,278.44 L140.30,277.97 L140.01,277.50 L139.73,277.03 L139.44,276.55 L139.15,276.08 L138.86,275.60 L138.57,275.12 L138.28,274.64 L137.99,274.16 L137.70,273.68 L137.41,273.19 L137.12,272.71 L136.82,272.22 L136.53,271.73 L136.24,271.24 L135.94,270.74 L135.65,270.24 L135.36,269.75 L135.06,269.24 L134.77,268.74 L134.48,268.24 L134.18,267.73 L133.89,267.22 L133.60,266.71 L133.31,266.20 L133.02,265.68 L132.73,265.16 L132.44,264.64 L132.15,264.12 L131.86,263.59 L131.57,263.07 L131.29,262.54 L131.01,262.00 L130.72,261.47 L130.44,260.93 L130.16,260.39 L129.89,259.85 L129.61,259.31 L129.34,258.76 L129.07,258.22 L128.80,257.67 L128.53,257.11 L128.26,256.56 L128.00,256.00 L127.74,255.44 L127.48,254.88 L127.23,254.31 L126.97,253.75 L126.72,253.18 L126.48,252.61 L126.23,252.04 L125.99,251.46 L125.75,250.88 L125.52,250.30 L125.29,249.72 L125.06,249.14 L124.84,248.55 L124.62,247.96 L124.40,247.37 L124.19,246.78 L123.98,246.19 L123.77,245.59 L123.57,245.00 L123.38,244.40 L123.18,243.80 L123.00,243.19 L122.81,242.59 L122.63,241.98 L122.46,241.37 L122.29,240.77 L122.12,240.15 L121.96,239.54 L121.81,238.93 L121.66,238.31 L121.51,237.70 L121.37,237.08 L121.24,236.46 L121.11,235.84 L120.99,235.22 L120.87,234.60 L120.75,233.97 L120.65,233.35 L120.55,232.72 L120.45,232.10 L120.36,231.47 L120.27,230.84 L120.20,230.22 L120.12,229.59 L120.06,228.96 L120.00,228.33 L119.94,227.70 L119.89,227.07 L119.85,226.44 L119.82,225.81 L119.79,225.18 L119.76,224.55 L119.75,223.92 L119.74,223.29 L119.73,222.66 L119.74,222.03 L119.75,221.40 L119.76,220.77 L119.78,220.14 L119.81,219.51 L119.85,218.88 L119.89,218.25 L119.94,217.63 L120.00,217.00 L120.06,216.38 L120.13,215.75 L120.21,215.13 L120.29,214.51 L120.38,213.89 L120.48,213.27 L120.59,212.65 L120.70,212.04 L120.82,211.42 L120.94,210.81 L121.07,210.20 L121.21,209.59 L121.36,208.98 L121.51,208.38 L121.67,207.77 L121.84,207.17 L122.01,206.57 L122.19,205.97 L122.38,205.38 L122.57,204.78 L122.78,204.19 L122.98,203.60 L123.20,203.02 L123.42,202.43 L123.65,201.85 L123.89,201.28 L124.13,200.70 L124.38,200.13 L124.63,199.56 L124.89,198.99 L125.16,198.43 L125.44,197.87 L125.72,197.31 L126.01,196.76 L126.30,196.21 L126.60,195.66 L126.91,195.12 L127.23,194.58 L127.55,194.04 L127.87,193.51 L128.21,192.98 L128.54,192.45 L128.89,191.93 L129.24,191.41 L129.60,190.90 L129.96,190.39 L130.33,189.88 L130.70,189.38 L131.08,188.88 L131.47,188.39 L131.86,187.89 L132.26,187.41 L132.66,186.93 L133.07,186.45 L133.48,185.97 L133.90,185.50 L134.32,185.04 L134.75,184.58 L135.18,184.12 L135.62,183.67 L136.07,183.22 L136.52,182.78 L136.97,182.34 L137.43,181.91 L137.89,181.48 L138.35,181.05 L138.83,180.63 L139.30,180.22 L139.78,179.80 L140.26,179.40 L140.75,178.99 L141.24,178.60 L141.74,178.20 L142.24,177.82 L142.74,177.43 L143.25,177.05 L143.76,176.68 L144.27,176.31 L144.79,175.94 L145.31,175.58 L145.84,175.22 L146.36,174.87 L146.89,174.53 L147.43,174.18 L147.96,173.85 L148.50,173.51 L149.04,173.18 L149.59,172.86 L150.13,172.54 L150.68,172.22 L151.23,171.91 L151.78,171.61 L152.34,171.31 L152.90,171.01 L153.46,170.71 L154.02,170.43 L154.58,170.14 L155.14,169.86 L155.71,169.58 L156.28,169.31 L156.85,169.04 L157.42,168.78 L157.99,168.52 L158.56,168.26 L159.13,168.01 L159.71,167.76 L160.28,167.52 L160.86,167.28 L161.44,167.04 L162.01,166.81 L162.59,166.58 L163.17,166.36 L163.75,166.14 L164.33,165.92 L164.91,165.70 L165.49,165.49 L166.07,165.28 L166.65,165.08 L167.23,164.88 L167.81,164.68 L168.39,164.48 L168.97,164.29 L169.55,164.10 L170.13,163.91 L170.71,163.73 L171.28,163.55 L171.86,163.37 L172.44,163.20 L173.01,163.02 L173.59,162.85 L174.16,162.68 L174.74,162.52 L175.31,162.35 L175.88,162.19 L176.45,162.03 L177.02,161.88 L177.59,161.72 L178.16,161.57 L178.72,161.42 L179.29,161.27 L179.85,161.12 L180.41,160.97 L180.97,160.83 L181.53,160.68 L182.09,160.54 L182.64,160.40 L183.20,160.26 L183.75,160.12 L184.30,159.99 L184.85,159.85 L185.40,159.71 L185.95,159.58 L186.49,159.44 L187.03,159.31 L187.57,159.18 L188.11,159.05 L188.65,158.91 L189.18,158.78 L189.72,158.65 L190.25,158.52 L190.78,158.39 L191.31,158.26 L191.83,158.13 L192.36,158.00 L192.88,157.87 L193.40,157.74 L193.92,157.61 L194.43,157.47 L194.95,157.34 L195.46,157.21 L195.97,157.08 L196.48,156.94 L196.99,156.81 L197.49,156.67 L197.99,156.54 L198.50,156.40 L198.99,156.26 L199.49,156.12 L199.99,155.98 L200.48,155.84 L200.97,155.70 L201.46,155.55 L201.95,155.41 L202.44,155.26 L202.92,155.11 L203.40,154.97 L203.89,154.81 L204.37,154.66 L204.84,154.51 L205.32,154.35 L205.80,154.19 L206.27,154.04 L206.74,153.87 L207.21,153.71 L207.68,153.55 L208.15,153.38 L208.61,153.21 L209.08,153.04 L209.54,152.87 L210.01,152.69 L210.47,152.52 L210.93,152.34 L211.39,152.16 L211.84,151.97 L212.30,151.79 L212.76,151.60 L213.21,151.41 L213.67,151.22 L214.12,151.03 L214.57,150.83 L215.02,150.63 L215.47,150.43 L215.93,150.23 L216.38,150.02 L216.82,149.81 L217.27,149.60 L217.72,149.39 L218.17,149.17 L218.62,148.95 L219.07,148.74 L219.51,148.51 L219.96,148.29 L220.41,148.06 L220.85,147.83 L221.30,147.60 L221.75,147.37 L222.20,147.13 L222.64,146.89 L223.09,146.65 L223.54,146.41 L223.99,146.17 L224.43,145.92 L224.88,145.67 L225.33,145.42 L225.78,145.16 L226.23,144.91 L226.68,144.65 L227.14,144.39 L227.59,144.13 L228.04,143.87 L228.50,143.60 L228.95,143.34 L229.41,143.07 L229.87,142.80 L230.32,142.53 L230.78,142.25 L231.24,141.98 L231.70,141.70 L232.17,141.42 L232.63,141.14 L233.10,140.86 L233.56,140.58 L234.03,140.30 L234.50,140.01 L234.97,139.73 L235.45,139.44 L235.92,139.15 L236.40,138.86 L236.88,138.57 L237.36,138.28 L237.84,137.99 L238.32,137.70 L238.81,137.41 L239.29,137.12 L239.78,136.82 L240.27,136.53 L240.76,136.24 L241.26,135.94 L241.76,135.65 L242.25,135.36 L242.76,135.06 L243.26,134.77 L243.76,134.48 L244.27,134.18 L244.78,133.89 L245.29,133.60 L245.80,133.31 L246.32,133.02 L246.84,132.73 L247.36,132.44 L247.88,132.15 L248.41,131.86 L248.93,131.57 L249.46,131.29 L250.00,131.01 L250.53,130.72 L251.07,130.44 L251.61,130.16 L252.15,129.89 L252.69,129.61 L253.24,129.34 L253.78,129.07 L254.33,128.80 L254.89,128.53 L255.44,128.26 L256.00,128.00 L256.56,127.74 L257.12,127.48 L257.69,127.23 L258.25,126.97 L258.82,126.72 L259.39,126.48 L259.96,126.23 L260.54,125.99 L261.12,125.75 L261.70,125.52 L262.28,125.29 L262.86,125.06 L263.45,124.84 L264.04,124.62 L264.63,124.40 L265.22,124.19 L265.81,123.98 L266.41,123.77 L267.00,123.57 L267.60,123.38 L268.20,123.18 L268.81,123.00 L269.41,122.81 L270.02,122.63 L270.63,122.46 L271.23,122.29 L271.85,122.12 L272.46,121.96 L273.07,121.81 L273.69,121.66 L274.30,121.51 L274.92,121.37 L275.54,121.24 L276.16,121.11 L276.78,120.99 L277.40,120.87 L278.03,120.75 L278.65,120.65 L279.28,120.55 L279.90,120.45 L280.53,120.36 L281.16,120.27 L281.78,120.20 L282.41,120.12 L283.04,120.06 L283.67,120.00 L284.30,119.94 L284.93,119.89 L285.56,119.85 L286.19,119.82 L286.82,119.79 L287.45,119.76 L288.08,119.75 L288.71,119.74 L289.34,119.73 L289.97,119.74 L290.60,119.75 L291.23,119.76 L291.86,119.78 L292.49,119.81 L293.12,119.85 L293.75,119.89 L294.37,119.94 L295.00,120.00 L295.62,120.06 L296.25,120.13 L296.87,120.21 L297.49,120.29 L298.11,120.38 L298.73,120.48 L299.35,120.59 L299.96,120.70 L300.58,120.82 L301.19,120.94 L301.80,121.07 L302.41,121.21 L303.02,121.36 L303.62,121.51 L304.23,121.67 L304.83,121.84 L305.43,122.01 L306.03,122.19 L306.62,122.38 L307.22,122.57 L307.81,122.78 L308.40,122.98 L308.98,123.20 L309.57,123.42 L310.15,123.65 L310.72,123.89 L311.30,124.13 L311.87,124.38 L312.44,124.63 L313.01,124.89 L313.57,125.16 L314.13,125.44 L314.69,125.72 L315.24,126.01 L315.79,126.30 L316.34,126.60 L316.88,126.91 L317.42,127.23 L317.96,127.55 L318.49,127.87 L319.02,128.21 L319.55,128.54 L320.07,128.89 L320.59,129.24 L321.10,129.60 L321.61,129.96 L322.12,130.33 L322.62,130.70 L323.12,131.08 L323.61,131.47 L324.11,131.86 L324.59,132.26 L325.07,132.66 L325.55,133.07 L326.03,133.48 L326.50,133.90 L326.96,134.32 L327.42,134.75 L327.88,135.18 L328.33,135.62 L328.78,136.07 L329.22,136.52 L329.66,136.97 L330.09,137.43 L330.52,137.89 L330.95,138.35 L331.37,138.83 L331.78,139.30 L332.20,139.78 L332.60,140.26 L333.01,140.75 L333.40,141.24 L333.80,141.74 L334.18,142.24 L334.57,142.74 L334.95,143.25 L335.32,143.76 L335.69,144.27 L336.06,144.79 L336.42,145.31 L336.78,145.84 L337.13,146.36 L337.47,146.89 L337.82,147.43 L338.15,147.96 L338.49,148.50 L338.82,149.04 L339.14,149.59 L339.46,150.13 L339.78,150.68 L340.09,151.23 L340.39,151.78 L340.69,152.34 L340.99,152.90 L341.29,153.46 L341.57,154.02 L341.86,154.58 L342.14,155.14 L342.42,155.71 L342.69,156.28 L342.96,156.85 L343.22,157.42 L343.48,157.99 L343.74,158.56 L343.99,159.13 L344.24,159.71 L344.48,160.28 L344.72,160.86 L344.96,161.44 L345.19,162.01 L345.42,162.59 L345.64,163.17 L345.86,163.75 L346.08,164.33 L346.30,164.91 L346.51,165.49 L346.72,166.07 L346.92,166.65 L347.12,167.23 L347.32,167.81 L347.52,168.39 L347.71,168.97 L347.90,169.55 L348.09,170.13 L348.27,170.71 L348.45,171.28 L348.63,171.86 L348.80,172.44 L348.98,173.01 L349.15,173.59 L349.32,174.16 L349.48,174.74 L349.65,175.31 L349.81,175.88 L349.97,176.45 L350.12,177.02 L350.28,177.59 L350.43,178.16 L350.58,178.72 L350.73,179.29 L350.88,179.85 L351.03,180.41 L351.17,180.97 L351.32,181.53 L351.46,182.09 L351.60,182.64 L351.74,183.20 L351.88,183.75 L352.01,184.30 L352.15,184.85 L352.29,185.40 L352.42,185.95 L352.56,186.49 L352.69,187.03 L352.82,187.57 L352.95,188.11 L353.09,188.65 L353.22,189.18 L353.35,189.72 L353.48,190.25 L353.61,190.78 L353.74,191.31 L353.87,191.83 L354.00,192.36 L354.13,192.88 L354.26,193.40 L354.39,193.92 L354.53,194.43 L354.66,194.95 L354.79,195.46 L354.92,195.97 L355.06,196.48 L355.19,196.99 L355.33,197.49 L355.46,197.99 L355.60,198.50 L355.74,198.99 L355.88,199.49 L356.02,199.99 L356.16,200.48 L356.30,200.97 L356.45,201.46 L356.59,201.95 L356.74,202.44 L356.89,202.92 L357.03,203.40 L357.19,203.89 L357.34,204.37 L357.49,204.84 L357.65,205.32 L357.81,205.80 L357.96,206.27 L358.13,206.74 L358.29,207.21 L358.45,207.68 L358.62,208.15 L358.79,208.61 L358.96,209.08 L359.13,209.54 L359.31,210.01 L359.48,210.47 L359.66,210.93 L359.84,211.39 L360.03,211.84 L360.21,212.30 L360.40,212.76 L360.59,213.21 L360.78,213.67 L360.97,214.12 L361.17,214.57 L361.37,215.02 L361.57,215.47 L361.77,215.93 L361.98,216.38 L362.19,216.82 L362.40,217.27 L362.61,217.72 L362.83,218.17 L363.05,218.62 L363.26,219.07 L363.49,219.51 L363.71,219.96 L363.94,220.41 L364.17,220.85 L364.40,221.30 L364.63,221.75 L364.87,222.20 L365.11,222.64 L365.35,223.09 L365.59,223.54 L365.83,223.99 L366.08,224.43 L366.33,224.88 L366.58,225.33 L366.84,225.78 L367.09,226.23 L367.35,226.68 L367.61,227.14 L367.87,227.59 L368.13,228.04 L368.40,228.50 L368.66,228.95 L368.93,229.41 L369.20,229.87 L369.47,230.32 L369.75,230.78 L370.02,231.24 L370.30,231.70 L370.58,232.17 L370.86,232.63 L371.14,233.10 L371.42,233.56 L371.70,234.03 L371.99,234.50 L372.27,234.97 L372.56,235.45 L372.85,235.92 L373.14,236.40 L373.43,236.88 L373.72,237.36 L374.01,237.84 L374.30,238.32 L374.59,238.81 L374.88,239.29 L375.18,239.78 L375.47,240.27 L375.76,240.76 L376.06,241.26 L376.35,241.76 L376.64,242.25 L376.94,242.76 L377.23,243.26 L377.52,243.76 L377.82,244.27 L378.11,244.78 L378.40,245.29 L378.69,245.80 L378.98,246.32 L379.27,246.84 L379.56,247.36 L379.85,247.88 L380.14,248.41 L380.43,248.93 L380.71,249.46 L380.99,250.00 L381.28,250.53 L381.56,251.07 L381.84,251.61 L382.11,252.15 L382.39,252.69 L382.66,253.24 L382.93,253.78 L383.20,254.33 L383.47,254.89 L383.74,255.44 L384.00,256.00 Z" fill="none" stroke="#44aaff" stroke-width="10" filter="url(#glow)"/>

  <!-- Doubled inner arcs (semiquaver sections) -->
  <path d="M360.28,258.28 L360.53,258.74 L360.78,259.20 L361.02,259.67 L361.27,260.14 L361.50,260.61 L361.74,261.08 L361.97,261.55 L362.20,262.03 L362.43,262.51 L362.65,262.99 L362.87,263.47 L363.09,263.96 L363.30,264.44 L363.51,264.93 L363.72,265.42 L363.92,265.92 L364.12,266.41 L364.31,266.91 L364.50,267.40 L364.69,267.90 L364.87,268.40 L365.05,268.91 L365.22,269.41 L365.39,269.92 L365.55,270.42 L365.71,270.93 L365.87,271.44 L366.02,271.95 L366.16,272.46 L366.30,272.98 L366.44,273.49 L366.57,274.01 L366.70,274.52 L366.82,275.04 L366.93,275.56 L367.04,276.08 L367.14,276.60 L367.24,277.12 L367.34,277.64 L367.42,278.16 L367.51,278.69 L367.58,279.21 L367.65,279.73 L367.72,280.26 L367.78,280.78 L367.83,281.30 L367.88,281.83 L367.92,282.35 L367.95,282.88 L367.98,283.40 L368.01,283.93 L368.02,284.45 L368.03,284.97 L368.04,285.50 L368.04,286.02 L368.03,286.54 L368.02,287.06 L368.00,287.59 L367.97,288.11 L367.94,288.63 L367.90,289.15 L367.85,289.66 L367.80,290.18 L367.74,290.70 L367.68,291.21 L367.60,291.72 L367.53,292.24 L367.44,292.75 L367.35,293.26 L367.25,293.77 L367.15,294.27 L367.04,294.78 L366.92,295.28 L366.80,295.78 L366.67,296.28 L366.53,296.78 L366.39,297.27 L366.24,297.77 L366.09,298.26 L365.92,298.75 L365.76,299.23 L365.58,299.72 L365.40,300.20 L365.21,300.68 L365.02,301.16 L364.82,301.63 L364.61,302.10 L364.40,302.57 L364.18,303.04 L363.95,303.50 L363.72,303.96 L363.49,304.42 L363.24,304.87 L362.99,305.32 L362.74,305.77 L362.48,306.22 L362.21,306.66 L361.94,307.10 L361.66,307.53 L361.37,307.96 L361.08,308.39 L360.79,308.82 L360.48,309.24 L360.18,309.65 L359.86,310.07 L359.55,310.48 L359.22,310.88 L358.89,311.29 L358.56,311.69 L358.22,312.08 L357.88,312.47 L357.53,312.86 L357.17,313.24 L356.81,313.62 L356.45,314.00 L356.08,314.37 L355.71,314.73 L355.33,315.10 L354.95,315.45 L354.56,315.81 L354.17,316.16 L353.77,316.50 L353.37,316.85 L352.97,317.18 L352.56,317.52 L352.15,317.84 L351.73,318.17 L351.31,318.49 L350.89,318.80 L350.46,319.12 L350.03,319.42 L349.59,319.73 L349.16,320.02 L348.72,320.32 L348.27,320.61 L347.82,320.89 L347.37,321.18 L346.92,321.45 L346.46,321.72 L346.00,321.99 L345.54,322.26 L345.08,322.52 L344.61,322.77 L344.14,323.02 L343.67,323.27 L343.19,323.51 L342.71,323.75 L342.24,323.98 L341.75,324.21 L341.27,324.44 L340.79,324.66 L340.30,324.88 L339.81,325.09 L339.32,325.30 L338.83,325.50 L338.34,325.71 L337.85,325.90 L337.35,326.10 L336.86,326.29 L336.36,326.47 L335.86,326.65 L335.36,326.83 L334.86,327.01 L334.36,327.18 L333.86,327.35 L333.36,327.51 L332.86,327.67 L332.35,327.83 L331.85,327.98 L331.35,328.13 M253.72,360.28 L253.26,360.53 L252.80,360.78 L252.33,361.02 L251.86,361.27 L251.39,361.50 L250.92,361.74 L250.45,361.97 L249.97,362.20 L249.49,362.43 L249.01,362.65 L248.53,362.87 L248.04,363.09 L247.56,363.30 L247.07,363.51 L246.58,363.72 L246.08,363.92 L245.59,364.12 L245.09,364.31 L244.60,364.50 L244.10,364.69 L243.60,364.87 L243.09,365.05 L242.59,365.22 L242.08,365.39 L241.58,365.55 L241.07,365.71 L240.56,365.87 L240.05,366.02 L239.54,366.16 L239.02,366.30 L238.51,366.44 L237.99,366.57 L237.48,366.70 L236.96,366.82 L236.44,366.93 L235.92,367.04 L235.40,367.14 L234.88,367.24 L234.36,367.34 L233.84,367.42 L233.31,367.51 L232.79,367.58 L232.27,367.65 L231.74,367.72 L231.22,367.78 L230.70,367.83 L230.17,367.88 L229.65,367.92 L229.12,367.95 L228.60,367.98 L228.07,368.01 L227.55,368.02 L227.03,368.03 L226.50,368.04 L225.98,368.04 L225.46,368.03 L224.94,368.02 L224.41,368.00 L223.89,367.97 L223.37,367.94 L222.85,367.90 L222.34,367.85 L221.82,367.80 L221.30,367.74 L220.79,367.68 L220.28,367.60 L219.76,367.53 L219.25,367.44 L218.74,367.35 L218.23,367.25 L217.73,367.15 L217.22,367.04 L216.72,366.92 L216.22,366.80 L215.72,366.67 L215.22,366.53 L214.73,366.39 L214.23,366.24 L213.74,366.09 L213.25,365.92 L212.77,365.76 L212.28,365.58 L211.80,365.40 L211.32,365.21 L210.84,365.02 L210.37,364.82 L209.90,364.61 L209.43,364.40 L208.96,364.18 L208.50,363.95 L208.04,363.72 L207.58,363.49 L207.13,363.24 L206.68,362.99 L206.23,362.74 L205.78,362.48 L205.34,362.21 L204.90,361.94 L204.47,361.66 L204.04,361.37 L203.61,361.08 L203.18,360.79 L202.76,360.48 L202.35,360.18 L201.93,359.86 L201.52,359.55 L201.12,359.22 L200.71,358.89 L200.31,358.56 L199.92,358.22 L199.53,357.88 L199.14,357.53 L198.76,357.17 L198.38,356.81 L198.00,356.45 L197.63,356.08 L197.27,355.71 L196.90,355.33 L196.55,354.95 L196.19,354.56 L195.84,354.17 L195.50,353.77 L195.15,353.37 L194.82,352.97 L194.48,352.56 L194.16,352.15 L193.83,351.73 L193.51,351.31 L193.20,350.89 L192.88,350.46 L192.58,350.03 L192.27,349.59 L191.98,349.16 L191.68,348.72 L191.39,348.27 L191.11,347.82 L190.82,347.37 L190.55,346.92 L190.28,346.46 L190.01,346.00 L189.74,345.54 L189.48,345.08 L189.23,344.61 L188.98,344.14 L188.73,343.67 L188.49,343.19 L188.25,342.71 L188.02,342.24 L187.79,341.75 L187.56,341.27 L187.34,340.79 L187.12,340.30 L186.91,339.81 L186.70,339.32 L186.50,338.83 L186.29,338.34 L186.10,337.85 L185.90,337.35 L185.71,336.86 L185.53,336.36 L185.35,335.86 L185.17,335.36 L184.99,334.86 L184.82,334.36 L184.65,333.86 L184.49,333.36 L184.33,332.86 L184.17,332.35 L184.02,331.85 L183.87,331.35 M151.72,253.72 L151.47,253.26 L151.22,252.80 L150.98,252.33 L150.73,251.86 L150.50,251.39 L150.26,250.92 L150.03,250.45 L149.80,249.97 L149.57,249.49 L149.35,249.01 L149.13,248.53 L148.91,248.04 L148.70,247.56 L148.49,247.07 L148.28,246.58 L148.08,246.08 L147.88,245.59 L147.69,245.09 L147.50,244.60 L147.31,244.10 L147.13,243.60 L146.95,243.09 L146.78,242.59 L146.61,242.08 L146.45,241.58 L146.29,241.07 L146.13,240.56 L145.98,240.05 L145.84,239.54 L145.70,239.02 L145.56,238.51 L145.43,237.99 L145.30,237.48 L145.18,236.96 L145.07,236.44 L144.96,235.92 L144.86,235.40 L144.76,234.88 L144.66,234.36 L144.58,233.84 L144.49,233.31 L144.42,232.79 L144.35,232.27 L144.28,231.74 L144.22,231.22 L144.17,230.70 L144.12,230.17 L144.08,229.65 L144.05,229.12 L144.02,228.60 L143.99,228.07 L143.98,227.55 L143.97,227.03 L143.96,226.50 L143.96,225.98 L143.97,225.46 L143.98,224.94 L144.00,224.41 L144.03,223.89 L144.06,223.37 L144.10,222.85 L144.15,222.34 L144.20,221.82 L144.26,221.30 L144.32,220.79 L144.40,220.28 L144.47,219.76 L144.56,219.25 L144.65,218.74 L144.75,218.23 L144.85,217.73 L144.96,217.22 L145.08,216.72 L145.20,216.22 L145.33,215.72 L145.47,215.22 L145.61,214.73 L145.76,214.23 L145.91,213.74 L146.08,213.25 L146.24,212.77 L146.42,212.28 L146.60,211.80 L146.79,211.32 L146.98,210.84 L147.18,210.37 L147.39,209.90 L147.60,209.43 L147.82,208.96 L148.05,208.50 L148.28,208.04 L148.51,207.58 L148.76,207.13 L149.01,206.68 L149.26,206.23 L149.52,205.78 L149.79,205.34 L150.06,204.90 L150.34,204.47 L150.63,204.04 L150.92,203.61 L151.21,203.18 L151.52,202.76 L151.82,202.35 L152.14,201.93 L152.45,201.52 L152.78,201.12 L153.11,200.71 L153.44,200.31 L153.78,199.92 L154.12,199.53 L154.47,199.14 L154.83,198.76 L155.19,198.38 L155.55,198.00 L155.92,197.63 L156.29,197.27 L156.67,196.90 L157.05,196.55 L157.44,196.19 L157.83,195.84 L158.23,195.50 L158.63,195.15 L159.03,194.82 L159.44,194.48 L159.85,194.16 L160.27,193.83 L160.69,193.51 L161.11,193.20 L161.54,192.88 L161.97,192.58 L162.41,192.27 L162.84,191.98 L163.28,191.68 L163.73,191.39 L164.18,191.11 L164.63,190.82 L165.08,190.55 L165.54,190.28 L166.00,190.01 L166.46,189.74 L166.92,189.48 L167.39,189.23 L167.86,188.98 L168.33,188.73 L168.81,188.49 L169.29,188.25 L169.76,188.02 L170.25,187.79 L170.73,187.56 L171.21,187.34 L171.70,187.12 L172.19,186.91 L172.68,186.70 L173.17,186.50 L173.66,186.29 L174.15,186.10 L174.65,185.90 L175.14,185.71 L175.64,185.53 L176.14,185.35 L176.64,185.17 L177.14,184.99 L177.64,184.82 L178.14,184.65 L178.64,184.49 L179.14,184.33 L179.65,184.17 L180.15,184.02 L180.65,183.87 M258.28,151.72 L258.74,151.47 L259.20,151.22 L259.67,150.98 L260.14,150.73 L260.61,150.50 L261.08,150.26 L261.55,150.03 L262.03,149.80 L262.51,149.57 L262.99,149.35 L263.47,149.13 L263.96,148.91 L264.44,148.70 L264.93,148.49 L265.42,148.28 L265.92,148.08 L266.41,147.88 L266.91,147.69 L267.40,147.50 L267.90,147.31 L268.40,147.13 L268.91,146.95 L269.41,146.78 L269.92,146.61 L270.42,146.45 L270.93,146.29 L271.44,146.13 L271.95,145.98 L272.46,145.84 L272.98,145.70 L273.49,145.56 L274.01,145.43 L274.52,145.30 L275.04,145.18 L275.56,145.07 L276.08,144.96 L276.60,144.86 L277.12,144.76 L277.64,144.66 L278.16,144.58 L278.69,144.49 L279.21,144.42 L279.73,144.35 L280.26,144.28 L280.78,144.22 L281.30,144.17 L281.83,144.12 L282.35,144.08 L282.88,144.05 L283.40,144.02 L283.93,143.99 L284.45,143.98 L284.97,143.97 L285.50,143.96 L286.02,143.96 L286.54,143.97 L287.06,143.98 L287.59,144.00 L288.11,144.03 L288.63,144.06 L289.15,144.10 L289.66,144.15 L290.18,144.20 L290.70,144.26 L291.21,144.32 L291.72,144.40 L292.24,144.47 L292.75,144.56 L293.26,144.65 L293.77,144.75 L294.27,144.85 L294.78,144.96 L295.28,145.08 L295.78,145.20 L296.28,145.33 L296.78,145.47 L297.27,145.61 L297.77,145.76 L298.26,145.91 L298.75,146.08 L299.23,146.24 L299.72,146.42 L300.20,146.60 L300.68,146.79 L301.16,146.98 L301.63,147.18 L302.10,147.39 L302.57,147.60 L303.04,147.82 L303.50,148.05 L303.96,148.28 L304.42,148.51 L304.87,148.76 L305.32,149.01 L305.77,149.26 L306.22,149.52 L306.66,149.79 L307.10,150.06 L307.53,150.34 L307.96,150.63 L308.39,150.92 L308.82,151.21 L309.24,151.52 L309.65,151.82 L310.07,152.14 L310.48,152.45 L310.88,152.78 L311.29,153.11 L311.69,153.44 L312.08,153.78 L312.47,154.12 L312.86,154.47 L313.24,154.83 L313.62,155.19 L314.00,155.55 L314.37,155.92 L314.73,156.29 L315.10,156.67 L315.45,157.05 L315.81,157.44 L316.16,157.83 L316.50,158.23 L316.85,158.63 L317.18,159.03 L317.52,159.44 L317.84,159.85 L318.17,160.27 L318.49,160.69 L318.80,161.11 L319.12,161.54 L319.42,161.97 L319.73,162.41 L320.02,162.84 L320.32,163.28 L320.61,163.73 L320.89,164.18 L321.18,164.63 L321.45,165.08 L321.72,165.54 L321.99,166.00 L322.26,166.46 L322.52,166.92 L322.77,167.39 L323.02,167.86 L323.27,168.33 L323.51,168.81 L323.75,169.29 L323.98,169.76 L324.21,170.25 L324.44,170.73 L324.66,171.21 L324.88,171.70 L325.09,172.19 L325.30,172.68 L325.50,173.17 L325.71,173.66 L325.90,174.15 L326.10,174.65 L326.29,175.14 L326.47,175.64 L326.65,176.14 L326.83,176.64 L327.01,177.14 L327.18,177.64 L327.35,178.14 L327.51,178.64 L327.67,179.14 L327.83,179.65 L327.98,180.15 L328.13,180.65" fill="none" stroke="#44aaff" stroke-width="7" opacity="0.90"/>
</svg>