<svg xmlns="http://www.w3.org/2000/svg" xmlns:xlink="http://www.w3.org/1999/xlink" viewBox="0 0 512 512">
  <defs>
    <filter id="glow" x="-40%" y="-40%" width="180%" height="180%">
      <feGaussianBlur stdDeviation="5" result="blur"/>
      <feMerge>
        <feMergeNode in="blur"/>
        <feMergeNode in="SourceGraphic"/>
      </feMerge>
    </filter>
    
    <g id="spike">
      <line x1="0" y1="0" x2="0" y2="-76" stroke="#44aaff" stroke-width="5" stroke-linecap="round"/>
      <ellipse cx="-13" cy="-76" rx="16" ry="10" transform="rotate(-25,-13,-76)" fill="#44aaff"/>
    </g>
  </defs>

  <!-- Background -->
  <rect width="512" height="512" rx="88" fill="#0d0d14"/>

  <!-- Virus body fill (uses oscillating boundary as shape) -->
  <path d="M386.00,256.00 L386.35,256.57 L386.69,257.14 L387.03,257.72 L387.37,258.29 L387.71,258.87 L388.03,259.46 L388.36,260.04 L388.68,260.63 L388.99,261.23 L389.29,261.82 L389.59,262.42 L389.88,263.02 L390.17,263.62 L390.44,264.22 L390.71,264.83 L390.97,265.44 L391.22,266.05 L391.46,266.66 L391.69,267.27 L391.91,267.89 L392.12,268.51 L392.32,269.13 L392.50,269.75 L392.68,270.37 L392.84,270.99 L392.99,271.61 L393.13,272.23 L393.26,272.85 L393.37,273.48 L393.47,274.10 L393.56,274.72 L393.64,275.34 L393.70,275.96 L393.74,276.59 L393.77,277.21 L393.79,277.82 L393.80,278.44 L393.79,279.06 L393.76,279.67 L393.72,280.28 L393.67,280.89 L393.60,281.50 L393.52,282.11 L393.42,282.71 L393.31,283.31 L393.18,283.91 L393.04,284.50 L392.89,285.10 L392.72,285.68 L392.53,286.27 L392.33,286.85 L392.12,287.43 L391.90,288.00 L391.66,288.57 L391.40,289.13 L391.13,289.69 L390.85,290.25 L390.56,290.80 L390.25,291.35 L389.94,291.89 L389.60,292.42 L389.26,292.96 L388.91,293.48 L388.54,294.00 L388.16,294.52 L387.77,295.03 L387.37,295.54 L386.96,296.04 L386.54,296.53 L386.11,297.02 L385.67,297.51 L385.23,297.99 L384.77,298.46 L384.31,298.93 L383.84,299.39 L383.36,299.85 L382.87,300.31 L382.38,300.75 L381.88,301.20 L381.37,301.63 L380.86,302.06 L380.35,302.49 L379.83,302.91 L379.31,303.33 L378.78,303.75 L378.25,304.16 L377.72,304.56 L377.18,304.96 L376.64,305.36 L376.10,305.75 L375.56,306.14 L375.02,306.52 L374.48,306.90 L373.94,307.28 L373.40,307.66 L372.86,308.03 L372.32,308.40 L371.79,308.77 L371.25,309.13 L370.72,309.49 L370.19,309.86 L369.66,310.22 L369.14,310.57 L368.62,310.93 L368.11,311.29 L367.60,311.64 L367.09,312.00 L366.59,312.35 L366.10,312.70 L365.61,313.06 L365.13,313.41 L364.65,313.77 L364.18,314.13 L363.72,314.48 L363.26,314.84 L362.81,315.20 L362.37,315.57 L361.93,315.93 L361.50,316.30 L361.08,316.67 L360.67,317.04 L360.27,317.42 L359.87,317.80 L359.48,318.18 L359.10,318.57 L358.73,318.96 L358.37,319.35 L358.02,319.75 L357.67,320.15 L357.34,320.56 L357.01,320.97 L356.69,321.39 L356.37,321.81 L356.07,322.24 L355.78,322.67 L355.49,323.11 L355.21,323.55 L354.94,324.00 L354.68,324.46 L354.42,324.92 L354.18,325.38 L353.94,325.86 L353.70,326.34 L353.48,326.82 L353.26,327.31 L353.05,327.81 L352.84,328.32 L352.64,328.83 L352.45,329.34 L352.27,329.87 L352.08,330.40 L351.91,330.93 L351.74,331.47 L351.57,332.02 L351.41,332.58 L351.25,333.13 L351.10,333.70 L350.95,334.27 L350.80,334.85 L350.66,335.43 L350.52,336.02 L350.38,336.61 L350.25,337.21 L350.11,337.81 L349.98,338.42 L349.85,339.03 L349.72,339.65 L349.59,340.27 L349.46,340.89 L349.32,341.52 L349.19,342.15 L349.06,342.78 L348.93,343.42 L348.79,344.05 L348.65,344.70 L348.51,345.34 L348.37,345.98 L348.23,346.63 L348.08,347.28 L347.92,347.92 L347.77,348.57 L347.61,349.22 L347.44,349.87 L347.27,350.52 L347.10,351.16 L346.92,351.81 L346.73,352.45 L346.54,353.09 L346.34,353.73 L346.14,354.37 L345.93,355.00 L345.71,355.63 L345.48,356.26 L345.25,356.88 L345.01,357.50 L344.76,358.11 L344.51,358.72 L344.25,359.32 L343.97,359.92 L343.69,360.51 L343.41,361.09 L343.11,361.67 L342.80,362.24 L342.49,362.80 L342.16,363.36 L341.83,363.91 L341.49,364.44 L341.14,364.97 L340.78,365.50 L340.41,366.01 L340.03,366.51 L339.65,367.00 L339.25,367.48 L338.84,367.95 L338.43,368.42 L338.00,368.87 L337.57,369.31 L337.13,369.73 L336.67,370.15 L336.21,370.56 L335.74,370.95 L335.27,371.33 L334.78,371.70 L334.28,372.06 L333.78,372.41 L333.27,372.74 L332.75,373.06 L332.22,373.37 L331.68,373.66 L331.14,373.95 L330.59,374.22 L330.03,374.47 L329.47,374.72 L328.89,374.95 L328.32,375.17 L327.73,375.38 L327.14,375.57 L326.54,375.76 L325.94,375.93 L325.33,376.08 L324.72,376.23 L324.10,376.36 L323.47,376.48 L322.85,376.59 L322.21,376.69 L321.58,376.78 L320.94,376.85 L320.29,376.92 L319.65,376.97 L319.00,377.01 L318.34,377.05 L317.69,377.07 L317.03,377.08 L316.37,377.08 L315.71,377.08 L315.05,377.06 L314.38,377.04 L313.72,377.01 L313.05,376.97 L312.39,376.92 L311.72,376.86 L311.05,376.80 L310.39,376.73 L309.72,376.66 L309.06,376.58 L308.39,376.49 L307.73,376.40 L307.07,376.31 L306.41,376.21 L305.75,376.10 L305.09,376.00 L304.44,375.89 L303.79,375.77 L303.14,375.66 L302.49,375.54 L301.84,375.42 L301.20,375.31 L300.56,375.19 L299.93,375.07 L299.29,374.95 L298.66,374.83 L298.04,374.71 L297.41,374.59 L296.80,374.48 L296.18,374.37 L295.57,374.26 L294.96,374.15 L294.36,374.05 L293.76,373.95 L293.16,373.85 L292.57,373.76 L291.98,373.68 L291.39,373.60 L290.81,373.52 L290.23,373.45 L289.66,373.39 L289.09,373.33 L288.53,373.28 L287.96,373.24 L287.41,373.21 L286.85,373.18 L286.30,373.16 L285.75,373.15 L285.21,373.14 L284.67,373.15 L284.13,373.16 L283.59,373.18 L283.06,373.21 L282.53,373.25 L282.01,373.30 L281.48,373.36 L280.96,373.43 L280.44,373.51 L279.93,373.60 L279.41,373.69 L278.90,373.80 L278.39,373.92 L277.88,374.04 L277.37,374.18 L276.86,374.33 L276.36,374.48 L275.85,374.65 L275.35,374.82 L274.85,375.01 L274.35,375.20 L273.84,375.40 L273.34,375.61 L272.84,375.83 L272.34,376.06 L271.84,376.30 L271.34,376.55 L270.83,376.80 L270.33,377.06 L269.82,377.33 L269.32,377.61 L268.81,377.90 L268.30,378.19 L267.79,378.49 L267.28,378.79 L266.77,379.10 L266.26,379.42 L265.74,379.74 L265.22,380.07 L264.70,380.40 L264.18,380.73 L263.65,381.07 L263.12,381.41 L262.59,381.76 L262.06,382.11 L261.52,382.46 L260.98,382.81 L260.44,383.17 L259.90,383.52 L259.35,383.88 L258.80,384.23 L258.24,384.59 L257.69,384.94 L257.13,385.30 L256.57,385.65 L256.00,386.00 L255.43,386.35 L254.86,386.69 L254.28,387.03 L253.71,387.37 L253.13,387.71 L252.54,388.03 L251.96,388.36 L251.37,388.68 L250.77,388.99 L250.18,389.29 L249.58,389.59 L248.98,389.88 L248.38,390.17 L247.78,390.44 L247.17,390.71 L246.56,390.97 L245.95,391.22 L245.34,391.46 L244.73,391.69 L244.11,391.91 L243.49,392.12 L242.87,392.32 L242.25,392.50 L241.63,392.68 L241.01,392.84 L240.39,392.99 L239.77,393.13 L239.15,393.26 L238.52,393.37 L237.90,393.47 L237.28,393.56 L236.66,393.64 L236.04,393.70 L235.41,393.74 L234.79,393.77 L234.18,393.79 L233.56,393.80 L232.94,393.79 L232.33,393.76 L231.72,393.72 L231.11,393.67 L230.50,393.60 L229.89,393.52 L229.29,393.42 L228.69,393.31 L228.09,393.18 L227.50,393.04 L226.90,392.89 L226.32,392.72 L225.73,392.53 L225.15,392.33 L224.57,392.12 L224.00,391.90 L223.43,391.66 L222.87,391.40 L222.31,391.13 L221.75,390.85 L221.20,390.56 L220.65,390.25 L220.11,389.94 L219.58,389.60 L219.04,389.26 L218.52,388.91 L218.00,388.54 L217.48,388.16 L216.97,387.77 L216.46,387.37 L215.96,386.96 L215.47,386.54 L214.98,386.11 L214.49,385.67 L214.01,385.23 L213.54,384.77 L213.07,384.31 L212.61,383.84 L212.15,383.36 L211.69,382.87 L211.25,382.38 L210.80,381.88 L210.37,381.37 L209.94,380.86 L209.51,380.35 L209.09,379.83 L208.67,379.31 L208.25,378.78 L207.84,378.25 L207.44,377.72 L207.04,377.18 L206.64,376.64 L206.25,376.10 L205.86,375.56 L205.48,375.02 L205.10,374.48 L204.72,373.94 L204.34,373.40 L203.97,372.86 L203.60,372.32 L203.23,371.79 L202.87,371.25 L202.51,370.72 L202.14,370.19 L201.78,369.66 L201.43,369.14 L201.07,368.62 L200.71,368.11 L200.36,367.60 L200.00,367.09 L199.65,366.59 L199.30,366.10 L198.94,365.61 L198.59,365.13 L198.23,364.65 L197.87,364.18 L197.52,363.72 L197.16,363.26 L196.80,362.81 L196.43,362.37 L196.07,361.93 L195.70,361.50 L195.33,361.08 L194.96,360.67 L194.58,360.27 L194.20,359.87 L193.82,359.48 L193.43,359.10 L193.04,358.73 L192.65,358.37 L192.25,358.02 L191.85,357.67 L191.44,357.34 L191.03,357.01 L190.61,356.69 L190.19,356.37 L189.76,356.07 L189.33,355.78 L188.89,355.49 L188.45,355.21 L188.00,354.94 L187.54,354.68 L187.08,354.42 L186.62,354.18 L186.14,353.94 L185.66,353.70 L185.18,353.48 L184.69,353.26 L184.19,353.05 L183.68,352.84 L183.17,352.64 L182.66,352.45 L182.13,352.27 L181.60,352.08 L181.07,351.91 L180.53,351.74 L179.98,351.57 L179.42,351.41 L178.87,351.25 L178.30,351.10 L177.73,350.95 L177.15,350.80 L176.57,350.66 L175.98,350.52 L175.39,350.38 L174.79,350.25 L174.19,350.11 L173.58,349.98 L172.97,349.85 L172.35,349.72 L171.73,349.59 L171.11,349.46 L170.48,349.32 L169.85,349.19 L169.22,349.06 L168.58,348.93 L167.95,348.79 L167.30,348.65 L166.66,348.51 L166.02,348.37 L165.37,348.23 L164.72,348.08 L164.08,347.92 L163.43,347.77 L162.78,347.61 L162.13,347.44 L161.48,347.27 L160.84,347.10 L160.19,346.92 L159.55,346.73 L158.91,346.54 L158.27,346.34 L157.63,346.14 L157.00,345.93 L156.37,345.71 L155.74,345.48 L155.12,345.25 L154.50,345.01 L153.89,344.76 L153.28,344.51 L152.68,344.25 L152.08,343.97 L151.49,343.69 L150.91,343.41 L150.33,343.11 L149.76,342.80 L149.20,342.49 L148.64,342.16 L148.09,341.83 L147.56,341.49 L147.03,341.14 L146.50,340.78 L145.99,340.41 L145.49,340.03 L145.00,339.65 L144.52,339.25 L144.05,338.84 L143.58,338.43 L143.13,338.00 L142.69,337.57 L142.27,337.13 L141.85,336.67 L141.44,336.21 L141.05,335.74 L140.67,335.27 L140.30,334.78 L139.94,334.28 L139.59,333.78 L139.26,333.27 L138.94,332.75 L138.63,332.22 L138.34,331.68 L138.05,331.14 L137.78,330.59 L137.53,330.03 L137.28,329.47 L137.05,328.89 L136.83,328.32 L136.62,327.73 L136.43,327.14 L136.24,326.54 L136.07,325.94 L135.92,325.33 L135.77,324.72 L135.64,324.10 L135.52,323.47 L135.41,322.85 L135.31,322.21 L135.22,321.58 L135.15,320.94 L135.08,320.29 L135.03,319.65 L134.99,319.00 L134.95,318.34 L134.93,317.69 L134.92,317.03 L134.92,316.37 L134.92,315.71 L134.94,315.05 L134.96,314.38 L134.99,313.72 L135.03,313.05 L135.08,312.39 L135.14,311.72 L135.20,311.05 L135.27,310.39 L135.34,309.72 L135.42,309.06 L135.51,308.39 L135.60,307.73 L135.69,307.07 L135.79,306.41 L135.90,305.75 L136.00,305.09 L136.11,304.44 L136.23,303.79 L136.34,303.14 L136.46,302.49 L136.58,301.84 L136.69,301.20 L136.81,300.56 L136.93,299.93 L137.05,299.29 L137.17,298.66 L137.29,298.04 L137.41,297.41 L137.52,296.80 L137.63,296.18 L137.74,295.57 L137.85,294.96 L137.95,294.36 L138.05,293.76 L138.15,293.16 L138.24,292.57 L138.32,291.98 L138.40,291.39 L138.48,290.81 L138.55,290.23 L138.61,289.66 L138.67,289.09 L138.72,288.53 L138.76,287.96 L138.79,287.41 L138.82,286.85 L138.84,286.30 L138.85,285.75 L138.86,285.21 L138.85,284.67 L138.84,284.13 L138.82,283.59 L138.79,283.06 L138.75,282.53 L138.70,282.01 L138.64,281.48 L138.57,280.96 L138.49,280.44 L138.40,279.93 L138.31,279.41 L138.20,278.90 L138.08,278.39 L137.96,277.88 L137.82,277.37 L137.67,276.86 L137.52,276.36 L137.35,275.85 L137.18,275.35 L136.99,274.85 L136.80,274.35 L136.60,273.84 L136.39,273.34 L136.17,272.84 L135.94,272.34 L135.70,271.84 L135.45,271.34 L135.20,270.83 L134.94,270.33 L134.67,269.82 L134.39,269.32 L134.10,268.81 L133.81,268.30 L133.51,267.79 L133.21,267.28 L132.90,266.77 L132.58,266.26 L132.26,265.74 L131.93,265.22 L131.60,264.70 L131.27,264.18 L130.93,263.65 L130.59,263.12 L130.24,262.59 L129.89,262.06 L129.54,261.52 L129.19,260.98 L128.83,260.44 L128.48,259.90 L128.12,259.35 L127.77,258.80 L127.41,258.24 L127.06,257.69 L126.70,257.13 L126.35,256.57 L126.00,256.00 L125.65,255.43 L125.31,254.86 L124.97,254.28 L124.63,253.71 L124.29,253.13 L123.97,252.54 L123.64,251.96 L123.32,251.37 L123.01,250.77 L122.71,250.18 L122.41,249.58 L122.12,248.98 L121.83,248.38 L121.56,247.78 L121.29,247.17 L121.03,246.56 L120.78,245.95 L120.54,245.34 L120.31,244.73 L120.09,244.11 L119.88,243.49 L119.68,242.87 L119.50,242.25 L119.32,241.63 L119.16,241.01 L119.01,240.39 L118.87,239.77 L118.74,239.15 L118.63,238.52 L118.53,237.90 L118.44,237.28 L118.36,236.66 L118.30,236.04 L118.26,235.41 L118.23,234.79 L118.21,234.18 L118.20,233.56 L118.21,232.94 L118.24,232.33 L118.28,231.72 L118.33,231.11 L118.40,230.50 L118.48,229.89 L118.58,229.29 L118.69,228.69 L118.82,228.09 L118.96,227.50 L119.11,226.90 L119.28,226.32 L119.47,225.73 L119.67,225.15 L119.88,224.57 L120.10,224.00 L120.34,223.43 L120.60,222.87 L120.87,222.31 L121.15,221.75 L121.44,221.20 L121.75,220.65 L122.06,220.11 L122.40,219.58 L122.74,219.04 L123.09,218.52 L123.46,218.00 L123.84,217.48 L124.23,216.97 L124.63,216.46 L125.04,215.96 L125.46,215.47 L125.89,214.98 L126.33,214.49 L126.77,214.01 L127.23,213.54 L127.69,213.07 L128.16,212.61 L128.64,212.15 L129.13,211.69 L129.62,211.25 L130.12,210.80 L130.63,210.37 L131.14,209.94 L131.65,209.51 L132.17,209.09 L132.69,208.67 L133.22,208.25 L133.75,207.84 L134.28,207.44 L134.82,207.04 L135.36,206.64 L135.90,206.25 L136.44,205.86 L136.98,205.48 L137.52,205.10 L138.06,204.72 L138.60,204.34 L139.14,203.97 L139.68,203.60 L140.21,203.23 L140.75,202.87 L141.28,202.51 L141.81,202.14 L142.34,201.78 L142.86,201.43 L143.38,201.07 L143.89,200.71 L144.40,200.36 L144.91,200.00 L145.41,199.65 L145.90,199.30 L146.39,198.94 L146.87,198.59 L147.35,198.23 L147.82,197.87 L148.28,197.52 L148.74,197.16 L149.19,196.80 L149.63,196.43 L150.07,196.07 L150.50,195.70 L150.92,195.33 L151.33,194.96 L151.73,194.58 L152.13,194.20 L152.52,193.82 L152.90,193.43 L153.27,193.04 L153.63,192.65 L153.98,192.25 L154.33,191.85 L154.66,191.44 L154.99,191.03 L155.31,190.61 L155.63,190.19 L155.93,189.76 L156.22,189.33 L156.51,188.89 L156.79,188.45 L157.06,188.00 L157.32,187.54 L157.58,187.08 L157.82,186.62 L158.06,186.14 L158.30,185.66 L158.52,185.18 L158.74,184.69 L158.95,184.19 L159.16,183.68 L159.36,183.17 L159.55,182.66 L159.73,182.13 L159.92,181.60 L160.09,181.07 L160.26,180.53 L160.43,179.98 L160.59,179.42 L160.75,178.87 L160.90,178.30 L161.05,177.73 L161.20,177.15 L161.34,176.57 L161.48,175.98 L161.62,175.39 L161.75,174.79 L161.89,174.19 L162.02,173.58 L162.15,172.97 L162.28,172.35 L162.41,171.73 L162.54,171.11 L162.68,170.48 L162.81,169.85 L162.94,169.22 L163.07,168.58 L163.21,167.95 L163.35,167.30 L163.49,166.66 L163.63,166.02 L163.77,165.37 L163.92,164.72 L164.08,164.08 L164.23,163.43 L164.39,162.78 L164.56,162.13 L164.73,161.48 L164.90,160.84 L165.08,160.19 L165.27,159.55 L165.46,158.91 L165.66,158.27 L165.86,157.63 L166.07,157.00 L166.29,156.37 L166.52,155.74 L166.75,155.12 L166.99,154.50 L167.24,153.89 L167.49,153.28 L167.75,152.68 L168.03,152.08 L168.31,151.49 L168.59,150.91 L168.89,150.33 L169.20,149.76 L169.51,149.20 L169.84,148.64 L170.17,148.09 L170.51,147.56 L170.86,147.03 L171.22,146.50 L171.59,145.99 L171.97,145.49 L172.35,145.00 L172.75,144.52 L173.16,144.05 L173.57,143.58 L174.00,143.13 L174.43,142.69 L174.87,142.27 L175.33,141.85 L175.79,141.44 L176.26,141.05 L176.73,140.67 L177.22,140.30 L177.72,139.94 L178.22,139.59 L178.73,139.26 L179.25,138.94 L179.78,138.63 L180.32,138.34 L180.86,138.05 L181.41,137.78 L181.97,137.53 L182.53,137.28 L183.11,137.05 L183.68,136.83 L184.27,136.62 L184.86,136.43 L185.46,136.24 L186.06,136.07 L186.67,135.92 L187.28,135.77 L187.90,135.64 L188.53,135.52 L189.15,135.41 L189.79,135.31 L190.42,135.22 L191.06,135.15 L191.71,135.08 L192.35,135.03 L193.00,134.99 L193.66,134.95 L194.31,134.93 L194.97,134.92 L195.63,134.92 L196.29,134.92 L196.95,134.94 L197.62,134.96 L198.28,134.99 L198.95,135.03 L199.61,135.08 L200.28,135.14 L200.95,135.20 L201.61,135.27 L202.28,135.34 L202.94,135.42 L203.61,135.51 L204.27,135.60 L204.93,135.69 L205.59,135.79 L206.25,135.90 L206.91,136.00 L207.56,136.11 L208.21,136.23 L208.86,136.34 L209.51,136.46 L210.16,136.58 L210.80,136.69 L211.44,136.81 L212.07,136.93 L212.71,137.05 L213.34,137.17 L213.96,137.29 L214.59,137.41 L215.20,137.52 L215.82,137.63 L216.43,137.74 L217.04,137.85 L217.64,137.95 L218.24,138.05 L218.84,138.15 L219.43,138.24 L220.02,138.32 L220.61,138.40 L221.19,138.48 L221.77,138.55 L222.34,138.61 L222.91,138.67 L223.47,138.72 L224.04,138.76 L224.59,138.79 L225.15,138.82 L225.70,138.84 L226.25,138.85 L226.79,138.86 L227.33,138.85 L227.87,138.84 L228.41,138.82 L228.94,138.79 L229.47,138.75 L229.99,138.70 L230.52,138.64 L231.04,138.57 L231.56,138.49 L232.07,138.40 L232.59,138.31 L233.10,138.20 L233.61,138.08 L234.12,137.96 L234.63,137.82 L235.14,137.67 L235.64,137.52 L236.15,137.35 L236.65,137.18 L237.15,136.99 L237.65,136.80 L238.16,136.60 L238.66,136.39 L239.16,136.17 L239.66,135.94 L240.16,135.70 L240.66,135.45 L241.17,135.20 L241.67,134.94 L242.18,134.67 L242.68,134.39 L243.19,134.10 L243.70,133.81 L244.21,133.51 L244.72,133.21 L245.23,132.90 L245.74,132.58 L246.26,132.26 L246.78,131.93 L247.30,131.60 L247.82,131.27 L248.35,130.93 L248.88,130.59 L249.41,130.24 L249.94,129.89 L250.48,129.54 L251.02,129.19 L251.56,128.83 L252.10,128.48 L252.65,128.12 L253.20,127.77 L253.76,127.41 L254.31,127.06 L254.87,126.70 L255.43,126.35 L256.00,126.00 L256.57,125.65 L257.14,125.31 L257.72,124.97 L258.29,124.63 L258.87,124.29 L259.46,123.97 L260.04,123.64 L260.63,123.32 L261.23,123.01 L261.82,122.71 L262.42,122.41 L263.02,122.12 L263.62,121.83 L264.22,121.56 L264.83,121.29 L265.44,121.03 L266.05,120.78 L266.66,120.54 L267.27,120.31 L267.89,120.09 L268.51,119.88 L269.13,119.68 L269.75,119.50 L270.37,119.32 L270.99,119.16 L271.61,119.01 L272.23,118.87 L272.85,118.74 L273.48,118.63 L274.10,118.53 L274.72,118.44 L275.34,118.36 L275.96,118.30 L276.59,118.26 L277.21,118.23 L277.82,118.21 L278.44,118.20 L279.06,118.21 L279.67,118.24 L280.28,118.28 L280.89,118.33 L281.50,118.40 L282.11,118.48 L282.71,118.58 L283.31,118.69 L283.91,118.82 L284.50,118.96 L285.10,119.11 L285.68,119.28 L286.27,119.47 L286.85,119.67 L287.43,119.88 L288.00,120.10 L288.57,120.34 L289.13,120.60 L289.69,120.87 L290.25,121.15 L290.80,121.44 L291.35,121.75 L291.89,122.06 L292.42,122.40 L292.96,122.74 L293.48,123.09 L294.00,123.46 L294.52,123.84 L295.03,124.23 L295.54,124.63 L296.04,125.04 L296.53,125.46 L297.02,125.89 L297.51,126.33 L297.99,126.77 L298.46,127.23 L298.93,127.69 L299.39,128.16 L299.85,128.64 L300.31,129.13 L300.75,129.62 L301.20,130.12 L301.63,130.63 L302.06,131.14 L302.49,131.65 L302.91,132.17 L303.33,132.69 L303.75,133.22 L304.16,133.75 L304.56,134.28 L304.96,134.82 L305.36,135.36 L305.75,135.90 L306.14,136.44 L306.52,136.98 L306.90,137.52 L307.28,138.06 L307.66,138.60 L308.03,139.14 L308.40,139.68 L308.77,140.21 L309.13,140.75 L309.49,141.28 L309.86,141.81 L310.22,142.34 L310.57,142.86 L310.93,143.38 L311.29,143.89 L311.64,144.40 L312.00,144.91 L312.35,145.41 L312.70,145.90 L313.06,146.39 L313.41,146.87 L313.77,147.35 L314.13,147.82 L314.48,148.28 L314.84,148.74 L315.20,149.19 L315.57,149.63 L315.93,150.07 L316.30,150.50 L316.67,150.92 L317.04,151.33 L317.42,151.73 L317.80,152.13 L318.18,152.52 L318.57,152.90 L318.96,153.27 L319.35,153.63 L319.75,153.98 L320.15,154.33 L320.56,154.66 L320.97,154.99 L321.39,155.31 L321.81,155.63 L322.24,155.93 L322.67,156.22 L323.11,156.51 L323.55,156.79 L324.00,157.06 L324.46,157.32 L324.92,157.58 L325.38,157.82 L325.86,158.06 L326.34,158.30 L326.82,158.52 L327.31,158.74 L327.81,158.95 L328.32,159.16 L328.83,159.36 L329.34,159.55 L329.87,159.73 L330.40,159.92 L330.93,160.09 L331.47,160.26 L332.02,160.43 L332.58,160.59 L333.13,160.75 L333.70,160.90 L334.27,161.05 L334.85,161.20 L335.43,161.34 L336.02,161.48 L336.61,161.62 L337.21,161.75 L337.81,161.89 L338.42,162.02 L339.03,162.15 L339.65,162.28 L340.27,162.41 L340.89,162.54 L341.52,162.68 L342.15,162.81 L342.78,162.94 L343.42,163.07 L344.05,163.21 L344.70,163.35 L345.34,163.49 L345.98,163.63 L346.63,163.77 L347.28,163.92 L347.92,164.08 L348.57,164.23 L349.22,164.39 L349.87,164.56 L350.52,164.73 L351.16,164.90 L351.81,165.08 L352.45,165.27 L353.09,165.46 L353.73,165.66 L354.37,165.86 L355.00,166.07 L355.63,166.29 L356.26,166.52 L356.88,166.75 L357.50,166.99 L358.11,167.24 L358.72,167.49 L359.32,167.75 L359.92,168.03 L360.51,168.31 L361.09,168.59 L361.67,168.89 L362.24,169.20 L362.80,169.51 L363.36,169.84 L363.91,170.17 L364.44,170.51 L364.97,170.86 L365.50,171.22 L366.01,171.59 L366.51,171.97 L367.00,172.35 L367.48,172.75 L367.95,173.16 L368.42,173.57 L368.87,174.00 L369.31,174.43 L369.73,174.87 L370.15,175.33 L370.56,175.79 L370.95,176.26 L371.33,176.73 L371.70,177.22 L372.06,177.72 L372.41,178.22 L372.74,178.73 L373.06,179.25 L373.37,179.78 L373.66,180.32 L373.95,180.86 L374.22,181.41 L374.47,181.97 L374.72,182.53 L374.95,183.11 L375.17,183.68 L375.38,184.27 L375.57,184.86 L375.76,185.46 L375.93,186.06 L376.08,186.67 L376.23,187.28 L376.36,187.90 L376.48,188.53 L376.59,189.15 L376.69,189.79 L376.78,190.42 L376.85,191.06 L376.92,191.71 L376.97,192.35 L377.01,193.00 L377.05,193.66 L377.07,194.31 L377.08,194.97 L377.08,195.63 L377.08,196.29 L377.06,196.95 L377.04,197.62 L377.01,198.28 L376.97,198.95 L376.92,199.61 L376.86,200.28 L376.80,200.95 L376.73,201.61 L376.66,202.28 L376.58,202.94 L376.49,203.61 L376.40,204.27 L376.31,204.93 L376.21,205.59 L376.10,206.25 L376.00,206.91 L375.89,207.56 L375.77,208.21 L375.66,208.86 L375.54,209.51 L375.42,210.16 L375.31,210.80 L375.19,211.44 L375.07,212.07 L374.95,212.71 L374.83,213.34 L374.71,213.96 L374.59,214.59 L374.48,215.20 L374.37,215.82 L374.26,216.43 L374.15,217.04 L374.05,217.64 L373.95,218.24 L373.85,218.84 L373.76,219.43 L373.68,220.02 L373.60,220.61 L373.52,221.19 L373.45,221.77 L373.39,222.34 L373.33,222.91 L373.28,223.47 L373.24,224.04 L373.21,224.59 L373.18,225.15 L373.16,225.70 L373.15,226.25 L373.14,226.79 L373.15,227.33 L373.16,227.87 L373.18,228.41 L373.21,228.94 L373.25,229.47 L373.30,229.99 L373.36,230.52 L373.43,231.04 L373.51,231.56 L373.60,232.07 L373.69,232.59 L373.80,233.10 L373.92,233.61 L374.04,234.12 L374.18,234.63 L374.33,235.14 L374.48,235.64 L374.65,236.15 L374.82,236.65 L375.01,237.15 L375.20,237.65 L375.40,238.16 L375.61,238.66 L375.83,239.16 L376.06,239.66 L376.30,240.16 L376.55,240.66 L376.80,241.17 L377.06,241.67 L377.33,242.18 L377.61,242.68 L377.90,243.19 L378.19,243.70 L378.49,244.21 L378.79,244.72 L379.10,245.23 L379.42,245.74 L379.74,246.26 L380.07,246.78 L380.40,247.30 L380.73,247.82 L381.07,248.35 L381.41,248.88 L381.76,249.41 L382.11,249.94 L382.46,250.48 L382.81,251.02 L383.17,251.56 L383.52,252.10 L383.88,252.65 L384.23,253.20 L384.59,253.76 L384.94,254.31 L385.30,254.87 L385.65,255.43 L386.00,256.00 Z" fill="#04111c" stroke="none"/>

  <!-- Staff lines — faint neon orange, endpoints clipped to circle radius -->
  <line x1="132.3" y1="216" x2="379.7" y2="216" stroke="#ff7722" stroke-width="1.5" opacity="0.38"/>
  <line x1="127.5" y1="236" x2="384.5" y2="236" stroke="#ff7722" stroke-width="1.5" opacity="0.38"/>
  <line x1="126.0" y1="256" x2="386.0" y2="256" stroke="#ff7722" stroke-width="1.5" opacity="0.38"/>
  <line x1="127.5" y1="276" x2="384.5" y2="276" stroke="#ff7722" stroke-width="1.5" opacity="0.38"/>
  <line x1="132.3" y1="296" x2="379.7" y2="296" stroke="#ff7722" stroke-width="1.5" opacity="0.38"/>

  <!-- 8 note-head spikes -->
  <g filter="url(#glow)">
    <use xlink:href="#spike" href="#spike" transform="translate(256,126) rotate(0)"/>
    <use xlink:href="#spike" href="#spike" transform="translate(347.9,164.1) rotate(45)"/>
    <use xlink:href="#spike" href="#spike" transform="translate(386,256) rotate(90)"/>
    <use xlink:href="#spike" href="#spike" transform="translate(347.9,347.9) rotate(135)"/>
    <use xlink:href="#spike" href="#spike" transform="translate(256,386) rotate(180)"/>
    <use xlink:href="#spike" href="#spike" transform="translate(164.1,347.9) rotate(225)"/>
    <use xlink:href="#spike" href="#spike" transform="translate(126,256) rotate(270)"/>
    <use xlink:href="#spike" href="#spike" transform="translate(164.1,164.1) rotate(315)"/>
  </g>

  <!-- Oscillating boundary — outer stroke with glow -->
  <path d="M386.00,256.00 L386.35,256.57 L386.69,257.14 L387.03,257.72 L387.37,258.29 L387.71,258.87 L388.03,259.46 L388.36,260.04 L388.68,260.63 L388.99,261.23 L389.29,261.82 L389.59,262.42 L389.88,263.02 L390.17,263.62 L390.44,264.22 L390.71,264.83 L390.97,265.44 L391.22,266.05 L391.46,266.66 L391.69,267.27 L391.91,267.89 L392.12,268.51 L392.32,269.13 L392.50,269.75 L392.68,270.37 L392.84,270.99 L392.99,271.61 L393.13,272.23 L393.26,272.85 L393.37,273.48 L393.47,274.10 L393.56,274.72 L393.64,275.34 L393.70,275.96 L393.74,276.59 L393.77,277.21 L393.79,277.82 L393.80,278.44 L393.79,279.06 L393.76,279.67 L393.72,280.28 L393.67,280.89 L393.60,281.50 L393.52,282.11 L393.42,282.71 L393.31,283.31 L393.18,283.91 L393.04,284.50 L392.89,285.10 L392.72,285.68 L392.53,286.27 L392.33,286.85 L392.12,287.43 L391.90,288.00 L391.66,288.57 L391.40,289.13 L391.13,289.69 L390.85,290.25 L390.56,290.80 L390.25,291.35 L389.94,291.89 L389.60,292.42 L389.26,292.96 L388.91,293.48 L388.54,294.00 L388.16,294.52 L387.77,295.03 L387.37,295.54 L386.96,296.04 L386.54,296.53 L386.11,297.02 L385.67,297.51 L385.23,297.99 L384.77,298.46 L384.31,298.93 L383.84,299.39 L383.36,299.85 L382.87,300.31 L382.38,300.75 L381.88,301.20 L381.37,301.63 L380.86,302.06 L380.35,302.49 L379.83,302.91 L379.31,303.33 L378.78,303.75 L378.25,304.16 L377.72,304.56 L377.18,304.96 L376.64,305.36 L376.10,305.75 L375.56,306.14 L375.02,306.52 L374.48,306.90 L373.94,307.28 L373.40,307.66 L372.86,308.03 L372.32,308.40 L371.79,308.77 L371.25,309.13 L370.72,309.49 L370.19,309.86 L369.66,310.22 L369.14,310.57 L368.62,310.93 L368.11,311.29 L367.60,311.64 L367.09,312.00 L366.59,312.35 L366.10,312.70 L365.61,313.06 L365.13,313.41 L364.65,313.77 L364.18,314.13 L363.72,314.48 L363.26,314.84 L362.81,315.20 L362.37,315.57 L361.93,315.93 L361.50,316.30 L361.08,316.67 L360.67,317.04 L360.27,317.42 L359.87,317.80 L359.48,318.18 L359.10,318.57 L358.73,318.96 L358.37,319.35 L358.02,319.75 L357.67,320.15 L357.34,320.56 L357.01,320.97 L356.69,321.39 L356.37,321.81 L356.07,322.24 L355.78,322.67 L355.49,323.11 L355.21,323.55 L354.94,324.00 L354.68,324.46 L354.42,324.92 L354.18,325.38 L353.94,325.86 L353.70,326.34 L353.48,326.82 L353.26,327.31 L353.05,327.81 L352.84,328.32 L352.64,328.83 L352.45,329.34 L352.27,329.87 L352.08,330.40 L351.91,330.93 L351.74,331.47 L351.57,332.02 L351.41,332.58 L351.25,333.13 L351.10,333.70 L350.95,334.27 L350.80,334.85 L350.66,335.43 L350.52,336.02 L350.38,336.61 L350.25,337.21 L350.11,337.81 L349.98,338.42 L349.85,339.03 L349.72,339.65 L349.59,340.27 L349.46,340.89 L349.32,341.52 L349.19,342.15 L349.06,342.78 L348.93,343.42 L348.79,344.05 L348.65,344.70 L348.51,345.34 L348.37,345.98 L348.23,346.63 L348.08,347.28 L347.92,347.92 L347.77,348.57 L347.61,349.22 L347.44,349.87 L347.27,350.52 L347.10,351.16 L346.92,351.81 L346.73,352.45 L346.54,353.09 L346.34,353.73 L346.14,354.37 L345.93,355.00 L345.71,355.63 L345.48,356.26 L345.25,356.88 L345.01,357.50 L344.76,358.11 L344.51,358.72 L344.25,359.32 L343.97,359.92 L343.69,360.51 L343.41,361.09 L343.11,361.67 L342.80,362.24 L342.49,362.80 L342.16,363.36 L341.83,363.91 L341.49,364.44 L341.14,364.97 L340.78,365.50 L340.41,366.01 L340.03,366.51 L339.65,367.00 L339.25,367.48 L338.84,367.95 L338.43,368.42 L338.00,368.87 L337.57,369.31 L337.13,369.73 L336.67,370.15 L336.21,370.56 L335.74,370.95 L335.27,371.33 L334.78,371.70 L334.28,372.06 L333.78,372.41 L333.27,372.74 L332.75,373.06 L332.22,373.37 L331.68,373.66 L331.14,373.95 L330.59,374.22 L330.03,374.47 L329.47,374.72 L328.89,374.95 L328.32,375.17 L327.73,375.38 L327.14,375.57 L326.54,375.76 L325.94,375.93 L325.33,376.08 L324.72,376.23 L324.10,376.36 L323.47,376.48 L322.85,376.59 L322.21,376.69 L321.58,376.78 L320.94,376.85 L320.29,376.92 L319.65,376.97 L319.00,377.01 L318.34,377.05 L317.69,377.07 L317.03,377.08 L316.37,377.08 L315.71,377.08 L315.05,377.06 L314.38,377.04 L313.72,377.01 L313.05,376.97 L312.39,376.92 L311.72,376.86 L311.05,376.80 L310.39,376.73 L309.72,376.66 L309.06,376.58 L308.39,376.49 L307.73,376.40 L307.07,376.31 L306.41,376.21 L305.75,376.10 L305.09,376.00 L304.44,375.89 L303.79,375.77 L303.14,375.66 L302.49,375.54 L301.84,375.42 L301.20,375.31 L300.56,375.19 L299.93,375.07 L299.29,374.95 L298.66,374.83 L298.04,374.71 L297.41,374.59 L296.80,374.48 L296.18,374.37 L295.57,374.26 L294.96,374.15 L294.36,374.05 L293.76,373.95 L293.16,373.85 L292.57,373.76 L291.98,373.68 L291.39,373.60 L290.81,373.52 L290.23,373.45 L289.66,373.39 L289.09,373.33 L288.53,373.28 L287.96,373.24 L287.41,373.21 L286.85,373.18 L286.30,373.16 L285.75,373.15 L285.21,373.14 L284.67,373.15 L284.13,373.16 L283.59,373.18 L283.06,373.21 L282.53,373.25 L282.01,373.30 L281.48,373.36 L280.96,373.43 L280.44,373.51 L279.93,373.60 L279.41,373.69 L278.90,373.80 L278.39,373.92 L277.88,374.04 L277.37,374.18 L276.86,374.33 L276.36,374.48 L275.85,374.65 L275.35,374.82 L274.85,375.01 L274.35,375.20 L273.84,375.40 L273.34,375.61 L272.84,375.83 L272.34,376.06 L271.84,376.30 L271.34,376.55 L270.83,376.80 L270.33,377.06 L269.82,377.33 L269.32,377.61 L268.81,377.90 L268.30,378.19 L267.79,378.49 L267.28,378.79 L266.77,379.10 L266.26,379.42 L265.74,379.74 L265.22,380.07 L264.70,380.40 L264.18,380.73 L263.65,381.07 L263.12,381.41 L262.59,381.76 L262.06,382.11 L261.52,382.46 L260.98,382.81 L260.44,383.17 L259.90,383.52 L259.35,383.88 L258.80,384.23 L258.24,384.59 L257.69,384.94 L257.13,385.30 L256.57,385.65 L256.00,386.00 L255.43,386.35 L254.86,386.69 L254.28,387.03 L253.71,387.37 L253.13,387.71 L252.54,388.03 L251.96,388.36 L251.37,388.68 L250.77,388.99 L250.18,389.29 L249.58,389.59 L248.98,389.88 L248.38,390.17 L247.78,390.44 L247.17,390.71 L246.56,390.97 L245.95,391.22 L245.34,391.46 L244.73,391.69 L244.11,391.91 L243.49,392.12 L242.87,392.32 L242.25,392.50 L241.63,392.68 L241.01,392.84 L240.39,392.99 L239.77,393.13 L239.15,393.26 L238.52,393.37 L237.90,393.47 L237.28,393.56 L236.66,393.64 L236.04,393.70 L235.41,393.74 L234.79,393.77 L234.18,393.79 L233.56,393.80 L232.94,393.79 L232.33,393.76 L231.72,393.72 L231.11,393.67 L230.50,393.60 L229.89,393.52 L229.29,393.42 L228.69,393.31 L228.09,393.18 L227.50,393.04 L226.90,392.89 L226.32,392.72 L225.73,392.53 L225.15,392.33 L224.57,392.12 L224.00,391.90 L223.43,391.66 L222.87,391.40 L222.31,391.13 L221.75,390.85 L221.20,390.56 L220.65,390.25 L220.11,389.94 L219.58,389.60 L219.04,389.26 L218.52,388.91 L218.00,388.54 L217.48,388.16 L216.97,387.77 L216.46,387.37 L215.96,386.96 L215.47,386.54 L214.98,386.11 L214.49,385.67 L214.01,385.23 L213.54,384.77 L213.07,384.31 L212.61,383.84 L212.15,383.36 L211.69,382.87 L211.25,382.38 L210.80,381.88 L210.37,381.37 L209.94,380.86 L209.51,380.35 L209.09,379.83 L208.67,379.31 L208.25,378.78 L207.84,378.25 L207.44,377.72 L207.04,377.18 L206.64,376.64 L206.25,376.10 L205.86,375.56 L205.48,375.02 L205.10,374.48 L204.72,373.94 L204.34,373.40 L203.97,372.86 L203.60,372.32 L203.23,371.79 L202.87,371.25 L202.51,370.72 L202.14,370.19 L201.78,369.66 L201.43,369.14 L201.07,368.62 L200.71,368.11 L200.36,367.60 L200.00,367.09 L199.65,366.59 L199.30,366.10 L198.94,365.61 L198.59,365.13 L198.23,364.65 L197.87,364.18 L197.52,363.72 L197.16,363.26 L196.80,362.81 L196.43,362.37 L196.07,361.93 L195.70,361.50 L195.33,361.08 L194.96,360.67 L194.58,360.27 L194.20,359.87 L193.82,359.48 L193.43,359.10 L193.04,358.73 L192.65,358.37 L192.25,358.02 L191.85,357.67 L191.44,357.34 L191.03,357.01 L190.61,356.69 L190.19,356.37 L189.76,356.07 L189.33,355.78 L188.89,355.49 L188.45,355.21 L188.00,354.94 L187.54,354.68 L187.08,354.42 L186.62,354.18 L186.14,353.94 L185.66,353.70 L185.18,353.48 L184.69,353.26 L184.19,353.05 L183.68,352.84 L183.17,352.64 L182.66,352.45 L182.13,352.27 L181.60,352.08 L181.07,351.91 L180.53,351.74 L179.98,351.57 L179.42,351.41 L178.87,351.25 L178.30,351.10 L177.73,350.95 L177.15,350.80 L176.57,350.66 L175.98,350.52 L175.39,350.38 L174.79,350.25 L174.19,350.11 L173.58,349.98 L172.97,349.85 L172.35,349.72 L171.73,349.59 L171.11,349.46 L170.48,349.32 L169.85,349.19 L169.22,349.06 L168.58,348.93 L167.95,348.79 L167.30,348.65 L166.66,348.51 L166.02,348.37 L165.37,348.23 L164.72,348.08 L164.08,347.92 L163.43,347.77 L162.78,347.61 L162.13,347.44 L161.48,347.27 L160.84,347.10 L160.19,346.92 L159.55,346.73 L158.91,346.54 L158.27,346.34 L157.63,346.14 L157.00,345.93 L156.37,345.71 L155.74,345.48 L155.12,345.25 L154.50,345.01 L153.89,344.76 L153.28,344.51 L152.68,344.25 L152.08,343.97 L151.49,343.69 L150.91,343.41 L150.33,343.11 L149.76,342.80 L149.20,342.49 L148.64,342.16 L148.09,341.83 L147.56,341.49 L147.03,341.14 L146.50,340.78 L145.99,340.41 L145.49,340.03 L145.00,339.65 L144.52,339.25 L144.05,338.84 L143.58,338.43 L143.13,338.00 L142.69,337.57 L142.27,337.13 L141.85,336.67 L141.44,336.21 L141.05,335.74 L140.67,335.27 L140.30,334.78 L139.94,334.28 L139.59,333.78 L139.26,333.27 L138.94,332.75 L138.63,332.22 L138.34,331.68 L138.05,331.14 L137.78,330.59 L137.53,330.03 L137.28,329.47 L137.05,328.89 L136.83,328.32 L136.62,327.73 L136.43,327.14 L136.24,326.54 L136.07,325.94 L135.92,325.33 L135.77,324.72 L135.64,324.10 L135.52,323.47 L135.41,322.85 L135.31,322.21 L135.22,321.58 L135.15,320.94 L135.08,320.29 L135.03,319.65 L134.99,319.00 L134.95,318.34 L134.93,317.69 L134.92,317.03 L134.92,316.37 L134.92,315.71 L134.94,315.05 L134.96,314.38 L134.99,313.72 L135.03,313.05 L135.08,312.39 L135.14,311.72 L135.20,311.05 L135.27,310.39 L135.34,309.72 L135.42,309.06 L135.51,308.39 L135.60,307.73 L135.69,307.07 L135.79,306.41 L135.90,305.75 L136.00,305.09 L136.11,304.44 L136.23,303.79 L136.34,303.14 L136.46,302.49 L136.58,301.84 L136.69,301.20 L136.81,300.56 L136.93,299.93 L137.05,299.29 L137.17,298.66 L137.29,298.04 L137.41,297.41 L137.52,296.80 L137.63,296.18 L137.74,295.57 L137.85,294.96 L137.95,294.36 L138.05,293.76 L138.15,293.16 L138.24,292.57 L138.32,291.98 L138.40,291.39 L138.48,290.81 L138.55,290.23 L138.61,289.66 L138.67,289.09 L138.72,288.53 L138.76,287.96 L138.79,287.41 L138.82,286.85 L138.84,286.30 L138.85,285.75 L138.86,285.21 L138.85,284.67 L138.84,284.13 L138.82,283.59 L138.79,283.06 L138.75,282.53 L138.70,282.01 L138.64,281.48 L138.57,280.96 L138.49,280.44 L138.40,279.93 L138.31,279.41 L138.20,278.90 L138.08,278.39 L137.96,277.88 L137.82,277.37 L137.67,276.86 L137.52,276.36 L137.35,275.85 L137.18,275.35 L136.99,274.85 L136.80,274.35 L136.60,273.84 L136.39,273.34 L136.17,272.84 L135.94,272.34 L135.70,271.84 L135.45,271.34 L135.20,270.83 L134.94,270.33 L134.67,269.82 L134.39,269.32 L134.10,268.81 L133.81,268.30 L133.51,267.79 L133.21,267.28 L132.90,266.77 L132.58,266.26 L132.26,265.74 L131.93,265.22 L131.60,264.70 L131.27,264.18 L130.93,263.65 L130.59,263.12 L130.24,262.59 L129.89,262.06 L129.54,261.52 L129.19,260.98 L128.83,260.44 L128.48,259.90 L128.12,259.35 L127.77,258.80 L127.41,258.24 L127.06,257.69 L126.70,257.13 L126.35,256.57 L126.00,256.00 L125.65,255.43 L125.31,254.86 L124.97,254.28 L124.63,253.71 L124.29,253.13 L123.97,252.54 L123.64,251.96 L123.32,251.37 L123.01,250.77 L122.71,250.18 L122.41,249.58 L122.12,248.98 L121.83,248.38 L121.56,247.78 L121.29,247.17 L121.03,246.56 L120.78,245.95 L120.54,245.34 L120.31,244.73 L120.09,244.11 L119.88,243.49 L119.68,242.87 L119.50,242.25 L119.32,241.63 L119.16,241.01 L119.01,240.39 L118.87,239.77 L118.74,239.15 L118.63,238.52 L118.53,237.90 L118.44,237.28 L118.36,236.66 L118.30,236.04 L118.26,235.41 L118.23,234.79 L118.21,234.18 L118.20,233.56 L118.21,232.94 L118.24,232.33 L118.28,231.72 L118.33,231.11 L118.40,230.50 L118.48,229.89 L118.58,229.29 L118.69,228.69 L118.82,228.09 L118.96,227.50 L119.11,226.90 L119.28,226.32 L119.47,225.73 L119.67,225.15 L119.88,224.57 L120.10,224.00 L120.34,223.43 L120.60,222.87 L120.87,222.31 L121.15,221.75 L121.44,221.20 L121.75,220.65 L122.06,220.11 L122.40,219.58 L122.74,219.04 L123.09,218.52 L123.46,218.00 L123.84,217.48 L124.23,216.97 L124.63,216.46 L125.04,215.96 L125.46,215.47 L125.89,214.98 L126.33,214.49 L126.77,214.01 L127.23,213.54 L127.69,213.07 L128.16,212.61 L128.64,212.15 L129.13,211.69 L129.62,211.25 L130.12,210.80 L130.63,210.37 L131.14,209.94 L131.65,209.51 L132.17,209.09 L132.69,208.67 L133.22,208.25 L133.75,207.84 L134.28,207.44 L134.82,207.04 L135.36,206.64 L135.90,206.25 L136.44,205.86 L136.98,205.48 L137.52,205.10 L138.06,204.72 L138.60,204.34 L139.14,203.97 L139.68,203.60 L140.21,203.23 L140.75,202.87 L141.28,202.51 L141.81,202.14 L142.34,201.78 L142.86,201.43 L143.38,201.07 L143.89,200.71 L144.40,200.36 L144.91,200.00 L145.41,199.65 L145.90,199.30 L146.39,198.94 L146.87,198.59 L147.35,198.23 L147.82,197.87 L148.28,197.52 L148.74,197.16 L149.19,196.80 L149.63,196.43 L150.07,196.07 L150.50,195.70 L150.92,195.33 L151.33,194.96 L151.73,194.58 L152.13,194.20 L152.52,193.82 L152.90,193.43 L153.27,193.04 L153.63,192.65 L153.98,192.25 L154.33,191.85 L154.66,191.44 L154.99,191.03 L155.31,190.61 L155.63,190.19 L155.93,189.76 L156.22,189.33 L156.51,188.89 L156.79,188.45 L157.06,188.00 L157.32,187.54 L157.58,187.08 L157.82,186.62 L158.06,186.14 L158.30,185.66 L158.52,185.18 L158.74,184.69 L158.95,184.19 L159.16,183.68 L159.36,183.17 L159.55,182.66 L159.73,182.13 L159.92,181.60 L160.09,181.07 L160.26,180.53 L160.43,179.98 L160.59,179.42 L160.75,178.87 L160.90,178.30 L161.05,177.73 L161.20,177.15 L161.34,176.57 L161.48,175.98 L161.62,175.39 L161.75,174.79 L161.89,174.19 L162.02,173.58 L162.15,172.97 L162.28,172.35 L162.41,171.73 L162.54,171.11 L162.68,170.48 L162.81,169.85 L162.94,169.22 L163.07,168.58 L163.21,167.95 L163.35,167.30 L163.49,166.66 L163.63,166.02 L163.77,165.37 L163.92,164.72 L164.08,164.08 L164.23,163.43 L164.39,162.78 L164.56,162.13 L164.73,161.48 L164.90,160.84 L165.08,160.19 L165.27,159.55 L165.46,158.91 L165.66,158.27 L165.86,157.63 L166.07,157.00 L166.29,156.37 L166.52,155.74 L166.75,155.12 L166.99,154.50 L167.24,153.89 L167.49,153.28 L167.75,152.68 L168.03,152.08 L168.31,151.49 L168.59,150.91 L168.89,150.33 L169.20,149.76 L169.51,149.20 L169.84,148.64 L170.17,148.09 L170.51,147.56 L170.86,147.03 L171.22,146.50 L171.59,145.99 L171.97,145.49 L172.35,145.00 L172.75,144.52 L173.16,144.05 L173.57,143.58 L174.00,143.13 L174.43,142.69 L174.87,142.27 L175.33,141.85 L175.79,141.44 L176.26,141.05 L176.73,140.67 L177.22,140.30 L177.72,139.94 L178.22,139.59 L178.73,139.26 L179.25,138.94 L179.78,138.63 L180.32,138.34 L180.86,138.05 L181.41,137.78 L181.97,137.53 L182.53,137.28 L183.11,137.05 L183.68,136.83 L184.27,136.62 L184.86,136.43 L185.46,136.24 L186.06,136.07 L186.67,135.92 L187.28,135.77 L187.90,135.64 L188.53,135.52 L189.15,135.41 L189.79,135.31 L190.42,135.22 L191.06,135.15 L191.71,135.08 L192.35,135.03 L193.00,134.99 L193.66,134.95 L194.31,134.93 L194.97,134.92 L195.63,134.92 L196.29,134.92 L196.95,134.94 L197.62,134.96 L198.28,134.99 L198.95,135.03 L199.61,135.08 L200.28,135.14 L200.95,135.20 L201.61,135.27 L202.28,135.34 L202.94,135.42 L203.61,135.51 L204.27,135.60 L204.93,135.69 L205.59,135.79 L206.25,135.90 L206.91,136.00 L207.56,136.11 L208.21,136.23 L208.86,136.34 L209.51,136.46 L210.16,136.58 L210.80,136.69 L211.44,136.81 L212.07,136.93 L212.71,137.05 L213.34,137.17 L213.96,137.29 L214.59,137.41 L215.20,137.52 L215.82,137.63 L216.43,137.74 L217.04,137.85 L217.64,137.95 L218.24,138.05 L218.84,138.15 L219.43,138.24 L220.02,138.32 L220.61,138.40 L221.19,138.48 L221.77,138.55 L222.34,138.61 L222.91,138.67 L223.47,138.72 L224.04,138.76 L224.59,138.79 L225.15,138.82 L225.70,138.84 L226.25,138.85 L226.79,138.86 L227.33,138.85 L227.87,138.84 L228.41,138.82 L228.94,138.79 L229.47,138.75 L229.99,138.70 L230.52,138.64 L231.04,138.57 L231.56,138.49 L232.07,138.40 L232.59,138.31 L233.10,138.20 L233.61,138.08 L234.12,137.96 L234.63,137.82 L235.14,137.67 L235.64,137.52 L236.15,137.35 L236.65,137.18 L237.15,136.99 L237.65,136.80 L238.16,136.60 L238.66,136.39 L239.16,136.17 L239.66,135.94 L240.16,135.70 L240.66,135.45 L241.17,135.20 L241.67,134.94 L242.18,134.67 L242.68,134.39 L243.19,134.10 L243.70,133.81 L244.21,133.51 L244.72,133.21 L245.23,132.90 L245.74,132.58 L246.26,132.26 L246.78,131.93 L247.30,131.60 L247.82,131.27 L248.35,130.93 L248.88,130.59 L249.41,130.24 L249.94,129.89 L250.48,129.54 L251.02,129.19 L251.56,128.83 L252.10,128.48 L252.65,128.12 L253.20,127.77 L253.76,127.41 L254.31,127.06 L254.87,126.70 L255.43,126.35 L256.00,126.00 L256.57,125.65 L257.14,125.31 L257.72,124.97 L258.29,124.63 L258.87,124.29 L259.46,123.97 L260.04,123.64 L260.63,123.32 L261.23,123.01 L261.82,122.71 L262.42,122.41 L263.02,122.12 L263.62,121.83 L264.22,121.56 L264.83,121.29 L265.44,121.03 L266.05,120.78 L266.66,120.54 L267.27,120.31 L267.89,120.09 L268.51,119.88 L269.13,119.68 L269.75,119.50 L270.37,119.32 L270.99,119.16 L271.61,119.01 L272.23,118.87 L272.85,118.74 L273.48,118.63 L274.10,118.53 L274.72,118.44 L275.34,118.36 L275.96,118.30 L276.59,118.26 L277.21,118.23 L277.82,118.21 L278.44,118.20 L279.06,118.21 L279.67,118.24 L280.28,118.28 L280.89,118.33 L281.50,118.40 L282.11,118.48 L282.71,118.58 L283.31,118.69 L283.91,118.82 L284.50,118.96 L285.10,119.11 L285.68,119.28 L286.27,119.47 L286.85,119.67 L287.43,119.88 L288.00,120.10 L288.57,120.34 L289.13,120.60 L289.69,120.87 L290.25,121.15 L290.80,121.44 L291.35,121.75 L291.89,122.06 L292.42,122.40 L292.96,122.74 L293.48,123.09 L294.00,123.46 L294.52,123.84 L295.03,124.23 L295.54,124.63 L296.04,125.04 L296.53,125.46 L297.02,125.89 L297.51,126.33 L297.99,126.77 L298.46,127.23 L298.93,127.69 L299.39,128.16 L299.85,128.64 L300.31,129.13 L300.75,129.62 L301.20,130.12 L301.63,130.63 L302.06,131.14 L302.49,131.65 L302.91,132.17 L303.33,132.69 L303.75,133.22 L304.16,133.75 L304.56,134.28 L304.96,134.82 L305.36,135.36 L305.75,135.90 L306.14,136.44 L306.52,136.98 L306.90,137.52 L307.28,138.06 L307.66,138.60 L308.03,139.14 L308.40,139.68 L308.77,140.21 L309.13,140.75 L309.49,141.28 L309.86,141.81 L310.22,142.34 L310.57,142.86 L310.93,143.38 L311.29,143.89 L311.64,144.40 L312.00,144.91 L312.35,145.41 L312.70,145.90 L313.06,146.39 L313.41,146.87 L313.77,147.35 L314.13,147.82 L314.48,148.28 L314.84,148.74 L315.20,149.19 L315.57,149.63 L315.93,150.07 L316.30,150.50 L316.67,150.92 L317.04,151.33 L317.42,151.73 L317.80,152.13 L318.18,152.52 L318.57,152.90 L318.96,153.27 L319.35,153.63 L319.75,153.98 L320.15,154.33 L320.56,154.66 L320.97,154.99 L321.39,155.31 L321.81,155.63 L322.24,155.93 L322.67,156.22 L323.11,156.51 L323.55,156.79 L324.00,157.06 L324.46,157.32 L324.92,157.58 L325.38,157.82 L325.86,158.06 L326.34,158.30 L326.82,158.52 L327.31,158.74 L327.81,158.95 L328.32,159.16 L328.83,159.36 L329.34,159.55 L329.87,159.73 L330.40,159.92 L330.93,160.09 L331.47,160.26 L332.02,160.43 L332.58,160.59 L333.13,160.75 L333.70,160.90 L334.27,161.05 L334.85,161.20 L335.43,161.34 L336.02,161.48 L336.61,161.62 L337.21,161.75 L337.81,161.89 L338.42,162.02 L339.03,162.15 L339.65,162.28 L340.27,162.41 L340.89,162.54 L341.52,162.68 L342.15,162.81 L342.78,162.94 L343.42,163.07 L344.05,163.21 L344.70,163.35 L345.34,163.49 L345.98,163.63 L346.63,163.77 L347.28,163.92 L347.92,164.08 L348.57,164.23 L349.22,164.39 L349.87,164.56 L350.52,164.73 L351.16,164.90 L351.81,165.08 L352.45,165.27 L353.09,165.46 L353.73,165.66 L354.37,165.86 L355.00,166.07 L355.63,166.29 L356.26,166.52 L356.88,166.75 L357.50,166.99 L358.11,167.24 L358.72,167.49 L359.32,167.75 L359.92,168.03 L360.51,168.31 L361.09,168.59 L361.67,168.89 L362.24,169.20 L362.80,169.51 L363.36,169.84 L363.91,170.17 L364.44,170.51 L364.97,170.86 L365.50,171.22 L366.01,171.59 L366.51,171.97 L367.00,172.35 L367.48,172.75 L367.95,173.16 L368.42,173.57 L368.87,174.00 L369.31,174.43 L369.73,174.87 L370.15,175.33 L370.56,175.79 L370.95,176.26 L371.33,176.73 L371.70,177.22 L372.06,177.72 L372.41,178.22 L372.74,178.73 L373.06,179.25 L373.37,179.78 L373.66,180.32 L373.95,180.86 L374.22,181.41 L374.47,181.97 L374.72,182.53 L374.95,183.11 L375.17,183.68 L375.38,184.27 L375.57,184.86 L375.76,185.46 L375.93,186.06 L376.08,186.67 L376.23,187.28 L376.36,187.90 L376.48,188.53 L376.59,189.15 L376.69,189.79 L376.78,190.42 L376.85,191.06 L376.92,191.71 L376.97,192.35 L377.01,193.00 L377.05,193.66 L377.07,194.31 L377.08,194.97 L377.08,195.63 L377.08,196.29 L377.06,196.95 L377.04,197.62 L377.01,198.28 L376.97,198.95 L376.92,199.61 L376.86,200.28 L376.80,200.95 L376.73,201.61 L376.66,202.28 L376.58,202.94 L376.49,203.61 L376.40,204.27 L376.31,204.93 L376.21,205.59 L376.10,206.25 L376.00,206.91 L375.89,207.56 L375.77,208.21 L375.66,208.86 L375.54,209.51 L375.42,210.16 L375.31,210.80 L375.19,211.44 L375.07,212.07 L374.95,212.71 L374.83,213.34 L374.71,213.96 L374.59,214.59 L374.48,215.20 L374.37,215.82 L374.26,216.43 L374.15,217.04 L374.05,217.64 L373.95,218.24 L373.85,218.84 L373.76,219.43 L373.68,220.02 L373.60,220.61 L373.52,221.19 L373.45,221.77 L373.39,222.34 L373.33,222.91 L373.28,223.47 L373.24,224.04 L373.21,224.59 L373.18,225.15 L373.16,225.70 L373.15,226.25 L373.14,226.79 L373.15,227.33 L373.16,227.87 L373.18,228.41 L373.21,228.94 L373.25,229.47 L373.30,229.99 L373.36,230.52 L373.43,231.04 L373.51,231.56 L373.60,232.07 L373.69,232.59 L373.80,233.10 L373.92,233.61 L374.04,234.12 L374.18,234.63 L374.33,235.14 L374.48,235.64 L374.65,236.15 L374.82,236.65 L375.01,237.15 L375.20,237.65 L375.40,238.16 L375.61,238.66 L375.83,239.16 L376.06,239.66 L376.30,240.16 L376.55,240.66 L376.80,241.17 L377.06,241.67 L377.33,242.18 L377.61,242.68 L377.90,243.19 L378.19,243.70 L378.49,244.21 L378.79,244.72 L379.10,245.23 L379.42,245.74 L379.74,246.26 L380.07,246.78 L380.40,247.30 L380.73,247.82 L381.07,248.35 L381.41,248.88 L381.76,249.41 L382.11,249.94 L382.46,250.48 L382.81,251.02 L383.17,251.56 L383.52,252.10 L383.88,252.65 L384.23,253.20 L384.59,253.76 L384.94,254.31 L385.30,254.87 L385.65,255.43 L386.00,256.00 Z" fill="none" stroke="#44aaff" stroke-width="5" filter="url(#glow)"/>

  <!-- Doubled inner arcs (outward-bulge sections → semiquaver visual) -->
  <path d="M380.03,257.62 L380.37,258.17 L380.71,258.72 L381.04,259.27 L381.36,259.83 L381.68,260.39 L381.99,260.95 L382.30,261.51 L382.60,262.08 L382.89,262.65 L383.18,263.22 L383.46,263.80 L383.73,264.37 L383.99,264.95 L384.24,265.53 L384.48,266.11 L384.71,266.70 L384.94,267.28 L385.15,267.87 L385.35,268.45 L385.54,269.04 L385.72,269.63 L385.88,270.22 L386.04,270.82 L386.18,271.41 L386.31,272.00 L386.43,272.59 L386.53,273.19 L386.63,273.78 L386.70,274.37 L386.77,274.96 L386.82,275.55 L386.86,276.14 L386.88,276.73 L386.89,277.32 L386.88,277.90 L386.86,278.49 L386.83,279.07 L386.78,279.65 L386.72,280.23 L386.64,280.80 L386.55,281.38 L386.44,281.95 L386.32,282.51 L386.19,283.08 L386.04,283.64 L385.88,284.20 L385.70,284.75 L385.51,285.30 L385.30,285.85 L385.08,286.39 L384.85,286.93 L384.60,287.47 L384.34,288.00 L384.07,288.53 L383.78,289.05 L383.49,289.56 L383.17,290.08 L382.85,290.58 L382.52,291.09 L382.17,291.58 L381.81,292.08 L381.44,292.56 L381.06,293.04 L380.67,293.52 L380.27,293.99 L379.86,294.46 L379.44,294.92 L379.01,295.38 L378.57,295.83 L378.12,296.27 L377.67,296.71 L377.21,297.14 L376.74,297.57 L376.26,298.00 L375.78,298.42 L375.29,298.83 L374.80,299.24 L374.30,299.64 L373.79,300.04 L373.28,300.43 L372.77,300.82 L372.26,301.21 L371.74,301.59 L371.21,301.97 M342.56,344.85 L342.41,345.48 L342.26,346.11 L342.10,346.73 L341.94,347.35 L341.77,347.97 L341.59,348.59 L341.41,349.21 L341.22,349.82 L341.02,350.43 L340.82,351.04 L340.61,351.64 L340.40,352.24 L340.17,352.83 L339.94,353.42 L339.70,354.00 L339.45,354.58 L339.19,355.15 L338.93,355.71 L338.66,356.27 L338.37,356.82 L338.08,357.36 L337.78,357.90 L337.47,358.43 L337.16,358.95 L336.83,359.46 L336.49,359.96 L336.15,360.45 L335.80,360.94 L335.43,361.41 L335.06,361.87 L334.68,362.33 L334.29,362.77 L333.89,363.20 L333.48,363.62 L333.06,364.04 L332.63,364.43 L332.20,364.82 L331.75,365.20 L331.30,365.56 L330.84,365.92 L330.37,366.26 L329.89,366.59 L329.40,366.90 L328.91,367.21 L328.41,367.50 L327.90,367.78 L327.38,368.04 L326.85,368.30 L326.32,368.54 L325.78,368.77 L325.24,368.98 L324.68,369.19 L324.13,369.38 L323.56,369.56 L322.99,369.72 L322.41,369.88 L321.83,370.02 L321.24,370.15 L320.65,370.27 L320.05,370.38 L319.45,370.47 L318.85,370.55 L318.24,370.63 L317.62,370.69 L317.01,370.74 L316.39,370.78 L315.76,370.80 L315.14,370.82 L314.51,370.83 L313.88,370.83 L313.25,370.82 L312.61,370.80 L311.98,370.77 L311.34,370.73 L310.70,370.69 L310.07,370.64 L309.43,370.58 L308.79,370.51 L308.15,370.43 L307.51,370.35 L306.87,370.27 L306.24,370.17 L305.60,370.07 L304.97,369.97 M254.38,380.03 L253.83,380.37 L253.28,380.71 L252.73,381.04 L252.17,381.36 L251.61,381.68 L251.05,381.99 L250.49,382.30 L249.92,382.60 L249.35,382.89 L248.78,383.18 L248.20,383.46 L247.63,383.73 L247.05,383.99 L246.47,384.24 L245.89,384.48 L245.30,384.71 L244.72,384.94 L244.13,385.15 L243.55,385.35 L242.96,385.54 L242.37,385.72 L241.78,385.88 L241.18,386.04 L240.59,386.18 L240.00,386.31 L239.41,386.43 L238.81,386.53 L238.22,386.63 L237.63,386.70 L237.04,386.77 L236.45,386.82 L235.86,386.86 L235.27,386.88 L234.68,386.89 L234.10,386.88 L233.51,386.86 L232.93,386.83 L232.35,386.78 L231.77,386.72 L231.20,386.64 L230.62,386.55 L230.05,386.44 L229.49,386.32 L228.92,386.19 L228.36,386.04 L227.80,385.88 L227.25,385.70 L226.70,385.51 L226.15,385.30 L225.61,385.08 L225.07,384.85 L224.53,384.60 L224.00,384.34 L223.47,384.07 L222.95,383.78 L222.44,383.49 L221.92,383.17 L221.42,382.85 L220.91,382.52 L220.42,382.17 L219.92,381.81 L219.44,381.44 L218.96,381.06 L218.48,380.67 L218.01,380.27 L217.54,379.86 L217.08,379.44 L216.62,379.01 L216.17,378.57 L215.73,378.12 L215.29,377.67 L214.86,377.21 L214.43,376.74 L214.00,376.26 L213.58,375.78 L213.17,375.29 L212.76,374.80 L212.36,374.30 L211.96,373.79 L211.57,373.28 L211.18,372.77 L210.79,372.26 L210.41,371.74 L210.03,371.21 M167.15,342.56 L166.52,342.41 L165.89,342.26 L165.27,342.10 L164.65,341.94 L164.03,341.77 L163.41,341.59 L162.79,341.41 L162.18,341.22 L161.57,341.02 L160.96,340.82 L160.36,340.61 L159.76,340.40 L159.17,340.17 L158.58,339.94 L158.00,339.70 L157.42,339.45 L156.85,339.19 L156.29,338.93 L155.73,338.66 L155.18,338.37 L154.64,338.08 L154.10,337.78 L153.57,337.47 L153.05,337.16 L152.54,336.83 L152.04,336.49 L151.55,336.15 L151.06,335.80 L150.59,335.43 L150.13,335.06 L149.67,334.68 L149.23,334.29 L148.80,333.89 L148.38,333.48 L147.96,333.06 L147.57,332.63 L147.18,332.20 L146.80,331.75 L146.44,331.30 L146.08,330.84 L145.74,330.37 L145.41,329.89 L145.10,329.40 L144.79,328.91 L144.50,328.41 L144.22,327.90 L143.96,327.38 L143.70,326.85 L143.46,326.32 L143.23,325.78 L143.02,325.24 L142.81,324.68 L142.62,324.13 L142.44,323.56 L142.28,322.99 L142.12,322.41 L141.98,321.83 L141.85,321.24 L141.73,320.65 L141.62,320.05 L141.53,319.45 L141.45,318.85 L141.37,318.24 L141.31,317.62 L141.26,317.01 L141.22,316.39 L141.20,315.76 L141.18,315.14 L141.17,314.51 L141.17,313.88 L141.18,313.25 L141.20,312.61 L141.23,311.98 L141.27,311.34 L141.31,310.70 L141.36,310.07 L141.42,309.43 L141.49,308.79 L141.57,308.15 L141.65,307.51 L141.73,306.87 L141.83,306.24 L141.93,305.60 L142.03,304.97 M131.97,254.38 L131.63,253.83 L131.29,253.28 L130.96,252.73 L130.64,252.17 L130.32,251.61 L130.01,251.05 L129.70,250.49 L129.40,249.92 L129.11,249.35 L128.82,248.78 L128.54,248.20 L128.27,247.63 L128.01,247.05 L127.76,246.47 L127.52,245.89 L127.29,245.30 L127.06,244.72 L126.85,244.13 L126.65,243.55 L126.46,242.96 L126.28,242.37 L126.12,241.78 L125.96,241.18 L125.82,240.59 L125.69,240.00 L125.57,239.41 L125.47,238.81 L125.37,238.22 L125.30,237.63 L125.23,237.04 L125.18,236.45 L125.14,235.86 L125.12,235.27 L125.11,234.68 L125.12,234.10 L125.14,233.51 L125.17,232.93 L125.22,232.35 L125.28,231.77 L125.36,231.20 L125.45,230.62 L125.56,230.05 L125.68,229.49 L125.81,228.92 L125.96,228.36 L126.12,227.80 L126.30,227.25 L126.49,226.70 L126.70,226.15 L126.92,225.61 L127.15,225.07 L127.40,224.53 L127.66,224.00 L127.93,223.47 L128.22,222.95 L128.51,222.44 L128.83,221.92 L129.15,221.42 L129.48,220.91 L129.83,220.42 L130.19,219.92 L130.56,219.44 L130.94,218.96 L131.33,218.48 L131.73,218.01 L132.14,217.54 L132.56,217.08 L132.99,216.62 L133.43,216.17 L133.88,215.73 L134.33,215.29 L134.79,214.86 L135.26,214.43 L135.74,214.00 L136.22,213.58 L136.71,213.17 L137.20,212.76 L137.70,212.36 L138.21,211.96 L138.72,211.57 L139.23,211.18 L139.74,210.79 L140.26,210.41 L140.79,210.03 M169.44,167.15 L169.59,166.52 L169.74,165.89 L169.90,165.27 L170.06,164.65 L170.23,164.03 L170.41,163.41 L170.59,162.79 L170.78,162.18 L170.98,161.57 L171.18,160.96 L171.39,160.36 L171.60,159.76 L171.83,159.17 L172.06,158.58 L172.30,158.00 L172.55,157.42 L172.81,156.85 L173.07,156.29 L173.34,155.73 L173.63,155.18 L173.92,154.64 L174.22,154.10 L174.53,153.57 L174.84,153.05 L175.17,152.54 L175.51,152.04 L175.85,151.55 L176.20,151.06 L176.57,150.59 L176.94,150.13 L177.32,149.67 L177.71,149.23 L178.11,148.80 L178.52,148.38 L178.94,147.96 L179.37,147.57 L179.80,147.18 L180.25,146.80 L180.70,146.44 L181.16,146.08 L181.63,145.74 L182.11,145.41 L182.60,145.10 L183.09,144.79 L183.59,144.50 L184.10,144.22 L184.62,143.96 L185.15,143.70 L185.68,143.46 L186.22,143.23 L186.76,143.02 L187.32,142.81 L187.87,142.62 L188.44,142.44 L189.01,142.28 L189.59,142.12 L190.17,141.98 L190.76,141.85 L191.35,141.73 L191.95,141.62 L192.55,141.53 L193.15,141.45 L193.76,141.37 L194.38,141.31 L194.99,141.26 L195.61,141.22 L196.24,141.20 L196.86,141.18 L197.49,141.17 L198.12,141.17 L198.75,141.18 L199.39,141.20 L200.02,141.23 L200.66,141.27 L201.30,141.31 L201.93,141.36 L202.57,141.42 L203.21,141.49 L203.85,141.57 L204.49,141.65 L205.13,141.73 L205.76,141.83 L206.40,141.93 L207.03,142.03 M257.62,131.97 L258.17,131.63 L258.72,131.29 L259.27,130.96 L259.83,130.64 L260.39,130.32 L260.95,130.01 L261.51,129.70 L262.08,129.40 L262.65,129.11 L263.22,128.82 L263.80,128.54 L264.37,128.27 L264.95,128.01 L265.53,127.76 L266.11,127.52 L266.70,127.29 L267.28,127.06 L267.87,126.85 L268.45,126.65 L269.04,126.46 L269.63,126.28 L270.22,126.12 L270.82,125.96 L271.41,125.82 L272.00,125.69 L272.59,125.57 L273.19,125.47 L273.78,125.37 L274.37,125.30 L274.96,125.23 L275.55,125.18 L276.14,125.14 L276.73,125.12 L277.32,125.11 L277.90,125.12 L278.49,125.14 L279.07,125.17 L279.65,125.22 L280.23,125.28 L280.80,125.36 L281.38,125.45 L281.95,125.56 L282.51,125.68 L283.08,125.81 L283.64,125.96 L284.20,126.12 L284.75,126.30 L285.30,126.49 L285.85,126.70 L286.39,126.92 L286.93,127.15 L287.47,127.40 L288.00,127.66 L288.53,127.93 L289.05,128.22 L289.56,128.51 L290.08,128.83 L290.58,129.15 L291.09,129.48 L291.58,129.83 L292.08,130.19 L292.56,130.56 L293.04,130.94 L293.52,131.33 L293.99,131.73 L294.46,132.14 L294.92,132.56 L295.38,132.99 L295.83,133.43 L296.27,133.88 L296.71,134.33 L297.14,134.79 L297.57,135.26 L298.00,135.74 L298.42,136.22 L298.83,136.71 L299.24,137.20 L299.64,137.70 L300.04,138.21 L300.43,138.72 L300.82,139.23 L301.21,139.74 L301.59,140.26 L301.97,140.79 M344.85,169.44 L345.48,169.59 L346.11,169.74 L346.73,169.90 L347.35,170.06 L347.97,170.23 L348.59,170.41 L349.21,170.59 L349.82,170.78 L350.43,170.98 L351.04,171.18 L351.64,171.39 L352.24,171.60 L352.83,171.83 L353.42,172.06 L354.00,172.30 L354.58,172.55 L355.15,172.81 L355.71,173.07 L356.27,173.34 L356.82,173.63 L357.36,173.92 L357.90,174.22 L358.43,174.53 L358.95,174.84 L359.46,175.17 L359.96,175.51 L360.45,175.85 L360.94,176.20 L361.41,176.57 L361.87,176.94 L362.33,177.32 L362.77,177.71 L363.20,178.11 L363.62,178.52 L364.04,178.94 L364.43,179.37 L364.82,179.80 L365.20,180.25 L365.56,180.70 L365.92,181.16 L366.26,181.63 L366.59,182.11 L366.90,182.60 L367.21,183.09 L367.50,183.59 L367.78,184.10 L368.04,184.62 L368.30,185.15 L368.54,185.68 L368.77,186.22 L368.98,186.76 L369.19,187.32 L369.38,187.87 L369.56,188.44 L369.72,189.01 L369.88,189.59 L370.02,190.17 L370.15,190.76 L370.27,191.35 L370.38,191.95 L370.47,192.55 L370.55,193.15 L370.63,193.76 L370.69,194.38 L370.74,194.99 L370.78,195.61 L370.80,196.24 L370.82,196.86 L370.83,197.49 L370.83,198.12 L370.82,198.75 L370.80,199.39 L370.77,200.02 L370.73,200.66 L370.69,201.30 L370.64,201.93 L370.58,202.57 L370.51,203.21 L370.43,203.85 L370.35,204.49 L370.27,205.13 L370.17,205.76 L370.07,206.40 L369.97,207.03" fill="none" stroke="#44aaff" stroke-width="3.5" opacity="0.88"/>

  <!-- Treble clef -->
  <text x="256" y="308"
        text-anchor="middle"
        font-size="115"
        fill="#44aaff"
        font-family="FreeSerif, serif"
        filter="url(#glow)">𝄞</text>
</svg>