<svg xmlns="http://www.w3.org/2000/svg" xmlns:xlink="http://www.w3.org/1999/xlink" viewBox="0 0 512 512">
  <defs>
    <filter id="glow" x="-40%" y="-40%" width="180%" height="180%">
      <feGaussianBlur stdDeviation="4" result="blur"/>
      <feMerge>
        <feMergeNode in="blur"/>
        <feMergeNode in="SourceGraphic"/>
      </feMerge>
    </filter>
    
    <g id="spike">
      <line x1="0" y1="0" x2="0" y2="-75" stroke="#44aaff" stroke-width="9" stroke-linecap="round"/>
      <ellipse cx="-23" cy="-75" rx="30" ry="20" transform="rotate(-25,-23,-75)" fill="#44aaff"/>
    </g>
  </defs>

  <!-- Background -->
  <rect width="512" height="512" rx="88" fill="#0d0d14"/>

  <!-- Virus body fill -->
  <path d="M384.00,256.00 L384.20,256.56 L384.39,257.12 L384.58,257.68 L384.77,258.25 L384.95,258.81 L385.13,259.38 L385.31,259.95 L385.49,260.52 L385.66,261.09 L385.83,261.67 L386.00,262.24 L386.17,262.82 L386.33,263.40 L386.49,263.98 L386.65,264.56 L386.80,265.15 L386.95,265.73 L387.10,266.32 L387.24,266.91 L387.38,267.49 L387.52,268.08 L387.65,268.68 L387.78,269.27 L387.91,269.86 L388.03,270.46 L388.15,271.06 L388.27,271.66 L388.38,272.25 L388.49,272.85 L388.60,273.46 L388.70,274.06 L388.80,274.66 L388.89,275.27 L388.98,275.87 L389.07,276.48 L389.15,277.09 L389.23,277.70 L389.30,278.31 L389.37,278.92 L389.44,279.53 L389.50,280.14 L389.56,280.75 L389.62,281.37 L389.67,281.98 L389.71,282.60 L389.76,283.21 L389.79,283.83 L389.83,284.45 L389.86,285.06 L389.88,285.68 L389.90,286.30 L389.92,286.92 L389.93,287.54 L389.94,288.16 L389.94,288.77 L389.94,289.39 L389.93,290.01 L389.92,290.63 L389.90,291.25 L389.88,291.87 L389.86,292.49 L389.83,293.11 L389.80,293.73 L389.76,294.35 L389.71,294.97 L389.67,295.59 L389.61,296.21 L389.55,296.83 L389.49,297.45 L389.43,298.07 L389.35,298.69 L389.28,299.30 L389.19,299.92 L389.11,300.54 L389.02,301.15 L388.92,301.77 L388.82,302.38 L388.71,303.00 L388.60,303.61 L388.49,304.22 L388.37,304.83 L388.24,305.44 L388.11,306.05 L387.98,306.66 L387.84,307.27 L387.69,307.87 L387.54,308.48 L387.38,309.08 L387.22,309.69 L387.06,310.29 L386.89,310.89 L386.72,311.49 L386.54,312.08 L386.35,312.68 L386.16,313.27 L385.97,313.86 L385.77,314.46 L385.56,315.04 L385.35,315.63 L385.14,316.22 L384.92,316.80 L384.70,317.38 L384.47,317.96 L384.23,318.54 L383.99,319.12 L383.75,319.69 L383.50,320.27 L383.25,320.84 L382.99,321.40 L382.73,321.97 L382.46,322.53 L382.19,323.10 L381.91,323.65 L381.63,324.21 L381.34,324.77 L381.05,325.32 L380.76,325.87 L380.46,326.41 L380.15,326.96 L379.84,327.50 L379.53,328.04 L379.21,328.58 L378.89,329.11 L378.56,329.64 L378.22,330.17 L377.89,330.69 L377.55,331.22 L377.20,331.73 L376.85,332.25 L376.50,332.76 L376.14,333.28 L375.78,333.78 L375.41,334.29 L375.04,334.79 L374.66,335.29 L374.28,335.78 L373.90,336.27 L373.51,336.76 L373.12,337.25 L372.72,337.73 L372.32,338.21 L371.92,338.68 L371.51,339.15 L371.10,339.62 L370.68,340.09 L370.26,340.55 L369.84,341.01 L369.41,341.46 L368.98,341.91 L368.54,342.36 L368.11,342.80 L367.66,343.24 L367.22,343.68 L366.77,344.11 L366.32,344.54 L365.86,344.96 L365.40,345.39 L364.94,345.80 L364.47,346.22 L364.00,346.63 L363.53,347.03 L363.06,347.44 L362.58,347.83 L362.10,348.23 L361.61,348.62 L361.12,349.01 L360.63,349.39 L360.14,349.77 L359.64,350.14 L359.15,350.52 L358.64,350.88 L358.14,351.25 L357.63,351.61 L357.12,351.96 L356.61,352.31 L356.09,352.66 L355.58,353.00 L355.06,353.34 L354.53,353.68 L354.01,354.01 L353.48,354.34 L352.95,354.66 L352.42,354.98 L351.89,355.30 L351.35,355.61 L350.82,355.91 L350.28,356.22 L349.73,356.52 L349.19,356.81 L348.64,357.10 L348.10,357.39 L347.55,357.67 L347.00,357.95 L346.45,358.23 L345.89,358.50 L345.34,358.77 L344.78,359.03 L344.22,359.29 L343.66,359.55 L343.10,359.80 L342.53,360.05 L341.97,360.29 L341.41,360.53 L340.84,360.77 L340.27,361.00 L339.70,361.23 L339.13,361.45 L338.56,361.67 L337.99,361.89 L337.42,362.10 L336.84,362.31 L336.27,362.52 L335.69,362.72 L335.12,362.92 L334.54,363.11 L333.96,363.30 L333.38,363.49 L332.80,363.68 L332.22,363.86 L331.64,364.03 L331.06,364.20 L330.48,364.37 L329.90,364.54 L329.32,364.70 L328.74,364.86 L328.16,365.02 L327.57,365.17 L326.99,365.32 L326.41,365.46 L325.83,365.61 L325.24,365.74 L324.66,365.88 L324.08,366.01 L323.49,366.14 L322.91,366.27 L322.33,366.39 L321.75,366.51 L321.16,366.63 L320.58,366.74 L320.00,366.85 L319.42,366.96 L318.84,367.06 L318.26,367.17 L317.68,367.26 L317.09,367.36 L316.51,367.45 L315.94,367.54 L315.36,367.63 L314.78,367.72 L314.20,367.80 L313.62,367.88 L313.05,367.96 L312.47,368.03 L311.89,368.11 L311.32,368.18 L310.74,368.24 L310.17,368.31 L309.60,368.37 L309.03,368.43 L308.45,368.49 L307.88,368.54 L307.31,368.60 L306.75,368.65 L306.18,368.70 L305.61,368.75 L305.04,368.79 L304.48,368.84 L303.91,368.88 L303.35,368.92 L302.79,368.95 L302.22,368.99 L301.66,369.02 L301.10,369.05 L300.55,369.09 L299.99,369.11 L299.43,369.14 L298.87,369.17 L298.32,369.19 L297.77,369.21 L297.21,369.23 L296.66,369.25 L296.11,369.27 L295.56,369.29 L295.01,369.30 L294.47,369.32 L293.92,369.33 L293.37,369.34 L292.83,369.35 L292.29,369.36 L291.74,369.37 L291.20,369.37 L290.66,369.38 L290.12,369.38 L289.59,369.39 L289.05,369.39 L288.52,369.39 L287.98,369.39 L287.45,369.39 L286.91,369.39 L286.38,369.39 L285.85,369.39 L285.32,369.39 L284.80,369.39 L284.27,369.38 L283.74,369.38 L283.22,369.37 L282.69,369.37 L282.17,369.36 L281.65,369.35 L281.13,369.35 L280.61,369.34 L280.09,369.33 L279.57,369.32 L279.05,369.32 L278.54,369.31 L278.02,369.30 L277.51,369.29 L277.00,369.28 L276.48,369.27 L275.97,369.26 L275.46,369.25 L274.95,369.24 L274.44,369.23 L273.93,369.22 L273.43,369.21 L272.92,369.20 L272.41,369.19 L271.91,369.18 L271.40,369.17 L270.90,369.17 L270.40,369.16 L269.89,369.15 L269.39,369.14 L268.89,369.13 L268.39,369.12 L267.89,369.11 L267.39,369.10 L266.89,369.09 L266.39,369.09 L265.89,369.08 L265.40,369.07 L264.90,369.06 L264.40,369.06 L263.91,369.05 L263.41,369.05 L262.91,369.04 L262.42,369.03 L261.92,369.03 L261.43,369.02 L260.93,369.02 L260.44,369.02 L259.95,369.01 L259.45,369.01 L258.96,369.01 L258.47,369.01 L257.97,369.00 L257.48,369.00 L256.99,369.00 L256.49,369.00 L256.00,369.00 L255.51,369.00 L255.01,369.00 L254.52,369.00 L254.03,369.00 L253.53,369.01 L253.04,369.01 L252.55,369.01 L252.05,369.01 L251.56,369.02 L251.07,369.02 L250.57,369.02 L250.08,369.03 L249.58,369.03 L249.09,369.04 L248.59,369.05 L248.09,369.05 L247.60,369.06 L247.10,369.06 L246.60,369.07 L246.11,369.08 L245.61,369.09 L245.11,369.09 L244.61,369.10 L244.11,369.11 L243.61,369.12 L243.11,369.13 L242.61,369.14 L242.11,369.15 L241.60,369.16 L241.10,369.17 L240.60,369.17 L240.09,369.18 L239.59,369.19 L239.08,369.20 L238.57,369.21 L238.07,369.22 L237.56,369.23 L237.05,369.24 L236.54,369.25 L236.03,369.26 L235.52,369.27 L235.00,369.28 L234.49,369.29 L233.98,369.30 L233.46,369.31 L232.95,369.32 L232.43,369.32 L231.91,369.33 L231.39,369.34 L230.87,369.35 L230.35,369.35 L229.83,369.36 L229.31,369.37 L228.78,369.37 L228.26,369.38 L227.73,369.38 L227.20,369.39 L226.68,369.39 L226.15,369.39 L225.62,369.39 L225.09,369.39 L224.55,369.39 L224.02,369.39 L223.48,369.39 L222.95,369.39 L222.41,369.39 L221.88,369.38 L221.34,369.38 L220.80,369.37 L220.26,369.37 L219.71,369.36 L219.17,369.35 L218.63,369.34 L218.08,369.33 L217.53,369.32 L216.99,369.30 L216.44,369.29 L215.89,369.27 L215.34,369.25 L214.79,369.23 L214.23,369.21 L213.68,369.19 L213.13,369.17 L212.57,369.14 L212.01,369.11 L211.45,369.09 L210.90,369.05 L210.34,369.02 L209.78,368.99 L209.21,368.95 L208.65,368.92 L208.09,368.88 L207.52,368.84 L206.96,368.79 L206.39,368.75 L205.82,368.70 L205.25,368.65 L204.69,368.60 L204.12,368.54 L203.55,368.49 L202.97,368.43 L202.40,368.37 L201.83,368.31 L201.26,368.24 L200.68,368.18 L200.11,368.11 L199.53,368.03 L198.95,367.96 L198.38,367.88 L197.80,367.80 L197.22,367.72 L196.64,367.63 L196.06,367.54 L195.49,367.45 L194.91,367.36 L194.32,367.26 L193.74,367.17 L193.16,367.06 L192.58,366.96 L192.00,366.85 L191.42,366.74 L190.84,366.63 L190.25,366.51 L189.67,366.39 L189.09,366.27 L188.51,366.14 L187.92,366.01 L187.34,365.88 L186.76,365.74 L186.17,365.61 L185.59,365.46 L185.01,365.32 L184.43,365.17 L183.84,365.02 L183.26,364.86 L182.68,364.70 L182.10,364.54 L181.52,364.37 L180.94,364.20 L180.36,364.03 L179.78,363.86 L179.20,363.68 L178.62,363.49 L178.04,363.30 L177.46,363.11 L176.88,362.92 L176.31,362.72 L175.73,362.52 L175.16,362.31 L174.58,362.10 L174.01,361.89 L173.44,361.67 L172.87,361.45 L172.30,361.23 L171.73,361.00 L171.16,360.77 L170.59,360.53 L170.03,360.29 L169.47,360.05 L168.90,359.80 L168.34,359.55 L167.78,359.29 L167.22,359.03 L166.66,358.77 L166.11,358.50 L165.55,358.23 L165.00,357.95 L164.45,357.67 L163.90,357.39 L163.36,357.10 L162.81,356.81 L162.27,356.52 L161.72,356.22 L161.18,355.91 L160.65,355.61 L160.11,355.30 L159.58,354.98 L159.05,354.66 L158.52,354.34 L157.99,354.01 L157.47,353.68 L156.94,353.34 L156.42,353.00 L155.91,352.66 L155.39,352.31 L154.88,351.96 L154.37,351.61 L153.86,351.25 L153.36,350.88 L152.85,350.52 L152.36,350.14 L151.86,349.77 L151.37,349.39 L150.88,349.01 L150.39,348.62 L149.90,348.23 L149.42,347.83 L148.94,347.44 L148.47,347.03 L148.00,346.63 L147.53,346.22 L147.06,345.80 L146.60,345.39 L146.14,344.96 L145.68,344.54 L145.23,344.11 L144.78,343.68 L144.34,343.24 L143.89,342.80 L143.46,342.36 L143.02,341.91 L142.59,341.46 L142.16,341.01 L141.74,340.55 L141.32,340.09 L140.90,339.62 L140.49,339.15 L140.08,338.68 L139.68,338.21 L139.28,337.73 L138.88,337.25 L138.49,336.76 L138.10,336.27 L137.72,335.78 L137.34,335.29 L136.96,334.79 L136.59,334.29 L136.22,333.78 L135.86,333.28 L135.50,332.76 L135.15,332.25 L134.80,331.73 L134.45,331.22 L134.11,330.69 L133.78,330.17 L133.44,329.64 L133.11,329.11 L132.79,328.58 L132.47,328.04 L132.16,327.50 L131.85,326.96 L131.54,326.41 L131.24,325.87 L130.95,325.32 L130.66,324.77 L130.37,324.21 L130.09,323.65 L129.81,323.10 L129.54,322.53 L129.27,321.97 L129.01,321.40 L128.75,320.84 L128.50,320.27 L128.25,319.69 L128.01,319.12 L127.77,318.54 L127.53,317.96 L127.30,317.38 L127.08,316.80 L126.86,316.22 L126.65,315.63 L126.44,315.04 L126.23,314.46 L126.03,313.86 L125.84,313.27 L125.65,312.68 L125.46,312.08 L125.28,311.49 L125.11,310.89 L124.94,310.29 L124.78,309.69 L124.62,309.08 L124.46,308.48 L124.31,307.87 L124.16,307.27 L124.02,306.66 L123.89,306.05 L123.76,305.44 L123.63,304.83 L123.51,304.22 L123.40,303.61 L123.29,303.00 L123.18,302.38 L123.08,301.77 L122.98,301.15 L122.89,300.54 L122.81,299.92 L122.72,299.30 L122.65,298.69 L122.57,298.07 L122.51,297.45 L122.45,296.83 L122.39,296.21 L122.33,295.59 L122.29,294.97 L122.24,294.35 L122.20,293.73 L122.17,293.11 L122.14,292.49 L122.12,291.87 L122.10,291.25 L122.08,290.63 L122.07,290.01 L122.06,289.39 L122.06,288.77 L122.06,288.16 L122.07,287.54 L122.08,286.92 L122.10,286.30 L122.12,285.68 L122.14,285.06 L122.17,284.45 L122.21,283.83 L122.24,283.21 L122.29,282.60 L122.33,281.98 L122.38,281.37 L122.44,280.75 L122.50,280.14 L122.56,279.53 L122.63,278.92 L122.70,278.31 L122.77,277.70 L122.85,277.09 L122.93,276.48 L123.02,275.87 L123.11,275.27 L123.20,274.66 L123.30,274.06 L123.40,273.46 L123.51,272.85 L123.62,272.25 L123.73,271.66 L123.85,271.06 L123.97,270.46 L124.09,269.86 L124.22,269.27 L124.35,268.68 L124.48,268.08 L124.62,267.49 L124.76,266.91 L124.90,266.32 L125.05,265.73 L125.20,265.15 L125.35,264.56 L125.51,263.98 L125.67,263.40 L125.83,262.82 L126.00,262.24 L126.17,261.67 L126.34,261.09 L126.51,260.52 L126.69,259.95 L126.87,259.38 L127.05,258.81 L127.23,258.25 L127.42,257.68 L127.61,257.12 L127.80,256.56 L128.00,256.00 L128.20,255.44 L128.40,254.89 L128.60,254.33 L128.80,253.78 L129.01,253.23 L129.22,252.68 L129.43,252.13 L129.64,251.59 L129.86,251.04 L130.08,250.50 L130.30,249.96 L130.52,249.42 L130.74,248.89 L130.97,248.35 L131.19,247.82 L131.42,247.29 L131.65,246.76 L131.89,246.23 L132.12,245.71 L132.35,245.18 L132.59,244.66 L132.83,244.14 L133.07,243.62 L133.31,243.10 L133.55,242.59 L133.80,242.08 L134.04,241.57 L134.29,241.06 L134.54,240.55 L134.79,240.04 L135.04,239.54 L135.29,239.03 L135.54,238.53 L135.79,238.03 L136.05,237.54 L136.30,237.04 L136.56,236.55 L136.81,236.06 L137.07,235.56 L137.33,235.08 L137.59,234.59 L137.85,234.10 L138.11,233.62 L138.37,233.14 L138.63,232.65 L138.90,232.17 L139.16,231.70 L139.42,231.22 L139.68,230.75 L139.95,230.27 L140.21,229.80 L140.48,229.33 L140.74,228.86 L141.01,228.39 L141.27,227.93 L141.54,227.46 L141.81,227.00 L142.07,226.54 L142.34,226.08 L142.61,225.62 L142.87,225.16 L143.14,224.70 L143.41,224.25 L143.67,223.79 L143.94,223.34 L144.21,222.89 L144.47,222.43 L144.74,221.98 L145.01,221.54 L145.27,221.09 L145.54,220.64 L145.81,220.20 L146.07,219.75 L146.34,219.31 L146.60,218.86 L146.87,218.42 L147.13,217.98 L147.40,217.54 L147.66,217.10 L147.93,216.66 L148.19,216.23 L148.45,215.79 L148.72,215.35 L148.98,214.92 L149.24,214.48 L149.50,214.05 L149.76,213.62 L150.03,213.18 L150.29,212.75 L150.55,212.32 L150.81,211.89 L151.07,211.46 L151.32,211.03 L151.58,210.60 L151.84,210.17 L152.10,209.74 L152.36,209.31 L152.61,208.88 L152.87,208.46 L153.12,208.03 L153.38,207.60 L153.63,207.17 L153.89,206.75 L154.14,206.32 L154.39,205.89 L154.65,205.47 L154.90,205.04 L155.15,204.62 L155.40,204.19 L155.65,203.76 L155.90,203.34 L156.15,202.91 L156.40,202.49 L156.65,202.06 L156.90,201.63 L157.15,201.21 L157.40,200.78 L157.65,200.35 L157.89,199.93 L158.14,199.50 L158.39,199.07 L158.63,198.65 L158.88,198.22 L159.12,197.79 L159.37,197.36 L159.61,196.93 L159.86,196.50 L160.10,196.08 L160.34,195.65 L160.59,195.22 L160.83,194.79 L161.08,194.36 L161.32,193.92 L161.56,193.49 L161.80,193.06 L162.05,192.63 L162.29,192.19 L162.53,191.76 L162.77,191.33 L163.02,190.89 L163.26,190.46 L163.50,190.02 L163.74,189.59 L163.99,189.15 L164.23,188.71 L164.47,188.27 L164.72,187.83 L164.96,187.40 L165.20,186.96 L165.45,186.51 L165.69,186.07 L165.93,185.63 L166.18,185.19 L166.42,184.75 L166.67,184.30 L166.91,183.86 L167.16,183.41 L167.40,182.97 L167.65,182.52 L167.90,182.07 L168.15,181.63 L168.39,181.18 L168.64,180.73 L168.89,180.28 L169.14,179.83 L169.39,179.38 L169.64,178.92 L169.90,178.47 L170.15,178.02 L170.40,177.56 L170.66,177.11 L170.91,176.65 L171.17,176.20 L171.43,175.74 L171.68,175.28 L171.94,174.83 L172.20,174.37 L172.46,173.91 L172.73,173.45 L172.99,172.99 L173.25,172.53 L173.52,172.07 L173.79,171.61 L174.06,171.14 L174.33,170.68 L174.60,170.22 L174.87,169.75 L175.14,169.29 L175.42,168.83 L175.69,168.36 L175.97,167.90 L176.25,167.43 L176.53,166.96 L176.81,166.50 L177.10,166.03 L177.38,165.56 L177.67,165.10 L177.96,164.63 L178.25,164.16 L178.54,163.69 L178.84,163.22 L179.13,162.75 L179.43,162.29 L179.73,161.82 L180.03,161.35 L180.34,160.88 L180.64,160.41 L180.95,159.94 L181.26,159.47 L181.57,159.00 L181.89,158.54 L182.20,158.07 L182.52,157.60 L182.84,157.13 L183.16,156.66 L183.49,156.20 L183.81,155.73 L184.14,155.26 L184.48,154.79 L184.81,154.33 L185.15,153.86 L185.48,153.40 L185.82,152.93 L186.17,152.47 L186.51,152.01 L186.86,151.54 L187.21,151.08 L187.56,150.62 L187.92,150.16 L188.28,149.70 L188.64,149.24 L189.00,148.78 L189.37,148.32 L189.74,147.87 L190.11,147.41 L190.48,146.96 L190.86,146.50 L191.23,146.05 L191.62,145.60 L192.00,145.15 L192.39,144.70 L192.78,144.25 L193.17,143.81 L193.56,143.36 L193.96,142.92 L194.36,142.48 L194.77,142.04 L195.17,141.60 L195.58,141.16 L195.99,140.73 L196.41,140.29 L196.82,139.86 L197.24,139.43 L197.67,139.00 L198.09,138.58 L198.52,138.15 L198.95,137.73 L199.39,137.31 L199.82,136.89 L200.26,136.47 L200.71,136.06 L201.15,135.65 L201.60,135.24 L202.05,134.83 L202.51,134.43 L202.96,134.02 L203.42,133.62 L203.89,133.23 L204.35,132.83 L204.82,132.44 L205.29,132.05 L205.76,131.66 L206.24,131.28 L206.72,130.90 L207.20,130.52 L207.69,130.14 L208.18,129.77 L208.67,129.40 L209.16,129.04 L209.66,128.67 L210.16,128.31 L210.66,127.95 L211.16,127.60 L211.67,127.25 L212.18,126.90 L212.69,126.56 L213.20,126.22 L213.72,125.88 L214.24,125.55 L214.76,125.22 L215.29,124.89 L215.82,124.57 L216.35,124.25 L216.88,123.93 L217.41,123.62 L217.95,123.31 L218.49,123.01 L219.03,122.71 L219.58,122.41 L220.13,122.12 L220.68,121.83 L221.23,121.54 L221.78,121.26 L222.34,120.99 L222.90,120.71 L223.46,120.45 L224.02,120.18 L224.58,119.92 L225.15,119.67 L225.72,119.42 L226.29,119.17 L226.86,118.93 L227.44,118.69 L228.02,118.46 L228.60,118.23 L229.18,118.00 L229.76,117.78 L230.34,117.57 L230.93,117.36 L231.52,117.15 L232.11,116.95 L232.70,116.75 L233.29,116.56 L233.89,116.38 L234.48,116.19 L235.08,116.02 L235.68,115.84 L236.28,115.68 L236.88,115.51 L237.48,115.36 L238.09,115.20 L238.69,115.05 L239.30,114.91 L239.91,114.77 L240.52,114.64 L241.13,114.51 L241.74,114.39 L242.35,114.27 L242.97,114.16 L243.58,114.05 L244.20,113.95 L244.81,113.85 L245.43,113.76 L246.05,113.68 L246.67,113.59 L247.29,113.52 L247.91,113.45 L248.53,113.38 L249.15,113.32 L249.77,113.26 L250.39,113.21 L251.01,113.17 L251.63,113.13 L252.26,113.10 L252.88,113.07 L253.50,113.04 L254.13,113.02 L254.75,113.01 L255.38,113.00 L256.00,113.00 L256.62,113.00 L257.25,113.01 L257.87,113.02 L258.50,113.04 L259.12,113.07 L259.74,113.10 L260.37,113.13 L260.99,113.17 L261.61,113.21 L262.23,113.26 L262.85,113.32 L263.47,113.38 L264.09,113.45 L264.71,113.52 L265.33,113.59 L265.95,113.68 L266.57,113.76 L267.19,113.85 L267.80,113.95 L268.42,114.05 L269.03,114.16 L269.65,114.27 L270.26,114.39 L270.87,114.51 L271.48,114.64 L272.09,114.77 L272.70,114.91 L273.31,115.05 L273.91,115.20 L274.52,115.36 L275.12,115.51 L275.72,115.68 L276.32,115.84 L276.92,116.02 L277.52,116.19 L278.11,116.38 L278.71,116.56 L279.30,116.75 L279.89,116.95 L280.48,117.15 L281.07,117.36 L281.66,117.57 L282.24,117.78 L282.82,118.00 L283.40,118.23 L283.98,118.46 L284.56,118.69 L285.14,118.93 L285.71,119.17 L286.28,119.42 L286.85,119.67 L287.42,119.92 L287.98,120.18 L288.54,120.45 L289.10,120.71 L289.66,120.99 L290.22,121.26 L290.77,121.54 L291.32,121.83 L291.87,122.12 L292.42,122.41 L292.97,122.71 L293.51,123.01 L294.05,123.31 L294.59,123.62 L295.12,123.93 L295.65,124.25 L296.18,124.57 L296.71,124.89 L297.24,125.22 L297.76,125.55 L298.28,125.88 L298.80,126.22 L299.31,126.56 L299.82,126.90 L300.33,127.25 L300.84,127.60 L301.34,127.95 L301.84,128.31 L302.34,128.67 L302.84,129.04 L303.33,129.40 L303.82,129.77 L304.31,130.14 L304.80,130.52 L305.28,130.90 L305.76,131.28 L306.24,131.66 L306.71,132.05 L307.18,132.44 L307.65,132.83 L308.11,133.23 L308.58,133.62 L309.04,134.02 L309.49,134.43 L309.95,134.83 L310.40,135.24 L310.85,135.65 L311.29,136.06 L311.74,136.47 L312.18,136.89 L312.61,137.31 L313.05,137.73 L313.48,138.15 L313.91,138.58 L314.33,139.00 L314.76,139.43 L315.18,139.86 L315.59,140.29 L316.01,140.73 L316.42,141.16 L316.83,141.60 L317.23,142.04 L317.64,142.48 L318.04,142.92 L318.44,143.36 L318.83,143.81 L319.22,144.25 L319.61,144.70 L320.00,145.15 L320.38,145.60 L320.77,146.05 L321.14,146.50 L321.52,146.96 L321.89,147.41 L322.26,147.87 L322.63,148.32 L323.00,148.78 L323.36,149.24 L323.72,149.70 L324.08,150.16 L324.44,150.62 L324.79,151.08 L325.14,151.54 L325.49,152.01 L325.83,152.47 L326.18,152.93 L326.52,153.40 L326.85,153.86 L327.19,154.33 L327.52,154.79 L327.86,155.26 L328.19,155.73 L328.51,156.20 L328.84,156.66 L329.16,157.13 L329.48,157.60 L329.80,158.07 L330.11,158.54 L330.43,159.00 L330.74,159.47 L331.05,159.94 L331.36,160.41 L331.66,160.88 L331.97,161.35 L332.27,161.82 L332.57,162.29 L332.87,162.75 L333.16,163.22 L333.46,163.69 L333.75,164.16 L334.04,164.63 L334.33,165.10 L334.62,165.56 L334.90,166.03 L335.19,166.50 L335.47,166.96 L335.75,167.43 L336.03,167.90 L336.31,168.36 L336.58,168.83 L336.86,169.29 L337.13,169.75 L337.40,170.22 L337.67,170.68 L337.94,171.14 L338.21,171.61 L338.48,172.07 L338.75,172.53 L339.01,172.99 L339.27,173.45 L339.54,173.91 L339.80,174.37 L340.06,174.83 L340.32,175.28 L340.57,175.74 L340.83,176.20 L341.09,176.65 L341.34,177.11 L341.60,177.56 L341.85,178.02 L342.10,178.47 L342.36,178.92 L342.61,179.38 L342.86,179.83 L343.11,180.28 L343.36,180.73 L343.61,181.18 L343.85,181.63 L344.10,182.07 L344.35,182.52 L344.60,182.97 L344.84,183.41 L345.09,183.86 L345.33,184.30 L345.58,184.75 L345.82,185.19 L346.07,185.63 L346.31,186.07 L346.55,186.51 L346.80,186.96 L347.04,187.40 L347.28,187.83 L347.53,188.27 L347.77,188.71 L348.01,189.15 L348.26,189.59 L348.50,190.02 L348.74,190.46 L348.98,190.89 L349.23,191.33 L349.47,191.76 L349.71,192.19 L349.95,192.63 L350.20,193.06 L350.44,193.49 L350.68,193.92 L350.92,194.36 L351.17,194.79 L351.41,195.22 L351.66,195.65 L351.90,196.08 L352.14,196.50 L352.39,196.93 L352.63,197.36 L352.88,197.79 L353.12,198.22 L353.37,198.65 L353.61,199.07 L353.86,199.50 L354.11,199.93 L354.35,200.35 L354.60,200.78 L354.85,201.21 L355.10,201.63 L355.35,202.06 L355.60,202.49 L355.85,202.91 L356.10,203.34 L356.35,203.76 L356.60,204.19 L356.85,204.62 L357.10,205.04 L357.35,205.47 L357.61,205.89 L357.86,206.32 L358.11,206.75 L358.37,207.17 L358.62,207.60 L358.88,208.03 L359.13,208.46 L359.39,208.88 L359.64,209.31 L359.90,209.74 L360.16,210.17 L360.42,210.60 L360.68,211.03 L360.93,211.46 L361.19,211.89 L361.45,212.32 L361.71,212.75 L361.97,213.18 L362.24,213.62 L362.50,214.05 L362.76,214.48 L363.02,214.92 L363.28,215.35 L363.55,215.79 L363.81,216.23 L364.07,216.66 L364.34,217.10 L364.60,217.54 L364.87,217.98 L365.13,218.42 L365.40,218.86 L365.66,219.31 L365.93,219.75 L366.19,220.20 L366.46,220.64 L366.73,221.09 L366.99,221.54 L367.26,221.98 L367.53,222.43 L367.79,222.89 L368.06,223.34 L368.33,223.79 L368.59,224.25 L368.86,224.70 L369.13,225.16 L369.39,225.62 L369.66,226.08 L369.93,226.54 L370.19,227.00 L370.46,227.46 L370.73,227.93 L370.99,228.39 L371.26,228.86 L371.52,229.33 L371.79,229.80 L372.05,230.27 L372.32,230.75 L372.58,231.22 L372.84,231.70 L373.10,232.17 L373.37,232.65 L373.63,233.14 L373.89,233.62 L374.15,234.10 L374.41,234.59 L374.67,235.08 L374.93,235.56 L375.19,236.06 L375.44,236.55 L375.70,237.04 L375.95,237.54 L376.21,238.03 L376.46,238.53 L376.71,239.03 L376.96,239.54 L377.21,240.04 L377.46,240.55 L377.71,241.06 L377.96,241.57 L378.20,242.08 L378.45,242.59 L378.69,243.10 L378.93,243.62 L379.17,244.14 L379.41,244.66 L379.65,245.18 L379.88,245.71 L380.11,246.23 L380.35,246.76 L380.58,247.29 L380.81,247.82 L381.03,248.35 L381.26,248.89 L381.48,249.42 L381.70,249.96 L381.92,250.50 L382.14,251.04 L382.36,251.59 L382.57,252.13 L382.78,252.68 L382.99,253.23 L383.20,253.78 L383.40,254.33 L383.60,254.89 L383.80,255.44 L384.00,256.00 Z" fill="#04111c" stroke="none"/>

  <!-- Circular stave — 5 neon-orange rings drawn after fill so inner rings
       show against the dark virus body; outer rings show on the background -->
  <circle cx="256" cy="256" r="60" fill="none" stroke="#ff7722" stroke-width="3.5" opacity="0.70"/>
  <circle cx="256" cy="256" r="108" fill="none" stroke="#ff7722" stroke-width="3.5" opacity="0.70"/>
  <circle cx="256" cy="256" r="156" fill="none" stroke="#ff7722" stroke-width="3.5" opacity="0.70"/>
  <circle cx="256" cy="256" r="204" fill="none" stroke="#ff7722" stroke-width="3.5" opacity="0.70"/>
  <circle cx="256" cy="256" r="252" fill="none" stroke="#ff7722" stroke-width="3.5" opacity="0.70"/>

  <!-- Downward-pointing white triangle; V-sides bolder than top edge -->
  <polygon points="212.0,211.0 300.0,211.0 256,346" fill="none" stroke="white" stroke-width="3" stroke-linejoin="round"/>
  <line x1="212.0" y1="211.0" x2="256" y2="346" stroke="white" stroke-width="18" stroke-linecap="round"/>
  <line x1="300.0" y1="211.0" x2="256" y2="346" stroke="white" stroke-width="18" stroke-linecap="round"/>

  <!-- 4 quaver spikes radiating toward the four corners -->
  <g filter="url(#glow)">
    <use xlink:href="#spike" href="#spike" transform="translate(346.5,165.5) rotate(45)"/>
    <use xlink:href="#spike" href="#spike" transform="translate(346.5,346.5) rotate(135)"/>
    <use xlink:href="#spike" href="#spike" transform="translate(165.5,346.5) rotate(225)"/>
    <use xlink:href="#spike" href="#spike" transform="translate(165.5,165.5) rotate(315)"/>
  </g>

  <!-- Oscillating boundary — bold cyan with glow -->
  <path d="M384.00,256.00 L384.20,256.56 L384.39,257.12 L384.58,257.68 L384.77,258.25 L384.95,258.81 L385.13,259.38 L385.31,259.95 L385.49,260.52 L385.66,261.09 L385.83,261.67 L386.00,262.24 L386.17,262.82 L386.33,263.40 L386.49,263.98 L386.65,264.56 L386.80,265.15 L386.95,265.73 L387.10,266.32 L387.24,266.91 L387.38,267.49 L387.52,268.08 L387.65,268.68 L387.78,269.27 L387.91,269.86 L388.03,270.46 L388.15,271.06 L388.27,271.66 L388.38,272.25 L388.49,272.85 L388.60,273.46 L388.70,274.06 L388.80,274.66 L388.89,275.27 L388.98,275.87 L389.07,276.48 L389.15,277.09 L389.23,277.70 L389.30,278.31 L389.37,278.92 L389.44,279.53 L389.50,280.14 L389.56,280.75 L389.62,281.37 L389.67,281.98 L389.71,282.60 L389.76,283.21 L389.79,283.83 L389.83,284.45 L389.86,285.06 L389.88,285.68 L389.90,286.30 L389.92,286.92 L389.93,287.54 L389.94,288.16 L389.94,288.77 L389.94,289.39 L389.93,290.01 L389.92,290.63 L389.90,291.25 L389.88,291.87 L389.86,292.49 L389.83,293.11 L389.80,293.73 L389.76,294.35 L389.71,294.97 L389.67,295.59 L389.61,296.21 L389.55,296.83 L389.49,297.45 L389.43,298.07 L389.35,298.69 L389.28,299.30 L389.19,299.92 L389.11,300.54 L389.02,301.15 L388.92,301.77 L388.82,302.38 L388.71,303.00 L388.60,303.61 L388.49,304.22 L388.37,304.83 L388.24,305.44 L388.11,306.05 L387.98,306.66 L387.84,307.27 L387.69,307.87 L387.54,308.48 L387.38,309.08 L387.22,309.69 L387.06,310.29 L386.89,310.89 L386.72,311.49 L386.54,312.08 L386.35,312.68 L386.16,313.27 L385.97,313.86 L385.77,314.46 L385.56,315.04 L385.35,315.63 L385.14,316.22 L384.92,316.80 L384.70,317.38 L384.47,317.96 L384.23,318.54 L383.99,319.12 L383.75,319.69 L383.50,320.27 L383.25,320.84 L382.99,321.40 L382.73,321.97 L382.46,322.53 L382.19,323.10 L381.91,323.65 L381.63,324.21 L381.34,324.77 L381.05,325.32 L380.76,325.87 L380.46,326.41 L380.15,326.96 L379.84,327.50 L379.53,328.04 L379.21,328.58 L378.89,329.11 L378.56,329.64 L378.22,330.17 L377.89,330.69 L377.55,331.22 L377.20,331.73 L376.85,332.25 L376.50,332.76 L376.14,333.28 L375.78,333.78 L375.41,334.29 L375.04,334.79 L374.66,335.29 L374.28,335.78 L373.90,336.27 L373.51,336.76 L373.12,337.25 L372.72,337.73 L372.32,338.21 L371.92,338.68 L371.51,339.15 L371.10,339.62 L370.68,340.09 L370.26,340.55 L369.84,341.01 L369.41,341.46 L368.98,341.91 L368.54,342.36 L368.11,342.80 L367.66,343.24 L367.22,343.68 L366.77,344.11 L366.32,344.54 L365.86,344.96 L365.40,345.39 L364.94,345.80 L364.47,346.22 L364.00,346.63 L363.53,347.03 L363.06,347.44 L362.58,347.83 L362.10,348.23 L361.61,348.62 L361.12,349.01 L360.63,349.39 L360.14,349.77 L359.64,350.14 L359.15,350.52 L358.64,350.88 L358.14,351.25 L357.63,351.61 L357.12,351.96 L356.61,352.31 L356.09,352.66 L355.58,353.00 L355.06,353.34 L354.53,353.68 L354.01,354.01 L353.48,354.34 L352.95,354.66 L352.42,354.98 L351.89,355.30 L351.35,355.61 L350.82,355.91 L350.28,356.22 L349.73,356.52 L349.19,356.81 L348.64,357.10 L348.10,357.39 L347.55,357.67 L347.00,357.95 L346.45,358.23 L345.89,358.50 L345.34,358.77 L344.78,359.03 L344.22,359.29 L343.66,359.55 L343.10,359.80 L342.53,360.05 L341.97,360.29 L341.41,360.53 L340.84,360.77 L340.27,361.00 L339.70,361.23 L339.13,361.45 L338.56,361.67 L337.99,361.89 L337.42,362.10 L336.84,362.31 L336.27,362.52 L335.69,362.72 L335.12,362.92 L334.54,363.11 L333.96,363.30 L333.38,363.49 L332.80,363.68 L332.22,363.86 L331.64,364.03 L331.06,364.20 L330.48,364.37 L329.90,364.54 L329.32,364.70 L328.74,364.86 L328.16,365.02 L327.57,365.17 L326.99,365.32 L326.41,365.46 L325.83,365.61 L325.24,365.74 L324.66,365.88 L324.08,366.01 L323.49,366.14 L322.91,366.27 L322.33,366.39 L321.75,366.51 L321.16,366.63 L320.58,366.74 L320.00,366.85 L319.42,366.96 L318.84,367.06 L318.26,367.17 L317.68,367.26 L317.09,367.36 L316.51,367.45 L315.94,367.54 L315.36,367.63 L314.78,367.72 L314.20,367.80 L313.62,367.88 L313.05,367.96 L312.47,368.03 L311.89,368.11 L311.32,368.18 L310.74,368.24 L310.17,368.31 L309.60,368.37 L309.03,368.43 L308.45,368.49 L307.88,368.54 L307.31,368.60 L306.75,368.65 L306.18,368.70 L305.61,368.75 L305.04,368.79 L304.48,368.84 L303.91,368.88 L303.35,368.92 L302.79,368.95 L302.22,368.99 L301.66,369.02 L301.10,369.05 L300.55,369.09 L299.99,369.11 L299.43,369.14 L298.87,369.17 L298.32,369.19 L297.77,369.21 L297.21,369.23 L296.66,369.25 L296.11,369.27 L295.56,369.29 L295.01,369.30 L294.47,369.32 L293.92,369.33 L293.37,369.34 L292.83,369.35 L292.29,369.36 L291.74,369.37 L291.20,369.37 L290.66,369.38 L290.12,369.38 L289.59,369.39 L289.05,369.39 L288.52,369.39 L287.98,369.39 L287.45,369.39 L286.91,369.39 L286.38,369.39 L285.85,369.39 L285.32,369.39 L284.80,369.39 L284.27,369.38 L283.74,369.38 L283.22,369.37 L282.69,369.37 L282.17,369.36 L281.65,369.35 L281.13,369.35 L280.61,369.34 L280.09,369.33 L279.57,369.32 L279.05,369.32 L278.54,369.31 L278.02,369.30 L277.51,369.29 L277.00,369.28 L276.48,369.27 L275.97,369.26 L275.46,369.25 L274.95,369.24 L274.44,369.23 L273.93,369.22 L273.43,369.21 L272.92,369.20 L272.41,369.19 L271.91,369.18 L271.40,369.17 L270.90,369.17 L270.40,369.16 L269.89,369.15 L269.39,369.14 L268.89,369.13 L268.39,369.12 L267.89,369.11 L267.39,369.10 L266.89,369.09 L266.39,369.09 L265.89,369.08 L265.40,369.07 L264.90,369.06 L264.40,369.06 L263.91,369.05 L263.41,369.05 L262.91,369.04 L262.42,369.03 L261.92,369.03 L261.43,369.02 L260.93,369.02 L260.44,369.02 L259.95,369.01 L259.45,369.01 L258.96,369.01 L258.47,369.01 L257.97,369.00 L257.48,369.00 L256.99,369.00 L256.49,369.00 L256.00,369.00 L255.51,369.00 L255.01,369.00 L254.52,369.00 L254.03,369.00 L253.53,369.01 L253.04,369.01 L252.55,369.01 L252.05,369.01 L251.56,369.02 L251.07,369.02 L250.57,369.02 L250.08,369.03 L249.58,369.03 L249.09,369.04 L248.59,369.05 L248.09,369.05 L247.60,369.06 L247.10,369.06 L246.60,369.07 L246.11,369.08 L245.61,369.09 L245.11,369.09 L244.61,369.10 L244.11,369.11 L243.61,369.12 L243.11,369.13 L242.61,369.14 L242.11,369.15 L241.60,369.16 L241.10,369.17 L240.60,369.17 L240.09,369.18 L239.59,369.19 L239.08,369.20 L238.57,369.21 L238.07,369.22 L237.56,369.23 L237.05,369.24 L236.54,369.25 L236.03,369.26 L235.52,369.27 L235.00,369.28 L234.49,369.29 L233.98,369.30 L233.46,369.31 L232.95,369.32 L232.43,369.32 L231.91,369.33 L231.39,369.34 L230.87,369.35 L230.35,369.35 L229.83,369.36 L229.31,369.37 L228.78,369.37 L228.26,369.38 L227.73,369.38 L227.20,369.39 L226.68,369.39 L226.15,369.39 L225.62,369.39 L225.09,369.39 L224.55,369.39 L224.02,369.39 L223.48,369.39 L222.95,369.39 L222.41,369.39 L221.88,369.38 L221.34,369.38 L220.80,369.37 L220.26,369.37 L219.71,369.36 L219.17,369.35 L218.63,369.34 L218.08,369.33 L217.53,369.32 L216.99,369.30 L216.44,369.29 L215.89,369.27 L215.34,369.25 L214.79,369.23 L214.23,369.21 L213.68,369.19 L213.13,369.17 L212.57,369.14 L212.01,369.11 L211.45,369.09 L210.90,369.05 L210.34,369.02 L209.78,368.99 L209.21,368.95 L208.65,368.92 L208.09,368.88 L207.52,368.84 L206.96,368.79 L206.39,368.75 L205.82,368.70 L205.25,368.65 L204.69,368.60 L204.12,368.54 L203.55,368.49 L202.97,368.43 L202.40,368.37 L201.83,368.31 L201.26,368.24 L200.68,368.18 L200.11,368.11 L199.53,368.03 L198.95,367.96 L198.38,367.88 L197.80,367.80 L197.22,367.72 L196.64,367.63 L196.06,367.54 L195.49,367.45 L194.91,367.36 L194.32,367.26 L193.74,367.17 L193.16,367.06 L192.58,366.96 L192.00,366.85 L191.42,366.74 L190.84,366.63 L190.25,366.51 L189.67,366.39 L189.09,366.27 L188.51,366.14 L187.92,366.01 L187.34,365.88 L186.76,365.74 L186.17,365.61 L185.59,365.46 L185.01,365.32 L184.43,365.17 L183.84,365.02 L183.26,364.86 L182.68,364.70 L182.10,364.54 L181.52,364.37 L180.94,364.20 L180.36,364.03 L179.78,363.86 L179.20,363.68 L178.62,363.49 L178.04,363.30 L177.46,363.11 L176.88,362.92 L176.31,362.72 L175.73,362.52 L175.16,362.31 L174.58,362.10 L174.01,361.89 L173.44,361.67 L172.87,361.45 L172.30,361.23 L171.73,361.00 L171.16,360.77 L170.59,360.53 L170.03,360.29 L169.47,360.05 L168.90,359.80 L168.34,359.55 L167.78,359.29 L167.22,359.03 L166.66,358.77 L166.11,358.50 L165.55,358.23 L165.00,357.95 L164.45,357.67 L163.90,357.39 L163.36,357.10 L162.81,356.81 L162.27,356.52 L161.72,356.22 L161.18,355.91 L160.65,355.61 L160.11,355.30 L159.58,354.98 L159.05,354.66 L158.52,354.34 L157.99,354.01 L157.47,353.68 L156.94,353.34 L156.42,353.00 L155.91,352.66 L155.39,352.31 L154.88,351.96 L154.37,351.61 L153.86,351.25 L153.36,350.88 L152.85,350.52 L152.36,350.14 L151.86,349.77 L151.37,349.39 L150.88,349.01 L150.39,348.62 L149.90,348.23 L149.42,347.83 L148.94,347.44 L148.47,347.03 L148.00,346.63 L147.53,346.22 L147.06,345.80 L146.60,345.39 L146.14,344.96 L145.68,344.54 L145.23,344.11 L144.78,343.68 L144.34,343.24 L143.89,342.80 L143.46,342.36 L143.02,341.91 L142.59,341.46 L142.16,341.01 L141.74,340.55 L141.32,340.09 L140.90,339.62 L140.49,339.15 L140.08,338.68 L139.68,338.21 L139.28,337.73 L138.88,337.25 L138.49,336.76 L138.10,336.27 L137.72,335.78 L137.34,335.29 L136.96,334.79 L136.59,334.29 L136.22,333.78 L135.86,333.28 L135.50,332.76 L135.15,332.25 L134.80,331.73 L134.45,331.22 L134.11,330.69 L133.78,330.17 L133.44,329.64 L133.11,329.11 L132.79,328.58 L132.47,328.04 L132.16,327.50 L131.85,326.96 L131.54,326.41 L131.24,325.87 L130.95,325.32 L130.66,324.77 L130.37,324.21 L130.09,323.65 L129.81,323.10 L129.54,322.53 L129.27,321.97 L129.01,321.40 L128.75,320.84 L128.50,320.27 L128.25,319.69 L128.01,319.12 L127.77,318.54 L127.53,317.96 L127.30,317.38 L127.08,316.80 L126.86,316.22 L126.65,315.63 L126.44,315.04 L126.23,314.46 L126.03,313.86 L125.84,313.27 L125.65,312.68 L125.46,312.08 L125.28,311.49 L125.11,310.89 L124.94,310.29 L124.78,309.69 L124.62,309.08 L124.46,308.48 L124.31,307.87 L124.16,307.27 L124.02,306.66 L123.89,306.05 L123.76,305.44 L123.63,304.83 L123.51,304.22 L123.40,303.61 L123.29,303.00 L123.18,302.38 L123.08,301.77 L122.98,301.15 L122.89,300.54 L122.81,299.92 L122.72,299.30 L122.65,298.69 L122.57,298.07 L122.51,297.45 L122.45,296.83 L122.39,296.21 L122.33,295.59 L122.29,294.97 L122.24,294.35 L122.20,293.73 L122.17,293.11 L122.14,292.49 L122.12,291.87 L122.10,291.25 L122.08,290.63 L122.07,290.01 L122.06,289.39 L122.06,288.77 L122.06,288.16 L122.07,287.54 L122.08,286.92 L122.10,286.30 L122.12,285.68 L122.14,285.06 L122.17,284.45 L122.21,283.83 L122.24,283.21 L122.29,282.60 L122.33,281.98 L122.38,281.37 L122.44,280.75 L122.50,280.14 L122.56,279.53 L122.63,278.92 L122.70,278.31 L122.77,277.70 L122.85,277.09 L122.93,276.48 L123.02,275.87 L123.11,275.27 L123.20,274.66 L123.30,274.06 L123.40,273.46 L123.51,272.85 L123.62,272.25 L123.73,271.66 L123.85,271.06 L123.97,270.46 L124.09,269.86 L124.22,269.27 L124.35,268.68 L124.48,268.08 L124.62,267.49 L124.76,266.91 L124.90,266.32 L125.05,265.73 L125.20,265.15 L125.35,264.56 L125.51,263.98 L125.67,263.40 L125.83,262.82 L126.00,262.24 L126.17,261.67 L126.34,261.09 L126.51,260.52 L126.69,259.95 L126.87,259.38 L127.05,258.81 L127.23,258.25 L127.42,257.68 L127.61,257.12 L127.80,256.56 L128.00,256.00 L128.20,255.44 L128.40,254.89 L128.60,254.33 L128.80,253.78 L129.01,253.23 L129.22,252.68 L129.43,252.13 L129.64,251.59 L129.86,251.04 L130.08,250.50 L130.30,249.96 L130.52,249.42 L130.74,248.89 L130.97,248.35 L131.19,247.82 L131.42,247.29 L131.65,246.76 L131.89,246.23 L132.12,245.71 L132.35,245.18 L132.59,244.66 L132.83,244.14 L133.07,243.62 L133.31,243.10 L133.55,242.59 L133.80,242.08 L134.04,241.57 L134.29,241.06 L134.54,240.55 L134.79,240.04 L135.04,239.54 L135.29,239.03 L135.54,238.53 L135.79,238.03 L136.05,237.54 L136.30,237.04 L136.56,236.55 L136.81,236.06 L137.07,235.56 L137.33,235.08 L137.59,234.59 L137.85,234.10 L138.11,233.62 L138.37,233.14 L138.63,232.65 L138.90,232.17 L139.16,231.70 L139.42,231.22 L139.68,230.75 L139.95,230.27 L140.21,229.80 L140.48,229.33 L140.74,228.86 L141.01,228.39 L141.27,227.93 L141.54,227.46 L141.81,227.00 L142.07,226.54 L142.34,226.08 L142.61,225.62 L142.87,225.16 L143.14,224.70 L143.41,224.25 L143.67,223.79 L143.94,223.34 L144.21,222.89 L144.47,222.43 L144.74,221.98 L145.01,221.54 L145.27,221.09 L145.54,220.64 L145.81,220.20 L146.07,219.75 L146.34,219.31 L146.60,218.86 L146.87,218.42 L147.13,217.98 L147.40,217.54 L147.66,217.10 L147.93,216.66 L148.19,216.23 L148.45,215.79 L148.72,215.35 L148.98,214.92 L149.24,214.48 L149.50,214.05 L149.76,213.62 L150.03,213.18 L150.29,212.75 L150.55,212.32 L150.81,211.89 L151.07,211.46 L151.32,211.03 L151.58,210.60 L151.84,210.17 L152.10,209.74 L152.36,209.31 L152.61,208.88 L152.87,208.46 L153.12,208.03 L153.38,207.60 L153.63,207.17 L153.89,206.75 L154.14,206.32 L154.39,205.89 L154.65,205.47 L154.90,205.04 L155.15,204.62 L155.40,204.19 L155.65,203.76 L155.90,203.34 L156.15,202.91 L156.40,202.49 L156.65,202.06 L156.90,201.63 L157.15,201.21 L157.40,200.78 L157.65,200.35 L157.89,199.93 L158.14,199.50 L158.39,199.07 L158.63,198.65 L158.88,198.22 L159.12,197.79 L159.37,197.36 L159.61,196.93 L159.86,196.50 L160.10,196.08 L160.34,195.65 L160.59,195.22 L160.83,194.79 L161.08,194.36 L161.32,193.92 L161.56,193.49 L161.80,193.06 L162.05,192.63 L162.29,192.19 L162.53,191.76 L162.77,191.33 L163.02,190.89 L163.26,190.46 L163.50,190.02 L163.74,189.59 L163.99,189.15 L164.23,188.71 L164.47,188.27 L164.72,187.83 L164.96,187.40 L165.20,186.96 L165.45,186.51 L165.69,186.07 L165.93,185.63 L166.18,185.19 L166.42,184.75 L166.67,184.30 L166.91,183.86 L167.16,183.41 L167.40,182.97 L167.65,182.52 L167.90,182.07 L168.15,181.63 L168.39,181.18 L168.64,180.73 L168.89,180.28 L169.14,179.83 L169.39,179.38 L169.64,178.92 L169.90,178.47 L170.15,178.02 L170.40,177.56 L170.66,177.11 L170.91,176.65 L171.17,176.20 L171.43,175.74 L171.68,175.28 L171.94,174.83 L172.20,174.37 L172.46,173.91 L172.73,173.45 L172.99,172.99 L173.25,172.53 L173.52,172.07 L173.79,171.61 L174.06,171.14 L174.33,170.68 L174.60,170.22 L174.87,169.75 L175.14,169.29 L175.42,168.83 L175.69,168.36 L175.97,167.90 L176.25,167.43 L176.53,166.96 L176.81,166.50 L177.10,166.03 L177.38,165.56 L177.67,165.10 L177.96,164.63 L178.25,164.16 L178.54,163.69 L178.84,163.22 L179.13,162.75 L179.43,162.29 L179.73,161.82 L180.03,161.35 L180.34,160.88 L180.64,160.41 L180.95,159.94 L181.26,159.47 L181.57,159.00 L181.89,158.54 L182.20,158.07 L182.52,157.60 L182.84,157.13 L183.16,156.66 L183.49,156.20 L183.81,155.73 L184.14,155.26 L184.48,154.79 L184.81,154.33 L185.15,153.86 L185.48,153.40 L185.82,152.93 L186.17,152.47 L186.51,152.01 L186.86,151.54 L187.21,151.08 L187.56,150.62 L187.92,150.16 L188.28,149.70 L188.64,149.24 L189.00,148.78 L189.37,148.32 L189.74,147.87 L190.11,147.41 L190.48,146.96 L190.86,146.50 L191.23,146.05 L191.62,145.60 L192.00,145.15 L192.39,144.70 L192.78,144.25 L193.17,143.81 L193.56,143.36 L193.96,142.92 L194.36,142.48 L194.77,142.04 L195.17,141.60 L195.58,141.16 L195.99,140.73 L196.41,140.29 L196.82,139.86 L197.24,139.43 L197.67,139.00 L198.09,138.58 L198.52,138.15 L198.95,137.73 L199.39,137.31 L199.82,136.89 L200.26,136.47 L200.71,136.06 L201.15,135.65 L201.60,135.24 L202.05,134.83 L202.51,134.43 L202.96,134.02 L203.42,133.62 L203.89,133.23 L204.35,132.83 L204.82,132.44 L205.29,132.05 L205.76,131.66 L206.24,131.28 L206.72,130.90 L207.20,130.52 L207.69,130.14 L208.18,129.77 L208.67,129.40 L209.16,129.04 L209.66,128.67 L210.16,128.31 L210.66,127.95 L211.16,127.60 L211.67,127.25 L212.18,126.90 L212.69,126.56 L213.20,126.22 L213.72,125.88 L214.24,125.55 L214.76,125.22 L215.29,124.89 L215.82,124.57 L216.35,124.25 L216.88,123.93 L217.41,123.62 L217.95,123.31 L218.49,123.01 L219.03,122.71 L219.58,122.41 L220.13,122.12 L220.68,121.83 L221.23,121.54 L221.78,121.26 L222.34,120.99 L222.90,120.71 L223.46,120.45 L224.02,120.18 L224.58,119.92 L225.15,119.67 L225.72,119.42 L226.29,119.17 L226.86,118.93 L227.44,118.69 L228.02,118.46 L228.60,118.23 L229.18,118.00 L229.76,117.78 L230.34,117.57 L230.93,117.36 L231.52,117.15 L232.11,116.95 L232.70,116.75 L233.29,116.56 L233.89,116.38 L234.48,116.19 L235.08,116.02 L235.68,115.84 L236.28,115.68 L236.88,115.51 L237.48,115.36 L238.09,115.20 L238.69,115.05 L239.30,114.91 L239.91,114.77 L240.52,114.64 L241.13,114.51 L241.74,114.39 L242.35,114.27 L242.97,114.16 L243.58,114.05 L244.20,113.95 L244.81,113.85 L245.43,113.76 L246.05,113.68 L246.67,113.59 L247.29,113.52 L247.91,113.45 L248.53,113.38 L249.15,113.32 L249.77,113.26 L250.39,113.21 L251.01,113.17 L251.63,113.13 L252.26,113.10 L252.88,113.07 L253.50,113.04 L254.13,113.02 L254.75,113.01 L255.38,113.00 L256.00,113.00 L256.62,113.00 L257.25,113.01 L257.87,113.02 L258.50,113.04 L259.12,113.07 L259.74,113.10 L260.37,113.13 L260.99,113.17 L261.61,113.21 L262.23,113.26 L262.85,113.32 L263.47,113.38 L264.09,113.45 L264.71,113.52 L265.33,113.59 L265.95,113.68 L266.57,113.76 L267.19,113.85 L267.80,113.95 L268.42,114.05 L269.03,114.16 L269.65,114.27 L270.26,114.39 L270.87,114.51 L271.48,114.64 L272.09,114.77 L272.70,114.91 L273.31,115.05 L273.91,115.20 L274.52,115.36 L275.12,115.51 L275.72,115.68 L276.32,115.84 L276.92,116.02 L277.52,116.19 L278.11,116.38 L278.71,116.56 L279.30,116.75 L279.89,116.95 L280.48,117.15 L281.07,117.36 L281.66,117.57 L282.24,117.78 L282.82,118.00 L283.40,118.23 L283.98,118.46 L284.56,118.69 L285.14,118.93 L285.71,119.17 L286.28,119.42 L286.85,119.67 L287.42,119.92 L287.98,120.18 L288.54,120.45 L289.10,120.71 L289.66,120.99 L290.22,121.26 L290.77,121.54 L291.32,121.83 L291.87,122.12 L292.42,122.41 L292.97,122.71 L293.51,123.01 L294.05,123.31 L294.59,123.62 L295.12,123.93 L295.65,124.25 L296.18,124.57 L296.71,124.89 L297.24,125.22 L297.76,125.55 L298.28,125.88 L298.80,126.22 L299.31,126.56 L299.82,126.90 L300.33,127.25 L300.84,127.60 L301.34,127.95 L301.84,128.31 L302.34,128.67 L302.84,129.04 L303.33,129.40 L303.82,129.77 L304.31,130.14 L304.80,130.52 L305.28,130.90 L305.76,131.28 L306.24,131.66 L306.71,132.05 L307.18,132.44 L307.65,132.83 L308.11,133.23 L308.58,133.62 L309.04,134.02 L309.49,134.43 L309.95,134.83 L310.40,135.24 L310.85,135.65 L311.29,136.06 L311.74,136.47 L312.18,136.89 L312.61,137.31 L313.05,137.73 L313.48,138.15 L313.91,138.58 L314.33,139.00 L314.76,139.43 L315.18,139.86 L315.59,140.29 L316.01,140.73 L316.42,141.16 L316.83,141.60 L317.23,142.04 L317.64,142.48 L318.04,142.92 L318.44,143.36 L318.83,143.81 L319.22,144.25 L319.61,144.70 L320.00,145.15 L320.38,145.60 L320.77,146.05 L321.14,146.50 L321.52,146.96 L321.89,147.41 L322.26,147.87 L322.63,148.32 L323.00,148.78 L323.36,149.24 L323.72,149.70 L324.08,150.16 L324.44,150.62 L324.79,151.08 L325.14,151.54 L325.49,152.01 L325.83,152.47 L326.18,152.93 L326.52,153.40 L326.85,153.86 L327.19,154.33 L327.52,154.79 L327.86,155.26 L328.19,155.73 L328.51,156.20 L328.84,156.66 L329.16,157.13 L329.48,157.60 L329.80,158.07 L330.11,158.54 L330.43,159.00 L330.74,159.47 L331.05,159.94 L331.36,160.41 L331.66,160.88 L331.97,161.35 L332.27,161.82 L332.57,162.29 L332.87,162.75 L333.16,163.22 L333.46,163.69 L333.75,164.16 L334.04,164.63 L334.33,165.10 L334.62,165.56 L334.90,166.03 L335.19,166.50 L335.47,166.96 L335.75,167.43 L336.03,167.90 L336.31,168.36 L336.58,168.83 L336.86,169.29 L337.13,169.75 L337.40,170.22 L337.67,170.68 L337.94,171.14 L338.21,171.61 L338.48,172.07 L338.75,172.53 L339.01,172.99 L339.27,173.45 L339.54,173.91 L339.80,174.37 L340.06,174.83 L340.32,175.28 L340.57,175.74 L340.83,176.20 L341.09,176.65 L341.34,177.11 L341.60,177.56 L341.85,178.02 L342.10,178.47 L342.36,178.92 L342.61,179.38 L342.86,179.83 L343.11,180.28 L343.36,180.73 L343.61,181.18 L343.85,181.63 L344.10,182.07 L344.35,182.52 L344.60,182.97 L344.84,183.41 L345.09,183.86 L345.33,184.30 L345.58,184.75 L345.82,185.19 L346.07,185.63 L346.31,186.07 L346.55,186.51 L346.80,186.96 L347.04,187.40 L347.28,187.83 L347.53,188.27 L347.77,188.71 L348.01,189.15 L348.26,189.59 L348.50,190.02 L348.74,190.46 L348.98,190.89 L349.23,191.33 L349.47,191.76 L349.71,192.19 L349.95,192.63 L350.20,193.06 L350.44,193.49 L350.68,193.92 L350.92,194.36 L351.17,194.79 L351.41,195.22 L351.66,195.65 L351.90,196.08 L352.14,196.50 L352.39,196.93 L352.63,197.36 L352.88,197.79 L353.12,198.22 L353.37,198.65 L353.61,199.07 L353.86,199.50 L354.11,199.93 L354.35,200.35 L354.60,200.78 L354.85,201.21 L355.10,201.63 L355.35,202.06 L355.60,202.49 L355.85,202.91 L356.10,203.34 L356.35,203.76 L356.60,204.19 L356.85,204.62 L357.10,205.04 L357.35,205.47 L357.61,205.89 L357.86,206.32 L358.11,206.75 L358.37,207.17 L358.62,207.60 L358.88,208.03 L359.13,208.46 L359.39,208.88 L359.64,209.31 L359.90,209.74 L360.16,210.17 L360.42,210.60 L360.68,211.03 L360.93,211.46 L361.19,211.89 L361.45,212.32 L361.71,212.75 L361.97,213.18 L362.24,213.62 L362.50,214.05 L362.76,214.48 L363.02,214.92 L363.28,215.35 L363.55,215.79 L363.81,216.23 L364.07,216.66 L364.34,217.10 L364.60,217.54 L364.87,217.98 L365.13,218.42 L365.40,218.86 L365.66,219.31 L365.93,219.75 L366.19,220.20 L366.46,220.64 L366.73,221.09 L366.99,221.54 L367.26,221.98 L367.53,222.43 L367.79,222.89 L368.06,223.34 L368.33,223.79 L368.59,224.25 L368.86,224.70 L369.13,225.16 L369.39,225.62 L369.66,226.08 L369.93,226.54 L370.19,227.00 L370.46,227.46 L370.73,227.93 L370.99,228.39 L371.26,228.86 L371.52,229.33 L371.79,229.80 L372.05,230.27 L372.32,230.75 L372.58,231.22 L372.84,231.70 L373.10,232.17 L373.37,232.65 L373.63,233.14 L373.89,233.62 L374.15,234.10 L374.41,234.59 L374.67,235.08 L374.93,235.56 L375.19,236.06 L375.44,236.55 L375.70,237.04 L375.95,237.54 L376.21,238.03 L376.46,238.53 L376.71,239.03 L376.96,239.54 L377.21,240.04 L377.46,240.55 L377.71,241.06 L377.96,241.57 L378.20,242.08 L378.45,242.59 L378.69,243.10 L378.93,243.62 L379.17,244.14 L379.41,244.66 L379.65,245.18 L379.88,245.71 L380.11,246.23 L380.35,246.76 L380.58,247.29 L380.81,247.82 L381.03,248.35 L381.26,248.89 L381.48,249.42 L381.70,249.96 L381.92,250.50 L382.14,251.04 L382.36,251.59 L382.57,252.13 L382.78,252.68 L382.99,253.23 L383.20,253.78 L383.40,254.33 L383.60,254.89 L383.80,255.44 L384.00,256.00 Z" fill="none" stroke="#44aaff" stroke-width="10" filter="url(#glow)"/>

  <!-- Doubled inner arcs (semiquaver sections) -->
  <path d="M360.14,258.73 L360.32,259.19 L360.50,259.65 L360.68,260.11 L360.86,260.58 L361.03,261.05 L361.20,261.51 L361.37,261.98 L361.54,262.45 L361.70,262.93 L361.86,263.40 L362.02,263.88 L362.17,264.36 L362.33,264.83 L362.48,265.32 L362.62,265.80 L362.77,266.28 L362.91,266.77 L363.05,267.25 L363.18,267.74 L363.31,268.23 L363.44,268.72 L363.57,269.21 L363.69,269.70 L363.81,270.19 L363.93,270.69 L364.04,271.18 L364.15,271.68 L364.26,272.18 L364.36,272.68 L364.46,273.18 L364.55,273.68 L364.65,274.18 L364.74,274.68 L364.82,275.19 L364.90,275.69 L364.98,276.20 L365.06,276.70 L365.13,277.21 L365.19,277.72 L365.26,278.23 L365.32,278.74 L365.37,279.25 L365.43,279.76 L365.47,280.27 L365.52,280.78 L365.56,281.29 L365.59,281.81 L365.63,282.32 L365.65,282.83 L365.68,283.35 L365.70,283.86 L365.72,284.37 L365.73,284.89 L365.74,285.40 L365.74,285.92 L365.74,286.43 L365.73,286.95 L365.73,287.46 L365.71,287.98 L365.69,288.49 L365.67,289.01 L365.65,289.52 L365.62,290.04 L365.58,290.55 L365.54,291.07 L365.50,291.58 L365.45,292.09 L365.40,292.60 L365.34,293.12 L365.28,293.63 L365.22,294.14 L365.15,294.65 L365.07,295.16 L365.00,295.67 L364.91,296.18 L364.82,296.69 L364.73,297.20 L364.64,297.70 L364.54,298.21 L364.43,298.71 L364.32,299.22 L364.21,299.72 L364.09,300.22 L363.96,300.72 L363.83,301.22 L363.70,301.72 L363.57,302.21 L363.42,302.71 L363.28,303.20 L363.13,303.70 L362.97,304.19 L362.81,304.68 L362.65,305.17 L362.48,305.65 L362.31,306.14 L362.13,306.62 L361.95,307.10 L361.76,307.58 L361.57,308.06 L361.38,308.54 L361.18,309.01 L360.97,309.49 L360.77,309.96 L360.55,310.43 L360.34,310.89 L360.12,311.36 L359.89,311.82 L359.66,312.28 L359.43,312.74 L359.19,313.20 L358.94,313.65 L358.70,314.10 L358.45,314.55 L358.19,315.00 L357.93,315.44 L357.67,315.89 L357.40,316.33 L357.13,316.76 L356.85,317.20 L356.57,317.63 L356.29,318.06 L356.00,318.49 L355.71,318.91 L355.41,319.33 L355.11,319.75 L354.81,320.17 L354.50,320.58 L354.19,320.99 L353.87,321.40 L353.55,321.80 L353.23,322.20 L352.91,322.60 L352.58,323.00 L352.24,323.39 L351.90,323.78 L351.56,324.16 L351.22,324.55 L350.87,324.93 L350.52,325.30 L350.16,325.68 L349.81,326.05 L349.44,326.41 L349.08,326.78 L348.71,327.14 L348.34,327.50 L347.96,327.85 L347.59,328.20 L347.20,328.55 L346.82,328.89 L346.43,329.23 L346.04,329.57 L345.65,329.90 L345.25,330.23 L344.85,330.56 L344.45,330.88 L344.05,331.20 L343.64,331.52 L343.23,331.83 L342.82,332.14 L342.40,332.44 L341.98,332.74 L341.56,333.04 L341.14,333.33 L340.71,333.63 L340.29,333.91 L339.85,334.20 L339.42,334.48 L338.99,334.75 L338.55,335.02 L338.11,335.29 L337.67,335.56 L337.23,335.82 L336.78,336.08 L336.33,336.33 L335.88,336.58 L335.43,336.83 L334.98,337.07 L334.52,337.31 L334.07,337.55 L333.61,337.78 L333.15,338.01 L332.68,338.23 L332.22,338.45 L331.75,338.67 L331.29,338.89 L330.82,339.10 L330.35,339.30 L329.88,339.51 L329.41,339.70 L328.93,339.90 L328.46,340.09 L327.98,340.28 L327.51,340.47 L327.03,340.65 L326.55,340.83 L326.07,341.00 L325.59,341.17 L325.11,341.34 L324.62,341.50 L324.14,341.66 L323.65,341.82 L323.17,341.97 L322.68,342.12 L322.20,342.27 L321.71,342.41 L321.22,342.55 L320.73,342.69 L320.25,342.82 L319.76,342.95 L319.27,343.08 L318.78,343.20 L318.29,343.32 L317.80,343.44 L317.31,343.55 L316.81,343.66 L316.32,343.77 L315.83,343.88 L315.34,343.98 L314.85,344.07 L314.36,344.17 L313.87,344.26 L313.38,344.35 L312.88,344.44 L312.39,344.52 L311.90,344.60 L311.41,344.68 L310.92,344.75 L310.43,344.83 M201.57,344.83 L201.08,344.75 L200.59,344.68 L200.10,344.60 L199.61,344.52 L199.12,344.44 L198.62,344.35 L198.13,344.26 L197.64,344.17 L197.15,344.07 L196.66,343.98 L196.17,343.88 L195.68,343.77 L195.19,343.66 L194.69,343.55 L194.20,343.44 L193.71,343.32 L193.22,343.20 L192.73,343.08 L192.24,342.95 L191.75,342.82 L191.27,342.69 L190.78,342.55 L190.29,342.41 L189.80,342.27 L189.32,342.12 L188.83,341.97 L188.35,341.82 L187.86,341.66 L187.38,341.50 L186.89,341.34 L186.41,341.17 L185.93,341.00 L185.45,340.83 L184.97,340.65 L184.49,340.47 L184.02,340.28 L183.54,340.09 L183.07,339.90 L182.59,339.70 L182.12,339.51 L181.65,339.30 L181.18,339.10 L180.71,338.89 L180.25,338.67 L179.78,338.45 L179.32,338.23 L178.85,338.01 L178.39,337.78 L177.93,337.55 L177.48,337.31 L177.02,337.07 L176.57,336.83 L176.12,336.58 L175.67,336.33 L175.22,336.08 L174.77,335.82 L174.33,335.56 L173.89,335.29 L173.45,335.02 L173.01,334.75 L172.58,334.48 L172.15,334.20 L171.71,333.91 L171.29,333.63 L170.86,333.33 L170.44,333.04 L170.02,332.74 L169.60,332.44 L169.18,332.14 L168.77,331.83 L168.36,331.52 L167.95,331.20 L167.55,330.88 L167.15,330.56 L166.75,330.23 L166.35,329.90 L165.96,329.57 L165.57,329.23 L165.18,328.89 L164.80,328.55 L164.41,328.20 L164.04,327.85 L163.66,327.50 L163.29,327.14 L162.92,326.78 L162.56,326.41 L162.19,326.05 L161.84,325.68 L161.48,325.30 L161.13,324.93 L160.78,324.55 L160.44,324.16 L160.10,323.78 L159.76,323.39 L159.42,323.00 L159.09,322.60 L158.77,322.20 L158.45,321.80 L158.13,321.40 L157.81,320.99 L157.50,320.58 L157.19,320.17 L156.89,319.75 L156.59,319.33 L156.29,318.91 L156.00,318.49 L155.71,318.06 L155.43,317.63 L155.15,317.20 L154.87,316.76 L154.60,316.33 L154.33,315.89 L154.07,315.44 L153.81,315.00 L153.55,314.55 L153.30,314.10 L153.06,313.65 L152.81,313.20 L152.57,312.74 L152.34,312.28 L152.11,311.82 L151.88,311.36 L151.66,310.89 L151.45,310.43 L151.23,309.96 L151.03,309.49 L150.82,309.01 L150.62,308.54 L150.43,308.06 L150.24,307.58 L150.05,307.10 L149.87,306.62 L149.69,306.14 L149.52,305.65 L149.35,305.17 L149.19,304.68 L149.03,304.19 L148.87,303.70 L148.72,303.20 L148.58,302.71 L148.43,302.21 L148.30,301.72 L148.17,301.22 L148.04,300.72 L147.91,300.22 L147.79,299.72 L147.68,299.22 L147.57,298.71 L147.46,298.21 L147.36,297.70 L147.27,297.20 L147.18,296.69 L147.09,296.18 L147.00,295.67 L146.93,295.16 L146.85,294.65 L146.78,294.14 L146.72,293.63 L146.66,293.12 L146.60,292.60 L146.55,292.09 L146.50,291.58 L146.46,291.07 L146.42,290.55 L146.38,290.04 L146.35,289.52 L146.33,289.01 L146.31,288.49 L146.29,287.98 L146.27,287.46 L146.27,286.95 L146.26,286.43 L146.26,285.92 L146.26,285.40 L146.27,284.89 L146.28,284.37 L146.30,283.86 L146.32,283.35 L146.35,282.83 L146.37,282.32 L146.41,281.81 L146.44,281.29 L146.48,280.78 L146.53,280.27 L146.57,279.76 L146.63,279.25 L146.68,278.74 L146.74,278.23 L146.81,277.72 L146.87,277.21 L146.94,276.70 L147.02,276.20 L147.10,275.69 L147.18,275.19 L147.26,274.68 L147.35,274.18 L147.45,273.68 L147.54,273.18 L147.64,272.68 L147.74,272.18 L147.85,271.68 L147.96,271.18 L148.07,270.69 L148.19,270.19 L148.31,269.70 L148.43,269.21 L148.56,268.72 L148.69,268.23 L148.82,267.74 L148.95,267.25 L149.09,266.77 L149.23,266.28 L149.38,265.80 L149.52,265.32 L149.67,264.83 L149.83,264.36 L149.98,263.88 L150.14,263.40 L150.30,262.93 L150.46,262.45 L150.63,261.98 L150.80,261.51 L150.97,261.05 L151.14,260.58 L151.32,260.11 L151.50,259.65 L151.68,259.19 L151.86,258.73 M206.29,164.45 L206.60,164.06 L206.91,163.67 L207.22,163.29 L207.54,162.90 L207.85,162.52 L208.17,162.14 L208.50,161.75 L208.82,161.38 L209.15,161.00 L209.48,160.62 L209.81,160.25 L210.15,159.87 L210.49,159.50 L210.83,159.13 L211.17,158.76 L211.52,158.40 L211.87,158.03 L212.22,157.67 L212.58,157.31 L212.93,156.95 L213.29,156.59 L213.65,156.24 L214.02,155.89 L214.39,155.54 L214.76,155.19 L215.13,154.84 L215.51,154.50 L215.88,154.16 L216.26,153.82 L216.65,153.48 L217.03,153.15 L217.42,152.82 L217.81,152.49 L218.21,152.16 L218.60,151.84 L219.00,151.52 L219.40,151.20 L219.81,150.89 L220.21,150.57 L220.62,150.27 L221.03,149.96 L221.45,149.66 L221.86,149.36 L222.28,149.06 L222.70,148.76 L223.13,148.47 L223.55,148.19 L223.98,147.90 L224.41,147.62 L224.84,147.34 L225.28,147.07 L225.72,146.80 L226.15,146.53 L226.60,146.26 L227.04,146.00 L227.49,145.75 L227.93,145.49 L228.39,145.24 L228.84,145.00 L229.29,144.75 L229.75,144.52 L230.21,144.28 L230.67,144.05 L231.13,143.82 L231.60,143.60 L232.06,143.38 L232.53,143.17 L233.00,142.95 L233.47,142.75 L233.95,142.54 L234.42,142.34 L234.90,142.15 L235.38,141.96 L235.86,141.77 L236.34,141.59 L236.82,141.41 L237.31,141.24 L237.80,141.07 L238.28,140.90 L238.77,140.74 L239.27,140.58 L239.76,140.43 L240.25,140.28 L240.75,140.14 L241.24,140.00 L241.74,139.87 L242.24,139.74 L242.74,139.61 L243.24,139.49 L243.74,139.38 L244.25,139.27 L244.75,139.16 L245.25,139.06 L245.76,138.96 L246.27,138.87 L246.77,138.78 L247.28,138.69 L247.79,138.61 L248.30,138.54 L248.81,138.47 L249.32,138.41 L249.83,138.35 L250.35,138.29 L250.86,138.24 L251.37,138.19 L251.88,138.15 L252.40,138.12 L252.91,138.09 L253.43,138.06 L253.94,138.04 L254.46,138.02 L254.97,138.01 L255.49,138.00 L256.00,138.00 L256.51,138.00 L257.03,138.01 L257.54,138.02 L258.06,138.04 L258.57,138.06 L259.09,138.09 L259.60,138.12 L260.12,138.15 L260.63,138.19 L261.14,138.24 L261.65,138.29 L262.17,138.35 L262.68,138.41 L263.19,138.47 L263.70,138.54 L264.21,138.61 L264.72,138.69 L265.23,138.78 L265.73,138.87 L266.24,138.96 L266.75,139.06 L267.25,139.16 L267.75,139.27 L268.26,139.38 L268.76,139.49 L269.26,139.61 L269.76,139.74 L270.26,139.87 L270.76,140.00 L271.25,140.14 L271.75,140.28 L272.24,140.43 L272.73,140.58 L273.23,140.74 L273.72,140.90 L274.20,141.07 L274.69,141.24 L275.18,141.41 L275.66,141.59 L276.14,141.77 L276.62,141.96 L277.10,142.15 L277.58,142.34 L278.05,142.54 L278.53,142.75 L279.00,142.95 L279.47,143.17 L279.94,143.38 L280.40,143.60 L280.87,143.82 L281.33,144.05 L281.79,144.28 L282.25,144.52 L282.71,144.75 L283.16,145.00 L283.61,145.24 L284.07,145.49 L284.51,145.75 L284.96,146.00 L285.40,146.26 L285.85,146.53 L286.28,146.80 L286.72,147.07 L287.16,147.34 L287.59,147.62 L288.02,147.90 L288.45,148.19 L288.87,148.47 L289.30,148.76 L289.72,149.06 L290.14,149.36 L290.55,149.66 L290.97,149.96 L291.38,150.27 L291.79,150.57 L292.19,150.89 L292.60,151.20 L293.00,151.52 L293.40,151.84 L293.79,152.16 L294.19,152.49 L294.58,152.82 L294.97,153.15 L295.35,153.48 L295.74,153.82 L296.12,154.16 L296.49,154.50 L296.87,154.84 L297.24,155.19 L297.61,155.54 L297.98,155.89 L298.35,156.24 L298.71,156.59 L299.07,156.95 L299.42,157.31 L299.78,157.67 L300.13,158.03 L300.48,158.40 L300.83,158.76 L301.17,159.13 L301.51,159.50 L301.85,159.87 L302.19,160.25 L302.52,160.62 L302.85,161.00 L303.18,161.38 L303.50,161.75 L303.83,162.14 L304.15,162.52 L304.46,162.90 L304.78,163.29 L305.09,163.67 L305.40,164.06 L305.71,164.45" fill="none" stroke="#44aaff" stroke-width="7" opacity="0.90"/>
</svg>