<svg xmlns="http://www.w3.org/2000/svg" xmlns:xlink="http://www.w3.org/1999/xlink" viewBox="0 0 512 512">
  <defs>
    <filter id="glow" x="-40%" y="-40%" width="180%" height="180%">
      <feGaussianBlur stdDeviation="5" result="blur"/>
      <feMerge>
        <feMergeNode in="blur"/>
        <feMergeNode in="SourceGraphic"/>
      </feMerge>
    </filter>
    
    <g id="spike">
      <line x1="0" y1="0" x2="0" y2="-76" stroke="#44aaff" stroke-width="5" stroke-linecap="round"/>
      <ellipse cx="-13" cy="-76" rx="16" ry="10" transform="rotate(-25,-13,-76)" fill="#44aaff"/>
    </g>
  </defs>

  <!-- Background -->
  <rect width="512" height="512" rx="88" fill="#0d0d14"/>

  <!-- Virus body fill (uses oscillating boundary as shape) -->
  <path d="M386.00,256.00 L386.35,256.57 L386.69,257.14 L387.03,257.72 L387.37,258.29 L387.71,258.87 L388.03,259.46 L388.36,260.04 L388.68,260.63 L388.99,261.23 L389.29,261.82 L389.59,262.42 L389.88,263.02 L390.17,263.62 L390.44,264.22 L390.71,264.83 L390.97,265.44 L391.22,266.05 L391.46,266.66 L391.69,267.27 L391.91,267.89 L392.12,268.51 L392.32,269.13 L392.50,269.75 L392.68,270.37 L392.84,270.99 L392.99,271.61 L393.13,272.23 L393.26,272.85 L393.37,273.48 L393.47,274.10 L393.56,274.72 L393.64,275.34 L393.70,275.96 L393.74,276.59 L393.77,277.21 L393.79,277.82 L393.80,278.44 L393.79,279.06 L393.76,279.67 L393.72,280.28 L393.67,280.89 L393.60,281.50 L393.52,282.11 L393.42,282.71 L393.31,283.31 L393.18,283.91 L393.04,284.50 L392.89,285.10 L392.72,285.68 L392.53,286.27 L392.33,286.85 L392.12,287.43 L391.90,288.00 L391.66,288.57 L391.40,289.13 L391.13,289.69 L390.85,290.25 L390.56,290.80 L390.25,291.35 L389.94,291.89 L389.60,292.42 L389.26,292.96 L388.91,293.48 L388.54,294.00 L388.16,294.52 L387.77,295.03 L387.37,295.54 L386.96,296.04 L386.54,296.53 L386.11,297.02 L385.67,297.51 L385.23,297.99 L384.77,298.46 L384.31,298.93 L383.84,299.39 L383.36,299.85 L382.87,300.31 L382.38,300.75 L381.88,301.20 L381.37,301.63 L380.86,302.06 L380.35,302.49 L379.83,302.91 L379.31,303.33 L378.78,303.75 L378.25,304.16 L377.72,304.56 L377.18,304.96 L376.64,305.36 L376.10,305.75 L375.56,306.14 L375.02,306.52 L374.48,306.90 L373.94,307.28 L373.40,307.66 L372.86,308.03 L372.32,308.40 L371.79,308.77 L371.25,309.13 L370.72,309.49 L370.19,309.86 L369.66,310.22 L369.14,310.57 L368.62,310.93 L368.11,311.29 L367.60,311.64 L367.09,312.00 L366.59,312.35 L366.10,312.70 L365.61,313.06 L365.13,313.41 L364.65,313.77 L364.18,314.13 L363.72,314.48 L363.26,314.84 L362.81,315.20 L362.37,315.57 L361.93,315.93 L361.50,316.30 L361.08,316.67 L360.67,317.04 L360.27,317.42 L359.87,317.80 L359.48,318.18 L359.10,318.57 L358.73,318.96 L358.37,319.35 L358.02,319.75 L357.67,320.15 L357.34,320.56 L357.01,320.97 L356.69,321.39 L356.37,321.81 L356.07,322.24 L355.78,322.67 L355.49,323.11 L355.21,323.55 L354.94,324.00 L354.68,324.46 L354.42,324.92 L354.18,325.38 L353.94,325.86 L353.70,326.34 L353.48,326.82 L353.26,327.31 L353.05,327.81 L352.84,328.32 L352.64,328.83 L352.45,329.34 L352.27,329.87 L352.08,330.40 L351.91,330.93 L351.74,331.47 L351.57,332.02 L351.41,332.58 L351.25,333.13 L351.10,333.70 L350.95,334.27 L350.80,334.85 L350.66,335.43 L350.52,336.02 L350.38,336.61 L350.25,337.21 L350.11,337.81 L349.98,338.42 L349.85,339.03 L349.72,339.65 L349.59,340.27 L349.46,340.89 L349.32,341.52 L349.19,342.15 L349.06,342.78 L348.93,343.42 L348.79,344.05 L348.65,344.70 L348.51,345.34 L348.37,345.98 L348.23,346.63 L348.08,347.28 L347.92,347.92 L347.77,348.57 L347.61,349.22 L347.44,349.87 L347.27,350.52 L347.10,351.16 L346.92,351.81 L346.73,352.45 L346.54,353.09 L346.34,353.73 L346.14,354.37 L345.93,355.00 L345.71,355.63 L345.48,356.26 L345.25,356.88 L345.01,357.50 L344.76,358.11 L344.51,358.72 L344.25,359.32 L343.97,359.92 L343.69,360.51 L343.41,361.09 L343.11,361.67 L342.80,362.24 L342.49,362.80 L342.16,363.36 L341.83,363.91 L341.49,364.44 L341.14,364.97 L340.78,365.50 L340.41,366.01 L340.03,366.51 L339.65,367.00 L339.25,367.48 L338.84,367.95 L338.43,368.42 L338.00,368.87 L337.57,369.31 L337.13,369.73 L336.67,370.15 L336.21,370.56 L335.74,370.95 L335.27,371.33 L334.78,371.70 L334.28,372.06 L333.78,372.41 L333.27,372.74 L332.75,373.06 L332.22,373.37 L331.68,373.66 L331.14,373.95 L330.59,374.22 L330.03,374.47 L329.47,374.72 L328.89,374.95 L328.32,375.17 L327.73,375.38 L327.14,375.57 L326.54,375.76 L325.94,375.93 L325.33,376.08 L324.72,376.23 L324.10,376.36 L323.47,376.48 L322.85,376.59 L322.21,376.69 L321.58,376.78 L320.94,376.85 L320.29,376.92 L319.65,376.97 L319.00,377.01 L318.34,377.05 L317.69,377.07 L317.03,377.08 L316.37,377.08 L315.71,377.08 L315.05,377.06 L314.38,377.04 L313.72,377.01 L313.05,376.97 L312.39,376.92 L311.72,376.86 L311.05,376.80 L310.39,376.73 L309.72,376.66 L309.06,376.58 L308.39,376.49 L307.73,376.40 L307.07,376.31 L306.41,376.21 L305.75,376.10 L305.09,376.00 L304.44,375.89 L303.79,375.77 L303.14,375.66 L302.49,375.54 L301.84,375.42 L301.20,375.31 L300.56,375.19 L299.93,375.07 L299.29,374.95 L298.66,374.83 L298.04,374.71 L297.41,374.59 L296.80,374.48 L296.18,374.37 L295.57,374.26 L294.96,374.15 L294.36,374.05 L293.76,373.95 L293.16,373.85 L292.57,373.76 L291.98,373.68 L291.39,373.60 L290.81,373.52 L290.23,373.45 L289.66,373.39 L289.09,373.33 L288.53,373.28 L287.96,373.24 L287.41,373.21 L286.85,373.18 L286.30,373.16 L285.75,373.15 L285.21,373.14 L284.67,373.15 L284.13,373.16 L283.59,373.18 L283.06,373.21 L282.53,373.25 L282.01,373.30 L281.48,373.36 L280.96,373.43 L280.44,373.51 L279.93,373.60 L279.41,373.69 L278.90,373.80 L278.39,373.92 L277.88,374.04 L277.37,374.18 L276.86,374.33 L276.36,374.48 L275.85,374.65 L275.35,374.82 L274.85,375.01 L274.35,375.20 L273.84,375.40 L273.34,375.61 L272.84,375.83 L272.34,376.06 L271.84,376.30 L271.34,376.55 L270.83,376.80 L270.33,377.06 L269.82,377.33 L269.32,377.61 L268.81,377.90 L268.30,378.19 L267.79,378.49 L267.28,378.79 L266.77,379.10 L266.26,379.42 L265.74,379.74 L265.22,380.07 L264.70,380.40 L264.18,380.73 L263.65,381.07 L263.12,381.41 L262.59,381.76 L262.06,382.11 L261.52,382.46 L260.98,382.81 L260.44,383.17 L259.90,383.52 L259.35,383.88 L258.80,384.23 L258.24,384.59 L257.69,384.94 L257.13,385.30 L256.57,385.65 L256.00,386.00 L255.43,386.35 L254.86,386.69 L254.28,387.03 L253.71,387.37 L253.13,387.71 L252.54,388.03 L251.96,388.36 L251.37,388.68 L250.77,388.99 L250.18,389.29 L249.58,389.59 L248.98,389.88 L248.38,390.17 L247.78,390.44 L247.17,390.71 L246.56,390.97 L245.95,391.22 L245.34,391.46 L244.73,391.69 L244.11,391.91 L243.49,392.12 L242.87,392.32 L242.25,392.50 L241.63,392.68 L241.01,392.84 L240.39,392.99 L239.77,393.13 L239.15,393.26 L238.52,393.37 L237.90,393.47 L237.28,393.56 L236.66,393.64 L236.04,393.70 L235.41,393.74 L234.79,393.77 L234.18,393.79 L233.56,393.80 L232.94,393.79 L232.33,393.76 L231.72,393.72 L231.11,393.67 L230.50,393.60 L229.89,393.52 L229.29,393.42 L228.69,393.31 L228.09,393.18 L227.50,393.04 L226.90,392.89 L226.32,392.72 L225.73,392.53 L225.15,392.33 L224.57,392.12 L224.00,391.90 L223.43,391.66 L222.87,391.40 L222.31,391.13 L221.75,390.85 L221.20,390.56 L220.65,390.25 L220.11,389.94 L219.58,389.60 L219.04,389.26 L218.52,388.91 L218.00,388.54 L217.48,388.16 L216.97,387.77 L216.46,387.37 L215.96,386.96 L215.47,386.54 L214.98,386.11 L214.49,385.67 L214.01,385.23 L213.54,384.77 L213.07,384.31 L212.61,383.84 L212.15,383.36 L211.69,382.87 L211.25,382.38 L210.80,381.88 L210.37,381.37 L209.94,380.86 L209.51,380.35 L209.09,379.83 L208.67,379.31 L208.25,378.78 L207.84,378.25 L207.44,377.72 L207.04,377.18 L206.64,376.64 L206.25,376.10 L205.86,375.56 L205.48,375.02 L205.10,374.48 L204.72,373.94 L204.34,373.40 L203.97,372.86 L203.60,372.32 L203.23,371.79 L202.87,371.25 L202.51,370.72 L202.14,370.19 L201.78,369.66 L201.43,369.14 L201.07,368.62 L200.71,368.11 L200.36,367.60 L200.00,367.09 L199.65,366.59 L199.30,366.10 L198.94,365.61 L198.59,365.13 L198.23,364.65 L197.87,364.18 L197.52,363.72 L197.16,363.26 L196.80,362.81 L196.43,362.37 L196.07,361.93 L195.70,361.50 L195.33,361.08 L194.96,360.67 L194.58,360.27 L194.20,359.87 L193.82,359.48 L193.43,359.10 L193.04,358.73 L192.65,358.37 L192.25,358.02 L191.85,357.67 L191.44,357.34 L191.03,357.01 L190.61,356.69 L190.19,356.37 L189.76,356.07 L189.33,355.78 L188.89,355.49 L188.45,355.21 L188.00,354.94 L187.54,354.68 L187.08,354.42 L186.62,354.18 L186.14,353.94 L185.66,353.70 L185.18,353.48 L184.69,353.26 L184.19,353.05 L183.68,352.84 L183.17,352.64 L182.66,352.45 L182.13,352.27 L181.60,352.08 L181.07,351.91 L180.53,351.74 L179.98,351.57 L179.42,351.41 L178.87,351.25 L178.30,351.10 L177.73,350.95 L177.15,350.80 L176.57,350.66 L175.98,350.52 L175.39,350.38 L174.79,350.25 L174.19,350.11 L173.58,349.98 L172.97,349.85 L172.35,349.72 L171.73,349.59 L171.11,349.46 L170.48,349.32 L169.85,349.19 L169.22,349.06 L168.58,348.93 L167.95,348.79 L167.30,348.65 L166.66,348.51 L166.02,348.37 L165.37,348.23 L164.72,348.08 L164.08,347.92 L163.43,347.77 L162.78,347.61 L162.13,347.44 L161.48,347.27 L160.84,347.10 L160.19,346.92 L159.55,346.73 L158.91,346.54 L158.27,346.34 L157.63,346.14 L157.00,345.93 L156.37,345.71 L155.74,345.48 L155.12,345.25 L154.50,345.01 L153.89,344.76 L153.28,344.51 L152.68,344.25 L152.08,343.97 L151.49,343.69 L150.91,343.41 L150.33,343.11 L149.76,342.80 L149.20,342.49 L148.64,342.16 L148.09,341.83 L147.56,341.49 L147.03,341.14 L146.50,340.78 L145.99,340.41 L145.49,340.03 L145.00,339.65 L144.52,339.25 L144.05,338.84 L143.58,338.43 L143.13,338.00 L142.69,337.57 L142.27,337.13 L141.85,336.67 L141.44,336.21 L141.05,335.74 L140.67,335.27 L140.30,334.78 L139.94,334.28 L139.59,333.78 L139.26,333.27 L138.94,332.75 L138.63,332.22 L138.34,331.68 L138.05,331.14 L137.78,330.59 L137.53,330.03 L137.28,329.47 L137.05,328.89 L136.83,328.32 L136.62,327.73 L136.43,327.14 L136.24,326.54 L136.07,325.94 L135.92,325.33 L135.77,324.72 L135.64,324.10 L135.52,323.47 L135.41,322.85 L135.31,322.21 L135.22,321.58 L135.15,320.94 L135.08,320.29 L135.03,319.65 L134.99,319.00 L134.95,318.34 L134.93,317.69 L134.92,317.03 L134.92,316.37 L134.92,315.71 L134.94,315.05 L134.96,314.38 L134.99,313.72 L135.03,313.05 L135.08,312.39 L135.14,311.72 L135.20,311.05 L135.27,310.39 L135.34,309.72 L135.42,309.06 L135.51,308.39 L135.60,307.73 L135.69,307.07 L135.79,306.41 L135.90,305.75 L136.00,305.09 L136.11,304.44 L136.23,303.79 L136.34,303.14 L136.46,302.49 L136.58,301.84 L136.69,301.20 L136.81,300.56 L136.93,299.93 L137.05,299.29 L137.17,298.66 L137.29,298.04 L137.41,297.41 L137.52,296.80 L137.63,296.18 L137.74,295.57 L137.85,294.96 L137.95,294.36 L138.05,293.76 L138.15,293.16 L138.24,292.57 L138.32,291.98 L138.40,291.39 L138.48,290.81 L138.55,290.23 L138.61,289.66 L138.67,289.09 L138.72,288.53 L138.76,287.96 L138.79,287.41 L138.82,286.85 L138.84,286.30 L138.85,285.75 L138.86,285.21 L138.85,284.67 L138.84,284.13 L138.82,283.59 L138.79,283.06 L138.75,282.53 L138.70,282.01 L138.64,281.48 L138.57,280.96 L138.49,280.44 L138.40,279.93 L138.31,279.41 L138.20,278.90 L138.08,278.39 L137.96,277.88 L137.82,277.37 L137.67,276.86 L137.52,276.36 L137.35,275.85 L137.18,275.35 L136.99,274.85 L136.80,274.35 L136.60,273.84 L136.39,273.34 L136.17,272.84 L135.94,272.34 L135.70,271.84 L135.45,271.34 L135.20,270.83 L134.94,270.33 L134.67,269.82 L134.39,269.32 L134.10,268.81 L133.81,268.30 L133.51,267.79 L133.21,267.28 L132.90,266.77 L132.58,266.26 L132.26,265.74 L131.93,265.22 L131.60,264.70 L131.27,264.18 L130.93,263.65 L130.59,263.12 L130.24,262.59 L129.89,262.06 L129.54,261.52 L129.19,260.98 L128.83,260.44 L128.48,259.90 L128.12,259.35 L127.77,258.80 L127.41,258.24 L127.06,257.69 L126.70,257.13 L126.35,256.57 L126.00,256.00 L125.65,255.43 L125.31,254.86 L124.97,254.28 L124.63,253.71 L124.29,253.13 L123.97,252.54 L123.64,251.96 L123.32,251.37 L123.01,250.77 L122.71,250.18 L122.41,249.58 L122.12,248.98 L121.83,248.38 L121.56,247.78 L121.29,247.17 L121.03,246.56 L120.78,245.95 L120.54,245.34 L120.31,244.73 L120.09,244.11 L119.88,243.49 L119.68,242.87 L119.50,242.25 L119.32,241.63 L119.16,241.01 L119.01,240.39 L118.87,239.77 L118.74,239.15 L118.63,238.52 L118.53,237.90 L118.44,237.28 L118.36,236.66 L118.30,236.04 L118.26,235.41 L118.23,234.79 L118.21,234.18 L118.20,233.56 L118.21,232.94 L118.24,232.33 L118.28,231.72 L118.33,231.11 L118.40,230.50 L118.48,229.89 L118.58,229.29 L118.69,228.69 L118.82,228.09 L118.96,227.50 L119.11,226.90 L119.28,226.32 L119.47,225.73 L119.67,225.15 L119.88,224.57 L120.10,224.00 L120.34,223.43 L120.60,222.87 L120.87,222.31 L121.15,221.75 L121.44,221.20 L121.75,220.65 L122.06,220.11 L122.40,219.58 L122.74,219.04 L123.09,218.52 L123.46,218.00 L123.84,217.48 L124.23,216.97 L124.63,216.46 L125.04,215.96 L125.46,215.47 L125.89,214.98 L126.33,214.49 L126.77,214.01 L127.23,213.54 L127.69,213.07 L128.16,212.61 L128.64,212.15 L129.13,211.69 L129.62,211.25 L130.12,210.80 L130.63,210.37 L131.14,209.94 L131.65,209.51 L132.17,209.09 L132.69,208.67 L133.22,208.25 L133.75,207.84 L134.28,207.44 L134.82,207.04 L135.36,206.64 L135.90,206.25 L136.44,205.86 L136.98,205.48 L137.52,205.10 L138.06,204.72 L138.60,204.34 L139.14,203.97 L139.68,203.60 L140.21,203.23 L140.75,202.87 L141.28,202.51 L141.81,202.14 L142.34,201.78 L142.86,201.43 L143.38,201.07 L143.89,200.71 L144.40,200.36 L144.91,200.00 L145.41,199.65 L145.90,199.30 L146.39,198.94 L146.87,198.59 L147.35,198.23 L147.82,197.87 L148.28,197.52 L148.74,197.16 L149.19,196.80 L149.63,196.43 L150.07,196.07 L150.50,195.70 L150.92,195.33 L151.33,194.96 L151.73,194.58 L152.13,194.20 L152.52,193.82 L152.90,193.43 L153.27,193.04 L153.63,192.65 L153.98,192.25 L154.33,191.85 L154.66,191.44 L154.99,191.03 L155.31,190.61 L155.63,190.19 L155.93,189.76 L156.22,189.33 L156.51,188.89 L156.79,188.45 L157.06,188.00 L157.32,187.54 L157.58,187.08 L157.82,186.62 L158.06,186.14 L158.30,185.66 L158.52,185.18 L158.74,184.69 L158.95,184.19 L159.16,183.68 L159.36,183.17 L159.55,182.66 L159.73,182.13 L159.92,181.60 L160.09,181.07 L160.26,180.53 L160.43,179.98 L160.59,179.42 L160.75,178.87 L160.90,178.30 L161.05,177.73 L161.20,177.15 L161.34,176.57 L161.48,175.98 L161.62,175.39 L161.75,174.79 L161.89,174.19 L162.02,173.58 L162.15,172.97 L162.28,172.35 L162.41,171.73 L162.54,171.11 L162.68,170.48 L162.81,169.85 L162.94,169.22 L163.07,168.58 L163.21,167.95 L163.35,167.30 L163.49,166.66 L163.63,166.02 L163.77,165.37 L163.92,164.72 L164.08,164.08 L164.23,163.43 L164.39,162.78 L164.56,162.13 L164.73,161.48 L164.90,160.84 L165.08,160.19 L165.27,159.55 L165.46,158.91 L165.66,158.27 L165.86,157.63 L166.07,157.00 L166.29,156.37 L166.52,155.74 L166.75,155.12 L166.99,154.50 L167.24,153.89 L167.49,153.28 L167.75,152.68 L168.03,152.08 L168.31,151.49 L168.59,150.91 L168.89,150.33 L169.20,149.76 L169.51,149.20 L169.84,148.64 L170.17,148.09 L170.51,147.56 L170.86,147.03 L171.22,146.50 L171.59,145.99 L171.97,145.49 L172.35,145.00 L172.75,144.52 L173.16,144.05 L173.57,143.58 L174.00,143.13 L174.43,142.69 L174.87,142.27 L175.33,141.85 L175.79,141.44 L176.26,141.05 L176.73,140.67 L177.22,140.30 L177.72,139.94 L178.22,139.59 L178.73,139.26 L179.25,138.94 L179.78,138.63 L180.32,138.34 L180.86,138.05 L181.41,137.78 L181.97,137.53 L182.53,137.28 L183.11,137.05 L183.68,136.83 L184.27,136.62 L184.86,136.43 L185.46,136.24 L186.06,136.07 L186.67,135.92 L187.28,135.77 L187.90,135.64 L188.53,135.52 L189.15,135.41 L189.79,135.31 L190.42,135.22 L191.06,135.15 L191.71,135.08 L192.35,135.03 L193.00,134.99 L193.66,134.95 L194.31,134.93 L194.97,134.92 L195.63,134.92 L196.29,134.92 L196.95,134.94 L197.62,134.96 L198.28,134.99 L198.95,135.03 L199.61,135.08 L200.28,135.14 L200.95,135.20 L201.61,135.27 L202.28,135.34 L202.94,135.42 L203.61,135.51 L204.27,135.60 L204.93,135.69 L205.59,135.79 L206.25,135.90 L206.91,136.00 L207.56,136.11 L208.21,136.23 L208.86,136.34 L209.51,136.46 L210.16,136.58 L210.80,136.69 L211.44,136.81 L212.07,136.93 L212.71,137.05 L213.34,137.17 L213.96,137.29 L214.59,137.41 L215.20,137.52 L215.82,137.63 L216.43,137.74 L217.04,137.85 L217.64,137.95 L218.24,138.05 L218.84,138.15 L219.43,138.24 L220.02,138.32 L220.61,138.40 L221.19,138.48 L221.77,138.55 L222.34,138.61 L222.91,138.67 L223.47,138.72 L224.04,138.76 L224.59,138.79 L225.15,138.82 L225.70,138.84 L226.25,138.85 L226.79,138.86 L227.33,138.85 L227.87,138.84 L228.41,138.82 L228.94,138.79 L229.47,138.75 L229.99,138.70 L230.52,138.64 L231.04,138.57 L231.56,138.49 L232.07,138.40 L232.59,138.31 L233.10,138.20 L233.61,138.08 L234.12,137.96 L234.63,137.82 L235.14,137.67 L235.64,137.52 L236.15,137.35 L236.65,137.18 L237.15,136.99 L237.65,136.80 L238.16,136.60 L238.66,136.39 L239.16,136.17 L239.66,135.94 L240.16,135.70 L240.66,135.45 L241.17,135.20 L241.67,134.94 L242.18,134.67 L242.68,134.39 L243.19,134.10 L243.70,133.81 L244.21,133.51 L244.72,133.21 L245.23,132.90 L245.74,132.58 L246.26,132.26 L246.78,131.93 L247.30,131.60 L247.82,131.27 L248.35,130.93 L248.88,130.59 L249.41,130.24 L249.94,129.89 L250.48,129.54 L251.02,129.19 L251.56,128.83 L252.10,128.48 L252.65,128.12 L253.20,127.77 L253.76,127.41 L254.31,127.06 L254.87,126.70 L255.43,126.35 L256.00,126.00 L256.57,125.65 L257.14,125.31 L257.72,124.97 L258.29,124.63 L258.87,124.29 L259.46,123.97 L260.04,123.64 L260.63,123.32 L261.23,123.01 L261.82,122.71 L262.42,122.41 L263.02,122.12 L263.62,121.83 L264.22,121.56 L264.83,121.29 L265.44,121.03 L266.05,120.78 L266.66,120.54 L267.27,120.31 L267.89,120.09 L268.51,119.88 L269.13,119.68 L269.75,119.50 L270.37,119.32 L270.99,119.16 L271.61,119.01 L272.23,118.87 L272.85,118.74 L273.48,118.63 L274.10,118.53 L274.72,118.44 L275.34,118.36 L275.96,118.30 L276.59,118.26 L277.21,118.23 L277.82,118.21 L278.44,118.20 L279.06,118.21 L279.67,118.24 L280.28,118.28 L280.89,118.33 L281.50,118.40 L282.11,118.48 L282.71,118.58 L283.31,118.69 L283.91,118.82 L284.50,118.96 L285.10,119.11 L285.68,119.28 L286.27,119.47 L286.85,119.67 L287.43,119.88 L288.00,120.10 L288.57,120.34 L289.13,120.60 L289.69,120.87 L290.25,121.15 L290.80,121.44 L291.35,121.75 L291.89,122.06 L292.42,122.40 L292.96,122.74 L293.48,123.09 L294.00,123.46 L294.52,123.84 L295.03,124.23 L295.54,124.63 L296.04,125.04 L296.53,125.46 L297.02,125.89 L297.51,126.33 L297.99,126.77 L298.46,127.23 L298.93,127.69 L299.39,128.16 L299.85,128.64 L300.31,129.13 L300.75,129.62 L301.20,130.12 L301.63,130.63 L302.06,131.14 L302.49,131.65 L302.91,132.17 L303.33,132.69 L303.75,133.22 L304.16,133.75 L304.56,134.28 L304.96,134.82 L305.36,135.36 L305.75,135.90 L306.14,136.44 L306.52,136.98 L306.90,137.52 L307.28,138.06 L307.66,138.60 L308.03,139.14 L308.40,139.68 L308.77,140.21 L309.13,140.75 L309.49,141.28 L309.86,141.81 L310.22,142.34 L310.57,142.86 L310.93,143.38 L311.29,143.89 L311.64,144.40 L312.00,144.91 L312.35,145.41 L312.70,145.90 L313.06,146.39 L313.41,146.87 L313.77,147.35 L314.13,147.82 L314.48,148.28 L314.84,148.74 L315.20,149.19 L315.57,149.63 L315.93,150.07 L316.30,150.50 L316.67,150.92 L317.04,151.33 L317.42,151.73 L317.80,152.13 L318.18,152.52 L318.57,152.90 L318.96,153.27 L319.35,153.63 L319.75,153.98 L320.15,154.33 L320.56,154.66 L320.97,154.99 L321.39,155.31 L321.81,155.63 L322.24,155.93 L322.67,156.22 L323.11,156.51 L323.55,156.79 L324.00,157.06 L324.46,157.32 L324.92,157.58 L325.38,157.82 L325.86,158.06 L326.34,158.30 L326.82,158.52 L327.31,158.74 L327.81,158.95 L328.32,159.16 L328.83,159.36 L329.34,159.55 L329.87,159.73 L330.40,159.92 L330.93,160.09 L331.47,160.26 L332.02,160.43 L332.58,160.59 L333.13,160.75 L333.70,160.90 L334.27,161.05 L334.85,161.20 L335.43,161.34 L336.02,161.48 L336.61,161.62 L337.21,161.75 L337.81,161.89 L338.42,162.02 L339.03,162.15 L339.65,162.28 L340.27,162.41 L340.89,162.54 L341.52,162.68 L342.15,162.81 L342.78,162.94 L343.42,163.07 L344.05,163.21 L344.70,163.35 L345.34,163.49 L345.98,163.63 L346.63,163.77 L347.28,163.92 L347.92,164.08 L348.57,164.23 L349.22,164.39 L349.87,164.56 L350.52,164.73 L351.16,164.90 L351.81,165.08 L352.45,165.27 L353.09,165.46 L353.73,165.66 L354.37,165.86 L355.00,166.07 L355.63,166.29 L356.26,166.52 L356.88,166.75 L357.50,166.99 L358.11,167.24 L358.72,167.49 L359.32,167.75 L359.92,168.03 L360.51,168.31 L361.09,168.59 L361.67,168.89 L362.24,169.20 L362.80,169.51 L363.36,169.84 L363.91,170.17 L364.44,170.51 L364.97,170.86 L365.50,171.22 L366.01,171.59 L366.51,171.97 L367.00,172.35 L367.48,172.75 L367.95,173.16 L368.42,173.57 L368.87,174.00 L369.31,174.43 L369.73,174.87 L370.15,175.33 L370.56,175.79 L370.95,176.26 L371.33,176.73 L371.70,177.22 L372.06,177.72 L372.41,178.22 L372.74,178.73 L373.06,179.25 L373.37,179.78 L373.66,180.32 L373.95,180.86 L374.22,181.41 L374.47,181.97 L374.72,182.53 L374.95,183.11 L375.17,183.68 L375.38,184.27 L375.57,184.86 L375.76,185.46 L375.93,186.06 L376.08,186.67 L376.23,187.28 L376.36,187.90 L376.48,188.53 L376.59,189.15 L376.69,189.79 L376.78,190.42 L376.85,191.06 L376.92,191.71 L376.97,192.35 L377.01,193.00 L377.05,193.66 L377.07,194.31 L377.08,194.97 L377.08,195.63 L377.08,196.29 L377.06,196.95 L377.04,197.62 L377.01,198.28 L376.97,198.95 L376.92,199.61 L376.86,200.28 L376.80,200.95 L376.73,201.61 L376.66,202.28 L376.58,202.94 L376.49,203.61 L376.40,204.27 L376.31,204.93 L376.21,205.59 L376.10,206.25 L376.00,206.91 L375.89,207.56 L375.77,208.21 L375.66,208.86 L375.54,209.51 L375.42,210.16 L375.31,210.80 L375.19,211.44 L375.07,212.07 L374.95,212.71 L374.83,213.34 L374.71,213.96 L374.59,214.59 L374.48,215.20 L374.37,215.82 L374.26,216.43 L374.15,217.04 L374.05,217.64 L373.95,218.24 L373.85,218.84 L373.76,219.43 L373.68,220.02 L373.60,220.61 L373.52,221.19 L373.45,221.77 L373.39,222.34 L373.33,222.91 L373.28,223.47 L373.24,224.04 L373.21,224.59 L373.18,225.15 L373.16,225.70 L373.15,226.25 L373.14,226.79 L373.15,227.33 L373.16,227.87 L373.18,228.41 L373.21,228.94 L373.25,229.47 L373.30,229.99 L373.36,230.52 L373.43,231.04 L373.51,231.56 L373.60,232.07 L373.69,232.59 L373.80,233.10 L373.92,233.61 L374.04,234.12 L374.18,234.63 L374.33,235.14 L374.48,235.64 L374.65,236.15 L374.82,236.65 L375.01,237.15 L375.20,237.65 L375.40,238.16 L375.61,238.66 L375.83,239.16 L376.06,239.66 L376.30,240.16 L376.55,240.66 L376.80,241.17 L377.06,241.67 L377.33,242.18 L377.61,242.68 L377.90,243.19 L378.19,243.70 L378.49,244.21 L378.79,244.72 L379.10,245.23 L379.42,245.74 L379.74,246.26 L380.07,246.78 L380.40,247.30 L380.73,247.82 L381.07,248.35 L381.41,248.88 L381.76,249.41 L382.11,249.94 L382.46,250.48 L382.81,251.02 L383.17,251.56 L383.52,252.10 L383.88,252.65 L384.23,253.20 L384.59,253.76 L384.94,254.31 L385.30,254.87 L385.65,255.43 L386.00,256.00 Z" fill="#04111c" stroke="none"/>

  <!-- Circular stave — 5 neon-orange rings in background; spikes drawn on top -->
  <circle cx="256" cy="256" r="176" fill="none" stroke="#ff7722" stroke-width="2" opacity="0.65"/>
  <circle cx="256" cy="256" r="188" fill="none" stroke="#ff7722" stroke-width="2" opacity="0.65"/>
  <circle cx="256" cy="256" r="206" fill="none" stroke="#ff7722" stroke-width="2" opacity="0.65"/>
  <circle cx="256" cy="256" r="224" fill="none" stroke="#ff7722" stroke-width="2" opacity="0.65"/>
  <circle cx="256" cy="256" r="236" fill="none" stroke="#ff7722" stroke-width="2" opacity="0.65"/>

  <!-- 8 note-head spikes -->
  <g filter="url(#glow)">
    <use xlink:href="#spike" href="#spike" transform="translate(256,126) rotate(0)"/>
    <use xlink:href="#spike" href="#spike" transform="translate(347.9,164.1) rotate(45)"/>
    <use xlink:href="#spike" href="#spike" transform="translate(386,256) rotate(90)"/>
    <use xlink:href="#spike" href="#spike" transform="translate(347.9,347.9) rotate(135)"/>
    <use xlink:href="#spike" href="#spike" transform="translate(256,386) rotate(180)"/>
    <use xlink:href="#spike" href="#spike" transform="translate(164.1,347.9) rotate(225)"/>
    <use xlink:href="#spike" href="#spike" transform="translate(126,256) rotate(270)"/>
    <use xlink:href="#spike" href="#spike" transform="translate(164.1,164.1) rotate(315)"/>
  </g>

  <!-- Oscillating boundary — outer stroke with glow -->
  <path d="M386.00,256.00 L386.35,256.57 L386.69,257.14 L387.03,257.72 L387.37,258.29 L387.71,258.87 L388.03,259.46 L388.36,260.04 L388.68,260.63 L388.99,261.23 L389.29,261.82 L389.59,262.42 L389.88,263.02 L390.17,263.62 L390.44,264.22 L390.71,264.83 L390.97,265.44 L391.22,266.05 L391.46,266.66 L391.69,267.27 L391.91,267.89 L392.12,268.51 L392.32,269.13 L392.50,269.75 L392.68,270.37 L392.84,270.99 L392.99,271.61 L393.13,272.23 L393.26,272.85 L393.37,273.48 L393.47,274.10 L393.56,274.72 L393.64,275.34 L393.70,275.96 L393.74,276.59 L393.77,277.21 L393.79,277.82 L393.80,278.44 L393.79,279.06 L393.76,279.67 L393.72,280.28 L393.67,280.89 L393.60,281.50 L393.52,282.11 L393.42,282.71 L393.31,283.31 L393.18,283.91 L393.04,284.50 L392.89,285.10 L392.72,285.68 L392.53,286.27 L392.33,286.85 L392.12,287.43 L391.90,288.00 L391.66,288.57 L391.40,289.13 L391.13,289.69 L390.85,290.25 L390.56,290.80 L390.25,291.35 L389.94,291.89 L389.60,292.42 L389.26,292.96 L388.91,293.48 L388.54,294.00 L388.16,294.52 L387.77,295.03 L387.37,295.54 L386.96,296.04 L386.54,296.53 L386.11,297.02 L385.67,297.51 L385.23,297.99 L384.77,298.46 L384.31,298.93 L383.84,299.39 L383.36,299.85 L382.87,300.31 L382.38,300.75 L381.88,301.20 L381.37,301.63 L380.86,302.06 L380.35,302.49 L379.83,302.91 L379.31,303.33 L378.78,303.75 L378.25,304.16 L377.72,304.56 L377.18,304.96 L376.64,305.36 L376.10,305.75 L375.56,306.14 L375.02,306.52 L374.48,306.90 L373.94,307.28 L373.40,307.66 L372.86,308.03 L372.32,308.40 L371.79,308.77 L371.25,309.13 L370.72,309.49 L370.19,309.86 L369.66,310.22 L369.14,310.57 L368.62,310.93 L368.11,311.29 L367.60,311.64 L367.09,312.00 L366.59,312.35 L366.10,312.70 L365.61,313.06 L365.13,313.41 L364.65,313.77 L364.18,314.13 L363.72,314.48 L363.26,314.84 L362.81,315.20 L362.37,315.57 L361.93,315.93 L361.50,316.30 L361.08,316.67 L360.67,317.04 L360.27,317.42 L359.87,317.80 L359.48,318.18 L359.10,318.57 L358.73,318.96 L358.37,319.35 L358.02,319.75 L357.67,320.15 L357.34,320.56 L357.01,320.97 L356.69,321.39 L356.37,321.81 L356.07,322.24 L355.78,322.67 L355.49,323.11 L355.21,323.55 L354.94,324.00 L354.68,324.46 L354.42,324.92 L354.18,325.38 L353.94,325.86 L353.70,326.34 L353.48,326.82 L353.26,327.31 L353.05,327.81 L352.84,328.32 L352.64,328.83 L352.45,329.34 L352.27,329.87 L352.08,330.40 L351.91,330.93 L351.74,331.47 L351.57,332.02 L351.41,332.58 L351.25,333.13 L351.10,333.70 L350.95,334.27 L350.80,334.85 L350.66,335.43 L350.52,336.02 L350.38,336.61 L350.25,337.21 L350.11,337.81 L349.98,338.42 L349.85,339.03 L349.72,339.65 L349.59,340.27 L349.46,340.89 L349.32,341.52 L349.19,342.15 L349.06,342.78 L348.93,343.42 L348.79,344.05 L348.65,344.70 L348.51,345.34 L348.37,345.98 L348.23,346.63 L348.08,347.28 L347.92,347.92 L347.77,348.57 L347.61,349.22 L347.44,349.87 L347.27,350.52 L347.10,351.16 L346.92,351.81 L346.73,352.45 L346.54,353.09 L346.34,353.73 L346.14,354.37 L345.93,355.00 L345.71,355.63 L345.48,356.26 L345.25,356.88 L345.01,357.50 L344.76,358.11 L344.51,358.72 L344.25,359.32 L343.97,359.92 L343.69,360.51 L343.41,361.09 L343.11,361.67 L342.80,362.24 L342.49,362.80 L342.16,363.36 L341.83,363.91 L341.49,364.44 L341.14,364.97 L340.78,365.50 L340.41,366.01 L340.03,366.51 L339.65,367.00 L339.25,367.48 L338.84,367.95 L338.43,368.42 L338.00,368.87 L337.57,369.31 L337.13,369.73 L336.67,370.15 L336.21,370.56 L335.74,370.95 L335.27,371.33 L334.78,371.70 L334.28,372.06 L333.78,372.41 L333.27,372.74 L332.75,373.06 L332.22,373.37 L331.68,373.66 L331.14,373.95 L330.59,374.22 L330.03,374.47 L329.47,374.72 L328.89,374.95 L328.32,375.17 L327.73,375.38 L327.14,375.57 L326.54,375.76 L325.94,375.93 L325.33,376.08 L324.72,376.23 L324.10,376.36 L323.47,376.48 L322.85,376.59 L322.21,376.69 L321.58,376.78 L320.94,376.85 L320.29,376.92 L319.65,376.97 L319.00,377.01 L318.34,377.05 L317.69,377.07 L317.03,377.08 L316.37,377.08 L315.71,377.08 L315.05,377.06 L314.38,377.04 L313.72,377.01 L313.05,376.97 L312.39,376.92 L311.72,376.86 L311.05,376.80 L310.39,376.73 L309.72,376.66 L309.06,376.58 L308.39,376.49 L307.73,376.40 L307.07,376.31 L306.41,376.21 L305.75,376.10 L305.09,376.00 L304.44,375.89 L303.79,375.77 L303.14,375.66 L302.49,375.54 L301.84,375.42 L301.20,375.31 L300.56,375.19 L299.93,375.07 L299.29,374.95 L298.66,374.83 L298.04,374.71 L297.41,374.59 L296.80,374.48 L296.18,374.37 L295.57,374.26 L294.96,374.15 L294.36,374.05 L293.76,373.95 L293.16,373.85 L292.57,373.76 L291.98,373.68 L291.39,373.60 L290.81,373.52 L290.23,373.45 L289.66,373.39 L289.09,373.33 L288.53,373.28 L287.96,373.24 L287.41,373.21 L286.85,373.18 L286.30,373.16 L285.75,373.15 L285.21,373.14 L284.67,373.15 L284.13,373.16 L283.59,373.18 L283.06,373.21 L282.53,373.25 L282.01,373.30 L281.48,373.36 L280.96,373.43 L280.44,373.51 L279.93,373.60 L279.41,373.69 L278.90,373.80 L278.39,373.92 L277.88,374.04 L277.37,374.18 L276.86,374.33 L276.36,374.48 L275.85,374.65 L275.35,374.82 L274.85,375.01 L274.35,375.20 L273.84,375.40 L273.34,375.61 L272.84,375.83 L272.34,376.06 L271.84,376.30 L271.34,376.55 L270.83,376.80 L270.33,377.06 L269.82,377.33 L269.32,377.61 L268.81,377.90 L268.30,378.19 L267.79,378.49 L267.28,378.79 L266.77,379.10 L266.26,379.42 L265.74,379.74 L265.22,380.07 L264.70,380.40 L264.18,380.73 L263.65,381.07 L263.12,381.41 L262.59,381.76 L262.06,382.11 L261.52,382.46 L260.98,382.81 L260.44,383.17 L259.90,383.52 L259.35,383.88 L258.80,384.23 L258.24,384.59 L257.69,384.94 L257.13,385.30 L256.57,385.65 L256.00,386.00 L255.43,386.35 L254.86,386.69 L254.28,387.03 L253.71,387.37 L253.13,387.71 L252.54,388.03 L251.96,388.36 L251.37,388.68 L250.77,388.99 L250.18,389.29 L249.58,389.59 L248.98,389.88 L248.38,390.17 L247.78,390.44 L247.17,390.71 L246.56,390.97 L245.95,391.22 L245.34,391.46 L244.73,391.69 L244.11,391.91 L243.49,392.12 L242.87,392.32 L242.25,392.50 L241.63,392.68 L241.01,392.84 L240.39,392.99 L239.77,393.13 L239.15,393.26 L238.52,393.37 L237.90,393.47 L237.28,393.56 L236.66,393.64 L236.04,393.70 L235.41,393.74 L234.79,393.77 L234.18,393.79 L233.56,393.80 L232.94,393.79 L232.33,393.76 L231.72,393.72 L231.11,393.67 L230.50,393.60 L229.89,393.52 L229.29,393.42 L228.69,393.31 L228.09,393.18 L227.50,393.04 L226.90,392.89 L226.32,392.72 L225.73,392.53 L225.15,392.33 L224.57,392.12 L224.00,391.90 L223.43,391.66 L222.87,391.40 L222.31,391.13 L221.75,390.85 L221.20,390.56 L220.65,390.25 L220.11,389.94 L219.58,389.60 L219.04,389.26 L218.52,388.91 L218.00,388.54 L217.48,388.16 L216.97,387.77 L216.46,387.37 L215.96,386.96 L215.47,386.54 L214.98,386.11 L214.49,385.67 L214.01,385.23 L213.54,384.77 L213.07,384.31 L212.61,383.84 L212.15,383.36 L211.69,382.87 L211.25,382.38 L210.80,381.88 L210.37,381.37 L209.94,380.86 L209.51,380.35 L209.09,379.83 L208.67,379.31 L208.25,378.78 L207.84,378.25 L207.44,377.72 L207.04,377.18 L206.64,376.64 L206.25,376.10 L205.86,375.56 L205.48,375.02 L205.10,374.48 L204.72,373.94 L204.34,373.40 L203.97,372.86 L203.60,372.32 L203.23,371.79 L202.87,371.25 L202.51,370.72 L202.14,370.19 L201.78,369.66 L201.43,369.14 L201.07,368.62 L200.71,368.11 L200.36,367.60 L200.00,367.09 L199.65,366.59 L199.30,366.10 L198.94,365.61 L198.59,365.13 L198.23,364.65 L197.87,364.18 L197.52,363.72 L197.16,363.26 L196.80,362.81 L196.43,362.37 L196.07,361.93 L195.70,361.50 L195.33,361.08 L194.96,360.67 L194.58,360.27 L194.20,359.87 L193.82,359.48 L193.43,359.10 L193.04,358.73 L192.65,358.37 L192.25,358.02 L191.85,357.67 L191.44,357.34 L191.03,357.01 L190.61,356.69 L190.19,356.37 L189.76,356.07 L189.33,355.78 L188.89,355.49 L188.45,355.21 L188.00,354.94 L187.54,354.68 L187.08,354.42 L186.62,354.18 L186.14,353.94 L185.66,353.70 L185.18,353.48 L184.69,353.26 L184.19,353.05 L183.68,352.84 L183.17,352.64 L182.66,352.45 L182.13,352.27 L181.60,352.08 L181.07,351.91 L180.53,351.74 L179.98,351.57 L179.42,351.41 L178.87,351.25 L178.30,351.10 L177.73,350.95 L177.15,350.80 L176.57,350.66 L175.98,350.52 L175.39,350.38 L174.79,350.25 L174.19,350.11 L173.58,349.98 L172.97,349.85 L172.35,349.72 L171.73,349.59 L171.11,349.46 L170.48,349.32 L169.85,349.19 L169.22,349.06 L168.58,348.93 L167.95,348.79 L167.30,348.65 L166.66,348.51 L166.02,348.37 L165.37,348.23 L164.72,348.08 L164.08,347.92 L163.43,347.77 L162.78,347.61 L162.13,347.44 L161.48,347.27 L160.84,347.10 L160.19,346.92 L159.55,346.73 L158.91,346.54 L158.27,346.34 L157.63,346.14 L157.00,345.93 L156.37,345.71 L155.74,345.48 L155.12,345.25 L154.50,345.01 L153.89,344.76 L153.28,344.51 L152.68,344.25 L152.08,343.97 L151.49,343.69 L150.91,343.41 L150.33,343.11 L149.76,342.80 L149.20,342.49 L148.64,342.16 L148.09,341.83 L147.56,341.49 L147.03,341.14 L146.50,340.78 L145.99,340.41 L145.49,340.03 L145.00,339.65 L144.52,339.25 L144.05,338.84 L143.58,338.43 L143.13,338.00 L142.69,337.57 L142.27,337.13 L141.85,336.67 L141.44,336.21 L141.05,335.74 L140.67,335.27 L140.30,334.78 L139.94,334.28 L139.59,333.78 L139.26,333.27 L138.94,332.75 L138.63,332.22 L138.34,331.68 L138.05,331.14 L137.78,330.59 L137.53,330.03 L137.28,329.47 L137.05,328.89 L136.83,328.32 L136.62,327.73 L136.43,327.14 L136.24,326.54 L136.07,325.94 L135.92,325.33 L135.77,324.72 L135.64,324.10 L135.52,323.47 L135.41,322.85 L135.31,322.21 L135.22,321.58 L135.15,320.94 L135.08,320.29 L135.03,319.65 L134.99,319.00 L134.95,318.34 L134.93,317.69 L134.92,317.03 L134.92,316.37 L134.92,315.71 L134.94,315.05 L134.96,314.38 L134.99,313.72 L135.03,313.05 L135.08,312.39 L135.14,311.72 L135.20,311.05 L135.27,310.39 L135.34,309.72 L135.42,309.06 L135.51,308.39 L135.60,307.73 L135.69,307.07 L135.79,306.41 L135.90,305.75 L136.00,305.09 L136.11,304.44 L136.23,303.79 L136.34,303.14 L136.46,302.49 L136.58,301.84 L136.69,301.20 L136.81,300.56 L136.93,299.93 L137.05,299.29 L137.17,298.66 L137.29,298.04 L137.41,297.41 L137.52,296.80 L137.63,296.18 L137.74,295.57 L137.85,294.96 L137.95,294.36 L138.05,293.76 L138.15,293.16 L138.24,292.57 L138.32,291.98 L138.40,291.39 L138.48,290.81 L138.55,290.23 L138.61,289.66 L138.67,289.09 L138.72,288.53 L138.76,287.96 L138.79,287.41 L138.82,286.85 L138.84,286.30 L138.85,285.75 L138.86,285.21 L138.85,284.67 L138.84,284.13 L138.82,283.59 L138.79,283.06 L138.75,282.53 L138.70,282.01 L138.64,281.48 L138.57,280.96 L138.49,280.44 L138.40,279.93 L138.31,279.41 L138.20,278.90 L138.08,278.39 L137.96,277.88 L137.82,277.37 L137.67,276.86 L137.52,276.36 L137.35,275.85 L137.18,275.35 L136.99,274.85 L136.80,274.35 L136.60,273.84 L136.39,273.34 L136.17,272.84 L135.94,272.34 L135.70,271.84 L135.45,271.34 L135.20,270.83 L134.94,270.33 L134.67,269.82 L134.39,269.32 L134.10,268.81 L133.81,268.30 L133.51,267.79 L133.21,267.28 L132.90,266.77 L132.58,266.26 L132.26,265.74 L131.93,265.22 L131.60,264.70 L131.27,264.18 L130.93,263.65 L130.59,263.12 L130.24,262.59 L129.89,262.06 L129.54,261.52 L129.19,260.98 L128.83,260.44 L128.48,259.90 L128.12,259.35 L127.77,258.80 L127.41,258.24 L127.06,257.69 L126.70,257.13 L126.35,256.57 L126.00,256.00 L125.65,255.43 L125.31,254.86 L124.97,254.28 L124.63,253.71 L124.29,253.13 L123.97,252.54 L123.64,251.96 L123.32,251.37 L123.01,250.77 L122.71,250.18 L122.41,249.58 L122.12,248.98 L121.83,248.38 L121.56,247.78 L121.29,247.17 L121.03,246.56 L120.78,245.95 L120.54,245.34 L120.31,244.73 L120.09,244.11 L119.88,243.49 L119.68,242.87 L119.50,242.25 L119.32,241.63 L119.16,241.01 L119.01,240.39 L118.87,239.77 L118.74,239.15 L118.63,238.52 L118.53,237.90 L118.44,237.28 L118.36,236.66 L118.30,236.04 L118.26,235.41 L118.23,234.79 L118.21,234.18 L118.20,233.56 L118.21,232.94 L118.24,232.33 L118.28,231.72 L118.33,231.11 L118.40,230.50 L118.48,229.89 L118.58,229.29 L118.69,228.69 L118.82,228.09 L118.96,227.50 L119.11,226.90 L119.28,226.32 L119.47,225.73 L119.67,225.15 L119.88,224.57 L120.10,224.00 L120.34,223.43 L120.60,222.87 L120.87,222.31 L121.15,221.75 L121.44,221.20 L121.75,220.65 L122.06,220.11 L122.40,219.58 L122.74,219.04 L123.09,218.52 L123.46,218.00 L123.84,217.48 L124.23,216.97 L124.63,216.46 L125.04,215.96 L125.46,215.47 L125.89,214.98 L126.33,214.49 L126.77,214.01 L127.23,213.54 L127.69,213.07 L128.16,212.61 L128.64,212.15 L129.13,211.69 L129.62,211.25 L130.12,210.80 L130.63,210.37 L131.14,209.94 L131.65,209.51 L132.17,209.09 L132.69,208.67 L133.22,208.25 L133.75,207.84 L134.28,207.44 L134.82,207.04 L135.36,206.64 L135.90,206.25 L136.44,205.86 L136.98,205.48 L137.52,205.10 L138.06,204.72 L138.60,204.34 L139.14,203.97 L139.68,203.60 L140.21,203.23 L140.75,202.87 L141.28,202.51 L141.81,202.14 L142.34,201.78 L142.86,201.43 L143.38,201.07 L143.89,200.71 L144.40,200.36 L144.91,200.00 L145.41,199.65 L145.90,199.30 L146.39,198.94 L146.87,198.59 L147.35,198.23 L147.82,197.87 L148.28,197.52 L148.74,197.16 L149.19,196.80 L149.63,196.43 L150.07,196.07 L150.50,195.70 L150.92,195.33 L151.33,194.96 L151.73,194.58 L152.13,194.20 L152.52,193.82 L152.90,193.43 L153.27,193.04 L153.63,192.65 L153.98,192.25 L154.33,191.85 L154.66,191.44 L154.99,191.03 L155.31,190.61 L155.63,190.19 L155.93,189.76 L156.22,189.33 L156.51,188.89 L156.79,188.45 L157.06,188.00 L157.32,187.54 L157.58,187.08 L157.82,186.62 L158.06,186.14 L158.30,185.66 L158.52,185.18 L158.74,184.69 L158.95,184.19 L159.16,183.68 L159.36,183.17 L159.55,182.66 L159.73,182.13 L159.92,181.60 L160.09,181.07 L160.26,180.53 L160.43,179.98 L160.59,179.42 L160.75,178.87 L160.90,178.30 L161.05,177.73 L161.20,177.15 L161.34,176.57 L161.48,175.98 L161.62,175.39 L161.75,174.79 L161.89,174.19 L162.02,173.58 L162.15,172.97 L162.28,172.35 L162.41,171.73 L162.54,171.11 L162.68,170.48 L162.81,169.85 L162.94,169.22 L163.07,168.58 L163.21,167.95 L163.35,167.30 L163.49,166.66 L163.63,166.02 L163.77,165.37 L163.92,164.72 L164.08,164.08 L164.23,163.43 L164.39,162.78 L164.56,162.13 L164.73,161.48 L164.90,160.84 L165.08,160.19 L165.27,159.55 L165.46,158.91 L165.66,158.27 L165.86,157.63 L166.07,157.00 L166.29,156.37 L166.52,155.74 L166.75,155.12 L166.99,154.50 L167.24,153.89 L167.49,153.28 L167.75,152.68 L168.03,152.08 L168.31,151.49 L168.59,150.91 L168.89,150.33 L169.20,149.76 L169.51,149.20 L169.84,148.64 L170.17,148.09 L170.51,147.56 L170.86,147.03 L171.22,146.50 L171.59,145.99 L171.97,145.49 L172.35,145.00 L172.75,144.52 L173.16,144.05 L173.57,143.58 L174.00,143.13 L174.43,142.69 L174.87,142.27 L175.33,141.85 L175.79,141.44 L176.26,141.05 L176.73,140.67 L177.22,140.30 L177.72,139.94 L178.22,139.59 L178.73,139.26 L179.25,138.94 L179.78,138.63 L180.32,138.34 L180.86,138.05 L181.41,137.78 L181.97,137.53 L182.53,137.28 L183.11,137.05 L183.68,136.83 L184.27,136.62 L184.86,136.43 L185.46,136.24 L186.06,136.07 L186.67,135.92 L187.28,135.77 L187.90,135.64 L188.53,135.52 L189.15,135.41 L189.79,135.31 L190.42,135.22 L191.06,135.15 L191.71,135.08 L192.35,135.03 L193.00,134.99 L193.66,134.95 L194.31,134.93 L194.97,134.92 L195.63,134.92 L196.29,134.92 L196.95,134.94 L197.62,134.96 L198.28,134.99 L198.95,135.03 L199.61,135.08 L200.28,135.14 L200.95,135.20 L201.61,135.27 L202.28,135.34 L202.94,135.42 L203.61,135.51 L204.27,135.60 L204.93,135.69 L205.59,135.79 L206.25,135.90 L206.91,136.00 L207.56,136.11 L208.21,136.23 L208.86,136.34 L209.51,136.46 L210.16,136.58 L210.80,136.69 L211.44,136.81 L212.07,136.93 L212.71,137.05 L213.34,137.17 L213.96,137.29 L214.59,137.41 L215.20,137.52 L215.82,137.63 L216.43,137.74 L217.04,137.85 L217.64,137.95 L218.24,138.05 L218.84,138.15 L219.43,138.24 L220.02,138.32 L220.61,138.40 L221.19,138.48 L221.77,138.55 L222.34,138.61 L222.91,138.67 L223.47,138.72 L224.04,138.76 L224.59,138.79 L225.15,138.82 L225.70,138.84 L226.25,138.85 L226.79,138.86 L227.33,138.85 L227.87,138.84 L228.41,138.82 L228.94,138.79 L229.47,138.75 L229.99,138.70 L230.52,138.64 L231.04,138.57 L231.56,138.49 L232.07,138.40 L232.59,138.31 L233.10,138.20 L233.61,138.08 L234.12,137.96 L234.63,137.82 L235.14,137.67 L235.64,137.52 L236.15,137.35 L236.65,137.18 L237.15,136.99 L237.65,136.80 L238.16,136.60 L238.66,136.39 L239.16,136.17 L239.66,135.94 L240.16,135.70 L240.66,135.45 L241.17,135.20 L241.67,134.94 L242.18,134.67 L242.68,134.39 L243.19,134.10 L243.70,133.81 L244.21,133.51 L244.72,133.21 L245.23,132.90 L245.74,132.58 L246.26,132.26 L246.78,131.93 L247.30,131.60 L247.82,131.27 L248.35,130.93 L248.88,130.59 L249.41,130.24 L249.94,129.89 L250.48,129.54 L251.02,129.19 L251.56,128.83 L252.10,128.48 L252.65,128.12 L253.20,127.77 L253.76,127.41 L254.31,127.06 L254.87,126.70 L255.43,126.35 L256.00,126.00 L256.57,125.65 L257.14,125.31 L257.72,124.97 L258.29,124.63 L258.87,124.29 L259.46,123.97 L260.04,123.64 L260.63,123.32 L261.23,123.01 L261.82,122.71 L262.42,122.41 L263.02,122.12 L263.62,121.83 L264.22,121.56 L264.83,121.29 L265.44,121.03 L266.05,120.78 L266.66,120.54 L267.27,120.31 L267.89,120.09 L268.51,119.88 L269.13,119.68 L269.75,119.50 L270.37,119.32 L270.99,119.16 L271.61,119.01 L272.23,118.87 L272.85,118.74 L273.48,118.63 L274.10,118.53 L274.72,118.44 L275.34,118.36 L275.96,118.30 L276.59,118.26 L277.21,118.23 L277.82,118.21 L278.44,118.20 L279.06,118.21 L279.67,118.24 L280.28,118.28 L280.89,118.33 L281.50,118.40 L282.11,118.48 L282.71,118.58 L283.31,118.69 L283.91,118.82 L284.50,118.96 L285.10,119.11 L285.68,119.28 L286.27,119.47 L286.85,119.67 L287.43,119.88 L288.00,120.10 L288.57,120.34 L289.13,120.60 L289.69,120.87 L290.25,121.15 L290.80,121.44 L291.35,121.75 L291.89,122.06 L292.42,122.40 L292.96,122.74 L293.48,123.09 L294.00,123.46 L294.52,123.84 L295.03,124.23 L295.54,124.63 L296.04,125.04 L296.53,125.46 L297.02,125.89 L297.51,126.33 L297.99,126.77 L298.46,127.23 L298.93,127.69 L299.39,128.16 L299.85,128.64 L300.31,129.13 L300.75,129.62 L301.20,130.12 L301.63,130.63 L302.06,131.14 L302.49,131.65 L302.91,132.17 L303.33,132.69 L303.75,133.22 L304.16,133.75 L304.56,134.28 L304.96,134.82 L305.36,135.36 L305.75,135.90 L306.14,136.44 L306.52,136.98 L306.90,137.52 L307.28,138.06 L307.66,138.60 L308.03,139.14 L308.40,139.68 L308.77,140.21 L309.13,140.75 L309.49,141.28 L309.86,141.81 L310.22,142.34 L310.57,142.86 L310.93,143.38 L311.29,143.89 L311.64,144.40 L312.00,144.91 L312.35,145.41 L312.70,145.90 L313.06,146.39 L313.41,146.87 L313.77,147.35 L314.13,147.82 L314.48,148.28 L314.84,148.74 L315.20,149.19 L315.57,149.63 L315.93,150.07 L316.30,150.50 L316.67,150.92 L317.04,151.33 L317.42,151.73 L317.80,152.13 L318.18,152.52 L318.57,152.90 L318.96,153.27 L319.35,153.63 L319.75,153.98 L320.15,154.33 L320.56,154.66 L320.97,154.99 L321.39,155.31 L321.81,155.63 L322.24,155.93 L322.67,156.22 L323.11,156.51 L323.55,156.79 L324.00,157.06 L324.46,157.32 L324.92,157.58 L325.38,157.82 L325.86,158.06 L326.34,158.30 L326.82,158.52 L327.31,158.74 L327.81,158.95 L328.32,159.16 L328.83,159.36 L329.34,159.55 L329.87,159.73 L330.40,159.92 L330.93,160.09 L331.47,160.26 L332.02,160.43 L332.58,160.59 L333.13,160.75 L333.70,160.90 L334.27,161.05 L334.85,161.20 L335.43,161.34 L336.02,161.48 L336.61,161.62 L337.21,161.75 L337.81,161.89 L338.42,162.02 L339.03,162.15 L339.65,162.28 L340.27,162.41 L340.89,162.54 L341.52,162.68 L342.15,162.81 L342.78,162.94 L343.42,163.07 L344.05,163.21 L344.70,163.35 L345.34,163.49 L345.98,163.63 L346.63,163.77 L347.28,163.92 L347.92,164.08 L348.57,164.23 L349.22,164.39 L349.87,164.56 L350.52,164.73 L351.16,164.90 L351.81,165.08 L352.45,165.27 L353.09,165.46 L353.73,165.66 L354.37,165.86 L355.00,166.07 L355.63,166.29 L356.26,166.52 L356.88,166.75 L357.50,166.99 L358.11,167.24 L358.72,167.49 L359.32,167.75 L359.92,168.03 L360.51,168.31 L361.09,168.59 L361.67,168.89 L362.24,169.20 L362.80,169.51 L363.36,169.84 L363.91,170.17 L364.44,170.51 L364.97,170.86 L365.50,171.22 L366.01,171.59 L366.51,171.97 L367.00,172.35 L367.48,172.75 L367.95,173.16 L368.42,173.57 L368.87,174.00 L369.31,174.43 L369.73,174.87 L370.15,175.33 L370.56,175.79 L370.95,176.26 L371.33,176.73 L371.70,177.22 L372.06,177.72 L372.41,178.22 L372.74,178.73 L373.06,179.25 L373.37,179.78 L373.66,180.32 L373.95,180.86 L374.22,181.41 L374.47,181.97 L374.72,182.53 L374.95,183.11 L375.17,183.68 L375.38,184.27 L375.57,184.86 L375.76,185.46 L375.93,186.06 L376.08,186.67 L376.23,187.28 L376.36,187.90 L376.48,188.53 L376.59,189.15 L376.69,189.79 L376.78,190.42 L376.85,191.06 L376.92,191.71 L376.97,192.35 L377.01,193.00 L377.05,193.66 L377.07,194.31 L377.08,194.97 L377.08,195.63 L377.08,196.29 L377.06,196.95 L377.04,197.62 L377.01,198.28 L376.97,198.95 L376.92,199.61 L376.86,200.28 L376.80,200.95 L376.73,201.61 L376.66,202.28 L376.58,202.94 L376.49,203.61 L376.40,204.27 L376.31,204.93 L376.21,205.59 L376.10,206.25 L376.00,206.91 L375.89,207.56 L375.77,208.21 L375.66,208.86 L375.54,209.51 L375.42,210.16 L375.31,210.80 L375.19,211.44 L375.07,212.07 L374.95,212.71 L374.83,213.34 L374.71,213.96 L374.59,214.59 L374.48,215.20 L374.37,215.82 L374.26,216.43 L374.15,217.04 L374.05,217.64 L373.95,218.24 L373.85,218.84 L373.76,219.43 L373.68,220.02 L373.60,220.61 L373.52,221.19 L373.45,221.77 L373.39,222.34 L373.33,222.91 L373.28,223.47 L373.24,224.04 L373.21,224.59 L373.18,225.15 L373.16,225.70 L373.15,226.25 L373.14,226.79 L373.15,227.33 L373.16,227.87 L373.18,228.41 L373.21,228.94 L373.25,229.47 L373.30,229.99 L373.36,230.52 L373.43,231.04 L373.51,231.56 L373.60,232.07 L373.69,232.59 L373.80,233.10 L373.92,233.61 L374.04,234.12 L374.18,234.63 L374.33,235.14 L374.48,235.64 L374.65,236.15 L374.82,236.65 L375.01,237.15 L375.20,237.65 L375.40,238.16 L375.61,238.66 L375.83,239.16 L376.06,239.66 L376.30,240.16 L376.55,240.66 L376.80,241.17 L377.06,241.67 L377.33,242.18 L377.61,242.68 L377.90,243.19 L378.19,243.70 L378.49,244.21 L378.79,244.72 L379.10,245.23 L379.42,245.74 L379.74,246.26 L380.07,246.78 L380.40,247.30 L380.73,247.82 L381.07,248.35 L381.41,248.88 L381.76,249.41 L382.11,249.94 L382.46,250.48 L382.81,251.02 L383.17,251.56 L383.52,252.10 L383.88,252.65 L384.23,253.20 L384.59,253.76 L384.94,254.31 L385.30,254.87 L385.65,255.43 L386.00,256.00 Z" fill="none" stroke="#44aaff" stroke-width="5" filter="url(#glow)"/>

  <!-- Doubled inner arcs (outward-bulge sections → semiquaver visual) -->
  <path d="M374.04,257.55 L374.37,258.07 L374.71,258.59 L375.04,259.12 L375.36,259.65 L375.68,260.18 L376.00,260.71 L376.31,261.25 L376.61,261.79 L376.90,262.34 L377.19,262.88 L377.47,263.43 L377.74,263.98 L378.00,264.53 L378.25,265.09 L378.50,265.64 L378.73,266.20 L378.96,266.76 L379.17,267.32 L379.38,267.88 L379.57,268.44 L379.75,269.01 L379.92,269.57 L380.08,270.14 L380.22,270.70 L380.36,271.27 L380.48,271.84 L380.59,272.40 L380.68,272.97 L380.76,273.53 L380.83,274.10 L380.88,274.66 L380.93,275.23 L380.95,275.79 L380.97,276.35 L380.97,276.91 L380.95,277.47 L380.92,278.03 L380.88,278.58 L380.82,279.13 L380.75,279.68 L380.66,280.23 L380.56,280.78 L380.44,281.32 L380.31,281.86 L380.17,282.39 L380.01,282.93 L379.84,283.45 L379.66,283.98 L379.46,284.50 L379.24,285.02 L379.02,285.53 L378.77,286.04 L378.52,286.55 L378.25,287.05 L377.97,287.54 L377.68,288.04 L377.38,288.52 L377.06,289.01 L376.73,289.48 L376.39,289.95 L376.04,290.42 L375.68,290.88 L375.31,291.34 L374.92,291.79 L374.53,292.24 L374.13,292.68 L373.72,293.12 L373.29,293.55 L372.86,293.97 L372.43,294.39 L371.98,294.81 L371.53,295.22 L371.06,295.62 L370.60,296.02 L370.12,296.41 L369.64,296.80 L369.16,297.19 L368.67,297.57 L368.17,297.94 L367.67,298.31 L367.17,298.67 L366.66,299.03 L366.15,299.39 L365.64,299.74 M338.37,340.56 L338.24,341.16 L338.11,341.77 L337.97,342.38 L337.82,342.98 L337.67,343.58 L337.52,344.18 L337.35,344.78 L337.19,345.38 L337.01,345.97 L336.83,346.56 L336.64,347.14 L336.44,347.72 L336.24,348.30 L336.02,348.87 L335.80,349.44 L335.57,350.00 L335.34,350.55 L335.09,351.10 L334.84,351.64 L334.58,352.17 L334.31,352.70 L334.03,353.22 L333.74,353.73 L333.44,354.24 L333.14,354.73 L332.82,355.22 L332.50,355.69 L332.16,356.16 L331.82,356.62 L331.47,357.07 L331.11,357.50 L330.74,357.93 L330.36,358.35 L329.97,358.76 L329.58,359.15 L329.17,359.54 L328.76,359.91 L328.33,360.27 L327.90,360.62 L327.46,360.96 L327.01,361.28 L326.56,361.60 L326.09,361.90 L325.62,362.19 L325.14,362.47 L324.65,362.73 L324.16,362.98 L323.65,363.22 L323.14,363.45 L322.63,363.67 L322.10,363.87 L321.57,364.06 L321.03,364.24 L320.49,364.40 L319.94,364.55 L319.39,364.70 L318.83,364.82 L318.27,364.94 L317.70,365.05 L317.12,365.14 L316.54,365.22 L315.96,365.29 L315.37,365.35 L314.78,365.40 L314.19,365.44 L313.59,365.47 L312.99,365.48 L312.39,365.49 L311.79,365.48 L311.18,365.47 L310.57,365.45 L309.96,365.42 L309.35,365.38 L308.73,365.33 L308.12,365.27 L307.51,365.21 L306.89,365.14 L306.28,365.06 L305.66,364.97 L305.05,364.88 L304.43,364.78 L303.82,364.68 L303.21,364.57 L302.60,364.46 M254.45,374.04 L253.93,374.37 L253.41,374.71 L252.88,375.04 L252.35,375.36 L251.82,375.68 L251.29,376.00 L250.75,376.31 L250.21,376.61 L249.66,376.90 L249.12,377.19 L248.57,377.47 L248.02,377.74 L247.47,378.00 L246.91,378.25 L246.36,378.50 L245.80,378.73 L245.24,378.96 L244.68,379.17 L244.12,379.38 L243.56,379.57 L242.99,379.75 L242.43,379.92 L241.86,380.08 L241.30,380.22 L240.73,380.36 L240.16,380.48 L239.60,380.59 L239.03,380.68 L238.47,380.76 L237.90,380.83 L237.34,380.88 L236.77,380.93 L236.21,380.95 L235.65,380.97 L235.09,380.97 L234.53,380.95 L233.97,380.92 L233.42,380.88 L232.87,380.82 L232.32,380.75 L231.77,380.66 L231.22,380.56 L230.68,380.44 L230.14,380.31 L229.61,380.17 L229.07,380.01 L228.55,379.84 L228.02,379.66 L227.50,379.46 L226.98,379.24 L226.47,379.02 L225.96,378.77 L225.45,378.52 L224.95,378.25 L224.46,377.97 L223.96,377.68 L223.48,377.38 L222.99,377.06 L222.52,376.73 L222.05,376.39 L221.58,376.04 L221.12,375.68 L220.66,375.31 L220.21,374.92 L219.76,374.53 L219.32,374.13 L218.88,373.72 L218.45,373.29 L218.03,372.86 L217.61,372.43 L217.19,371.98 L216.78,371.53 L216.38,371.06 L215.98,370.60 L215.59,370.12 L215.20,369.64 L214.81,369.16 L214.43,368.67 L214.06,368.17 L213.69,367.67 L213.33,367.17 L212.97,366.66 L212.61,366.15 L212.26,365.64 M171.44,338.37 L170.84,338.24 L170.23,338.11 L169.62,337.97 L169.02,337.82 L168.42,337.67 L167.82,337.52 L167.22,337.35 L166.62,337.19 L166.03,337.01 L165.44,336.83 L164.86,336.64 L164.28,336.44 L163.70,336.24 L163.13,336.02 L162.56,335.80 L162.00,335.57 L161.45,335.34 L160.90,335.09 L160.36,334.84 L159.83,334.58 L159.30,334.31 L158.78,334.03 L158.27,333.74 L157.76,333.44 L157.27,333.14 L156.78,332.82 L156.31,332.50 L155.84,332.16 L155.38,331.82 L154.93,331.47 L154.50,331.11 L154.07,330.74 L153.65,330.36 L153.24,329.97 L152.85,329.58 L152.46,329.17 L152.09,328.76 L151.73,328.33 L151.38,327.90 L151.04,327.46 L150.72,327.01 L150.40,326.56 L150.10,326.09 L149.81,325.62 L149.53,325.14 L149.27,324.65 L149.02,324.16 L148.78,323.65 L148.55,323.14 L148.33,322.63 L148.13,322.10 L147.94,321.57 L147.76,321.03 L147.60,320.49 L147.45,319.94 L147.30,319.39 L147.18,318.83 L147.06,318.27 L146.95,317.70 L146.86,317.12 L146.78,316.54 L146.71,315.96 L146.65,315.37 L146.60,314.78 L146.56,314.19 L146.53,313.59 L146.52,312.99 L146.51,312.39 L146.52,311.79 L146.53,311.18 L146.55,310.57 L146.58,309.96 L146.62,309.35 L146.67,308.73 L146.73,308.12 L146.79,307.51 L146.86,306.89 L146.94,306.28 L147.03,305.66 L147.12,305.05 L147.22,304.43 L147.32,303.82 L147.43,303.21 L147.54,302.60 M137.96,254.45 L137.63,253.93 L137.29,253.41 L136.96,252.88 L136.64,252.35 L136.32,251.82 L136.00,251.29 L135.69,250.75 L135.39,250.21 L135.10,249.66 L134.81,249.12 L134.53,248.57 L134.26,248.02 L134.00,247.47 L133.75,246.91 L133.50,246.36 L133.27,245.80 L133.04,245.24 L132.83,244.68 L132.62,244.12 L132.43,243.56 L132.25,242.99 L132.08,242.43 L131.92,241.86 L131.78,241.30 L131.64,240.73 L131.52,240.16 L131.41,239.60 L131.32,239.03 L131.24,238.47 L131.17,237.90 L131.12,237.34 L131.07,236.77 L131.05,236.21 L131.03,235.65 L131.03,235.09 L131.05,234.53 L131.08,233.97 L131.12,233.42 L131.18,232.87 L131.25,232.32 L131.34,231.77 L131.44,231.22 L131.56,230.68 L131.69,230.14 L131.83,229.61 L131.99,229.07 L132.16,228.55 L132.34,228.02 L132.54,227.50 L132.76,226.98 L132.98,226.47 L133.23,225.96 L133.48,225.45 L133.75,224.95 L134.03,224.46 L134.32,223.96 L134.62,223.48 L134.94,222.99 L135.27,222.52 L135.61,222.05 L135.96,221.58 L136.32,221.12 L136.69,220.66 L137.08,220.21 L137.47,219.76 L137.87,219.32 L138.28,218.88 L138.71,218.45 L139.14,218.03 L139.57,217.61 L140.02,217.19 L140.47,216.78 L140.94,216.38 L141.40,215.98 L141.88,215.59 L142.36,215.20 L142.84,214.81 L143.33,214.43 L143.83,214.06 L144.33,213.69 L144.83,213.33 L145.34,212.97 L145.85,212.61 L146.36,212.26 M173.63,171.44 L173.76,170.84 L173.89,170.23 L174.03,169.62 L174.18,169.02 L174.33,168.42 L174.48,167.82 L174.65,167.22 L174.81,166.62 L174.99,166.03 L175.17,165.44 L175.36,164.86 L175.56,164.28 L175.76,163.70 L175.98,163.13 L176.20,162.56 L176.43,162.00 L176.66,161.45 L176.91,160.90 L177.16,160.36 L177.42,159.83 L177.69,159.30 L177.97,158.78 L178.26,158.27 L178.56,157.76 L178.86,157.27 L179.18,156.78 L179.50,156.31 L179.84,155.84 L180.18,155.38 L180.53,154.93 L180.89,154.50 L181.26,154.07 L181.64,153.65 L182.03,153.24 L182.42,152.85 L182.83,152.46 L183.24,152.09 L183.67,151.73 L184.10,151.38 L184.54,151.04 L184.99,150.72 L185.44,150.40 L185.91,150.10 L186.38,149.81 L186.86,149.53 L187.35,149.27 L187.84,149.02 L188.35,148.78 L188.86,148.55 L189.37,148.33 L189.90,148.13 L190.43,147.94 L190.97,147.76 L191.51,147.60 L192.06,147.45 L192.61,147.30 L193.17,147.18 L193.73,147.06 L194.30,146.95 L194.88,146.86 L195.46,146.78 L196.04,146.71 L196.63,146.65 L197.22,146.60 L197.81,146.56 L198.41,146.53 L199.01,146.52 L199.61,146.51 L200.21,146.52 L200.82,146.53 L201.43,146.55 L202.04,146.58 L202.65,146.62 L203.27,146.67 L203.88,146.73 L204.49,146.79 L205.11,146.86 L205.72,146.94 L206.34,147.03 L206.95,147.12 L207.57,147.22 L208.18,147.32 L208.79,147.43 L209.40,147.54 M257.55,137.96 L258.07,137.63 L258.59,137.29 L259.12,136.96 L259.65,136.64 L260.18,136.32 L260.71,136.00 L261.25,135.69 L261.79,135.39 L262.34,135.10 L262.88,134.81 L263.43,134.53 L263.98,134.26 L264.53,134.00 L265.09,133.75 L265.64,133.50 L266.20,133.27 L266.76,133.04 L267.32,132.83 L267.88,132.62 L268.44,132.43 L269.01,132.25 L269.57,132.08 L270.14,131.92 L270.70,131.78 L271.27,131.64 L271.84,131.52 L272.40,131.41 L272.97,131.32 L273.53,131.24 L274.10,131.17 L274.66,131.12 L275.23,131.07 L275.79,131.05 L276.35,131.03 L276.91,131.03 L277.47,131.05 L278.03,131.08 L278.58,131.12 L279.13,131.18 L279.68,131.25 L280.23,131.34 L280.78,131.44 L281.32,131.56 L281.86,131.69 L282.39,131.83 L282.93,131.99 L283.45,132.16 L283.98,132.34 L284.50,132.54 L285.02,132.76 L285.53,132.98 L286.04,133.23 L286.55,133.48 L287.05,133.75 L287.54,134.03 L288.04,134.32 L288.52,134.62 L289.01,134.94 L289.48,135.27 L289.95,135.61 L290.42,135.96 L290.88,136.32 L291.34,136.69 L291.79,137.08 L292.24,137.47 L292.68,137.87 L293.12,138.28 L293.55,138.71 L293.97,139.14 L294.39,139.57 L294.81,140.02 L295.22,140.47 L295.62,140.94 L296.02,141.40 L296.41,141.88 L296.80,142.36 L297.19,142.84 L297.57,143.33 L297.94,143.83 L298.31,144.33 L298.67,144.83 L299.03,145.34 L299.39,145.85 L299.74,146.36 M340.56,173.63 L341.16,173.76 L341.77,173.89 L342.38,174.03 L342.98,174.18 L343.58,174.33 L344.18,174.48 L344.78,174.65 L345.38,174.81 L345.97,174.99 L346.56,175.17 L347.14,175.36 L347.72,175.56 L348.30,175.76 L348.87,175.98 L349.44,176.20 L350.00,176.43 L350.55,176.66 L351.10,176.91 L351.64,177.16 L352.17,177.42 L352.70,177.69 L353.22,177.97 L353.73,178.26 L354.24,178.56 L354.73,178.86 L355.22,179.18 L355.69,179.50 L356.16,179.84 L356.62,180.18 L357.07,180.53 L357.50,180.89 L357.93,181.26 L358.35,181.64 L358.76,182.03 L359.15,182.42 L359.54,182.83 L359.91,183.24 L360.27,183.67 L360.62,184.10 L360.96,184.54 L361.28,184.99 L361.60,185.44 L361.90,185.91 L362.19,186.38 L362.47,186.86 L362.73,187.35 L362.98,187.84 L363.22,188.35 L363.45,188.86 L363.67,189.37 L363.87,189.90 L364.06,190.43 L364.24,190.97 L364.40,191.51 L364.55,192.06 L364.70,192.61 L364.82,193.17 L364.94,193.73 L365.05,194.30 L365.14,194.88 L365.22,195.46 L365.29,196.04 L365.35,196.63 L365.40,197.22 L365.44,197.81 L365.47,198.41 L365.48,199.01 L365.49,199.61 L365.48,200.21 L365.47,200.82 L365.45,201.43 L365.42,202.04 L365.38,202.65 L365.33,203.27 L365.27,203.88 L365.21,204.49 L365.14,205.11 L365.06,205.72 L364.97,206.34 L364.88,206.95 L364.78,207.57 L364.68,208.18 L364.57,208.79 L364.46,209.40" fill="none" stroke="#44aaff" stroke-width="3.5" opacity="0.88"/>

  <!-- Bass clef -->
  <text x="256" y="295"
        text-anchor="middle"
        font-size="127"
        fill="#44aaff"
        font-family="FreeSerif, serif"
        filter="url(#glow)">𝄢</text>
</svg>